<svg xmlns="http://www.w3.org/2000/svg" xmlns:xlink="http://www.w3.org/1999/xlink" width="150" height="150" viewBox="0 0 150 150">
  <defs>
    <filter id="Elipse_6633" x="0" y="0" width="150" height="150" filterUnits="userSpaceOnUse">
      <feOffset dy="3" input="SourceAlpha"/>
      <feGaussianBlur stdDeviation="3" result="blur"/>
      <feFlood flood-opacity="0.161"/>
      <feComposite operator="in" in2="blur"/>
      <feComposite in="SourceGraphic"/>
    </filter>
  </defs>
  <g id="Grupo_735504" data-name="Grupo 735504" transform="translate(-382.242 -21910.965)">
    <g transform="matrix(1, 0, 0, 1, 382.24, 21910.96)" filter="url(#Elipse_6633)">
      <circle id="Elipse_6633-2" data-name="Elipse 6633" cx="66" cy="66" r="66" transform="translate(9 6)" fill="#becdff"/>
    </g>
    <g id="Grupo_734296" data-name="Grupo 734296" transform="translate(-194.902 -1285.314)">
      <g id="Grupo_729492" data-name="Grupo 729492" transform="translate(597.25 23223.314)">
        <g id="Grupo_735016" data-name="Grupo 735016">
          <path id="Trazado_492861" data-name="Trazado 492861" d="M74.882,6.313a50.524,50.524,0,0,1,10.14,7.876,53.24,53.24,0,0,1,7.9,10.138c2.411,4,5.419,7.719,8.221,11.538a48.643,48.643,0,0,1,6.982,12.167,28.43,28.43,0,0,1,1.659,9.829,26.567,26.567,0,0,1-1.918,9.754,25.083,25.083,0,0,1-5.521,8.281,23.6,23.6,0,0,1-8.322,5.4,32.924,32.924,0,0,1-10.645,1.828c-3.647.113-7.352-.1-10.993-.107C66.291,83,60.2,83.564,54.12,84.034a128.714,128.714,0,0,1-18.246.452A51.155,51.155,0,0,1,18,80.19,30.7,30.7,0,0,1,4.414,68.722C1,63.227-.121,57.035.01,50.738a79.569,79.569,0,0,1,3.1-18.612A56.1,56.1,0,0,1,6.941,21.772a39.827,39.827,0,0,1,6.11-9.115,28.58,28.58,0,0,1,9.8-7.006A65.937,65.937,0,0,1,34.374,2.038,71.689,71.689,0,0,1,49.151.023,55.385,55.385,0,0,1,63.958,1.534a33,33,0,0,1,5.485,1.943,55.6,55.6,0,0,1,5.439,2.836" transform="translate(0 0)" fill="#dce4ff"/>
          <path id="Trazado_492862" data-name="Trazado 492862" d="M133.129,157.852a2.082,2.082,0,0,1-.68,1.748,2.885,2.885,0,0,1-1.978.724H65a3.44,3.44,0,0,1-2.118-.724,2.572,2.572,0,0,1-1.016-1.748l-1.984-20.641L57.9,116.571a2.084,2.084,0,0,1,.68-1.749,2.886,2.886,0,0,1,1.978-.724h65.468a3.44,3.44,0,0,1,2.118.724,2.574,2.574,0,0,1,1.016,1.749l1.984,20.641Z" transform="translate(-47.269 -93.165)" fill="#1d2540"/>
          <path id="Trazado_492863" data-name="Trazado 492863" d="M193.578,428.786l-.5-.693-.5-.693H168.117l.16,1.668.16,1.668.752.858.752.858.216-.817.216-.818,11.26-.04,11.26-.04-.061-.635-.061-.635.452.162.452.162-.048-.5Z" transform="translate(-137.273 -348.987)" fill="#1d2540"/>
          <path id="Trazado_492864" data-name="Trazado 492864" d="M223.843,293.825h-16.3a1.21,1.21,0,0,1-.882-.382,1.287,1.287,0,0,1-.349-.919l.409-15.914.409-15.914a1.325,1.325,0,0,1,.372-.921,1.241,1.241,0,0,1,.892-.383h8.573a1.516,1.516,0,0,1,.968.383,1.661,1.661,0,0,1,.555.921l3.178,15.913,3.178,15.913a1.13,1.13,0,0,1-.187.921,1,1,0,0,1-.815.383" transform="translate(-168.459 -211.803)" fill="#1d2540"/>
          <path id="Trazado_492865" data-name="Trazado 492865" d="M236.371,293.825h-16.3a1.21,1.21,0,0,1-.882-.382,1.287,1.287,0,0,1-.349-.919l.409-15.914.409-15.914a1.324,1.324,0,0,1,.372-.921,1.241,1.241,0,0,1,.892-.383h8.573a1.516,1.516,0,0,1,.968.383,1.661,1.661,0,0,1,.555.921l3.178,15.913,3.178,15.913a1.13,1.13,0,0,1-.187.921,1,1,0,0,1-.815.383" transform="translate(-178.689 -211.803)" fill="#56618c"/>
          <path id="Trazado_492866" data-name="Trazado 492866" d="M145.59,157.852a2.082,2.082,0,0,1-.68,1.748,2.885,2.885,0,0,1-1.978.724H77.463a3.44,3.44,0,0,1-2.118-.724,2.572,2.572,0,0,1-1.016-1.748l-1.984-20.641-1.984-20.641a2.084,2.084,0,0,1,.68-1.749,2.886,2.886,0,0,1,1.978-.724h65.468a3.44,3.44,0,0,1,2.118.724,2.574,2.574,0,0,1,1.016,1.749l1.984,20.641Z" transform="translate(-57.444 -93.165)" fill="#6678c0"/>
          <path id="Trazado_492867" data-name="Trazado 492867" d="M210.306,436.447H176.283l.163,1.7.163,1.7h34.024l-.163-1.7Z" transform="translate(-143.941 -356.374)" fill="#333d6a"/>
          <path id="Trazado_492868" data-name="Trazado 492868" d="M154.771,164.992a1.887,1.887,0,0,1-.636,1.6,2.717,2.717,0,0,1-1.841.661H91.4a3.232,3.232,0,0,1-1.969-.661,2.335,2.335,0,0,1-.943-1.6l-1.812-18.849L84.86,127.3a1.888,1.888,0,0,1,.636-1.6,2.718,2.718,0,0,1,1.842-.661h60.9a3.233,3.233,0,0,1,1.969.661,2.335,2.335,0,0,1,.942,1.6l1.812,18.849Z" transform="translate(-69.284 -102.097)" fill="#c4d2ff"/>
          <path id="Trazado_492869" data-name="Trazado 492869" d="M152.081,167.082h-60.9a3.285,3.285,0,0,1-2-.676,2.389,2.389,0,0,1-.961-1.63l-1.812-18.849-1.812-18.849a1.931,1.931,0,0,1,.648-1.63,2.759,2.759,0,0,1,1.874-.676h60.9a3.284,3.284,0,0,1,2,.676,2.389,2.389,0,0,1,.961,1.63l1.812,18.849,1.812,18.849a1.931,1.931,0,0,1-.647,1.63,2.76,2.76,0,0,1-1.873.676M87.124,124.869a2.675,2.675,0,0,0-1.807.648,1.845,1.845,0,0,0-.626,1.561L86.5,145.927l1.812,18.849a2.282,2.282,0,0,0,.926,1.561,3.181,3.181,0,0,0,1.932.648h60.9a2.675,2.675,0,0,0,1.807-.648,1.844,1.844,0,0,0,.625-1.561l-1.812-18.849-1.812-18.849a2.284,2.284,0,0,0-.926-1.561,3.181,3.181,0,0,0-1.932-.648h-60.9Z" transform="translate(-69.066 -101.881)" fill="#c4d2ff"/>
          <path id="Trazado_492870" data-name="Trazado 492870" d="M395.126,213.69l.52-.011c.315-.006.74-.014,1.182-.019a11.215,11.215,0,0,0,1.9-.151,3.727,3.727,0,0,0,1.7-.715,4.581,4.581,0,0,0,1.25-2.428,20.183,20.183,0,0,0,.437-2.837c.114-1.152.292-3.013.449-4.961s.295-3.984.328-5.484.068-2.885.095-3.9.045-1.645.045-1.645a2.137,2.137,0,0,1,2.131-2.131h16.889v19.6a5.338,5.338,0,0,1-5.338,5.338h-11.5a20.6,20.6,0,0,1-1.938,1.549,9.769,9.769,0,0,1-3.847,1.811l-1.765-.409-1.765-.409c-.586,0-.779-.507-.825-1.161s.055-1.454.055-2.04" transform="translate(-322.58 -154.662)" fill="#6676be"/>
          <path id="Trazado_492871" data-name="Trazado 492871" d="M398.875,217.289l-1.787-.414-1.751-.406c-.843-.011-.91-.961-.932-1.274a10.44,10.44,0,0,1,.023-1.3c.016-.272.031-.529.031-.753v-.119l.12,0,.52-.011c.315-.006.741-.014,1.183-.019a11.191,11.191,0,0,0,1.881-.149,3.563,3.563,0,0,0,1.644-.689,4.4,4.4,0,0,0,1.209-2.362,19.933,19.933,0,0,0,.434-2.819c.12-1.208.295-3.05.449-4.959.189-2.332.3-4.175.328-5.477.034-1.556.071-2.977.095-3.9.027-1.011.045-1.646.045-1.646a2.259,2.259,0,0,1,2.253-2.249H421.63v19.721a5.461,5.461,0,0,1-5.461,5.461H404.713a21.389,21.389,0,0,1-1.915,1.526,9.516,9.516,0,0,1-3.9,1.832Zm-4.173-4.023c0,.2-.017.419-.03.648a10.251,10.251,0,0,0-.023,1.264c.065.928.41,1.047.7,1.047l.027,0,3.507.813a9.485,9.485,0,0,0,3.771-1.786,20.746,20.746,0,0,0,1.925-1.538l.035-.033h11.551a5.216,5.216,0,0,0,5.216-5.216V188.991H404.618A2.015,2.015,0,0,0,402.61,191s-.018.639-.045,1.649c-.024.918-.06,2.34-.095,3.9-.029,1.307-.139,3.155-.328,5.492-.155,1.911-.33,3.754-.45,4.963a20.126,20.126,0,0,1-.44,2.854,4.559,4.559,0,0,1-1.291,2.493,3.8,3.8,0,0,1-1.754.741,11.388,11.388,0,0,1-1.923.153c-.441.006-.866.013-1.181.019l-.4.008" transform="translate(-322.036 -154.118)" fill="#6676be"/>
          <path id="Trazado_492872" data-name="Trazado 492872" d="M392.3,325.6v-4.225H373.542a2.112,2.112,0,0,0,0,4.225H392.3Z" transform="translate(-303.286 -262.416)" fill="#c4d2ff"/>
          <path id="Trazado_492873" data-name="Trazado 492873" d="M391.875,325.18H373a2.235,2.235,0,0,1,0-4.469h18.877ZM373,320.956a1.99,1.99,0,0,0,0,3.98H391.63v-3.98Z" transform="translate(-302.741 -261.872)" fill="#6676be"/>
          <path id="Trazado_492874" data-name="Trazado 492874" d="M466.911,213.345h2.509l.628-.012.859-.013a11.215,11.215,0,0,0,1.9-.151,3.727,3.727,0,0,0,1.7-.715,4.579,4.579,0,0,0,1.25-2.428,20.15,20.15,0,0,0,.437-2.837c.114-1.152.262-2.9.4-4.744s.257-3.778.318-5.3c.06-1.5.11-2.985.146-4.1s.056-1.847.056-1.847a2.137,2.137,0,0,1,2.131-2.131h.048a2.137,2.137,0,0,1,2.131,2.131s-.112,2.333-.233,4.86-.249,5.245-.282,6.017-.1,1.821-.215,3.023-.28,2.555-.508,3.934c-.2,1.239-.361,2.1-.562,2.841a9.224,9.224,0,0,1-.836,2.059,6.492,6.492,0,0,1-1.976,2.124,7.564,7.564,0,0,1-3.3,1.309l-.984.087-.984.087c-.1.009-.206.016-.309.02s-.206.007-.31.007h-4.007a2.112,2.112,0,0,1,0-4.225" transform="translate(-379.525 -154.383)" fill="#97aaef"/>
          <path id="Trazado_492875" data-name="Trazado 492875" d="M470.373,217.147h-4.007a2.235,2.235,0,0,1,0-4.469h2.509l.626-.012.859-.013a11.15,11.15,0,0,0,1.881-.149,3.561,3.561,0,0,0,1.644-.689,4.4,4.4,0,0,0,1.209-2.362,19.931,19.931,0,0,0,.434-2.819c.119-1.207.268-2.979.4-4.741.106-1.449.247-3.543.318-5.3.063-1.561.114-3.088.146-4.095.035-1.111.056-1.847.056-1.847a2.259,2.259,0,0,1,2.253-2.25h.047A2.26,2.26,0,0,1,481,190.657c0,.006-.112,2.339-.233,4.865-.109,2.3-.247,5.2-.282,6.016-.028.645-.087,1.694-.216,3.029-.132,1.369-.3,2.7-.509,3.942a28.979,28.979,0,0,1-.565,2.853,9.41,9.41,0,0,1-.846,2.085,6.6,6.6,0,0,1-2.013,2.166,7.7,7.7,0,0,1-3.357,1.331l-1.974.175q-.157.014-.314.021t-.315.007m-4.007-4.225a1.99,1.99,0,0,0,0,3.98h4.007q.152,0,.3-.007t.3-.02l1.968-.174a7.446,7.446,0,0,0,3.244-1.288,6.357,6.357,0,0,0,1.939-2.082,9.061,9.061,0,0,0,.825-2.033,28.781,28.781,0,0,0,.559-2.828c.205-1.241.376-2.562.507-3.925.128-1.33.188-2.374.215-3.016.035-.812.172-3.72.282-6.017.12-2.527.233-4.86.233-4.86a2.016,2.016,0,0,0-2.009-2H478.7a2.015,2.015,0,0,0-2.009,2.009s-.02.74-.056,1.851c-.032,1.007-.083,2.536-.146,4.1-.07,1.756-.212,3.853-.318,5.3-.129,1.764-.278,3.538-.4,4.747a20.133,20.133,0,0,1-.44,2.854A4.559,4.559,0,0,1,474.04,212a3.794,3.794,0,0,1-1.754.741,11.385,11.385,0,0,1-1.923.153l-.858.013-.627.012Z" transform="translate(-378.98 -153.839)" fill="#6676be"/>
          <path id="Trazado_492876" data-name="Trazado 492876" d="M425.4,345.851h9.066a1.1,1.1,0,0,0,1.1-1.1V344.4H424.3v.351a1.1,1.1,0,0,0,1.1,1.1" transform="translate(-346.459 -281.218)" fill="#1d263f"/>
          <path id="Trazado_492877" data-name="Trazado 492877" d="M446.855,361.45H449.9v-9.158h-3.044v9.158Z" transform="translate(-364.873 -287.659)" fill="#c4d2ff"/>
          <path id="Trazado_492878" data-name="Trazado 492878" d="M449.478,361.028h-3.289v-9.4h3.289Zm-3.044-.245h2.8V351.87h-2.8Z" transform="translate(-364.329 -287.114)" fill="#6676be"/>
          <path id="Trazado_492879" data-name="Trazado 492879" d="M464.738,404.984a.593.593,0,0,0,.476-.944,5.4,5.4,0,0,0-2.543-1.665,20.4,20.4,0,0,0-4.652-.994c-1.369-.157-2.661-.225-3.625-.253s-1.6-.017-1.648-.016a.593.593,0,0,0,.011,1.185h.011c.012,0,.629-.011,1.575.017s2.222.094,3.553.246a20.273,20.273,0,0,1,4.155.852,4.578,4.578,0,0,1,2.209,1.331.587.587,0,0,0,.214.179.6.6,0,0,0,.263.062" transform="translate(-369.209 -327.519)" fill="#6676be"/>
          <path id="Trazado_492880" data-name="Trazado 492880" d="M464.193,404.561a.716.716,0,0,1-.576-.291,4.447,4.447,0,0,0-2.15-1.288,20.1,20.1,0,0,0-4.129-.846c-1.371-.157-2.683-.221-3.542-.245-.949-.028-1.563-.017-1.57-.017h-.014a.715.715,0,0,1-.013-1.43c.006,0,.654-.013,1.654.016,1.27.038,2.493.123,3.635.254a20.578,20.578,0,0,1,4.68,1,5.53,5.53,0,0,1,2.6,1.707.715.715,0,0,1-.575,1.139m-11.632-2.935c.277,0,.707,0,1.242.019.864.025,2.183.089,3.563.247a20.345,20.345,0,0,1,4.18.858,4.669,4.669,0,0,1,2.268,1.375.46.46,0,0,0,.17.142.469.469,0,0,0,.488-.043.47.47,0,0,0,.1-.658,5.3,5.3,0,0,0-2.487-1.623,20.368,20.368,0,0,0-4.623-.987c-1.136-.13-2.352-.215-3.615-.252-.994-.029-1.636-.016-1.642-.016a.47.47,0,0,0,.009.94c.007,0,.13,0,.349,0" transform="translate(-368.664 -326.974)" fill="#6676be"/>
          <path id="Trazado_492881" data-name="Trazado 492881" d="M457.033,406.709a.588.588,0,0,0,.162-.023.592.592,0,0,0,.408-.732,6.974,6.974,0,0,0-1.977-3.3,5.016,5.016,0,0,0-1.369-.925.593.593,0,0,0-.447,1.1,2.708,2.708,0,0,1,.32.173,4.653,4.653,0,0,1,.729.56,5.4,5.4,0,0,1,.966,1.209,6.383,6.383,0,0,1,.637,1.51.593.593,0,0,0,.57.431" transform="translate(-370.252 -327.99)" fill="#6676be"/>
          <path id="Trazado_492882" data-name="Trazado 492882" d="M456.487,406.285a.718.718,0,0,1-.427-.142.706.706,0,0,1-.261-.378,6.292,6.292,0,0,0-.625-1.481,5.3,5.3,0,0,0-.944-1.182,4.539,4.539,0,0,0-.709-.545,2.557,2.557,0,0,0-.3-.165.715.715,0,0,1,.541-1.324,5.084,5.084,0,0,1,1.405.948,7.178,7.178,0,0,1,2.012,3.358.715.715,0,0,1-.493.883.721.721,0,0,1-.1.021.692.692,0,0,1-.1.007m-3-5.024a.47.47,0,0,0-.179.906,2.767,2.767,0,0,1,.338.182,4.784,4.784,0,0,1,.748.575,5.541,5.541,0,0,1,.988,1.237,6.524,6.524,0,0,1,.649,1.538.471.471,0,0,0,.516.338.462.462,0,0,0,.065-.014.47.47,0,0,0,.324-.581A6.838,6.838,0,0,0,455,402.2a4.9,4.9,0,0,0-1.332-.9.469.469,0,0,0-.177-.035" transform="translate(-369.707 -327.444)" fill="#6676be"/>
          <path id="Trazado_492883" data-name="Trazado 492883" d="M511.921,422.411a1.756,1.756,0,1,0,.514-1.242,1.751,1.751,0,0,0-.514,1.242" transform="translate(-418.002 -343.48)" fill="#1d263f"/>
          <path id="Trazado_492884" data-name="Trazado 492884" d="M514.2,419.152a2.114,2.114,0,0,0-4.228,0H514.2Z" transform="translate(-416.409 -340.526)" fill="#4d5b8c"/>
          <path id="Trazado_492885" data-name="Trazado 492885" d="M463.554,430.71a1.756,1.756,0,1,0,.514-1.242,1.751,1.751,0,0,0-.514,1.242" transform="translate(-378.508 -350.256)" fill="#1d263f"/>
          <path id="Trazado_492886" data-name="Trazado 492886" d="M465.831,427.452a2.114,2.114,0,1,0-4.228,0h4.228Z" transform="translate(-376.915 -347.304)" fill="#4d5b8c"/>
          <path id="Trazado_492887" data-name="Trazado 492887" d="M379.625,404.984a.594.594,0,0,0,.263-.062.587.587,0,0,0,.214-.179,4.578,4.578,0,0,1,2.209-1.331,20.268,20.268,0,0,1,4.154-.852c1.33-.153,2.606-.219,3.553-.246s1.563-.017,1.575-.017h.011a.593.593,0,0,0,.011-1.185c-.051,0-.685-.012-1.648.016s-2.256.1-3.625.253a20.4,20.4,0,0,0-4.652.994,5.4,5.4,0,0,0-2.543,1.665.592.592,0,0,0,.476.944" transform="translate(-309.493 -327.519)" fill="#6676be"/>
          <path id="Trazado_492888" data-name="Trazado 492888" d="M379.079,404.561a.715.715,0,0,1-.575-1.139,5.531,5.531,0,0,1,2.6-1.707,20.586,20.586,0,0,1,4.68-1c1.425-.163,2.764-.228,3.635-.254,1-.03,1.648-.016,1.655-.016a.715.715,0,0,1-.014,1.43h-.013c-.006,0-.62-.011-1.57.017-1.233.036-2.458.121-3.542.245a20.1,20.1,0,0,0-4.129.846,4.45,4.45,0,0,0-2.15,1.288.713.713,0,0,1-.576.291m11.59-3.876c-.287,0-.715,0-1.243.019-.867.026-2.2.09-3.615.252a20.372,20.372,0,0,0-4.623.987,5.3,5.3,0,0,0-2.487,1.623.471.471,0,0,0,.234.727.474.474,0,0,0,.354-.026.465.465,0,0,0,.17-.142,4.666,4.666,0,0,1,2.268-1.375,20.34,20.34,0,0,1,4.18-.858c1.091-.125,2.323-.211,3.563-.247.955-.028,1.575-.017,1.581-.017h0a.473.473,0,0,0,.338-.134.47.47,0,0,0-.32-.806s-.146,0-.4,0" transform="translate(-308.948 -326.974)" fill="#6676be"/>
          <path id="Trazado_492889" data-name="Trazado 492889" d="M427.305,406.708a.593.593,0,0,0,.57-.431,6.389,6.389,0,0,1,.637-1.51,5.4,5.4,0,0,1,.967-1.209,4.634,4.634,0,0,1,.734-.563,2.67,2.67,0,0,1,.315-.17.592.592,0,0,0,.007-1.094.594.594,0,0,0-.454,0,5.01,5.01,0,0,0-1.369.925,6.973,6.973,0,0,0-1.977,3.3.593.593,0,0,0,.408.732.588.588,0,0,0,.162.023" transform="translate(-348.426 -327.989)" fill="#6676be"/>
          <path id="Trazado_492890" data-name="Trazado 492890" d="M426.76,406.285a.708.708,0,0,1-.1-.007.732.732,0,0,1-.1-.02.715.715,0,0,1-.493-.883,7.176,7.176,0,0,1,2.012-3.358,5.1,5.1,0,0,1,1.406-.948.715.715,0,1,1,.539,1.325,2.545,2.545,0,0,0-.3.161,4.547,4.547,0,0,0-.715.548,5.3,5.3,0,0,0-.945,1.182,6.3,6.3,0,0,0-.625,1.481.708.708,0,0,1-.261.378.719.719,0,0,1-.427.142m3-5.024a.468.468,0,0,0-.177.035,4.909,4.909,0,0,0-1.332.9,6.837,6.837,0,0,0-1.942,3.245.47.47,0,0,0,.324.581.454.454,0,0,0,.064.013.471.471,0,0,0,.516-.338,6.527,6.527,0,0,1,.649-1.538,5.541,5.541,0,0,1,.988-1.237,4.778,4.778,0,0,1,.754-.578,2.624,2.624,0,0,1,.333-.179.465.465,0,0,0,.255-.251.471.471,0,0,0-.434-.654" transform="translate(-347.88 -327.443)" fill="#6676be"/>
          <path id="Trazado_492891" data-name="Trazado 492891" d="M423.074,430.852a1.756,1.756,0,1,1-.514-1.242,1.75,1.75,0,0,1,.514,1.242" transform="translate(-342.587 -350.372)" fill="#1d263f"/>
          <path id="Trazado_492892" data-name="Trazado 492892" d="M417.613,427.594a2.114,2.114,0,1,1,4.228,0h-4.228Z" transform="translate(-340.996 -347.42)" fill="#4d5b8c"/>
          <path id="Trazado_492893" data-name="Trazado 492893" d="M440.19,401.6h4.591a.605.605,0,0,0,.605-.605V400.6a.605.605,0,0,0-.605-.605H440.19a.605.605,0,0,0-.605.605v.388a.605.605,0,0,0,.605.605" transform="translate(-358.937 -326.613)" fill="#1d263f"/>
          <path id="Trazado_492894" data-name="Trazado 492894" d="M373.207,422.411a1.756,1.756,0,1,0,.514-1.242,1.751,1.751,0,0,0-.514,1.242" transform="translate(-304.737 -343.48)" fill="#1d263f"/>
          <path id="Trazado_492895" data-name="Trazado 492895" d="M375.485,419.152a2.114,2.114,0,0,0-4.228,0h4.228Z" transform="translate(-303.145 -340.526)" fill="#4d5b8c"/>
          <path id="Trazado_492896" data-name="Trazado 492896" d="M440.011,151.15a5.2,5.2,0,0,0,.018,1.477c.07.445.193.887.336,1.457s.321,1.128.516,1.682.406,1.1.618,1.65c-.67.9-1.323,1.82-1.976,2.735s-1.306,1.83-1.976,2.735l-.037-.061-.036-.061a7.06,7.06,0,0,1-.8-2.576c-.14-.917-.215-1.86-.41-2.732.083-.045.115-.067.133-.1a1.109,1.109,0,0,0,.042-.17,1.368,1.368,0,0,0,.036-.28c0-.094,0-.19,0-.284q-.041-1.17-.081-2.34t-.081-2.341a24.208,24.208,0,0,0,2.392-.46c.746-.175,1.313-.329,1.313-.329" transform="translate(-356.223 -123.419)" fill="#ffa188"/>
          <path id="Trazado_492897" data-name="Trazado 492897" d="M440.471,154.757a3.646,3.646,0,0,1-.259.605,3.767,3.767,0,0,1-.362.55,4.453,4.453,0,0,1-1.022.931,5.692,5.692,0,0,1-1.245.62q-.174.062-.354.116c-.12.036-.241.069-.364.1q-.01-.277-.019-.553t-.019-.553c.251-.041.5-.091.746-.152a7.456,7.456,0,0,0,.717-.215,5.7,5.7,0,0,0,1.19-.583,4.519,4.519,0,0,0,.993-.864" transform="translate(-356.683 -126.365)" fill="#ed836e"/>
          <path id="Trazado_492898" data-name="Trazado 492898" d="M344.789,204.342l-1.924,1.942-1.924,1.942c-1.192-.819-2.41-1.656-3.671-2.393a18.784,18.784,0,0,0-3.927-1.792,4.5,4.5,0,0,1-.25.736,3.929,3.929,0,0,1-.379.67,11.565,11.565,0,0,0,1.219,1.648,19.367,19.367,0,0,0,1.43,1.452q.469.434.965.834t1.013.767c.536.38,1.012.759,1.474,1.139s.911.759,1.392,1.138a1.384,1.384,0,0,0,.612.278,1.356,1.356,0,0,0,.664-.046c.255-.083.513-.18.76-.288a6.586,6.586,0,0,0,.693-.347l3.217-1.88,3.217-1.88c-.022-.029-.045-.064-.068-.1s-.045-.07-.068-.1l-2.223-1.862Z" transform="translate(-271.674 -166.607)" fill="#ffa188"/>
          <path id="Trazado_492899" data-name="Trazado 492899" d="M390.555,184.162a7.883,7.883,0,0,0,.968.542,6.664,6.664,0,0,0,.975.372q-.035.393-.059.788t-.036.791a34.1,34.1,0,0,0,.213,4.873,48.413,48.413,0,0,0,.8,4.808c.05.231.076.479.108.725a3.648,3.648,0,0,0,.149.712,26.59,26.59,0,0,0,4.137.715,24.835,24.835,0,0,0,4.075.032q1.061-.078,2.13-.245t2.158-.42l.214-.05.215-.053.043-.01.043-.011q.017-.169.032-.338c.01-.113.021-.226.03-.34,0-.025,0-.05.007-.074s0-.05.006-.075q.087-1.01.145-2.023t.089-2.026c0-.009,0-.017,0-.026s0-.017,0-.026c0-.029,0-.059,0-.088s0-.059,0-.089c0-.065,0-.131.005-.2s0-.131,0-.2c0-.009,0-.018,0-.027s0-.017,0-.026c0-.066,0-.132,0-.2s0-.132,0-.2c0-.035,0-.071,0-.106s0-.07,0-.106q0-.11,0-.219t0-.218c0-.083,0-.167,0-.25s0-.166,0-.25q0-1.589-.068-3.176t-.206-3.169q-.016-.19-.034-.381t-.036-.381a2.171,2.171,0,0,1,.2-1.131,3.281,3.281,0,0,1,.68-.94,5.118,5.118,0,0,1,.483-.418c.169-.13.344-.251.523-.366.128-.083.329.144.5.351s.311.392.317.223a5.307,5.307,0,0,0-.52-1.74,8.492,8.492,0,0,0-.858-1.6,6.9,6.9,0,0,0-.853-.871,7.626,7.626,0,0,0-.987-.717,10.988,10.988,0,0,0-1.887-.9c-.654-.245-1.326-.445-2-.625-.152-.041-.309-.075-.463-.117a2.27,2.27,0,0,1-.447-.165c-.091-.047-.173-.1-.258-.156a1.157,1.157,0,0,0-.271-.132,1.1,1.1,0,0,0-.742.089,5.95,5.95,0,0,1-.734.294,5.39,5.39,0,0,1-2.429.039,3.405,3.405,0,0,1-.543-.188,2.54,2.54,0,0,0-.537-.173,1.523,1.523,0,0,0-.636.084c-.224.067-.447.154-.627.2s-.352.1-.528.154-.35.11-.523.169q-.432.146-.856.316t-.837.368l-.156.076-.155.078-.117.06-.115.062a13.994,13.994,0,0,0-2.8,2.724c-.952,1.119-1.725,2.141-1.725,2.141s.521.585,1.252,1.308a17.89,17.89,0,0,0,2.51,2.131" transform="translate(-315.83 -142.233)" fill="#ead6c5"/>
          <path id="Trazado_492900" data-name="Trazado 492900" d="M466.045,222.894q1.061-.078,2.13-.245t2.158-.42l.215-.05.215-.052c.034-.108.064-.214.089-.327a3.256,3.256,0,0,0,.06-.369h0c0-.017,0-.033.005-.05s0-.034,0-.051l0-.024,0-.024c.052-.674.1-1.348.141-2.023s.073-1.35.094-2.027c0-.009,0-.017,0-.026s0-.017,0-.026,0-.023,0-.034,0-.023,0-.035,0-.036,0-.054,0-.036,0-.054l.005-.2c0-.066,0-.131,0-.2,0-.009,0-.018,0-.027v-.027q0-.1,0-.2c0-.066,0-.132,0-.2l0-.106c0-.035,0-.071,0-.106q0-.109,0-.218t0-.219c0-.083,0-.167,0-.25s0-.166,0-.25q0-1.589-.068-3.176t-.206-3.169a4.594,4.594,0,0,1-1.771-1.083c-.585-.519-1.175-1.157-1.8-1.795-.3-.3-.7-.656-1.075-.975s-.719-.6-.9-.769c.117.6.239,1.473.4,2.391a17.5,17.5,0,0,0,.639,2.657,12.075,12.075,0,0,0,.894,1.7c.384.645.782,1.284.978,1.654a12.648,12.648,0,0,0,1.2,1.691,4.877,4.877,0,0,1,.951,1.8,3.826,3.826,0,0,1-.16,2.074,7.3,7.3,0,0,1-.948,1.864,9.386,9.386,0,0,1-1.356,1.521,17.231,17.231,0,0,1-1.583,1.268l-.167.12-.168.119" transform="translate(-379.99 -166.607)" fill="#c6aa95"/>
          <path id="Trazado_492901" data-name="Trazado 492901" d="M427.59,118.933a3.491,3.491,0,0,1-.121,1.528,4.134,4.134,0,0,1-.719,1.369,4.966,4.966,0,0,1-1.14,1.038,6.338,6.338,0,0,1-1.388.691,8.614,8.614,0,0,1-.981.282c-.336.076-.679.136-1.021.181a1.427,1.427,0,0,1-1.515-.893c-.232-.592-.475-1.192-.679-1.8a9.337,9.337,0,0,1-.441-1.87,5.77,5.77,0,0,1,.006-1.417,4.75,4.75,0,0,1,.382-1.357,4.118,4.118,0,0,1,.61-.96,3.729,3.729,0,0,1,.858-.744c.053-.033.141-.1.232-.149a.374.374,0,0,1,.249-.07.559.559,0,0,1,.209.19c.07.089.136.186.182.236q.213.231.436.452t.454.433a16.218,16.218,0,0,0,2.076,1.612,15.82,15.82,0,0,0,2.311,1.252" transform="translate(-342.574 -93.699)" fill="#ffa188"/>
          <path id="Trazado_492902" data-name="Trazado 492902" d="M423.272,107.95c-.384.174-.831.3-1.256.455a2.95,2.95,0,0,0-1.12.648,4.04,4.04,0,0,0-.336.4,3.412,3.412,0,0,0-.4.682,7.1,7.1,0,0,0-.341,1.054c-.074.3-.111.515-.111.515s-.029-.135-.062-.3-.069-.356-.083-.471q-.042-.34-.06-.683t-.013-.685a7.092,7.092,0,0,1,.663-2.974,4.913,4.913,0,0,1,2.058-2.2,5.331,5.331,0,0,1,1.936-.378,4.435,4.435,0,0,1,3.642,1.779,3.346,3.346,0,0,1,.352.539,5.556,5.556,0,0,1,.267.586,4.965,4.965,0,0,1,.345,1.753,4.888,4.888,0,0,1-.3,1.761,5.626,5.626,0,0,1-.246.566,5.74,5.74,0,0,1-.306.536.538.538,0,0,1-.146.181.333.333,0,0,1-.226.006,1.986,1.986,0,0,1-.257-.066c-.085-.027-.169-.059-.25-.09a4.289,4.289,0,0,1-.955-.528,5.508,5.508,0,0,1-.814-.73,8.711,8.711,0,0,1-.9-1.192c-.271-.42-.518-.858-.764-1.293l-.157.064-.155.068" transform="translate(-342.529 -84.928)" fill="#643a24"/>
          <path id="Trazado_492903" data-name="Trazado 492903" d="M452.569,101.518a1.315,1.315,0,0,1-2.163.552,1.584,1.584,0,0,1-.422-.79,3.1,3.1,0,0,1-.058-.929,7.614,7.614,0,0,1,.565-2.251c.288-.727.645-1.436.976-2.143a12.785,12.785,0,0,0,.837-2.207,5.375,5.375,0,0,0,.133-2.3,4.255,4.255,0,0,0-6.591-2.729,3.683,3.683,0,0,0-.889.868,2.853,2.853,0,0,0-.495,1.124.688.688,0,0,0,0,.2c.007.066.019.132.028.2a2.729,2.729,0,0,1,4.1,1.827,3.8,3.8,0,0,1,0,1.224c-.058.409-.156.818-.238,1.222a16.5,16.5,0,0,0-.168,5.553,7.207,7.207,0,0,0,.236,1.127,3.331,3.331,0,0,0,.5,1.019,2.233,2.233,0,0,0,.9.71,1.6,1.6,0,0,0,1.1.082,1.634,1.634,0,0,0,.617-.363,2.325,2.325,0,0,0,.45-.571,6.423,6.423,0,0,0,.338-.7,6.135,6.135,0,0,0,.254-.732" transform="translate(-362.911 -71.834)" fill="#643a24"/>
          <path id="Trazado_492904" data-name="Trazado 492904" d="M395.828,386.779q.018.624-.013,1.247t-.114,1.242a10.471,10.471,0,0,1-.224,1.086,9.306,9.306,0,0,0-.216,1.08,1.172,1.172,0,0,0,.7-.393,7.421,7.421,0,0,0,1.079-1.338c.155-.246.3-.5.431-.756.167-.319.317-.69.491-1.045a3.313,3.313,0,0,1,.635-.946c.1-.1.2-.185.288-.279a1.864,1.864,0,0,0,.248-.317c.027-.044.182-.294.327-.536a3.326,3.326,0,0,0,.268-.487,5.941,5.941,0,0,1-1.891-4.385c-.148.088-.285.174-.427.247a2.038,2.038,0,0,1-.456.177l-.416.1-.417.1c-.16.037-.365.056-.566.088a1.476,1.476,0,0,0-.536.164c-.08.05-.11.081-.113.124a.656.656,0,0,0,.055.188c.031.091.062.182.093.273s.06.183.089.275q.165.53.29,1.071t.211,1.089q.075.48.12.964t.059.97" transform="translate(-322.459 -311.061)" fill="#ffa188"/>
          <path id="Trazado_492905" data-name="Trazado 492905" d="M405.057,403.9l.368.151.368.151a.289.289,0,0,1,.147.4c-.279.55-.577,1.083-.9,1.6s-.666,1.023-1.041,1.518c-.24.317-.5.641-.776.951a10.263,10.263,0,0,1-.861.872,11.109,11.109,0,0,1-.978.809,2.634,2.634,0,0,1-1.122.494,2.717,2.717,0,0,0,.788-.856c.229-.347.435-.718.658-1l1.463-1.877,1.464-1.877c.075-.1.151-.194.22-.3a1.852,1.852,0,0,0,.178-.32,1.056,1.056,0,0,0,.082-.36.843.843,0,0,0-.06-.36" transform="translate(-326.83 -329.795)" fill="#2d3969"/>
          <path id="Trazado_492906" data-name="Trazado 492906" d="M396.4,399.779c.284.155.5.271.76.407s.557.293,1,.53a1.843,1.843,0,0,1-.259.911c-.157.294-.357.577-.523.841-.376.6-.74,1.159-1.138,1.715s-.828,1.109-1.335,1.693a8.435,8.435,0,0,1-.979.979,4,4,0,0,1-1.174.7,1.908,1.908,0,0,1-.4.1,1.233,1.233,0,0,1-.411-.012.933.933,0,0,1-.376-.171.729.729,0,0,1-.244-.324.764.764,0,0,1,.015-.533,1.217,1.217,0,0,1,.316-.46,2.484,2.484,0,0,1,.453-.317c.161-.092.328-.177.486-.273a3.872,3.872,0,0,0,1.221-1.167l1.293-2.307Z" transform="translate(-319.498 -326.434)" fill="#1d263f"/>
          <path id="Trazado_492907" data-name="Trazado 492907" d="M367.9,301.315a39.26,39.26,0,0,1,3.063,7.432,46.7,46.7,0,0,1,1.618,7.891,4.687,4.687,0,0,0,2.019-.292,5.1,5.1,0,0,0,1.73-1.1,31.731,31.731,0,0,0-4.441-18.011,6.793,6.793,0,0,1-2.255,2.866,14,14,0,0,1-1.734,1.212" transform="translate(-300.403 -242.705)" fill="#2d3969"/>
          <path id="Trazado_492908" data-name="Trazado 492908" d="M373.447,311.457q.3.637.568,1.283t.521,1.3a11.6,11.6,0,0,0,2.334-1.79,11.41,11.41,0,0,0,1.806-2.32q-.241-.611-.508-1.212t-.559-1.189q-.511-.077-1.021-.166t-1.017-.189a7.243,7.243,0,0,1-.755,1.8c-.445.905-.937,1.842-1.034,1.986l-.175.256c-.056.082-.11.163-.16.243" transform="translate(-304.933 -250.819)" fill="#1d263f"/>
          <path id="Trazado_492909" data-name="Trazado 492909" d="M280.878,378.69q-.55.295-1.122.545t-1.163.452a10.468,10.468,0,0,1-1.072.283,9.356,9.356,0,0,0-1.063.288,1.172,1.172,0,0,0,.667.455,7.425,7.425,0,0,0,1.679.37c.289.029.58.043.869.049.361.007.759-.024,1.154-.027a3.317,3.317,0,0,1,1.13.147c.133.048.254.095.379.133a1.856,1.856,0,0,0,.394.081c.051,0,.344.031.626.053a3.3,3.3,0,0,0,.555.022,5.94,5.94,0,0,1,3.081-3.648c-.145-.093-.282-.178-.412-.272a2.023,2.023,0,0,1-.361-.329q-.138-.164-.275-.328l-.273-.33c-.1-.127-.213-.3-.331-.467a1.474,1.474,0,0,0-.386-.406c-.08-.049-.122-.062-.161-.046a.647.647,0,0,0-.144.133l-.2.2c-.068.068-.136.135-.206.2q-.4.383-.829.737t-.881.674q-.4.282-.81.537t-.842.486" transform="translate(-225.738 -306.78)" fill="#ffa188"/>
          <path id="Trazado_492910" data-name="Trazado 492910" d="M283.063,406.424l.029.4.029.4a.289.289,0,0,1-.292.31c-.617,0-1.227-.033-1.834-.089s-1.213-.14-1.823-.255c-.39-.074-.8-.162-1.2-.27a10.269,10.269,0,0,1-1.165-.382,11.109,11.109,0,0,1-1.16-.514,2.631,2.631,0,0,1-.943-.784,2.713,2.713,0,0,0,1.118.323c.412.05.837.069,1.191.141l2.332.473,2.333.473c.12.024.241.049.362.065a1.853,1.853,0,0,0,.366.017,1.048,1.048,0,0,0,.358-.087.842.842,0,0,0,.3-.214" transform="translate(-224.308 -330.886)" fill="#2d3969"/>
          <path id="Trazado_492911" data-name="Trazado 492911" d="M280.428,396.812c-.012.323-.018.569-.025.861s-.014.629-.027,1.136a1.842,1.842,0,0,1-.931.175c-.334-.009-.676-.063-.985-.093-.7-.069-1.367-.146-2.042-.253s-1.361-.247-2.111-.44a8.448,8.448,0,0,1-1.313-.44,4,4,0,0,1-1.146-.74,1.913,1.913,0,0,1-.27-.315,1.24,1.24,0,0,1-.172-.373.934.934,0,0,1-.014-.413.729.729,0,0,1,.181-.363.765.765,0,0,1,.484-.224,1.215,1.215,0,0,1,.553.077,2.474,2.474,0,0,1,.486.263c.154.1.3.214.461.314a3.878,3.878,0,0,0,1.589.572l2.642.129Z" transform="translate(-221.587 -322.795)" fill="#1d263f"/>
          <path id="Trazado_492912" data-name="Trazado 492912" d="M340.713,275.621a60.553,60.553,0,0,1-16.72-.419,17.291,17.291,0,0,0-1.714-.23,4.763,4.763,0,0,0-1.689.158,4.651,4.651,0,0,0-1.751,1.043,14.337,14.337,0,0,0-1.419,1.543,86.714,86.714,0,0,0-6.368,8.544,42.446,42.446,0,0,0-4.631,9.505,11.01,11.01,0,0,0,1.692.642,10.35,10.35,0,0,0,1.774.354q.65-.411,1.267-.871t1.2-.963a21.413,21.413,0,0,0,2.726-2.845,21.867,21.867,0,0,0,2.166-3.291c.143-.268.285-.535.412-.809a6,6,0,0,0,.324-.845,2.587,2.587,0,0,1,.327-.7c.135-.209.294-.406.468-.632.106-.138.651-1.045,1.147-1.923a7.237,7.237,0,0,0,.857-1.751,47.409,47.409,0,0,0,17.6,1.149,8.535,8.535,0,0,0,1.5-.292,3.13,3.13,0,0,0,1.29-.732,2.082,2.082,0,0,0,.644-1.358,5.621,5.621,0,0,0-.147-1.51c-.124-.652-.228-1.285-.37-1.909a10.063,10.063,0,0,0-.59-1.856" transform="translate(-250.204 -224.512)" fill="#2d3969"/>
          <path id="Trazado_492913" data-name="Trazado 492913" d="M174.235,271.929,172.76,288.25l-1.476,16.321h1.954l2.037-16.321,2.037-16.321h-3.076Z" transform="translate(-139.859 -222.04)" fill="#dee8fe"/>
          <path id="Trazado_492914" data-name="Trazado 492914" d="M172.75,304.148h-2.2l2.973-32.886h3.326Zm-1.928-.245h1.712l4.043-32.4h-2.826Z" transform="translate(-139.263 -221.495)" fill="#6d8ad0"/>
          <path id="Trazado_492915" data-name="Trazado 492915" d="M435.68,220.192a14.2,14.2,0,0,1-1.75,7.215,12.426,12.426,0,0,1-.991,1.612,3.109,3.109,0,0,1-1.419,1.1,3.523,3.523,0,0,1-1.936.071,5.346,5.346,0,0,1-1.817-.814c-.545-.374-1.044-.716-1.551-1.091s-1.021-.784-1.6-1.292c-1.046-.921-1.768-1.632-2.512-2.363s-1.509-1.482-2.639-2.482a3.431,3.431,0,0,1,.43-1.625,3.842,3.842,0,0,1,1-1.005,34.624,34.624,0,0,0,4.176,3.494,22.29,22.29,0,0,0,4.713,2.561c.059-1,.153-2,.262-3.012s.233-2.023.354-3.041a4.372,4.372,0,0,0,.949.85,3.527,3.527,0,0,0,1.205.386,4.168,4.168,0,0,0,1.6-.02,6.207,6.207,0,0,0,1.525-.546" transform="translate(-342.509 -179.246)" fill="#ffa188"/>
          <path id="Trazado_492916" data-name="Trazado 492916" d="M479.53,193.931a16.755,16.755,0,0,1,1.083,2.36,17.187,17.187,0,0,1,.715,2.522,1.353,1.353,0,0,1,.034.338.474.474,0,0,1-.114.3.482.482,0,0,1-.176.118,1.393,1.393,0,0,1-.2.062,26.245,26.245,0,0,1-2.826.493c-.977.121-1.958.2-2.845.237a6.46,6.46,0,0,1-.546-1.594,9.969,9.969,0,0,1-.2-1.706" transform="translate(-387.404 -158.352)" fill="#ead6c5"/>
          <path id="Trazado_492917" data-name="Trazado 492917" d="M278.927,118.782,278.686,116l-.241-2.787h-5.033v-.04H260.83a5.706,5.706,0,0,0-5.706,5.706v22.8h12.583a5.706,5.706,0,0,0,5.706-5.706V120.093l2.757-.656Z" transform="translate(-208.318 -92.406)" fill="#fff"/>
          <path id="Trazado_492918" data-name="Trazado 492918" d="M240.979,211.977v5.845h15.772a5.705,5.705,0,0,1-5.706-5.706v-.14a5.707,5.707,0,0,0-4.055-5.462,3.391,3.391,0,0,0-1.957,0,5.707,5.707,0,0,0-4.054,5.462" transform="translate(-196.768 -168.508)" fill="#7a91e6"/>
          <path id="Trazado_492919" data-name="Trazado 492919" d="M159.585,205.829v-.04H147a5.7,5.7,0,0,0-5.705,5.705h0v39.242h18.288V211.494a5.7,5.7,0,0,1,5.033-5.666h-5.033Z" transform="translate(-115.374 -168.034)" fill="#fff"/>
          <path id="Trazado_492920" data-name="Trazado 492920" d="M339.481,119.052v22.8H323.709a5.705,5.705,0,0,0,5.706-5.705V119.052a5.039,5.039,0,1,1,10.066,0" transform="translate(-264.32 -92.584)" fill="#7a91e6"/>
          <path id="Trazado_492921" data-name="Trazado 492921" d="M277.826,122.943a.184.184,0,0,1-.183-.178.2.2,0,0,0-.044-.11.374.374,0,0,0-.123-.1.78.78,0,0,0-.181-.064c-.057-.014-.115-.024-.173-.034l-.052-.009a5.839,5.839,0,0,1-1.79-.644.417.417,0,0,0-.076.021c-.038.014-.075.031-.112.048l-.038.017a.769.769,0,0,1-.05.185.815.815,0,0,1-.355.4.941.941,0,0,1-.5.107,1.187,1.187,0,0,1-.478-.131,1.507,1.507,0,0,1-.292-.2.6.6,0,0,1-.036.067.794.794,0,0,1-.248.244,1.242,1.242,0,0,1-.292.134,1.542,1.542,0,0,1-.737.049,1.153,1.153,0,0,1-.658-.355.983.983,0,0,1-.232-.746.812.812,0,0,1,.415-.659.183.183,0,1,1,.172.324.453.453,0,0,0-.221.371.611.611,0,0,0,.14.464.791.791,0,0,0,.452.239,1.165,1.165,0,0,0,.558-.038.873.873,0,0,0,.206-.093.432.432,0,0,0,.136-.131.264.264,0,0,0,.038-.153.2.2,0,0,0-.012-.058l-.061-.08a.184.184,0,0,1,.267-.248.491.491,0,0,1,.106.131,2.063,2.063,0,0,0,.176.194,1.237,1.237,0,0,0,.293.215.82.82,0,0,0,.329.091.571.571,0,0,0,.3-.063.435.435,0,0,0,.176-.185.462.462,0,0,1-.117-.032.4.4,0,0,1-.222-.261.329.329,0,0,1,.107-.356.337.337,0,0,1,.37-.023.5.5,0,0,1,.211.216c.027-.012.054-.023.081-.033a.678.678,0,0,1,.25-.045.184.184,0,0,1,.085.024,5.485,5.485,0,0,0,1.722.629l.05.009c.065.012.13.023.194.039a1.141,1.141,0,0,1,.265.1.737.737,0,0,1,.245.2.638.638,0,0,1,.055.086c.062-.025.121-.051.177-.08a.92.92,0,0,0,.272-.2.509.509,0,0,0,.113-.222.292.292,0,0,1-.172-.138.306.306,0,0,1,.24-.445.183.183,0,0,1,.15.059.6.6,0,0,1,.129.225.182.182,0,0,1,.022.093.727.727,0,0,1,0,.2.873.873,0,0,1-.212.475,1.277,1.277,0,0,1-.378.281,3.487,3.487,0,0,1-.4.167.181.181,0,0,1-.063.011" transform="translate(-221.421 -98.775)" fill="#7a91e6"/>
          <path id="Trazado_492922" data-name="Trazado 492922" d="M318.013,125.067a.776.776,0,0,1-.454-.142.816.816,0,0,1-.173-1.112.183.183,0,0,1,.3.218.425.425,0,0,0,.688.5.73.73,0,0,1-.189-.253.591.591,0,0,1,.043-.6.183.183,0,0,1,.253-.042.793.793,0,0,1,.318.516.824.824,0,0,1,.012.174.517.517,0,0,0,.224-.054.674.674,0,0,0,.263-.239l.018-.028a1.269,1.269,0,0,1,.14-.194.392.392,0,0,1,.348-.14.4.4,0,0,1,.232.122,1.035,1.035,0,0,1,.1.117l.017.022a1.013,1.013,0,0,0,1.681-.121.183.183,0,0,1,.154-.094.18.18,0,0,1,.16.084.919.919,0,0,0,1.05.352.183.183,0,1,1,.127.344,1.252,1.252,0,0,1-.827,0,1.287,1.287,0,0,1-.492-.3,1.4,1.4,0,0,1-.316.274,1.38,1.38,0,0,1-1.829-.322l-.018-.024a.75.75,0,0,0-.064-.077.089.089,0,0,0-.024-.019.231.231,0,0,0-.03.027.959.959,0,0,0-.1.138l-.019.03a1.046,1.046,0,0,1-.408.37.818.818,0,0,1-.487.085c-.012.02-.024.04-.038.059a.794.794,0,0,1-.519.313.847.847,0,0,1-.137.011" transform="translate(-259.037 -100.924)" fill="#7a91e6"/>
          <path id="Trazado_492923" data-name="Trazado 492923" d="M262.258,141.459a.482.482,0,0,1-.1-.011.6.6,0,0,1-.266-.136,1.054,1.054,0,0,1-.174-.194,2.041,2.041,0,0,1-.335-.76,1.968,1.968,0,0,1-.478.213,1.947,1.947,0,0,1-.805.064.711.711,0,0,1-.114.149.94.94,0,0,1-.313.2,1.03,1.03,0,0,1-.495.07.748.748,0,0,1-.469-.223.632.632,0,0,1-.153-.536.527.527,0,0,1,.358-.437.183.183,0,1,1,.107.351c-.077.023-.1.118-.1.146a.271.271,0,0,0,.058.224.4.4,0,0,0,.244.111.659.659,0,0,0,.316-.046.577.577,0,0,0,.19-.123l0,0a.643.643,0,0,1-.069-.047.54.54,0,0,1-.16-.2.447.447,0,0,1-.032-.279.183.183,0,0,1,.133-.139.438.438,0,0,1,.438.146.546.546,0,0,1,.132.273,1.592,1.592,0,0,0,1.232-.387.183.183,0,0,1,.306.129q0,.053.008.105l.011,0a1.256,1.256,0,0,1,.372-.008,1.006,1.006,0,0,1,.235.061.183.183,0,0,1,.307.118.5.5,0,0,1,0,.092.769.769,0,0,1,.109.154.669.669,0,0,1,.078.417.606.606,0,0,1-.229.384.557.557,0,0,1-.341.121m-.275-.6.032.047a.69.69,0,0,0,.113.128.238.238,0,0,0,.1.056.177.177,0,0,0,.142-.041.242.242,0,0,0,.091-.148.294.294,0,0,0-.021-.153.525.525,0,0,1-.342.127.49.49,0,0,1-.12-.016m.029-.387a.157.157,0,0,0,.094.037.248.248,0,0,0,.05-.01.676.676,0,0,0-.105-.023l-.038,0" transform="translate(-211.112 -114.186)" fill="#7a91e6"/>
          <path id="Trazado_492924" data-name="Trazado 492924" d="M295.07,141.631a.65.65,0,0,1-.207-.034.575.575,0,0,1-.328-.266c-.008-.014-.015-.029-.021-.044l-.008,0a.466.466,0,0,1-.242-.762.183.183,0,1,1,.273.245.1.1,0,0,0-.022.062.115.115,0,0,0,0,.037.484.484,0,0,1,.315-.287.183.183,0,0,1,.225.127.467.467,0,0,1-.025.314.474.474,0,0,1-.139.18.245.245,0,0,0,.084.047.281.281,0,0,0,.177,0,.36.36,0,0,0,.156-.114.481.481,0,0,0,.1-.193.183.183,0,0,1,.211-.138,3.461,3.461,0,0,0,.512.052,3.512,3.512,0,0,0,.514-.023.183.183,0,0,1,.205.193l-.006.093a.181.181,0,0,1-.194.172.183.183,0,0,1-.138-.077,3.856,3.856,0,0,1-.391.009,3.954,3.954,0,0,1-.412-.034.85.85,0,0,1-.112.178.72.72,0,0,1-.32.227.621.621,0,0,1-.205.034" transform="translate(-240.182 -114.693)" fill="#7a91e6"/>
          <path id="Trazado_492925" data-name="Trazado 492925" d="M326.163,139.683h-.04a.5.5,0,0,1-.37-.222.468.468,0,0,1-.061-.129l-1.1.176c-.079.012-.15.023-.225.028a.723.723,0,0,1-.312.081.7.7,0,0,1-.5-.183.708.708,0,0,1-.01-.983.183.183,0,1,1,.259.259.321.321,0,0,0-.086.23v.006a.183.183,0,0,1,.132-.079.786.786,0,0,1,.681.279h0l1.334-.213a.183.183,0,0,1,.179.287.075.075,0,0,0,.015.036.137.137,0,0,0,.091.06.307.307,0,0,0,.162-.042,1.075,1.075,0,0,0,.191-.141l.036-.032a2.333,2.333,0,0,1,.192-.16.816.816,0,0,1,.317-.147.772.772,0,0,1,.491.074,2.058,2.058,0,0,1,.374.241.183.183,0,1,1-.224.291,1.744,1.744,0,0,0-.305-.2.421.421,0,0,0-.263-.047.455.455,0,0,0-.175.084,2.068,2.068,0,0,0-.163.136l-.037.033a1.4,1.4,0,0,1-.262.189.68.68,0,0,1-.32.086" transform="translate(-264.027 -113.006)" fill="#7a91e6"/>
          <path id="Trazado_492926" data-name="Trazado 492926" d="M262.236,159.886a.434.434,0,0,1-.241-.072.516.516,0,0,1-.16-.175c-.024-.04-.044-.081-.063-.123l-.016-.034a1.34,1.34,0,0,0-1.888-.565c-.064.038-.125.082-.19.128l-.045.032a1.964,1.964,0,0,1-.279.172.93.93,0,0,1-.362.095.635.635,0,0,1-.39-.1.521.521,0,0,1-.217-.392.43.43,0,0,1,.2-.417.183.183,0,0,1,.184.317c-.026.015-.023.063-.023.073a.16.16,0,0,0,.059.116.271.271,0,0,0,.167.041.572.572,0,0,0,.218-.058,1.62,1.62,0,0,0,.227-.141l.044-.031c.068-.049.139-.1.214-.144a1.707,1.707,0,0,1,2.407.72l.018.038c.015.031.029.062.046.091a.165.165,0,0,0,.046.055c.011.007.041.026.121-.01a.769.769,0,0,0,.218-.165,2.161,2.161,0,0,0,.2-.227q.018-.025.034-.049a.863.863,0,0,1-.186-.024.463.463,0,0,1-.371-.354.427.427,0,0,1,.215-.451.5.5,0,0,1,.489-.031.583.583,0,0,1,.285.35c.006.017.01.035.014.053a3.182,3.182,0,0,0,.86-.431.184.184,0,0,1,.259.049c.1.159.213.323.332.474a2.066,2.066,0,0,0,.381.383,1.2,1.2,0,0,0,.466.214.787.787,0,0,0,.439-.026.964.964,0,0,1-.157-.125.856.856,0,0,1-.169-.231.673.673,0,0,1-.072-.295.586.586,0,0,1,.09-.314.51.51,0,0,1,.266-.214.52.52,0,0,1,.382.027.658.658,0,0,1,.272.235.776.776,0,0,1,.062.7.652.652,0,0,0,.448-.345.183.183,0,0,1,.345.048.322.322,0,0,0,.476.228.328.328,0,0,0,.141-.144.184.184,0,0,1,.331.158.689.689,0,0,1-1.1.2.673.673,0,0,1-.054-.058.988.988,0,0,1-.828.285.886.886,0,0,1-.257.171,1.14,1.14,0,0,1-.683.059,1.556,1.556,0,0,1-.612-.279,2.428,2.428,0,0,1-.45-.45c-.089-.113-.17-.23-.248-.345a3.579,3.579,0,0,1-.436.235,3.542,3.542,0,0,1-.489.179,1.082,1.082,0,0,1-.172.335,2.548,2.548,0,0,1-.232.266,1.144,1.144,0,0,1-.33.244.564.564,0,0,1-.233.054m3.826-1.462a.115.115,0,0,0-.037.006.142.142,0,0,0-.072.061.218.218,0,0,0-.033.115.309.309,0,0,0,.035.135.5.5,0,0,0,.1.132.117.117,0,1,0,.223.056.419.419,0,0,0-.02-.385.291.291,0,0,0-.118-.1.186.186,0,0,0-.075-.018m-3.357.089a.17.17,0,0,0-.087.026c-.02.012-.053.04-.048.064s.01.05.1.072a.574.574,0,0,0,.186.011c0-.01,0-.02-.008-.03a.223.223,0,0,0-.1-.135.092.092,0,0,0-.042-.009" transform="translate(-210.979 -129.06)" fill="#7a91e6"/>
          <path id="Trazado_492927" data-name="Trazado 492927" d="M323.959,159.9a.573.573,0,0,1-.365-.126.544.544,0,0,1-.191-.363c-.042.013-.083.026-.126.037a1.335,1.335,0,0,1-.538.039.906.906,0,0,1-.523-.28.67.67,0,0,1-.182-.578.184.184,0,0,1,.361.069.313.313,0,0,0,.092.261.54.54,0,0,0,.307.165.982.982,0,0,0,.391-.031,3.388,3.388,0,0,0,.426-.152.183.183,0,0,1,.195.3.149.149,0,0,0-.038.119.181.181,0,0,0,.06.128.214.214,0,0,0,.147.043.262.262,0,0,0,.158-.062.309.309,0,0,0,.091-.157.385.385,0,0,0,0-.2.183.183,0,0,1,.351-.108.175.175,0,0,0,.09.095.359.359,0,0,0,.182.038.8.8,0,0,0,.222-.051c.055-.02.11-.043.164-.065l.093-.038a1.516,1.516,0,0,1,.31-.093.794.794,0,0,1,.36.015.937.937,0,0,1,.259.129l.069.048c.039.027.078.055.119.079a.4.4,0,0,0,.152.054.115.115,0,0,0,.083-.016.183.183,0,0,1,.229.287.469.469,0,0,1-.35.094.759.759,0,0,1-.3-.1c-.049-.029-.1-.061-.143-.094l-.063-.043a.614.614,0,0,0-.158-.082.426.426,0,0,0-.194-.005,1.166,1.166,0,0,0-.235.072l-.088.036c-.06.025-.121.05-.182.072a1.15,1.15,0,0,1-.325.072.726.726,0,0,1-.3-.046.664.664,0,0,1-.185.283.626.626,0,0,1-.382.155h-.035" transform="translate(-262.943 -129.403)" fill="#7a91e6"/>
          <path id="Trazado_492928" data-name="Trazado 492928" d="M267.592,179.794a.808.808,0,0,1-.314-.062.894.894,0,0,1-.4-.345,1.01,1.01,0,0,1-.1-.191,1.873,1.873,0,0,1-.367.17,1.833,1.833,0,0,1-.693.1.929.929,0,0,1-.271-.052.6.6,0,0,1-.126-.063,1.282,1.282,0,0,1-.134.109,1.179,1.179,0,0,1-.739.219,1.149,1.149,0,0,1-.515-.158.575.575,0,0,1-.152.162.651.651,0,0,1-.689.021.716.716,0,0,1-.283-.267,1,1,0,0,1-.15.072.814.814,0,0,1-.477.038.665.665,0,0,1-.165-.064,1.467,1.467,0,0,1-.249,0,2.158,2.158,0,0,1-.726-.181,2.184,2.184,0,0,1-.385-.219,1.031,1.031,0,0,1-.229.334.988.988,0,0,1-1.668-.607.183.183,0,0,1,.365-.034.621.621,0,0,0,1.237-.03.184.184,0,0,1,.31-.125,1.817,1.817,0,0,0,1.022.486.571.571,0,0,1-.01-.369.538.538,0,0,1,.415-.351.479.479,0,0,1,.513.194.5.5,0,0,1,.053.419.618.618,0,0,1-.05.122.716.716,0,0,0,.161-.126.183.183,0,0,1,.316.133.329.329,0,0,0,.473.253.22.22,0,0,0,.076-.1,1.164,1.164,0,0,1-.291-.574.183.183,0,0,1,.234-.209.65.65,0,0,1,.436.534.8.8,0,0,1,.01.109.773.773,0,0,0,.943.013.867.867,0,0,0,.145-.127.441.441,0,0,1,.024-.188.345.345,0,0,1,.321-.241h.005a.184.184,0,0,1,.173.236,1.112,1.112,0,0,1-.094.221l.023.01a.58.58,0,0,0,.165.03,1.495,1.495,0,0,0,1.042-.353.184.184,0,0,1,.3.133.629.629,0,0,0,.1.313.528.528,0,0,0,.236.2.469.469,0,0,0,.3.016.483.483,0,0,0,.05-.017.842.842,0,0,1-.145-.333.613.613,0,0,1,.183-.6.184.184,0,0,1,.206-.025.676.676,0,0,1,.337.452.737.737,0,0,1-.037.456.941.941,0,0,0,.212.046,2.1,2.1,0,0,0,.447-.008,1.83,1.83,0,0,0,.241-.037.637.637,0,0,0,.191-.075.356.356,0,0,0,.052-.039.393.393,0,0,1-.013-.149.308.308,0,0,1,.261-.285.184.184,0,0,1,.2.145.522.522,0,0,1,0,.2.8.8,0,0,0,.107-.013,3.294,3.294,0,0,0,1.142-.442.483.483,0,0,1,.3-.186.184.184,0,0,1,.14.328q-.086.064-.177.123a.223.223,0,0,0-.012.157.332.332,0,0,0,.119.154.553.553,0,0,0,.213.094,1.009,1.009,0,0,0,.262.016c.1-.005.2-.02.3-.033.065-.009.139-.02.2-.035a.6.6,0,0,0,.159-.06.292.292,0,0,0,.091-.082,1.037,1.037,0,0,1-.245-.214.183.183,0,0,1,.061-.282.386.386,0,0,1,.388.036.457.457,0,0,1,.177.232.677.677,0,0,0,.278.021.705.705,0,0,0,.535-.4.184.184,0,0,1,.261-.083,2,2,0,0,0,.959.278.184.184,0,0,1-.011.367,2.378,2.378,0,0,1-.973-.241,1.08,1.08,0,0,1-.234.24,1.058,1.058,0,0,1-.488.2,1.042,1.042,0,0,1-.366-.016c-.008.014-.016.029-.025.043a.654.654,0,0,1-.226.215.95.95,0,0,1-.256.1c-.083.02-.166.032-.239.042-.1.014-.212.03-.327.036a1.376,1.376,0,0,1-.356-.023.913.913,0,0,1-.357-.159.689.689,0,0,1-.247-.33.515.515,0,0,1-.017-.059c-.056.028-.112.054-.169.079a3.664,3.664,0,0,1-.8.243.988.988,0,0,1-.234.019.548.548,0,0,1-.131-.024.727.727,0,0,1-.119.093,1,1,0,0,1-.3.121,2.187,2.187,0,0,1-.289.045,2.454,2.454,0,0,1-.524.008,1.212,1.212,0,0,1-.414-.115.805.805,0,0,1-.255.12.854.854,0,0,1-.228.031m-5.375-1.052a.215.215,0,0,0-.041,0,.179.179,0,0,0-.139.1.234.234,0,0,0,.039.2.358.358,0,0,0,.033.042.4.4,0,0,0,.114-.056.261.261,0,0,0,.094-.135.149.149,0,0,0-.009-.118.1.1,0,0,0-.09-.038m5.763.183a.39.39,0,0,0,.007.065.447.447,0,0,0,.018.066.382.382,0,0,0-.01-.082.368.368,0,0,0-.015-.05" transform="translate(-211.289 -145.649)" fill="#7a91e6"/>
          <path id="Trazado_492929" data-name="Trazado 492929" d="M268.617,200.332a.726.726,0,0,1-.228-.035.6.6,0,0,1-.252-.162.522.522,0,0,1-.117-.2,1.093,1.093,0,0,1-.15-.084,1.056,1.056,0,0,1-.372-.432,7.088,7.088,0,0,1-1.713.352.185.185,0,0,1-.163-.076,4.291,4.291,0,0,1-1,.109,1.709,1.709,0,0,1-.309-.026.831.831,0,0,1-.321-.128.626.626,0,0,1-.234-.313.485.485,0,0,1,.04-.411.184.184,0,1,1,.313.192.13.13,0,0,0,0,.1.253.253,0,0,0,.093.125.473.473,0,0,0,.182.07,1.349,1.349,0,0,0,.242.019,3.861,3.861,0,0,0,.974-.114q.169-.041.333-.1.066-.042.134-.079a2.007,2.007,0,0,1,.492-.189.183.183,0,0,1,.185.294,6.706,6.706,0,0,0,.8-.239.184.184,0,0,1,.243.135.654.654,0,0,0,.283.4l.005,0,.021-.028a.408.408,0,0,1,.318-.162h0a.382.382,0,0,1,.324.2.35.35,0,0,1-.01.39l-.009.011a.8.8,0,0,0,.08-.02,1.041,1.041,0,0,0,.536-.379.183.183,0,1,1,.3.216,1.407,1.407,0,0,1-.727.514,1.058,1.058,0,0,1-.248.045h-.044" transform="translate(-215.349 -162.356)" fill="#7a91e6"/>
          <path id="Trazado_492930" data-name="Trazado 492930" d="M316.535,201.745h-.005a.668.668,0,0,1-.6-.878.184.184,0,0,1,.117-.109s0-.01,0-.014a.182.182,0,0,1,.064-.133.668.668,0,0,1,1.028.267.61.61,0,0,1,0,.41c.032,0,.064-.008.1-.015a1.282,1.282,0,0,0,.392-.157,2.225,2.225,0,0,0,.354-.27c.117-.107.232-.227.334-.333a.183.183,0,0,1,.284.023,1.172,1.172,0,0,0,1.863.079.184.184,0,0,1,.136-.067.176.176,0,0,1,.14.059.863.863,0,0,0,1.017.159.184.184,0,0,1,.18.32,1.2,1.2,0,0,1-.772.131,1.224,1.224,0,0,1-.549-.23,1.559,1.559,0,0,1-1.12.42,1.539,1.539,0,0,1-.676-.193,1.558,1.558,0,0,1-.383-.3c-.066.067-.135.135-.207.2a2.564,2.564,0,0,1-.412.313,1.65,1.65,0,0,1-.507.2,1.232,1.232,0,0,1-.449.013.6.6,0,0,1-.328.1m-.109-.9a.5.5,0,0,0,.111.219.643.643,0,0,0,.225.168A.269.269,0,0,0,316.8,201a.277.277,0,0,0-.2-.159.309.309,0,0,0-.176,0" transform="translate(-257.94 -163.679)" fill="#7a91e6"/>
          <path id="Trazado_492931" data-name="Trazado 492931" d="M305.787,221.525h-.026a.712.712,0,0,1-.644-.843.184.184,0,0,1,.358.081.314.314,0,0,0,.546.281.364.364,0,0,0,.077-.13.392.392,0,0,1,.025-.222.184.184,0,0,1,.351.046.636.636,0,0,1,0,.15.169.169,0,0,0,.092.066.38.38,0,0,0,.164,0,1.467,1.467,0,0,0,.213-.065q.252-.092.5-.189l.223-.087a.556.556,0,0,1-.011-.067.452.452,0,0,1,.123-.369.4.4,0,0,1,.419-.085.352.352,0,0,1,.25.362.392.392,0,0,1-.158.272l-.021.016a1.472,1.472,0,0,0,.151.041,3.55,3.55,0,0,0,1.052.077,3.589,3.589,0,0,0,.789-.149.184.184,0,0,1,.017-.365.469.469,0,0,1,.473.45.184.184,0,0,1-.117.174,3.958,3.958,0,0,1-2.3.172,1.544,1.544,0,0,1-.27-.083.8.8,0,0,1-.209-.127l-.284.112q-.253.1-.508.191a1.82,1.82,0,0,1-.267.08.727.727,0,0,1-.323,0,.515.515,0,0,1-.151-.064c-.012.015-.024.03-.037.044a.688.688,0,0,1-.506.235m2.268-1.093a.036.036,0,0,0-.014,0,.061.061,0,0,0-.014.027.27.27,0,0,0,.039-.025l0,0h-.014" transform="translate(-249.126 -179.691)" fill="#7a91e6"/>
          <path id="Trazado_492932" data-name="Trazado 492932" d="M342.717,221.708c-.028,0-.056,0-.085,0a.8.8,0,0,1-.342-.116.414.414,0,0,1-.126.047.455.455,0,0,1-.339-.064.611.611,0,0,1-.192-.213,1.493,1.493,0,0,1-.1-.216.184.184,0,1,1,.343-.13,1.159,1.159,0,0,0,.072.164.257.257,0,0,0,.077.09.1.1,0,0,0,.063.01l.01,0a.183.183,0,0,1,.308-.059.425.425,0,0,0,.539.055.183.183,0,0,1,.217.3.757.757,0,0,1-.45.143" transform="translate(-278.868 -180.367)" fill="#7a91e6"/>
          <path id="Trazado_492933" data-name="Trazado 492933" d="M308.125,241.394a.491.491,0,0,1-.248-.065.56.56,0,0,1-.165-.149,1.32,1.32,0,0,1-.1-.151l-.362-.631a.184.184,0,0,1,.318-.183l.362.631a.957.957,0,0,0,.07.11.205.205,0,0,0,.057.054.148.148,0,0,0,.1.013.29.29,0,0,0,.125-.052.594.594,0,0,0,.119-.121c.041-.054.08-.116.115-.172a.184.184,0,0,1,.25-.06,1.812,1.812,0,0,0,.566.222,1.666,1.666,0,0,0,.6.017,3.7,3.7,0,0,0,.621-.16c.211-.072.419-.157.621-.239a.183.183,0,0,1,.216.06.673.673,0,0,0,.535.25.663.663,0,0,0,.542-.234.184.184,0,0,1,.211-.057,2.007,2.007,0,0,0,1.765-.162.183.183,0,1,1,.194.311,2.376,2.376,0,0,1-1.975.235,1.049,1.049,0,0,1-.743.273,1.07,1.07,0,0,1-.728-.288c-.169.068-.342.137-.52.2a4.073,4.073,0,0,1-.683.175,2.054,2.054,0,0,1-.733-.02,2.168,2.168,0,0,1-.524-.182c-.013.019-.026.037-.04.055a.953.953,0,0,1-.194.194.656.656,0,0,1-.288.119.591.591,0,0,1-.084.006" transform="translate(-250.864 -196.069)" fill="#7a91e6"/>
          <path id="Trazado_492934" data-name="Trazado 492934" d="M159.917,219.156c-.045,0-.089,0-.131-.006a1.044,1.044,0,0,1-.343-.09.811.811,0,0,1-.3-.236.747.747,0,0,1-.062-.093.738.738,0,0,1-.213.027.625.625,0,0,1-.346-.109.84.84,0,0,1-.108.085,1.2,1.2,0,0,1-.393.163,2.6,2.6,0,0,1-.391.057,2.3,2.3,0,0,1-.47,0l-.087-.014a.945.945,0,0,1-.28.086,1.184,1.184,0,0,1-.417-.015,1.131,1.131,0,0,1-.589-.339.8.8,0,0,1-.219-.653.183.183,0,1,1,.363.053.44.44,0,0,0,.128.354.767.767,0,0,0,.394.226.858.858,0,0,0,.113.016.747.747,0,0,1-.169-.38.552.552,0,0,1,.212-.538.535.535,0,0,1,.5-.057.607.607,0,0,1,.36.336.667.667,0,0,1,0,.469.759.759,0,0,1-.044.1c.063,0,.123-.006.175-.01a2.27,2.27,0,0,0,.337-.048.845.845,0,0,0,.276-.112.492.492,0,0,0,.1-.085.594.594,0,0,1-.019-.118.488.488,0,0,1,.174-.413.183.183,0,0,1,.289.085.653.653,0,0,1-.021.452.265.265,0,0,0,.145.043.355.355,0,0,0,.125-.019.6.6,0,0,1,.132-.318.517.517,0,0,1,.387-.2.189.189,0,0,1,.154.079.183.183,0,0,1,.02.172,1.3,1.3,0,0,1-.168.306.993.993,0,0,1-.125.138.363.363,0,0,0,.032.048.451.451,0,0,0,.163.129.685.685,0,0,0,.223.057,1.229,1.229,0,0,0,.257-.005,1.074,1.074,0,0,0,.212-.044.507.507,0,0,0,.163-.085.311.311,0,0,0,.092-.126.186.186,0,0,0,.008-.122.184.184,0,0,1,.349-.113.547.547,0,0,1-.014.367.682.682,0,0,1-.2.281.882.882,0,0,1-.279.148,1.453,1.453,0,0,1-.285.059,1.77,1.77,0,0,1-.2.012m-3.01-1.132a.141.141,0,0,0-.083.025.2.2,0,0,0-.061.19.367.367,0,0,0,.137.241.525.525,0,0,0,.115.062.416.416,0,0,0,.11-.166.3.3,0,0,0,0-.211.239.239,0,0,0-.142-.127.243.243,0,0,0-.077-.014" transform="translate(-127.022 -177.725)" fill="#7a91e6"/>
          <path id="Trazado_492935" data-name="Trazado 492935" d="M198.116,218.093a.687.687,0,0,1-.436-.151.85.85,0,0,1-.1-.1c-.026-.031-.051-.063-.076-.095l-.67-.869-.031.031a1.126,1.126,0,0,1-.14.118c0,.021-.006.042-.01.063a.855.855,0,0,1-.3.5.954.954,0,0,1-.526.2,1.136,1.136,0,0,1-.543-.1,1.386,1.386,0,0,1-.424-.3.78.78,0,0,1-.043.066.922.922,0,0,1-.567.367,1.068,1.068,0,0,1-.43-.008.94.94,0,0,1-.168-.056,1.3,1.3,0,0,1-.3.071.925.925,0,0,1-.45-.056.753.753,0,0,1-.366-.323.609.609,0,0,1-.057-.5.184.184,0,1,1,.348.118.255.255,0,0,0,.029.2.385.385,0,0,0,.183.163.558.558,0,0,0,.269.032.738.738,0,0,1-.1-.274.631.631,0,0,1,.1-.469.577.577,0,0,1,.447-.23.523.523,0,0,1,.46.22.554.554,0,0,1-.014.61.922.922,0,0,1-.113.15.726.726,0,0,0,.088-.011.563.563,0,0,0,.335-.219.259.259,0,0,0,.049-.247l-.017-.032a.183.183,0,0,1,.317-.184c.009.015.018.031.026.047a1.5,1.5,0,0,0,.222.3,1.031,1.031,0,0,0,.317.227.777.777,0,0,0,.367.065.591.591,0,0,0,.325-.119.455.455,0,0,0,.115-.138h-.019a.527.527,0,0,1-.342-.138.457.457,0,0,1-.134-.384.393.393,0,0,1,.251-.339.421.421,0,0,1,.326.021.576.576,0,0,1,.22.188.684.684,0,0,1,.052.088c.039-.042.076-.086.11-.127a.189.189,0,0,1,.144-.066.184.184,0,0,1,.142.071l.8,1.042c.022.029.043.056.065.081a.481.481,0,0,0,.059.059.322.322,0,0,0,.239.065.3.3,0,0,0,.286-.351.332.332,0,0,0-.1-.212l-.017-.014a.183.183,0,0,1,.236-.281l.021.018a1.068,1.068,0,0,0,.746.226,1.149,1.149,0,0,0,.387-.092.183.183,0,0,1,.024-.17.416.416,0,0,1,.551-.1.181.181,0,0,1,.049.047l.417.019a.183.183,0,0,1,.175.191.18.18,0,0,1-.192.175l-.549-.024a1.466,1.466,0,0,1-.84.324,1.519,1.519,0,0,1-.539-.063.685.685,0,0,1-.149.432.694.694,0,0,1-.47.244c-.024,0-.049,0-.073,0m-4.337-1.231h-.008a.214.214,0,0,0-.163.078.267.267,0,0,0-.039.2.363.363,0,0,0,.106.206h0a.654.654,0,0,0,.214-.21.2.2,0,0,0,.022-.217.159.159,0,0,0-.132-.057m2.347-.218h-.008a.058.058,0,0,0-.013.035.1.1,0,0,0,.021.076.169.169,0,0,0,.108.039h.042a.324.324,0,0,0-.038-.073.211.211,0,0,0-.077-.068.084.084,0,0,0-.034-.009" transform="translate(-157.139 -176.598)" fill="#7a91e6"/>
          <path id="Trazado_492936" data-name="Trazado 492936" d="M146.768,234.725a.184.184,0,0,1-.183-.182v-.024a.96.96,0,0,1-.233.1.93.93,0,0,1-.747-.1.986.986,0,0,1-.419-.611,1.071,1.071,0,0,1,.081-.735.184.184,0,0,1,.327.167.712.712,0,0,0-.051.483.623.623,0,0,0,.26.387.572.572,0,0,0,.452.057.5.5,0,0,0,.341-.272.183.183,0,0,1,.352.071l0,.2a.719.719,0,0,0,.132-.118c.015-.017.029-.035.042-.053l-.043-.025a.617.617,0,0,1-.218-.219.475.475,0,0,1-.038-.361.37.37,0,0,1,.536-.238.452.452,0,0,1,.176.163.545.545,0,0,1,.071.2.775.775,0,0,1,0,.187c0,.027-.006.055-.011.082a2.756,2.756,0,0,0,1.006.088.752.752,0,0,1,.088-.105.706.706,0,0,1,.437-.207.185.185,0,0,1,.19.129.331.331,0,0,1-.049.292l0,0a.183.183,0,1,1-.255.263l-.017-.018a1.107,1.107,0,0,1-.265.158.184.184,0,0,1-.252-.14,3.054,3.054,0,0,1-.4-.006,3.127,3.127,0,0,1-.619-.113,1.074,1.074,0,0,1-.117.161,1.043,1.043,0,0,1-.549.332.188.188,0,0,1-.04,0m.414-1.151s0,.008-.006.019a.108.108,0,0,0,.006.077.231.231,0,0,0,.068.071.369.369,0,0,0,0-.07.176.176,0,0,0-.022-.064.081.081,0,0,0-.03-.028l-.011,0" transform="translate(-118.524 -190.308)" fill="#7a91e6"/>
          <path id="Trazado_492937" data-name="Trazado 492937" d="M176.093,237.578a.64.64,0,0,1-.4-.149.629.629,0,0,1-.234-.443.762.762,0,0,1,.057-.326,1.944,1.944,0,0,1,.127-.256.184.184,0,0,1,.25-.069l.014.009h0a.649.649,0,0,1,.795.473l0,.023a2.906,2.906,0,0,0,.322.077,1.641,1.641,0,0,0,.288.033h0a.49.49,0,0,0,.225-.046.25.25,0,0,0,.115-.138.2.2,0,0,0,.008-.031.842.842,0,0,1-.055-.159.184.184,0,0,1,.318-.161.442.442,0,0,1,.1.225.535.535,0,0,0,.084.1.518.518,0,0,0,.775-.069.183.183,0,0,1,.3.213.875.875,0,0,1-1.273.169.6.6,0,0,1-.205.176.843.843,0,0,1-.39.086h0a1.957,1.957,0,0,1-.355-.039c-.113-.021-.215-.044-.309-.07a.681.681,0,0,1-.058.1.629.629,0,0,1-.424.267.561.561,0,0,1-.077.005m-.214-.842c-.009.019-.017.038-.024.057a.4.4,0,0,0-.033.171.262.262,0,0,0,.1.181.24.24,0,0,0,.371-.051l.012-.019a1.175,1.175,0,0,1-.427-.34" transform="translate(-143.265 -192.957)" fill="#7a91e6"/>
          <path id="Trazado_492938" data-name="Trazado 492938" d="M204.766,237.159a.507.507,0,0,1-.241-.064.591.591,0,0,1-.3-.378.826.826,0,0,1,.018-.416,2.168,2.168,0,0,1,.136-.343.183.183,0,0,1,.332.156,1.88,1.88,0,0,0-.114.285.474.474,0,0,0-.014.235.229.229,0,0,0,.112.138c.02.011.069.033.1.009a.119.119,0,0,0,.037-.089.431.431,0,0,0-.031-.181.183.183,0,0,1,.316-.179.787.787,0,0,0,1.222.037.851.851,0,0,0,.083-.111.563.563,0,0,1,.167-.41.183.183,0,0,1,.309.157,1.126,1.126,0,0,1-.1.329.224.224,0,0,0,.132.161.23.23,0,0,0,.209-.057.275.275,0,0,0,.082-.117.617.617,0,0,1,.007-.141.183.183,0,0,1,.181-.153h0a.183.183,0,0,1,.181.153.536.536,0,0,1,0,.158.379.379,0,0,0,.1.186.476.476,0,0,0,.32.145.635.635,0,0,0,.364-.11,1.04,1.04,0,0,0,.3-.3.183.183,0,0,1,.33.055.541.541,0,0,0,.808.258.184.184,0,0,1,.234.283.856.856,0,0,1-.812.133.917.917,0,0,1-.441-.3,1.331,1.331,0,0,1-.223.178,1.022,1.022,0,0,1-.569.168.84.84,0,0,1-.574-.256.822.822,0,0,1-.056-.063h0a.584.584,0,0,1-.563.127.545.545,0,0,1-.253-.177,1.132,1.132,0,0,1-1.188.276,1.238,1.238,0,0,1-.2-.09.447.447,0,0,1-.153.219.417.417,0,0,1-.257.088" transform="translate(-166.746 -192.535)" fill="#7a91e6"/>
          <path id="Trazado_492939" data-name="Trazado 492939" d="M148.385,256.43q-.066,0-.138,0a1.727,1.727,0,0,1-.561-.126,1.049,1.049,0,0,1-.47-.372l-.016-.025a.918.918,0,0,1-.281.082.186.186,0,0,1-.188-.1,1.272,1.272,0,0,1-.11-.756.184.184,0,1,1,.362.06.892.892,0,0,0,0,.274.915.915,0,0,0,.027.125.6.6,0,0,0,.079-.039.841.841,0,0,1,.02-.257.644.644,0,0,1,.432-.487.185.185,0,0,1,.158.027.182.182,0,0,1,.077.141.969.969,0,0,1-.237.669l-.041.045a.356.356,0,0,0,.022.037.687.687,0,0,0,.309.24,1.378,1.378,0,0,0,.441.1,1.4,1.4,0,0,0,.263,0,.8.8,0,0,0,.186-.045l-.037-.014a.5.5,0,0,1-.308-.3.442.442,0,0,1,.109-.449.487.487,0,0,1,.426-.158.531.531,0,0,1,.361.236.616.616,0,0,1,.1.4c.046,0,.091,0,.137,0a1.417,1.417,0,0,0,.4-.057.8.8,0,0,0,.322-.19.507.507,0,0,0,.154-.287.184.184,0,0,1,.182-.16h0a.184.184,0,0,1,.179.166.579.579,0,0,0,.856.459.641.641,0,0,0,.128-.088.354.354,0,0,1,.255-.28.184.184,0,0,1,.154.028.371.371,0,0,1,.024-.2.343.343,0,0,1,.274-.2.3.3,0,0,1,.323.161.183.183,0,0,1,.019.086c0,.078,0,.15-.011.223l.018,0c.045.006.085.011.123.014a.54.54,0,0,1,.03-.092.368.368,0,0,1,.456-.231.183.183,0,0,1,.118.123.4.4,0,0,1-.056.334.5.5,0,0,1-.085.1.487.487,0,0,0,.077.024,1.314,1.314,0,0,0,.288.022,2.027,2.027,0,0,0,.2-.007.536.536,0,0,0,.159-.038.256.256,0,0,0,.1-.079.123.123,0,0,0,.028-.08.183.183,0,0,1,.094-.177.9.9,0,0,1,.78-.038.183.183,0,0,1-.146.337.531.531,0,0,0-.372-.015.514.514,0,0,1-.088.19.625.625,0,0,1-.248.2.888.888,0,0,1-.269.068,2.1,2.1,0,0,1-.248.009,1.667,1.667,0,0,1-.363-.031.66.66,0,0,1-.371-.21.355.355,0,0,1-.027-.035h-.014a1.7,1.7,0,0,1-.22-.019l-.063-.009c-.006.013-.013.025-.02.038a.645.645,0,0,1-.283.26.49.49,0,0,1-.41.01.383.383,0,0,1-.133-.1l-.053.03a.928.928,0,0,1-1.137-.193,1.013,1.013,0,0,1-.09-.112q-.028.033-.06.065a1.174,1.174,0,0,1-.471.279,1.78,1.78,0,0,1-.5.073c-.1,0-.2,0-.293-.008l-.007.009a.855.855,0,0,1-.3.232,1.117,1.117,0,0,1-.34.095,1.567,1.567,0,0,1-.195.012m3.722-.726a.031.031,0,0,0,.01.012.135.135,0,0,0,.106-.009.274.274,0,0,0,.107-.091.488.488,0,0,1-.112-.116.189.189,0,0,1-.014.042.9.9,0,0,1-.1.163m-3.261-.254a.137.137,0,0,0-.093.047.091.091,0,0,0-.03.079c0,.013.017.048.1.08a.756.756,0,0,0,.19.042s0-.006,0-.008a.246.246,0,0,0-.042-.16.173.173,0,0,0-.111-.079h-.01" transform="translate(-119.709 -208.049)" fill="#7a91e6"/>
          <path id="Trazado_492940" data-name="Trazado 492940" d="M205.437,258.028a.548.548,0,0,1-.475-.3.733.733,0,0,1-.066-.564,1.054,1.054,0,0,1,.269-.429,2.871,2.871,0,0,1,.356-.3.183.183,0,0,1,.217.3,2.562,2.562,0,0,0-.312.257.7.7,0,0,0-.18.28.371.371,0,0,0,.035.276.184.184,0,0,0,.161.113.2.2,0,0,0,.12-.055.362.362,0,0,0,.1-.145.714.714,0,0,0,.038-.2c0-.08,0-.165,0-.247a.183.183,0,0,1,.263-.172c.134.065.273.123.413.174s.284.1.429.132a.659.659,0,0,0,.1.02.727.727,0,0,1,0-.1.183.183,0,0,1,.271-.157.3.3,0,0,1,.145.313c0,.01,0,.021-.006.031a.531.531,0,0,0,.119.148.667.667,0,0,0,.393.162,1.025,1.025,0,0,0,.45-.089,2.1,2.1,0,0,0,.437-.261c.093-.07.183-.145.274-.219l.151-.124a3.286,3.286,0,0,1,.477-.331.184.184,0,0,1,.256.087l.129.293a.183.183,0,0,1,.156.1.249.249,0,0,1-.024.252.252.252,0,0,1-.23.106.183.183,0,0,1-.148-.108l-.135-.306c-.092.063-.176.129-.252.189l-.147.121c-.092.076-.188.155-.287.23a2.453,2.453,0,0,1-.514.306,1.381,1.381,0,0,1-.612.118,1.031,1.031,0,0,1-.616-.254.91.91,0,0,1-.143-.159.467.467,0,0,1-.144.013.911.911,0,0,1-.19-.032,4.823,4.823,0,0,1-.464-.143q-.092-.033-.183-.071a1.057,1.057,0,0,1-.059.3.733.733,0,0,1-.2.293.558.558,0,0,1-.347.147h-.021" transform="translate(-167.281 -209.363)" fill="#7a91e6"/>
          <path id="Trazado_492941" data-name="Trazado 492941" d="M148.088,278.017a.183.183,0,0,1-.136-.061.565.565,0,0,1-.107-.572.184.184,0,1,1,.343.131.161.161,0,0,0-.009.032.9.9,0,0,0,.138-.163.79.79,0,0,1-.124-.165.674.674,0,0,1-.089-.343.6.6,0,0,1,.129-.352.53.53,0,0,1,.332-.2.184.184,0,0,1,.2.115,1.226,1.226,0,0,1,.017.815l.036.012a1.061,1.061,0,0,0,.22.043,1.026,1.026,0,0,0,.28-.009.59.59,0,0,0,.232-.091.409.409,0,0,0,.141-.175.275.275,0,0,0,.014-.19.184.184,0,0,1,.335-.146c.037.068.075.139.118.2a.786.786,0,0,0,.128.154.415.415,0,0,0,.148.086l-.006-.217a.183.183,0,1,1,.367-.01l.011.4a.183.183,0,0,1-.13.181.591.591,0,0,1-.351-.005.775.775,0,0,1-.284-.163c-.02-.018-.04-.038-.059-.058a.775.775,0,0,1-.223.24.959.959,0,0,1-.374.15,1.391,1.391,0,0,1-.382.013,1.431,1.431,0,0,1-.3-.059c-.028-.009-.055-.019-.081-.03a1.2,1.2,0,0,1-.452.41.182.182,0,0,1-.083.02m.387-1.165a.211.211,0,0,0,0,.033.271.271,0,0,0,0,.036c0-.023,0-.047,0-.07" transform="translate(-120.691 -225.627)" fill="#7a91e6"/>
          <path id="Trazado_492942" data-name="Trazado 492942" d="M178.06,278.631a2.067,2.067,0,0,1-.269-.018,2.025,2.025,0,0,1-.386-.091,1.132,1.132,0,0,1-.254-.118l-.029-.02a.513.513,0,0,1-.13-.034.6.6,0,0,1-.285-.253h0l-.028.028a1.669,1.669,0,0,1-.3.235,1.094,1.094,0,0,1-.389.141.816.816,0,0,1-.431-.045.7.7,0,0,1-.344-.31.582.582,0,0,1-.047-.474.184.184,0,1,1,.346.121.225.225,0,0,0,.023.177.329.329,0,0,0,.159.145.451.451,0,0,0,.239.022.729.729,0,0,0,.258-.094,1.326,1.326,0,0,0,.237-.185c.079-.076.154-.159.227-.24a.183.183,0,0,1,.3.035.393.393,0,0,1,.165-.137.4.4,0,0,1,.441.095.438.438,0,0,1,.127.424.443.443,0,0,1-.083.162,1.685,1.685,0,0,0,.241.05,1.669,1.669,0,0,0,1.5-.59.184.184,0,0,1,.284.233,2.045,2.045,0,0,1-1.432.734c-.043,0-.085,0-.128,0m-.8-.777h0c-.013.005-.021.026-.025.043a.149.149,0,0,0,.014.1l.007.011h0a.117.117,0,0,0,.07-.067.082.082,0,0,0-.029-.066.067.067,0,0,0-.037-.021" transform="translate(-143.001 -226.578)" fill="#7a91e6"/>
          <path id="Trazado_492943" data-name="Trazado 492943" d="M209.8,278.734a.475.475,0,0,1-.252-.076.576.576,0,0,1-.243-.313.8.8,0,0,1-.024-.34,2.009,2.009,0,0,1,.062-.291.183.183,0,0,1,.354.095,1.769,1.769,0,0,0-.052.24.45.45,0,0,0,.011.188.209.209,0,0,0,.087.11.093.093,0,0,0,.077.016c.012-.005.045-.02.053-.111a.639.639,0,0,0-.011-.17.78.78,0,0,1-.036-.15.184.184,0,0,1,.358-.077c.011.036.022.078.032.124a.47.47,0,0,0,.137.183.451.451,0,0,0,.3.107.467.467,0,0,0,.417-.436.183.183,0,0,1,.354-.065.572.572,0,0,0,.261.279.9.9,0,0,0,.42.108,1.648,1.648,0,0,0,.459-.073c.164-.048.33-.116.477-.175a.183.183,0,0,1,.239.1.5.5,0,0,0,.371.3.5.5,0,0,0,.447-.161.183.183,0,0,1,.277.241.849.849,0,0,1-1.177.1.868.868,0,0,1-.171-.182c-.114.045-.235.09-.36.126a2.006,2.006,0,0,1-.566.088,1.276,1.276,0,0,1-.594-.153,1.064,1.064,0,0,1-.188-.132.859.859,0,0,1-.113.146.779.779,0,0,1-1.026.112.428.428,0,0,1-.215.206.413.413,0,0,1-.167.035" transform="translate(-170.878 -226.653)" fill="#7a91e6"/>
          <path id="Trazado_492944" data-name="Trazado 492944" d="M148.081,297.148a1.335,1.335,0,0,1-.421-.067,1.431,1.431,0,0,1-.751-.607.668.668,0,0,1-.1.043.844.844,0,0,1-1.067-.941.183.183,0,1,1,.358.081.481.481,0,0,0,.584.515.322.322,0,0,0,.062-.03,1.431,1.431,0,0,1,0-.948.184.184,0,0,1,.284-.082.8.8,0,0,1,.275.763.887.887,0,0,1-.126.34,1.078,1.078,0,0,0,.594.518,1.091,1.091,0,0,0,.839-.086,1.212,1.212,0,0,0,.211-.139.541.541,0,0,1-.046-.082.467.467,0,0,1-.007-.386.431.431,0,0,1,.334-.242.388.388,0,0,1,.39.165.183.183,0,0,1,.021.152,1.318,1.318,0,0,1-.109.259.5.5,0,0,0,.1-.039.9.9,0,0,0,.169-.116c.025-.022.051-.045.076-.068l-.048-.1a.183.183,0,0,1,.323-.174.757.757,0,0,0,.356.306.791.791,0,0,0,.286.064.455.455,0,0,1-.018-.2.357.357,0,0,1,.264-.313.183.183,0,0,1,.226.2l-.034.253.022,0a.515.515,0,0,0,.17-.008,1.079,1.079,0,0,0,.709-.491.183.183,0,0,1,.087-.074,1.373,1.373,0,0,1,1,0,1.445,1.445,0,0,1,.227.11l.005-.014a.623.623,0,0,1,.448-.362.55.55,0,0,1,.555.169.184.184,0,0,1,.042.137,1.093,1.093,0,0,1-.2.513,1.111,1.111,0,0,1-.188.206.657.657,0,0,0,.214.026.987.987,0,0,0,.349-.077,1.731,1.731,0,0,0,.332-.189c.056-.04.112-.082.167-.126a.819.819,0,0,1,.163-.7.183.183,0,0,1,.323.127c-.005.128-.009.234,0,.34a1.188,1.188,0,0,0,.029.216l.371.35a.81.81,0,0,0,.341-.134,2.636,2.636,0,0,0,.522-.483.184.184,0,0,1,.3.028.6.6,0,0,0,.283.243.628.628,0,0,0,.2.049.786.786,0,0,1,.214-.507.688.688,0,0,1,.631-.227.183.183,0,0,1,.149.189.967.967,0,0,1-.223.563.99.99,0,0,1-.307.249.549.549,0,0,0,.113.1.58.58,0,0,0,.379.1.7.7,0,0,0,.374-.166.913.913,0,0,0,.256-.354.184.184,0,0,1,.236-.1l.766.294a.76.76,0,0,1,.01-.1.751.751,0,0,1,1.136-.515.183.183,0,0,1,.071.083l.149.35a1.293,1.293,0,0,1,.238-.136,1.258,1.258,0,0,1,.54-.107.183.183,0,1,1-.01.367.915.915,0,0,0-.382.076.9.9,0,0,0-.315.23.183.183,0,0,1-.307-.048l-.225-.528a.39.39,0,0,0-.194-.029.385.385,0,0,0-.3.559.183.183,0,0,1-.227.259l-.924-.354a1.258,1.258,0,0,1-.281.335,1.065,1.065,0,0,1-.572.25.953.953,0,0,1-.624-.163.875.875,0,0,1-.278-.3.983.983,0,0,1-.432-.079,1,1,0,0,1-.307-.205,2.527,2.527,0,0,1-.453.388,1.235,1.235,0,0,1-.408.175.186.186,0,0,1-.161.071.669.669,0,0,1-.269-.083.793.793,0,0,1-.436-.322c-.034.025-.068.051-.1.075a2.1,2.1,0,0,1-.4.228,1.355,1.355,0,0,1-.481.105.986.986,0,0,1-.5-.111.841.841,0,0,1-.365-.4.79.79,0,0,1-.033-.087,1.073,1.073,0,0,0-.349-.216,1.015,1.015,0,0,0-.678-.024,1.448,1.448,0,0,1-.918.606.886.886,0,0,1-.292.01l-.062-.012a.189.189,0,0,1-.079.04,1.128,1.128,0,0,1-.7-.067,1.182,1.182,0,0,1-.216-.121c-.035.034-.071.067-.109.1a1.256,1.256,0,0,1-.239.162.838.838,0,0,1-.306.089.668.668,0,0,1-.241-.022,1.571,1.571,0,0,1-.347.245,1.533,1.533,0,0,1-.7.176m5.57-1.146a1.243,1.243,0,0,1,.09.112.751.751,0,0,0,.137-.148.743.743,0,0,0,.114-.244.249.249,0,0,0-.134,0,.264.264,0,0,0-.188.143.294.294,0,0,0-.019.143m4.482-.268a.428.428,0,0,0-.076.065.447.447,0,0,0-.085.131.649.649,0,0,0,.09-.09.637.637,0,0,0,.071-.107" transform="translate(-118.994 -240.938)" fill="#7a91e6"/>
          <path id="Trazado_492945" data-name="Trazado 492945" d="M147.975,318.215a2.056,2.056,0,0,1-.224-.012,1.449,1.449,0,0,1-.748-.286,1.057,1.057,0,0,1-.3-.382c-.032.04-.064.08-.1.118a.184.184,0,0,1-.237.034.883.883,0,0,1-.4-.787.185.185,0,0,1,.2-.171.184.184,0,0,1,.171.2.5.5,0,0,0,.054.257.537.537,0,0,0,.054.086,2.573,2.573,0,0,0,.149-.222.815.815,0,0,1,.317-.66.183.183,0,0,1,.285.2,2.894,2.894,0,0,1-.231.549.74.74,0,0,0,.263.493,1.088,1.088,0,0,0,.562.21,2.112,2.112,0,0,0,.665-.044.991.991,0,0,0,.3-.11l.023-.014-.034-.005a1.425,1.425,0,0,1-.925-.557.184.184,0,0,1,.119-.288,3.122,3.122,0,0,1,.395-.048,1.166,1.166,0,0,1,.432.056.8.8,0,0,1,.387.292.674.674,0,0,1,.088.174l.02,0a.578.578,0,0,1,.006-.163.434.434,0,0,1,.16-.271.375.375,0,0,1,.358-.047.323.323,0,0,1,.221.313.352.352,0,0,1-.081.208.6.6,0,0,1-.122.111l-.047.032.015.012a.376.376,0,0,0,.216.078.368.368,0,0,0,.219-.07.387.387,0,0,0,.112-.119.386.386,0,0,1,.052-.107.184.184,0,0,1,.324.165c-.008.021-.016.042-.026.063a.086.086,0,0,0,.005.023.122.122,0,0,0,.055.065.227.227,0,0,0,.121.019.515.515,0,0,0,.16-.043.846.846,0,0,0,.477-.569.183.183,0,0,1,.357.085,1.213,1.213,0,0,1-.688.82.866.866,0,0,1-.277.072.586.586,0,0,1-.313-.056.47.47,0,0,1-.15-.118h0a.771.771,0,0,1-.436.135.746.746,0,0,1-.43-.152.765.765,0,0,1-.147-.146,1.421,1.421,0,0,1-.165.037.652.652,0,0,1-.29.332,1.347,1.347,0,0,1-.417.154,2.676,2.676,0,0,1-.557.062m.4-1.078a1.132,1.132,0,0,0,.43.166l.03,0a.435.435,0,0,0-.19-.134.776.776,0,0,0-.271-.036" transform="translate(-119.189 -258.311)" fill="#7a91e6"/>
          <path id="Trazado_492946" data-name="Trazado 492946" d="M185.537,318.5a1.079,1.079,0,0,1-.228-.023.82.82,0,0,1-.388-.2.621.621,0,0,1-.2-.412.665.665,0,0,1,.22-.519,1.73,1.73,0,0,1,.419-.294.183.183,0,0,1,.173.323,1.449,1.449,0,0,0-.332.229.314.314,0,0,0-.114.238.259.259,0,0,0,.088.167.455.455,0,0,0,.213.11.854.854,0,0,0,.276.008,2.947,2.947,0,0,0,.315-.059l.663-.15a.186.186,0,0,1-.058-.032.183.183,0,0,1-.057-.205c.012-.033.026-.066.04-.1a.518.518,0,0,1-.081-.327.552.552,0,0,1,.289-.427.942.942,0,0,1,.465-.122,1.178,1.178,0,0,1,.429.078.845.845,0,0,1,.368.27.71.71,0,0,1,.139.469.647.647,0,0,1-.048.207,2.562,2.562,0,0,0,.757-.146.181.181,0,0,1,.127,0l.375.142a.183.183,0,1,1-.13.343l-.314-.119a2.942,2.942,0,0,1-.885.147,2.977,2.977,0,0,1-.749-.085.451.451,0,0,1-.1.093.806.806,0,0,1-.288.122l-.865.2a3.3,3.3,0,0,1-.354.066,1.467,1.467,0,0,1-.166.01m1.33-.646-.033.019h.007l.039-.01-.013-.007m.471-.21.058.015-.259-.248c-.017.015-.034.031-.05.047a.428.428,0,0,1,.12.05.366.366,0,0,1,.131.135m-.02-.567.482.461a.306.306,0,0,0,0-.038.341.341,0,0,0-.065-.223.48.48,0,0,0-.211-.152.773.773,0,0,0-.211-.049" transform="translate(-150.829 -258.603)" fill="#7a91e6"/>
          <path id="Trazado_492947" data-name="Trazado 492947" d="M218.843,319.567a.44.44,0,0,1-.282-.108.549.549,0,0,1-.192-.348.753.753,0,0,1,.043-.338,1.957,1.957,0,0,1,.122-.268.184.184,0,0,1,.346.084.271.271,0,0,1,.088.007.315.315,0,0,1,.163.1.477.477,0,0,1,.072.116.671.671,0,0,1,.058.264.214.214,0,0,0,.061-.024.78.78,0,0,0,.19-.2l.018-.023a.866.866,0,0,1,.346-.3.674.674,0,0,1,.218-.048,1.7,1.7,0,0,1,.186,0l.756.034a1.544,1.544,0,0,1,.345.046.608.608,0,0,1,.341.224.183.183,0,0,1-.3.215.253.253,0,0,0-.143-.086,1.225,1.225,0,0,0-.262-.033l-.756-.034a1.318,1.318,0,0,0-.146,0,.316.316,0,0,0-.1.021.554.554,0,0,0-.2.186l-.017.023a1.079,1.079,0,0,1-.294.291.624.624,0,0,1-.383.079.4.4,0,0,1-.149.095.4.4,0,0,1-.134.023" transform="translate(-178.302 -259.99)" fill="#7a91e6"/>
          <path id="Trazado_492948" data-name="Trazado 492948" d="M147.193,339.244a.623.623,0,0,1-.33-.1.092.092,0,0,0-.137-.021.537.537,0,0,1-.342-.056.583.583,0,0,1-.287-.415,1.064,1.064,0,0,1-.011-.335l-.017.021a2.653,2.653,0,0,1-.66.6.183.183,0,1,1-.2-.309,2.322,2.322,0,0,0,.937-1.195.183.183,0,0,1,.34-.017.82.82,0,0,1,.056.461,2.713,2.713,0,0,1-.054.279c-.009.037-.017.074-.025.111a.787.787,0,0,0-.009.31.213.213,0,0,0,.1.166.155.155,0,0,0,.055.017.493.493,0,0,1,.1-.342.434.434,0,0,1,.39-.18.183.183,0,0,1,.164.183.821.821,0,0,1-.057.3.7.7,0,0,1-.077.144.252.252,0,0,0,.073.007.369.369,0,0,0,.168-.056.605.605,0,0,0,.154-.137,1.1,1.1,0,0,0,.123-.194c.038-.074.071-.15.105-.231a.186.186,0,0,1,.164-.112.189.189,0,0,1,.17.1.838.838,0,0,0,.318.34.827.827,0,0,0,.449.125.838.838,0,0,0,.444-.141l.029-.02a.455.455,0,0,1,.081-.258.391.391,0,0,1,.4-.177.183.183,0,0,1,.131.256,1.165,1.165,0,0,1-.15.244.165.165,0,0,0,.1-.017.246.246,0,0,0,.1-.107.384.384,0,0,0,.037-.17.184.184,0,0,1,.181-.186h0a.184.184,0,0,1,.183.181.749.749,0,0,1-.074.336.607.607,0,0,1-.246.267.534.534,0,0,1-.386.049.5.5,0,0,1-.186-.088,1.18,1.18,0,0,1-1.28.019,1.248,1.248,0,0,1-.259-.208,1.427,1.427,0,0,1-.146.223.982.982,0,0,1-.249.22.735.735,0,0,1-.335.108h-.037" transform="translate(-118.502 -275.431)" fill="#7a91e6"/>
          <path id="Trazado_492949" data-name="Trazado 492949" d="M189.25,340.82a.772.772,0,0,1-.641-.358,2.135,2.135,0,0,1-.222.1,1.094,1.094,0,0,1-.488.081.762.762,0,0,1-.493-.251.677.677,0,0,1-.074-.1.769.769,0,0,1-.122.075.628.628,0,0,1-.3.067.532.532,0,0,1-.287-.09,2.236,2.236,0,0,1-.923-.112,1.313,1.313,0,0,1-.128-.052c-.077.053-.156.1-.237.147a2.892,2.892,0,0,1-.317.152,1.223,1.223,0,0,1-.193.063.64.64,0,0,1-.236.011.471.471,0,0,1-.07-.016.892.892,0,0,1-.075.059.794.794,0,0,1-1.2-.276.717.717,0,0,1-.111.085.623.623,0,0,1-.409.081,1.6,1.6,0,0,1-.159.062,2.268,2.268,0,0,1-.469.112,1.213,1.213,0,0,1-.509-.042.892.892,0,0,1-.446-.328l-.025-.037-.037.041a1.478,1.478,0,0,1-.426.317.183.183,0,0,1-.265-.158l-.027-.8a.183.183,0,0,1,.367-.012l.016.471q.035-.032.068-.067a1.12,1.12,0,0,0,.218-.336.183.183,0,0,1,.348.112.329.329,0,0,0,.063.258.518.518,0,0,0,.258.191.841.841,0,0,0,.355.027,1.706,1.706,0,0,0,.283-.061.467.467,0,0,1-.03-.067.435.435,0,0,1,.165-.487.378.378,0,0,1,.518.014.393.393,0,0,1,.1.219.822.822,0,0,0,.051-.124.755.755,0,0,1,.042-.161.183.183,0,0,1,.351.1q-.014.071-.033.136a.493.493,0,0,0,.059.273.429.429,0,0,0,.663.157l0,0a.375.375,0,0,1-.032-.13.357.357,0,0,1,.149-.3.316.316,0,0,1,.357-.024.184.184,0,0,1,.087.174.748.748,0,0,1-.037.169.981.981,0,0,0,.12-.041,2.548,2.548,0,0,0,.277-.133q.059-.033.117-.069a.5.5,0,0,1-.057-.117.437.437,0,0,1,.08-.4.352.352,0,0,1,.415-.123.361.361,0,0,1,.206.233.45.45,0,0,1-.007.283.507.507,0,0,1-.044.091,1.879,1.879,0,0,0,.555.086.41.41,0,0,1,.127-.331.38.38,0,0,1,.395-.067.351.351,0,0,1,.241.333c0,.005,0,.011,0,.016a1.064,1.064,0,0,0,.114-.144.184.184,0,0,1,.327.159.208.208,0,0,0,.059.194.391.391,0,0,0,.249.129.741.741,0,0,0,.326-.057,2.67,2.67,0,0,0,.355-.179.183.183,0,0,1,.271.125.353.353,0,1,0,.66-.235.184.184,0,0,1,.138-.269l.775-.1a.183.183,0,1,1,.046.364l-.562.071a.755.755,0,0,1-.047.356.716.716,0,0,1-.421.426.66.66,0,0,1-.223.038m-6.522-.862a.106.106,0,0,0-.032.018c-.033.025-.047.059-.043.071a.092.092,0,0,0,.028.039l.019-.021a.144.144,0,0,0,.031-.077.069.069,0,0,0,0-.03m4.063-.026h0m-1.224-.26a.09.09,0,0,0-.006.02l0-.006a.069.069,0,0,0,0-.014" transform="translate(-147.272 -277.027)" fill="#7a91e6"/>
          <path id="Trazado_492950" data-name="Trazado 492950" d="M145.864,366.222a1.379,1.379,0,0,1-.268-.025,1.093,1.093,0,0,1-.492-.235l-.039-.035a.557.557,0,0,1-.413-.037.49.49,0,0,1-.246-.454.413.413,0,0,1,.319-.415.182.182,0,0,1,.154.038.749.749,0,0,1,.1-.149.6.6,0,0,1,.554-.229.184.184,0,0,1,.154.2,2.954,2.954,0,0,1-.05.365,1.105,1.105,0,0,1-.151.377.724.724,0,0,1-.084.1.735.735,0,0,0,.269.112,1.182,1.182,0,0,0,.388,0,2.873,2.873,0,0,0,.416-.1,1.95,1.95,0,0,0,.276-.1.809.809,0,0,0,.118-.068.534.534,0,0,1-.072-.349.394.394,0,0,1,.339-.361.183.183,0,0,1,.165.069.561.561,0,0,1,.106.436.7.7,0,0,1-.025.108h0a1.549,1.549,0,0,0,.285.005c.117-.006.214-.011.311-.025a.945.945,0,0,0,.262-.072.512.512,0,0,0,.189-.149.316.316,0,0,0,.067-.162c0-.011,0-.022,0-.034a.183.183,0,0,1,.367.006c0,.012,0,.024,0,.036a.421.421,0,0,0,.134.284.4.4,0,0,0,.312.123.439.439,0,0,0,.367-.5.183.183,0,0,1,.319-.159,2.055,2.055,0,0,0,.223.231.728.728,0,0,0,.236.141l.015,0,0,0a.528.528,0,0,1,.1-.612.185.185,0,0,1,.077-.043.44.44,0,0,1,.481.2.513.513,0,0,1,.043.509.72.72,0,0,0,.188-.045,1.618,1.618,0,0,0,.368-.207.183.183,0,0,1,.287.184.354.354,0,0,0,.323.392h0a.354.354,0,0,0,.32-.4.183.183,0,0,1,.18-.221h0l.643.006a.183.183,0,0,1,0,.367h0l-.456,0a.724.724,0,0,1-.156.349.688.688,0,0,1-.527.266h0a.689.689,0,0,1-.527-.26.746.746,0,0,1-.128-.222,1.543,1.543,0,0,1-.2.09.948.948,0,0,1-.554.048.594.594,0,0,1-.134-.049h0a.772.772,0,0,1-.457-.011,1.07,1.07,0,0,1-.343-.2.845.845,0,0,1-.1.181.743.743,0,0,1-1.15.1.854.854,0,0,1-.086-.1.9.9,0,0,1-.262.184,1.3,1.3,0,0,1-.363.1c-.121.018-.246.024-.346.028a1.82,1.82,0,0,1-.356-.009.875.875,0,0,1-.159-.038,1.065,1.065,0,0,1-.264.173,2.248,2.248,0,0,1-.329.119,3.243,3.243,0,0,1-.47.107,1.783,1.783,0,0,1-.241.017m-1.059-.844H144.8c-.016,0-.026.037-.027.067a.134.134,0,0,0,.05.118l.016.007a.806.806,0,0,1-.023-.09.65.65,0,0,1-.01-.1m.479-.266a.353.353,0,0,0-.028.03.347.347,0,0,0-.081.273h0a.742.742,0,0,0,.1-.252c0-.017.007-.034.01-.052m5.5-.19a.233.233,0,0,0,.019.142.348.348,0,0,0,.029.054l.008-.014a.154.154,0,0,0-.022-.143.177.177,0,0,0-.035-.038" transform="translate(-117.912 -297.66)" fill="#7a91e6"/>
          <path id="Trazado_492951" data-name="Trazado 492951" d="M208.311,366.676a.482.482,0,0,1-.2-.045.557.557,0,0,1-.293-.317.774.774,0,0,1-.026-.37,2.024,2.024,0,0,1,.08-.314.183.183,0,0,1,.3-.076.369.369,0,0,1,.066-.023.394.394,0,0,1,.3.051.473.473,0,0,1,.182.208.6.6,0,0,1,.05.233c0,.007,0,.015,0,.022a.521.521,0,0,0,.061-.038.444.444,0,0,0,.179-.252.574.574,0,0,1,.013-.129.184.184,0,0,1,.363.034.676.676,0,0,1-.007.116.3.3,0,0,0,.093.164.444.444,0,0,0,.3.125h0a.727.727,0,0,0,.35-.1,1.759,1.759,0,0,0,.34-.257.183.183,0,0,1,.287.221.129.129,0,0,0,.014.116.2.2,0,0,0,.125.1.289.289,0,0,0,.185-.034.469.469,0,0,0,.168-.153.78.78,0,0,0,.1-.216.735.735,0,0,1-.1-.213.184.184,0,0,1,.149-.23l.159-.025a.184.184,0,0,1,.211.2c-.006.048-.013.1-.023.164a.692.692,0,0,0,.253.133,1.251,1.251,0,0,0,.314.044c.118,0,.242,0,.352-.011a.183.183,0,0,1,.021.366c-.117.007-.25.015-.383.011a1.6,1.6,0,0,1-.407-.058,1.1,1.1,0,0,1-.259-.113,1.038,1.038,0,0,1-.081.148.84.84,0,0,1-.3.274.646.646,0,0,1-.423.069.564.564,0,0,1-.373-.272l-.014-.025c-.044.03-.088.058-.132.082a1.1,1.1,0,0,1-.526.148h0a.812.812,0,0,1-.551-.229l-.027-.027a.878.878,0,0,1-.144.13.842.842,0,0,1-.371.152.448.448,0,0,1-.11.132.4.4,0,0,1-.253.088m.015-.789h0a.073.073,0,0,0-.01.015.077.077,0,0,0-.006.051.149.149,0,0,0,.044.066.264.264,0,0,0,.048.035c0-.008,0-.016,0-.024a.23.23,0,0,0-.018-.091.107.107,0,0,0-.039-.045.042.042,0,0,0-.019-.007" transform="translate(-169.66 -298.252)" fill="#7a91e6"/>
          <path id="Trazado_492952" data-name="Trazado 492952" d="M146.546,388.83a1.187,1.187,0,0,1-.506-.1.838.838,0,0,1-.29-.224.281.281,0,0,1-.244.006.332.332,0,0,1-.168-.159.414.414,0,0,1-.039-.174.9.9,0,0,1,.009-.129.186.186,0,0,1,.2-.16.19.19,0,0,1,.056.016.59.59,0,0,1,.07-.193.183.183,0,0,1,.34.121l-.042.261a.433.433,0,0,0,.023.065.49.49,0,0,0,.232.237.817.817,0,0,0,.368.068,2.38,2.38,0,0,0,.429-.054,1.888,1.888,0,0,0,.192-.047.594.594,0,0,0,.15-.069.312.312,0,0,0,.1-.1l.007-.013a.335.335,0,0,1,.045-.19.183.183,0,0,1,.342.079.488.488,0,0,1,0,.112.059.059,0,0,0,.02.016.244.244,0,0,0,.094.015,1.107,1.107,0,0,0,.15-.016,2.475,2.475,0,0,0,.244-.047.672.672,0,0,0,.191-.079.344.344,0,0,0,.116-.126.181.181,0,0,0,.021-.124.183.183,0,1,1,.356-.089.537.537,0,0,1-.051.381.712.712,0,0,1-.244.266,1.021,1.021,0,0,1-.295.125,2.7,2.7,0,0,1-.281.055,1.422,1.422,0,0,1-.2.021.6.6,0,0,1-.245-.045.416.416,0,0,1-.049-.025.689.689,0,0,1-.107.087.955.955,0,0,1-.242.112,2.2,2.2,0,0,1-.231.057,2.724,2.724,0,0,1-.5.061h-.019" transform="translate(-118.642 -316.486)" fill="#7a91e6"/>
          <path id="Trazado_492953" data-name="Trazado 492953" d="M174.691,387.472a.928.928,0,0,1-.375-.078.716.716,0,0,1-.358-.333.619.619,0,0,1,0-.523.527.527,0,0,1,.423-.323.183.183,0,0,1,.036.365.176.176,0,0,0-.125.109.257.257,0,0,0,0,.21.359.359,0,0,0,.179.161.564.564,0,0,0,.28.044.937.937,0,0,0,.3-.088,2.219,2.219,0,0,0,.3-.176,1.417,1.417,0,0,0,.168-.127.578.578,0,0,0,.051-.053,1.023,1.023,0,0,1-.057-.439.184.184,0,0,1,.279-.139.454.454,0,0,1,.205.313.576.576,0,0,1-.018.276c.012.021.026.042.041.061a.67.67,0,0,0,.9.2.714.714,0,0,0,.328-.375.183.183,0,0,1,.355.083.352.352,0,0,0,.37.364.283.283,0,0,0,.134-.061l-.037-.03a.456.456,0,0,1-.171-.336.366.366,0,0,1,.272-.348.342.342,0,0,1,.272.024.281.281,0,0,1,.128.167.652.652,0,0,1,.039.323,1.065,1.065,0,0,0,.437-.036,1.046,1.046,0,0,0,.494-.313.184.184,0,0,1,.131-.064.188.188,0,0,1,.136.052.932.932,0,0,0,.938.207.183.183,0,1,1,.123.346,1.272,1.272,0,0,1-.7.039,1.293,1.293,0,0,1-.478-.212,1.445,1.445,0,0,1-1.222.329.68.68,0,0,1-.444.275.7.7,0,0,1-.574-.2.745.745,0,0,1-.093-.11,1.132,1.132,0,0,1-.259.2,1.034,1.034,0,0,1-1.344-.258,1.761,1.761,0,0,1-.2.153,2.555,2.555,0,0,1-.353.2,1.3,1.3,0,0,1-.419.12q-.045,0-.091,0" transform="translate(-141.995 -315.225)" fill="#7a91e6"/>
          <path id="Trazado_492954" data-name="Trazado 492954" d="M219.09,388.2a.805.805,0,0,1-.092-.005.928.928,0,0,1-.782-1.053.183.183,0,1,1,.361.066.562.562,0,0,0,.463.623.512.512,0,0,0,.321-.078.444.444,0,0,1-.029-.048.472.472,0,0,1-.007-.408.46.46,0,0,1,.31-.27.364.364,0,0,1,.105-.01.274.274,0,0,1,.141.049.263.263,0,0,1,.05.047.182.182,0,0,1,.088-.029.184.184,0,0,1,.165.082.506.506,0,0,1,.081.228.316.316,0,0,0,.059.012,1.142,1.142,0,0,0,.143,0l.974-.015h0a.183.183,0,0,1,0,.367l-.974.015a1.462,1.462,0,0,1-.19-.006.682.682,0,0,1-.1-.02.48.48,0,0,1-.13.132.492.492,0,0,1-.349.075l-.024.021a.912.912,0,0,1-.585.222" transform="translate(-178.171 -315.991)" fill="#7a91e6"/>
          <path id="Trazado_492955" data-name="Trazado 492955" d="M147.138,408.3a1.269,1.269,0,0,1-.4-.063.943.943,0,0,1-.416-.268.727.727,0,0,1-.083-.115.811.811,0,0,1-.272.146.66.66,0,0,1-.418,0,.58.58,0,0,1-.327-.3.507.507,0,0,1,0-.458.183.183,0,1,1,.323.174.151.151,0,0,0,.006.129.217.217,0,0,0,.117.112.3.3,0,0,0,.187,0,.455.455,0,0,0,.187-.116.611.611,0,0,0,.082-.106.654.654,0,0,1,.185-.45.183.183,0,0,1,.309.169,1.723,1.723,0,0,1-.107.333l-.015.032a.422.422,0,0,0,.1.214.581.581,0,0,0,.257.163.9.9,0,0,0,.337.042,1.615,1.615,0,0,0,.358-.066c.126-.036.252-.083.374-.128a2.3,2.3,0,0,0,.307-.132l0,0a.74.74,0,0,1-.078-.341.6.6,0,0,1,.248-.5.183.183,0,0,1,.188-.012.518.518,0,0,1,.272.426.689.689,0,0,1-.1.436.6.6,0,0,0,.117.039.844.844,0,0,0,.252.017.5.5,0,0,1-.058-.116.486.486,0,0,1,.108-.474.427.427,0,0,1,.476-.135.445.445,0,0,1,.272.327.568.568,0,0,1,.013.089.789.789,0,0,0,.085-.164.183.183,0,0,1,.355.065.492.492,0,0,0,.466.466h0a.466.466,0,0,0,.323-.146l.029-.032a.459.459,0,0,1,.195-.449.183.183,0,0,1,.284.151.793.793,0,0,1-.081.355.209.209,0,0,0,.055.064.5.5,0,0,0,.222.083,1.866,1.866,0,0,0,.306.015,3.23,3.23,0,0,0,.329-.013c.036,0,.071-.009.1-.015a.842.842,0,0,1-.115-.223.6.6,0,0,1,.121-.63.183.183,0,0,1,.039-.03.475.475,0,0,1,.507.03.562.562,0,0,1,.257.426.65.65,0,0,1-.12.411,1.12,1.12,0,0,0,.164,0,2.971,2.971,0,0,0,.469-.069l.99-.2a.53.53,0,0,1-.041-.38.478.478,0,0,1,.292-.311.425.425,0,0,1,.434.06.4.4,0,0,1,.038.037.531.531,0,0,1,.3-.064.434.434,0,0,1,.413.343.447.447,0,0,1-.043.279.641.641,0,0,0,.111-.1.186.186,0,0,1,.173-.058.184.184,0,0,1,.137.119.462.462,0,0,0,.513.283.4.4,0,0,0,.118-.049.561.561,0,0,1,0-.324.4.4,0,0,1,.42-.309.183.183,0,0,1,.164.162.79.79,0,0,1-.1.481.551.551,0,0,0,.085.028,1.621,1.621,0,0,0,.309.036,2.931,2.931,0,0,0,.316,0c.036,0,.069-.006.1-.011a.583.583,0,0,1-.171-.363.461.461,0,0,1,.159-.407.448.448,0,0,1,.5-.034.53.53,0,0,1,.285.4.574.574,0,0,1-.033.263,2.436,2.436,0,0,0,.829-.132h0a.558.558,0,0,1,.012-.064.664.664,0,0,1,1-.368.183.183,0,0,1,.006.292,2.9,2.9,0,0,1-.6.369.31.31,0,0,0,.027.033.273.273,0,0,0,.233.1.687.687,0,0,0,.194-.077l.022-.012a1.307,1.307,0,0,1,.261-.112.555.555,0,0,1,.407.052.371.371,0,0,1,.2.4.183.183,0,0,1-.361-.068s-.009,0-.021-.011a.194.194,0,0,0-.132-.018,1,1,0,0,0-.188.083l-.023.012a1,1,0,0,1-.306.114.634.634,0,0,1-.56-.209.709.709,0,0,1-.106-.148,2.908,2.908,0,0,1-.981.136,1.687,1.687,0,0,1-.2-.017.825.825,0,0,1-.161.088,1.207,1.207,0,0,1-.381.081,3.392,3.392,0,0,1-.356,0,1.932,1.932,0,0,1-.383-.047.83.83,0,0,1-.249-.1.77.77,0,0,1-.265.118.8.8,0,0,1-.567-.086.841.841,0,0,1-.25-.21.927.927,0,0,1-.177.094.742.742,0,0,1-.461.036.579.579,0,0,1-.142-.058.925.925,0,0,1-.188.017.784.784,0,0,1-.3-.06,2.394,2.394,0,0,1-.233.057l-1,.205a3.333,3.333,0,0,1-.527.076,1.228,1.228,0,0,1-.524-.082l-.021.01a1.3,1.3,0,0,1-.387.1,3.472,3.472,0,0,1-.366.015,2.213,2.213,0,0,1-.365-.019.845.845,0,0,1-.383-.151.536.536,0,0,1-.071-.063.823.823,0,0,1-.512.193h0a.834.834,0,0,1-.581-.25.886.886,0,0,1-.122-.153.769.769,0,0,1-.306.2.632.632,0,0,1-.25.031,1.065,1.065,0,0,1-.306.1,1.247,1.247,0,0,1-.486-.01.938.938,0,0,1-.311-.132c-.024.016-.05.031-.076.045a2.654,2.654,0,0,1-.356.154c-.128.048-.261.1-.4.137a1.985,1.985,0,0,1-.44.08l-.074,0m5.722-1.13a.263.263,0,0,0-.016.234.48.48,0,0,0,.106.175.47.47,0,0,0,.037-.043.3.3,0,0,0,.067-.195.2.2,0,0,0-.093-.143.15.15,0,0,0-.1-.027m-3.344.12a.1.1,0,0,0-.061.037.129.129,0,0,0-.036.113.173.173,0,0,0,.094.095.251.251,0,0,0,.039-.049.181.181,0,0,0,.018-.128c0-.013-.015-.055-.044-.066l-.01,0m9.4-.1a.052.052,0,0,0-.034.011.109.109,0,0,0-.026.09.216.216,0,0,0,.065.136.353.353,0,0,0,.1.063.25.25,0,0,0,.05-.167.165.165,0,0,0-.091-.116.152.152,0,0,0-.063-.018m-3.014-.023a.121.121,0,0,0-.107.047.181.181,0,0,0,.015.162l.012.02a.429.429,0,0,0,.128-.087.121.121,0,0,0,.046-.1c0-.026-.05-.038-.08-.041H155.9m-.558-.064a.112.112,0,0,0-.04.008.117.117,0,0,0-.071.068.174.174,0,0,0,.02.124.258.258,0,0,0,.028.042.317.317,0,0,0,.049-.038.2.2,0,0,0,.059-.123.089.089,0,0,0-.019-.073.039.039,0,0,0-.025-.007" transform="translate(-118.538 -332.114)" fill="#7a91e6"/>
          <path id="Trazado_492956" data-name="Trazado 492956" d="M144.849,430.005a.183.183,0,0,1-.173-.121l-.4-1.107a.183.183,0,1,1,.345-.124l.314.873.037-.042,0,0a.468.468,0,0,1,0-.43.374.374,0,0,1,.393-.219.183.183,0,0,1,.154.183,1.1,1.1,0,0,1-.08.4.842.842,0,0,0,.176.046,1.992,1.992,0,0,0,.407.024,2.035,2.035,0,0,0,.4-.057.905.905,0,0,0,.169-.058.721.721,0,0,1-.087-.47.183.183,0,0,1,.152-.151.384.384,0,0,1,.4.214.489.489,0,0,1,.028.415l.042.025a.812.812,0,0,0,.3.088,1.522,1.522,0,0,0,.346-.007l.053-.008a.7.7,0,0,1,.308-.674.183.183,0,0,1,.174-.013.4.4,0,0,1,.132.1.183.183,0,0,1,.352.1.853.853,0,0,1-.272.464l-.015.013a.516.516,0,0,1-.062.1.722.722,0,0,1-.3.213,1.322,1.322,0,0,1-.322.077,1.838,1.838,0,0,1-.431.008,1.172,1.172,0,0,1-.434-.13.857.857,0,0,1-.113-.073l-.02.012a1.15,1.15,0,0,1-.307.119,2.393,2.393,0,0,1-.958.039,1.123,1.123,0,0,1-.308-.091,1.1,1.1,0,0,1-.311.255.185.185,0,0,1-.088.023" transform="translate(-117.798 -349.911)" fill="#7a91e6"/>
          <path id="Trazado_492957" data-name="Trazado 492957" d="M182.36,430.472l-.063,0a.7.7,0,0,1-.358-1.247.183.183,0,0,1,.219.295.33.33,0,1,0,.416.514l0,0a.993.993,0,0,1-.3-.526.183.183,0,0,1,.153-.218l.27-.04a.183.183,0,0,1,.159.055.7.7,0,0,1,.184.512.785.785,0,0,1-.009.086.621.621,0,0,0,.288.05.676.676,0,0,0,.595-.62.183.183,0,0,1,.363-.031.567.567,0,0,0,.281.359.919.919,0,0,0,.513.12,1.581,1.581,0,0,0,.543-.149c.077-.035.154-.074.231-.116a.6.6,0,0,1,.15-.38.183.183,0,0,1,.3.039l.12.233a.183.183,0,0,1-.068.241l-.082.049.011.012a.24.24,0,0,0,.162.066.233.233,0,0,0,.167-.053.256.256,0,0,0,.034-.327.184.184,0,0,1,.292-.222.607.607,0,0,1-.916.793.565.565,0,0,1-.07-.087c-.059.031-.117.06-.178.087a1.937,1.937,0,0,1-.67.181,1.284,1.284,0,0,1-.724-.171A.19.19,0,1,0,184,430a1.009,1.009,0,0,1-.644.315.976.976,0,0,1-.466-.08.647.647,0,0,1-.07.072.69.69,0,0,1-.456.165" transform="translate(-148.336 -350.352)" fill="#7a91e6"/>
          <path id="Trazado_492958" data-name="Trazado 492958" d="M207.647,429.5a1.107,1.107,0,0,1-.28-.036,1.407,1.407,0,0,1-.18-.06,5.285,5.285,0,0,1-.8.032,5.215,5.215,0,0,1-1.462-.262,1.274,1.274,0,0,1-.433-.237.545.545,0,0,1-.208-.5.555.555,0,0,1,.277-.4,1.215,1.215,0,0,1,.4-.15,4.474,4.474,0,0,1,1.484-.049.183.183,0,0,1-.049.364,4.091,4.091,0,0,0-1.362.045.873.873,0,0,0-.281.1c-.1.061-.106.118-.109.137s-.012.085.087.173a.9.9,0,0,0,.305.163,4.864,4.864,0,0,0,1.36.243c.074,0,.147,0,.221,0a.184.184,0,0,1-.036-.221,1.541,1.541,0,0,1,1.036-.767,1.138,1.138,0,0,1,.276-.024.779.779,0,0,1,.292.067.634.634,0,0,1,.251.209.532.532,0,0,1,.1.27l.094-.04.034-.015a2.146,2.146,0,0,1,.384-.13,1.286,1.286,0,0,1,.426-.03.977.977,0,0,1,.43.151.779.779,0,0,1,.3.361.183.183,0,1,1-.341.136.415.415,0,0,0-.163-.19.614.614,0,0,0-.267-.093.918.918,0,0,0-.306.023,1.807,1.807,0,0,0-.319.109l-.033.015a1.826,1.826,0,0,1-.208.081.758.758,0,0,1-.156.03.663.663,0,0,1-.166.263.814.814,0,0,1-.427.209,1.033,1.033,0,0,1-.176.015m-.65-.615c.052.034.1.066.158.1.03.017.059.032.087.046a4.8,4.8,0,0,0,.531-.1,1.049,1.049,0,0,0,.226-.083.462.462,0,0,1-.05-.079.363.363,0,0,1-.009-.327.513.513,0,0,0-.06-.006.777.777,0,0,0-.187.017,1.163,1.163,0,0,0-.457.206,1.183,1.183,0,0,0-.239.236" transform="translate(-166.8 -349.317)" fill="#7a91e6"/>
          <path id="Trazado_492959" data-name="Trazado 492959" d="M386.968,195.368c-.212-.164-.568-.446-.954-.777a14.325,14.325,0,0,1-1.137-1.068c-.072-.078-.181-.2-.278-.329a1.288,1.288,0,0,1-.212-.365c-.021-.077-.043-.156-.066-.234s-.047-.157-.074-.234a2.75,2.75,0,0,0-.267-.581,1.611,1.611,0,0,0-.351-.4l-.067-.054-.067-.054,0,.086,0,.086c0,.075-.006.152-.014.227a1,1,0,0,1-.047.22.6.6,0,0,1-.108.191.42.42,0,0,1-.156.117.466.466,0,0,1-.356-.013,1.565,1.565,0,0,1-.348-.207l-1.309-.97-1.309-.97a2.052,2.052,0,0,0-.179-.123.773.773,0,0,0-.214-.089.547.547,0,0,0-.257,0,.412.412,0,0,0-.227.145.353.353,0,0,0-.064.132.375.375,0,0,0-.005.149.5.5,0,0,0,.084.2.583.583,0,0,0,.166.16l.93.865.93.865a.617.617,0,0,1-.084-.031,1.02,1.02,0,0,1-.093-.049,2.612,2.612,0,0,1-.237-.159c-.077-.057-.152-.117-.226-.176-.113-.09-.228-.182-.351-.264a1.886,1.886,0,0,0-.394-.208l-.633-.386-.633-.386a.239.239,0,0,0-.153-.039.491.491,0,0,0-.171.039.367.367,0,0,0-.125.085.2.2,0,0,0-.055.11.363.363,0,0,0,.039.212.761.761,0,0,0,.117.166,2.957,2.957,0,0,0,.216.216c.075.068.152.134.227.2l.558.477.559.477-.695-.309-.695-.309a.581.581,0,0,0-.115-.041.269.269,0,0,0-.148.007.243.243,0,0,0-.141.134.289.289,0,0,0-.018.184.375.375,0,0,0,.068.136.863.863,0,0,0,.1.106,4.265,4.265,0,0,0,.45.367,4.449,4.449,0,0,0,.5.307l-.017.01-.017.011a.234.234,0,0,0-.09.14.277.277,0,0,0,.01.156.382.382,0,0,0,.07.114.9.9,0,0,0,.084.083,9.711,9.711,0,0,0,1.372,1.029,9.979,9.979,0,0,0,1.545.781c.088.036.173.071.256.107l.241.105c.1.043.2.086.3.13s.208.087.32.13c.153.059.33.129.512.214a4.26,4.26,0,0,1,.547.3,4.414,4.414,0,0,1,.709.6c.217.221.418.456.616.688l.037.043.037.043.032-.05.032-.05a12.54,12.54,0,0,1,.815-1.083,4.219,4.219,0,0,0,.671-1.1l.009,0,.009,0c0-.039,0-.078,0-.117s0-.078,0-.117" transform="translate(-308.443 -154.987)" fill="#ffa188"/>
          <path id="Trazado_492960" data-name="Trazado 492960" d="M17.385,330.74h15.92a4.521,4.521,0,0,0,4.521-4.522V303.484H17.385V330.74Z" transform="translate(-14.195 -247.805)" fill="#7186e2"/>
          <path id="Trazado_492961" data-name="Trazado 492961" d="M35.988,354.009H28.57a.735.735,0,0,1-.736-.735V353.1a.735.735,0,0,1,.736-.736h7.418a.735.735,0,0,1,.736.736v.174a.735.735,0,0,1-.736.735" transform="translate(-22.727 -287.718)" fill="#c4d2ff"/>
          <path id="Trazado_492962" data-name="Trazado 492962" d="M45.736,395.846H40.508a.735.735,0,0,1-.736-.736v-.174a.735.735,0,0,1,.736-.736h5.228a.735.735,0,0,1,.736.736v.174a.735.735,0,0,1-.736.736" transform="translate(-32.475 -321.879)" fill="#c4d2ff"/>
          <path id="Trazado_492963" data-name="Trazado 492963" d="M91.917,395.846H88.036a.736.736,0,0,1-.736-.736v-.174a.736.736,0,0,1,.736-.736h3.881a.735.735,0,0,1,.736.736v.174a.735.735,0,0,1-.736.736" transform="translate(-71.284 -321.879)" fill="#c4d2ff"/>
          <path id="Trazado_492964" data-name="Trazado 492964" d="M30.516,373.362H28.57a.735.735,0,0,1-.736-.736v-.174a.735.735,0,0,1,.736-.736h1.946a.735.735,0,0,1,.736.736v.174a.735.735,0,0,1-.736.736" transform="translate(-22.727 -303.52)" fill="#c4d2ff"/>
          <path id="Trazado_492965" data-name="Trazado 492965" d="M61.37,373.362H56.318a.736.736,0,0,1-.736-.736v-.174a.736.736,0,0,1,.736-.736H61.37a.735.735,0,0,1,.736.736v.174a.735.735,0,0,1-.736.736" transform="translate(-45.385 -303.52)" fill="#c4d2ff"/>
          <path id="Trazado_492966" data-name="Trazado 492966" d="M101.343,373.362H98.717a.735.735,0,0,1-.736-.736v-.174a.735.735,0,0,1,.736-.736h2.626a.735.735,0,0,1,.736.736v.174a.735.735,0,0,1-.736.736" transform="translate(-80.005 -303.52)" fill="#c4d2ff"/>
          <path id="Trazado_492967" data-name="Trazado 492967" d="M92.674,354.009h-3.2a.735.735,0,0,1-.736-.735V353.1a.735.735,0,0,1,.736-.736h3.2a.735.735,0,0,1,.736.736v.174a.735.735,0,0,1-.736.735" transform="translate(-72.459 -287.718)" fill="#c4d2ff"/>
        </g>
      </g>
    </g>
  </g>
</svg>
