<svg id="Grupo_735075" data-name="Grupo 735075" xmlns="http://www.w3.org/2000/svg" xmlns:xlink="http://www.w3.org/1999/xlink" width="110.41" height="83.926" viewBox="0 0 110.41 83.926">
  <defs>
    <clipPath id="clip-path">
      <rect id="Rectángulo_274856" data-name="Rectángulo 274856" width="110.411" height="83.926" fill="none"/>
    </clipPath>
  </defs>
  <g id="Grupo_730264" data-name="Grupo 730264" clip-path="url(#clip-path)">
    <path id="Trazado_494122" data-name="Trazado 494122" d="M108.18,14.845c-3.484,0-5.954,2.724-5.954,6.908V37.1H96.908V10.088h5.254v3.3a7.127,7.127,0,0,1,6.33-3.491h1.918v4.949ZM93.234,23.6c0-8.057-5.733-14.08-13.488-14.08a13.908,13.908,0,0,0-13.809,14V23.6A13.96,13.96,0,0,0,80.245,37.743,14.131,14.131,0,0,0,91.9,31.973l-3.849-2.839a9.409,9.409,0,0,1-7.8,3.93,9.059,9.059,0,0,1-8.915-7.731H93.256ZM71.447,21.118a8.5,8.5,0,0,1,8.234-6.911,8.373,8.373,0,0,1,8.17,6.911ZM49.094,9.515a13.455,13.455,0,0,0-9.553,3.993V0H34.225V37.1h5.254V33.676a13.668,13.668,0,0,0,9.627,4.057,14.112,14.112,0,1,0,.6-28.218h-.611Zm-.381,23.468a9.352,9.352,0,1,1,9.311-9.4v.074a9.287,9.287,0,0,1-9.273,9.3h-.038Zm-34.072-.257c5.134,0,9.112-3.935,9.112-9.831V0h5.515V37.1H23.825v-3.51a13.534,13.534,0,0,1-9.815,4.122C6.1,37.714,0,31.945,0,23.195V0H5.611V22.926C5.611,28.856,9.433,32.726,14.641,32.726Z" fill="#272626"/>
    <path id="Trazado_494123" data-name="Trazado 494123" d="M.076,366.393H26.105v6.369h-19V381.8H25.57v6.153H7.107v9.2h19v6.369H.076Zm97.908,37.8c7.98,0,12.469-3.822,12.469-9.069,0-3.738-2.662-6.527-8.234-7.738l-5.892-1.2c-3.419-.638-4.5-1.273-4.5-2.547,0-1.65,1.65-2.662,4.688-2.662,3.292,0,5.731.885,6.369,3.928h6.9c-.377-5.731-4.5-9.515-12.853-9.515-7.222,0-12.292,2.98-12.292,8.757,0,3.993,2.791,6.592,8.807,7.858l6.585,1.523c2.6.511,3.292,1.211,3.292,2.288,0,1.712-1.959,2.789-5.131,2.789-3.988,0-6.266-.885-7.153-3.93H84.115c1.012,5.712,5.254,9.517,13.869,9.517m-15.876-.7H74.638c-4.688,0-7.287-2.916-7.287-6.6V382.315H62.1V376.1h5.275v-7.8h6.942v7.8H82.1v6.215H74.319v12.807c0,1.458,1.012,2.158,2.6,2.158h5.191Zm-29.93-27.386v2.472a13.469,13.469,0,0,0-8.745-3.184,14.4,14.4,0,1,0-.6,28.794h.6a13.45,13.45,0,0,0,8.745-3.184v2.465H59.1V376.1Zm-8.172,22.06a8.376,8.376,0,1,1,8.28-8.471h0v.1a8.277,8.277,0,0,1-8.2,8.354H44Z" transform="translate(-0.066 -320.267)" fill="#5fb746"/>
  </g>
</svg>
