<svg xmlns="http://www.w3.org/2000/svg" xmlns:xlink="http://www.w3.org/1999/xlink" width="610" height="461" viewBox="0 0 610 461">
  <defs>
    <clipPath id="clip-path">
      <rect id="Rectángulo_274850" data-name="Rectángulo 274850" width="610" height="461" transform="translate(0 -11.735)" fill="#f75b6f"/>
    </clipPath>
    <clipPath id="clip-path-2">
      <rect id="Rectángulo_274849" data-name="Rectángulo 274849" width="610" height="610" transform="translate(0 -29.784)" fill="none" opacity="0.12"/>
    </clipPath>
    <clipPath id="clip-path-3">
      <rect id="Rectángulo_274835" data-name="Rectángulo 274835" width="262.109" height="289.258" fill="none"/>
    </clipPath>
    <clipPath id="clip-path-5">
      <rect id="Rectángulo_274832" data-name="Rectángulo 274832" width="262.109" height="14.782" fill="none"/>
    </clipPath>
  </defs>
  <g id="Grupo_735505" data-name="Grupo 735505" transform="translate(-180.006 -12814)">
    <g id="Enmascarar_grupo_726362" data-name="Enmascarar grupo 726362" transform="translate(180.006 12825.734)" clip-path="url(#clip-path)">
      <g id="Grupo_730252" data-name="Grupo 730252" transform="translate(0 -92.951)">
        <g id="Grupo_730251" data-name="Grupo 730251" transform="translate(0 0)" clip-path="url(#clip-path-2)">
          <path id="Trazado_493980" data-name="Trazado 493980" d="M120,52.073a8.235,8.235,0,1,1-8.235-8.235A8.235,8.235,0,0,1,120,52.073" transform="translate(-28.491 10.112)" fill="#ffca5e" opacity="0.12"/>
          <path id="Trazado_493981" data-name="Trazado 493981" d="M89.116,115.633a5.795,5.795,0,1,1-5.795-5.795,5.8,5.8,0,0,1,5.795,5.795" transform="translate(-34.211 -5.369)" fill="#ffca5e" opacity="0.12"/>
          <path id="Trazado_493982" data-name="Trazado 493982" d="M71.786,223.718a4.88,4.88,0,1,1-4.88-4.88,4.88,4.88,0,0,1,4.88,4.88" transform="translate(-37.62 18.608)" fill="#ffca5e" opacity="0.12"/>
          <path id="Trazado_493983" data-name="Trazado 493983" d="M190.236,42.693a3.355,3.355,0,1,1-3.355-3.355,3.355,3.355,0,0,1,3.355,3.355" transform="translate(-10.893 9.122)" fill="#ffca5e" opacity="0.12"/>
          <path id="Trazado_493984" data-name="Trazado 493984" d="M143.116,19.133a5.795,5.795,0,1,1-5.795-5.795,5.8,5.8,0,0,1,5.795,5.795" transform="translate(-22.332 3.403)" fill="#ffca5e" opacity="0.12"/>
          <path id="Trazado_493985" data-name="Trazado 493985" d="M446.556,31.353a7.015,7.015,0,1,1-7.015-7.015,7.014,7.014,0,0,1,7.015,7.015" transform="translate(43.88 5.823)" fill="#ffca5e" opacity="0.12"/>
          <path id="Trazado_493986" data-name="Trazado 493986" d="M390.963,126.6a7.015,7.015,0,1,1-7.015-7.015,7.014,7.014,0,0,1,7.015,7.015" transform="translate(31.651 -3.225)" fill="#ffca5e" opacity="0.12"/>
          <path id="Trazado_493987" data-name="Trazado 493987" d="M444.346,59.5a3.66,3.66,0,1,1-3.66-3.66,3.66,3.66,0,0,1,3.66,3.66" transform="translate(44.87 12.752)" fill="#ffca5e" opacity="0.12"/>
          <path id="Trazado_493988" data-name="Trazado 493988" d="M514.446,27.548a6.71,6.71,0,1,1-6.71-6.71,6.709,6.709,0,0,1,6.71,6.71" transform="translate(58.949 5.053)" fill="#ffca5e" opacity="0.12"/>
          <path id="Trazado_493989" data-name="Trazado 493989" d="M511.336,98.243a6.4,6.4,0,1,1-6.4-6.4,6.4,6.4,0,0,1,6.4,6.4" transform="translate(58.399 -9.329)" fill="#ffca5e" opacity="0.12"/>
          <path id="Trazado_493990" data-name="Trazado 493990" d="M523.9,185.023a5.185,5.185,0,1,1-5.185-5.185,5.185,5.185,0,0,1,5.185,5.185" transform="translate(61.698 10.029)" fill="#ffca5e" opacity="0.12"/>
          <path id="Trazado_493991" data-name="Trazado 493991" d="M518.846,310a3.66,3.66,0,1,1-3.66-3.66,3.66,3.66,0,0,1,3.66,3.66" transform="translate(61.258 37.856)" fill="#ffca5e" opacity="0.12"/>
          <path id="Trazado_493992" data-name="Trazado 493992" d="M349.826,27.988a9.15,9.15,0,1,1-9.15-9.15,9.15,9.15,0,0,1,9.15,9.15" transform="translate(21.663 4.613)" fill="#ffca5e" opacity="0.12"/>
          <path id="Trazado_493993" data-name="Trazado 493993" d="M384.186,24.668a1.83,1.83,0,1,1-1.83-1.83,1.831,1.831,0,0,1,1.83,1.83" transform="translate(32.442 5.493)" fill="#ffca5e" opacity="0.12"/>
          <path id="Trazado_493994" data-name="Trazado 493994" d="M257.176,21.913a4.575,4.575,0,1,1-4.575-4.575,4.575,4.575,0,0,1,4.575,4.575" transform="translate(3.295 4.283)" fill="#ffca5e" opacity="0.12"/>
          <path id="Trazado_493995" data-name="Trazado 493995" d="M77.37,34.349l.867,3.366A12.194,12.194,0,0,0,87,46.482l3.366.867L87,48.216a12.194,12.194,0,0,0-8.767,8.767l-.867,3.366L76.5,56.983a12.194,12.194,0,0,0-8.767-8.767l-3.366-.867,3.366-.867A12.194,12.194,0,0,0,76.5,37.715Z" transform="translate(-37.105 8.025)" fill="#ffca5e" opacity="0.12"/>
          <path id="Trazado_493996" data-name="Trazado 493996" d="M120.084,89.015l.515,2a7.235,7.235,0,0,0,5.2,5.2l2,.515-2,.514a7.237,7.237,0,0,0-5.2,5.2l-.515,2-.515-2a7.237,7.237,0,0,0-5.2-5.2l-2-.514,2-.515a7.235,7.235,0,0,0,5.2-5.2Z" transform="translate(-26.546 -9.95)" fill="#ffca5e" opacity="0.12"/>
          <path id="Trazado_493997" data-name="Trazado 493997" d="M63.417,297.682l.515,2a7.235,7.235,0,0,0,5.2,5.2l2,.515-2,.514a7.237,7.237,0,0,0-5.2,5.2l-.515,2-.515-2a7.237,7.237,0,0,0-5.2-5.2l-2-.514,2-.515a7.235,7.235,0,0,0,5.2-5.2Z" transform="translate(-39.011 35.952)" fill="#ffca5e" opacity="0.12"/>
          <path id="Trazado_493998" data-name="Trazado 493998" d="M157.962,47.33l.379,1.47a5.327,5.327,0,0,0,3.831,3.831l1.47.379-1.47.379a5.327,5.327,0,0,0-3.831,3.831l-.379,1.47-.379-1.47a5.327,5.327,0,0,0-3.831-3.831l-1.47-.379,1.47-.379a5.327,5.327,0,0,0,3.831-3.831Z" transform="translate(-17.766 10.88)" fill="#ffca5e" opacity="0.12"/>
          <path id="Trazado_493999" data-name="Trazado 493999" d="M67.028,76.9l.378,1.471A5.323,5.323,0,0,0,71.237,82.2l1.471.379-1.471.379a5.325,5.325,0,0,0-3.831,3.831l-.378,1.47-.381-1.47a5.325,5.325,0,0,0-3.83-3.831l-1.471-.379,1.471-.379a5.323,5.323,0,0,0,3.83-3.829Z" transform="translate(-37.77 -12.615)" fill="#ffca5e" opacity="0.12"/>
          <path id="Trazado_494000" data-name="Trazado 494000" d="M226.251,22.138l.569,2.206a7.99,7.99,0,0,0,5.746,5.746l2.206.569-2.206.569a7.99,7.99,0,0,0-5.746,5.746l-.569,2.206-.569-2.206a7.99,7.99,0,0,0-5.746-5.746l-2.206-.569,2.206-.569a7.99,7.99,0,0,0,5.746-5.746Z" transform="translate(-3.369 5.339)" fill="#ffca5e" opacity="0.12"/>
          <path id="Trazado_494001" data-name="Trazado 494001" d="M187.585,12.138l.569,2.206A7.99,7.99,0,0,0,193.9,20.09l2.206.569-2.206.569a7.99,7.99,0,0,0-5.746,5.746l-.569,2.206-.569-2.206a7.992,7.992,0,0,0-5.746-5.746l-2.206-.569,2.206-.569a7.992,7.992,0,0,0,5.746-5.746Z" transform="translate(-11.875 3.139)" fill="#ffca5e" opacity="0.12"/>
          <path id="Trazado_494002" data-name="Trazado 494002" d="M69.585,141.471l.569,2.206a7.99,7.99,0,0,0,5.746,5.746l2.206.569-2.206.569a7.992,7.992,0,0,0-5.746,5.746l-.569,2.206-.569-2.206a7.992,7.992,0,0,0-5.746-5.746l-2.206-.569,2.206-.569a7.99,7.99,0,0,0,5.746-5.746Z" transform="translate(-37.832 1.589)" fill="#ffca5e" opacity="0.12"/>
          <path id="Trazado_494003" data-name="Trazado 494003" d="M497.387,34.349l-.867,3.366a12.2,12.2,0,0,1-8.767,8.767l-3.366.867,3.366.867a12.2,12.2,0,0,1,8.767,8.767l.867,3.366.867-3.366a12.194,12.194,0,0,1,8.767-8.767l3.366-.867-3.366-.867a12.194,12.194,0,0,1-8.767-8.767Z" transform="translate(55.288 8.025)" fill="#ffca5e" opacity="0.12"/>
          <path id="Trazado_494004" data-name="Trazado 494004" d="M452.768,89.015l-.515,2a7.235,7.235,0,0,1-5.2,5.2l-2,.515,2,.514a7.237,7.237,0,0,1,5.2,5.2l.515,2,.515-2a7.237,7.237,0,0,1,5.2-5.2l2-.514-2-.515a7.235,7.235,0,0,1-5.2-5.2Z" transform="translate(46.636 -9.95)" fill="#ffca5e" opacity="0.12"/>
          <path id="Trazado_494005" data-name="Trazado 494005" d="M509.434,297.682l-.515,2a7.235,7.235,0,0,1-5.2,5.2l-2,.515,2,.514a7.237,7.237,0,0,1,5.2,5.2l.515,2,.515-2a7.237,7.237,0,0,1,5.2-5.2l2-.514-2-.515a7.235,7.235,0,0,1-5.2-5.2Z" transform="translate(59.101 35.952)" fill="#ffca5e" opacity="0.12"/>
          <path id="Trazado_494006" data-name="Trazado 494006" d="M414.156,47.33l-.379,1.47a5.325,5.325,0,0,1-3.831,3.831l-1.47.379,1.47.379a5.325,5.325,0,0,1,3.831,3.831l.379,1.47.379-1.47a5.327,5.327,0,0,1,3.831-3.831l1.47-.379-1.47-.379a5.327,5.327,0,0,1-3.831-3.831Z" transform="translate(38.59 10.88)" fill="#ffca5e" opacity="0.12"/>
          <path id="Trazado_494007" data-name="Trazado 494007" d="M505.09,76.9l-.379,1.471A5.323,5.323,0,0,1,500.88,82.2l-1.47.379,1.47.379a5.325,5.325,0,0,1,3.831,3.831l.379,1.47.379-1.47a5.327,5.327,0,0,1,3.831-3.831l1.47-.379L509.3,82.2a5.325,5.325,0,0,1-3.831-3.829Z" transform="translate(58.593 -12.615)" fill="#ffca5e" opacity="0.12"/>
          <path id="Trazado_494008" data-name="Trazado 494008" d="M524.191,220.8l-.433,1.68a6.087,6.087,0,0,1-4.375,4.375l-1.679.432,1.679.433a6.085,6.085,0,0,1,4.375,4.375l.433,1.68.433-1.68A6.085,6.085,0,0,1,529,227.725l1.679-.433L529,226.86a6.087,6.087,0,0,1-4.375-4.375Z" transform="translate(62.617 19.041)" fill="#ffca5e" opacity="0.12"/>
          <path id="Trazado_494009" data-name="Trazado 494009" d="M385.557,12.138l-.569,2.206a7.99,7.99,0,0,1-5.746,5.746l-2.206.569,2.206.569a7.99,7.99,0,0,1,5.746,5.746l.569,2.206.569-2.206a7.992,7.992,0,0,1,5.746-5.746l2.206-.569-2.206-.569a7.992,7.992,0,0,1-5.746-5.746Z" transform="translate(31.674 3.139)" fill="#ffca5e" opacity="0.12"/>
          <path id="Trazado_494010" data-name="Trazado 494010" d="M503.557,141.471l-.569,2.206a7.99,7.99,0,0,1-5.746,5.746l-2.206.569,2.206.569a7.992,7.992,0,0,1,5.746,5.746l.569,2.206.569-2.206a7.994,7.994,0,0,1,5.746-5.746l2.206-.569-2.206-.569a7.992,7.992,0,0,1-5.746-5.746Z" transform="translate(57.631 1.589)" fill="#ffca5e" opacity="0.12"/>
          <path id="Trazado_494011" data-name="Trazado 494011" d="M407.387,78.349l-.867,3.366a12.194,12.194,0,0,1-8.767,8.767l-3.366.867,3.366.867a12.194,12.194,0,0,1,8.767,8.767l.867,3.366.867-3.366a12.194,12.194,0,0,1,8.767-8.767l3.366-.867-3.366-.867a12.194,12.194,0,0,1-8.767-8.767Z" transform="translate(35.491 -12.296)" fill="#ffca5e" opacity="0.12"/>
          <path id="Trazado_494012" data-name="Trazado 494012" d="M362.768,133.015l-.515,2a7.236,7.236,0,0,1-5.2,5.2l-2,.515,2,.514a7.238,7.238,0,0,1,5.2,5.2l.515,2,.515-2a7.237,7.237,0,0,1,5.2-5.2l2-.514-2-.515a7.235,7.235,0,0,1-5.2-5.2Z" transform="translate(26.838 -0.271)" fill="#ffca5e" opacity="0.12"/>
          <path id="Trazado_494013" data-name="Trazado 494013" d="M419.434,341.682l-.515,2a7.235,7.235,0,0,1-5.2,5.2l-2,.515,2,.514a7.237,7.237,0,0,1,5.2,5.2l.515,2,.515-2a7.237,7.237,0,0,1,5.2-5.2l2-.514-2-.515a7.235,7.235,0,0,1-5.2-5.2Z" transform="translate(39.304 45.63)" fill="#ffca5e" opacity="0.12"/>
          <path id="Trazado_494014" data-name="Trazado 494014" d="M324.156,91.33l-.379,1.47a5.325,5.325,0,0,1-3.831,3.831l-1.47.379,1.47.379a5.325,5.325,0,0,1,3.831,3.831l.379,1.47.379-1.47a5.327,5.327,0,0,1,3.831-3.831l1.47-.379-1.47-.379a5.327,5.327,0,0,1-3.831-3.831Z" transform="translate(18.792 -9.441)" fill="#ffca5e" opacity="0.12"/>
          <path id="Trazado_494015" data-name="Trazado 494015" d="M370.157,73.993l-.379,1.471a5.327,5.327,0,0,1-3.831,3.83l-1.47.379,1.47.379a5.327,5.327,0,0,1,3.831,3.831l.379,1.47.379-1.47a5.327,5.327,0,0,1,3.831-3.831l1.47-.379-1.47-.379a5.327,5.327,0,0,1-3.831-3.83Z" transform="translate(28.911 16.746)" fill="#ffca5e" opacity="0.12"/>
          <path id="Trazado_494016" data-name="Trazado 494016" d="M415.09,120.9l-.379,1.471a5.323,5.323,0,0,1-3.831,3.83l-1.47.379,1.47.379a5.325,5.325,0,0,1,3.831,3.831l.379,1.47.379-1.47a5.327,5.327,0,0,1,3.831-3.831l1.47-.379-1.47-.379a5.325,5.325,0,0,1-3.831-3.83Z" transform="translate(38.795 -2.936)" fill="#ffca5e" opacity="0.12"/>
          <path id="Trazado_494017" data-name="Trazado 494017" d="M434.191,264.8l-.433,1.68a6.087,6.087,0,0,1-4.375,4.375l-1.679.432,1.679.433a6.085,6.085,0,0,1,4.375,4.375l.433,1.68.433-1.68A6.085,6.085,0,0,1,439,271.725l1.679-.433L439,270.86a6.087,6.087,0,0,1-4.375-4.375Z" transform="translate(42.82 28.719)" fill="#ffca5e" opacity="0.12"/>
          <path id="Trazado_494018" data-name="Trazado 494018" d="M295.557,56.138l-.569,2.206a7.99,7.99,0,0,1-5.746,5.746l-2.206.569,2.206.569a7.99,7.99,0,0,1,5.746,5.746l.569,2.206.569-2.206a7.992,7.992,0,0,1,5.746-5.746l2.206-.569-2.206-.569a7.992,7.992,0,0,1-5.746-5.746Z" transform="translate(11.876 12.818)" fill="#ffca5e" opacity="0.12"/>
          <path id="Trazado_494019" data-name="Trazado 494019" d="M413.557,185.471l-.569,2.206a7.99,7.99,0,0,1-5.746,5.746l-2.206.569,2.206.568a7.992,7.992,0,0,1,5.746,5.746l.569,2.206.569-2.206a7.994,7.994,0,0,1,5.746-5.746l2.206-.568-2.206-.569a7.992,7.992,0,0,1-5.746-5.746Z" transform="translate(37.833 11.268)" fill="#ffca5e" opacity="0.12"/>
          <path id="Trazado_494020" data-name="Trazado 494020" d="M156.675,126.349l.867,3.366a12.194,12.194,0,0,0,8.767,8.767l3.366.867-3.366.867a12.194,12.194,0,0,0-8.767,8.767l-.867,3.366-.867-3.366a12.194,12.194,0,0,0-8.767-8.767l-3.366-.867,3.366-.867a12.2,12.2,0,0,0,8.767-8.767Z" transform="translate(-19.66 -1.737)" fill="#ffca5e" opacity="0.12"/>
          <path id="Trazado_494021" data-name="Trazado 494021" d="M199.389,181.015l.515,2a7.235,7.235,0,0,0,5.2,5.2l2,.515-2,.515a7.236,7.236,0,0,0-5.2,5.2l-.515,2-.515-2a7.236,7.236,0,0,0-5.2-5.2l-2-.515,2-.515a7.235,7.235,0,0,0,5.2-5.2Z" transform="translate(-9.101 10.288)" fill="#ffca5e" opacity="0.12"/>
          <path id="Trazado_494022" data-name="Trazado 494022" d="M237.267,139.33l.379,1.47a5.327,5.327,0,0,0,3.831,3.831l1.47.379-1.47.379a5.327,5.327,0,0,0-3.831,3.831l-.379,1.47-.379-1.47a5.327,5.327,0,0,0-3.831-3.831l-1.47-.379,1.47-.379a5.327,5.327,0,0,0,3.831-3.831Z" transform="translate(-0.321 1.118)" fill="#ffca5e" opacity="0.12"/>
          <path id="Trazado_494023" data-name="Trazado 494023" d="M191.266,121.993l.379,1.471a5.325,5.325,0,0,0,3.831,3.829l1.47.379-1.47.379a5.325,5.325,0,0,0-3.831,3.831l-.379,1.47-.379-1.47a5.327,5.327,0,0,0-3.831-3.831l-1.47-.379,1.47-.379a5.327,5.327,0,0,0,3.831-3.829Z" transform="translate(-10.44 -2.696)" fill="#ffca5e" opacity="0.12"/>
          <path id="Trazado_494024" data-name="Trazado 494024" d="M146.333,168.9l.379,1.471a5.323,5.323,0,0,0,3.83,3.829l1.471.379-1.471.379a5.325,5.325,0,0,0-3.83,3.831l-.379,1.47-.379-1.47a5.327,5.327,0,0,0-3.831-3.831l-1.47-.379,1.47-.379a5.325,5.325,0,0,0,3.831-3.829Z" transform="translate(-20.324 7.622)" fill="#ffca5e" opacity="0.12"/>
          <path id="Trazado_494025" data-name="Trazado 494025" d="M127.524,312.8l.433,1.68a6.087,6.087,0,0,0,4.375,4.375l1.679.432-1.679.433a6.085,6.085,0,0,0-4.375,4.375l-.433,1.68-.433-1.68a6.085,6.085,0,0,0-4.375-4.375l-1.679-.433,1.679-.432a6.087,6.087,0,0,0,4.375-4.375Z" transform="translate(-24.639 39.278)" fill="#ffca5e" opacity="0.12"/>
          <path id="Trazado_494026" data-name="Trazado 494026" d="M266.89,104.138l.569,2.206a7.99,7.99,0,0,0,5.746,5.746l2.206.569-2.206.569a7.99,7.99,0,0,0-5.746,5.746l-.569,2.206-.569-2.206a7.99,7.99,0,0,0-5.746-5.746l-2.206-.569,2.206-.569a7.99,7.99,0,0,0,5.746-5.746Z" transform="translate(5.57 -6.623)" fill="#ffca5e" opacity="0.12"/>
          <path id="Trazado_494027" data-name="Trazado 494027" d="M148.89,233.471l.569,2.206a7.99,7.99,0,0,0,5.746,5.746l2.206.569-2.206.568a7.992,7.992,0,0,0-5.746,5.746l-.569,2.206-.569-2.206a7.994,7.994,0,0,0-5.746-5.746l-2.206-.568,2.206-.569a7.992,7.992,0,0,0,5.746-5.746Z" transform="translate(-20.387 21.827)" fill="#ffca5e" opacity="0.12"/>
          <path id="Trazado_494028" data-name="Trazado 494028" d="M679.15,285.393q-5.369,25.286-10.737,50.572-30.681-6.513-61.573-11.59,16.373-99.621,32.744-199.241-44.2-7.263-88.676-11.964-12.46,117.857-24.919,235.711-31.973-3.38-64.05-5.2l4.908-86.671q-39.064-2.211-78.189-2.245.029-31.807.056-63.613-42.16-.037-84.286,2.347,2.013,35.538,4.025,71.077-32.174,1.821-64.268,5.129-7.7-74.736-15.407-149.47-44.252,4.562-88.269,11.674,15.848,98.033,31.694,196.065-32.54,5.259-64.867,12.122L82.509,223.167Q41.046,231.971,0,243.194,30.654,355.246,61.309,467.3q31.918-8.733,64.167-15.723,2.641-.575,5.286-1.135,29.614-6.288,59.442-11.108,2.663-.43,5.326-.849,28.236-4.439,56.612-7.563,4.282-.47,8.567-.913,28.383-2.926,56.855-4.538,2.684-.152,5.372-.292,31.691-1.656,63.425-1.684,1.076,0,2.151,0,31.724.027,63.425,1.684,2.686.139,5.372.292,30.074,1.7,60.068,4.873,2.677.284,5.353.578,28.368,3.124,56.613,7.563,4.262.67,8.52,1.369,28.213,4.637,56.247,10.588,2.644.56,5.287,1.135,32.235,6.991,64.167,15.723,22.26-81.373,44.522-162.746-39.251-10.738-78.935-19.16" transform="translate(-51.265 -4.637)" fill="#e8af3b" opacity="0.12"/>
          <path id="Trazado_494029" data-name="Trazado 494029" d="M141.512,144.167q-7.347,1.063-14.686,2.2-.908-5.872-1.814-11.742,7.4-1.142,14.8-2.213.849,5.878,1.7,11.758" transform="translate(-23.765 -0.404)" fill="#ffc95c" opacity="0.12"/>
          <path id="Trazado_494030" data-name="Trazado 494030" d="M161.948,141.386q-7.362.941-14.713,1.952-.811-5.885-1.62-11.77,7.409-1.019,14.826-1.968.752,5.894,1.507,11.786" transform="translate(-19.233 -1.022)" fill="#ffc95c" opacity="0.12"/>
          <path id="Trazado_494031" data-name="Trazado 494031" d="M182.415,138.944q-7.371.818-14.735,1.708-.712-5.9-1.426-11.795,7.422-.9,14.85-1.723.657,5.905,1.311,11.809" transform="translate(-14.693 -1.564)" fill="#ffc95c" opacity="0.12"/>
          <path id="Trazado_494032" data-name="Trazado 494032" d="M143.852,160.6q-7.25,1.049-14.491,2.167-.908-5.871-1.814-11.742,7.3-1.127,14.606-2.184.849,5.88,1.7,11.759" transform="translate(-23.207 3.209)" fill="#ffc95c" opacity="0.12"/>
          <path id="Trazado_494033" data-name="Trazado 494033" d="M164.016,157.851q-7.261.928-14.516,1.926-.811-5.885-1.62-11.77,7.311-1.006,14.631-1.942.752,5.894,1.505,11.786" transform="translate(-18.735 2.6)" fill="#ffc95c" opacity="0.12"/>
          <path id="Trazado_494034" data-name="Trazado 494034" d="M184.211,155.441q-7.272.807-14.54,1.686-.712-5.9-1.425-11.8,7.324-.886,14.654-1.7l1.31,11.809" transform="translate(-14.255 2.064)" fill="#ffc95c" opacity="0.12"/>
          <path id="Trazado_494035" data-name="Trazado 494035" d="M146.191,177.023q-7.151,1.034-14.3,2.137-.906-5.87-1.814-11.742,7.2-1.113,14.412-2.154.849,5.88,1.7,11.759" transform="translate(-22.65 6.823)" fill="#ffc95c" opacity="0.12"/>
          <path id="Trazado_494036" data-name="Trazado 494036" d="M166.083,174.316q-7.164.915-14.321,1.9-.811-5.885-1.62-11.77,7.214-.994,14.436-1.917.752,5.894,1.505,11.786" transform="translate(-18.237 6.222)" fill="#ffc95c" opacity="0.12"/>
          <path id="Trazado_494037" data-name="Trazado 494037" d="M186.006,171.938q-7.175.8-14.344,1.663-.712-5.9-1.425-11.8,7.227-.873,14.458-1.676.657,5.905,1.311,11.809" transform="translate(-13.817 5.693)" fill="#ffc95c" opacity="0.12"/>
          <path id="Trazado_494038" data-name="Trazado 494038" d="M148.531,193.451q-7.054,1.019-14.1,2.108-.908-5.871-1.814-11.742,7.1-1.1,14.216-2.125.849,5.88,1.7,11.759" transform="translate(-22.093 10.437)" fill="#ffc95c" opacity="0.12"/>
          <path id="Trazado_494039" data-name="Trazado 494039" d="M168.151,190.78q-7.067.9-14.126,1.874-.811-5.885-1.62-11.77,7.117-.977,14.241-1.889.752,5.894,1.505,11.785" transform="translate(-17.739 9.843)" fill="#ffc95c" opacity="0.12"/>
          <path id="Trazado_494040" data-name="Trazado 494040" d="M187.8,188.435q-7.076.785-14.148,1.641-.714-5.9-1.426-11.8,7.13-.862,14.263-1.654.657,5.905,1.311,11.809" transform="translate(-13.379 9.322)" fill="#ffc95c" opacity="0.12"/>
          <path id="Trazado_494041" data-name="Trazado 494041" d="M150.871,209.879q-6.958,1-13.906,2.079-.908-5.871-1.814-11.742,7.005-1.082,14.021-2.1.849,5.88,1.7,11.759" transform="translate(-21.535 14.05)" fill="#ffc95c" opacity="0.12"/>
          <path id="Trazado_494042" data-name="Trazado 494042" d="M170.219,207.245q-6.968.889-13.931,1.848-.811-5.885-1.62-11.77,7.02-.966,14.046-1.864.752,5.894,1.505,11.786" transform="translate(-17.241 13.465)" fill="#ffc95c" opacity="0.12"/>
          <path id="Trazado_494043" data-name="Trazado 494043" d="M189.6,204.932q-6.979.774-13.953,1.618-.714-5.9-1.426-11.8,7.031-.849,14.069-1.631l1.31,11.809" transform="translate(-12.941 12.951)" fill="#ffc95c" opacity="0.12"/>
          <path id="Trazado_494044" data-name="Trazado 494044" d="M153.211,226.306q-6.862.992-13.712,2.05-.906-5.871-1.814-11.741,6.91-1.069,13.827-2.068.849,5.88,1.7,11.759" transform="translate(-20.978 17.664)" fill="#ffc95c" opacity="0.12"/>
          <path id="Trazado_494045" data-name="Trazado 494045" d="M172.288,223.71q-6.871.878-13.737,1.823-.809-5.885-1.619-11.77,6.921-.953,13.85-1.839.752,5.894,1.505,11.786" transform="translate(-16.743 17.087)" fill="#ffc95c" opacity="0.12"/>
          <path id="Trazado_494046" data-name="Trazado 494046" d="M191.4,221.429q-6.882.763-13.759,1.594-.714-5.9-1.425-11.795,6.932-.838,13.871-1.609.657,5.905,1.313,11.809" transform="translate(-12.502 16.58)" fill="#ffc95c" opacity="0.12"/>
          <path id="Trazado_494047" data-name="Trazado 494047" d="M155.549,242.734q-6.762.977-13.517,2.021-.908-5.872-1.814-11.742,6.811-1.052,13.632-2.039.849,5.88,1.7,11.759" transform="translate(-20.42 21.278)" fill="#ffc95c" opacity="0.12"/>
          <path id="Trazado_494048" data-name="Trazado 494048" d="M174.356,240.175q-6.775.866-13.541,1.8-.811-5.885-1.62-11.77,6.824-.941,13.655-1.813.752,5.894,1.505,11.786" transform="translate(-16.246 20.709)" fill="#ffc95c" opacity="0.12"/>
          <path id="Trazado_494049" data-name="Trazado 494049" d="M193.191,237.926q-6.784.756-13.562,1.573-.712-5.9-1.425-11.795,6.835-.827,13.676-1.587.657,5.907,1.311,11.809" transform="translate(-12.064 20.209)" fill="#ffc95c" opacity="0.12"/>
          <path id="Trazado_494050" data-name="Trazado 494050" d="M157.889,259.162q-6.665.964-13.322,1.992-.908-5.872-1.814-11.742,6.714-1.038,13.437-2.009.849,5.88,1.7,11.759" transform="translate(-19.862 24.891)" fill="#ffc95c" opacity="0.12"/>
          <path id="Trazado_494051" data-name="Trazado 494051" d="M176.424,256.639q-6.676.853-13.347,1.771-.809-5.885-1.62-11.772,6.729-.926,13.461-1.786.752,5.894,1.505,11.786" transform="translate(-15.748 24.331)" fill="#ffc95c" opacity="0.12"/>
          <path id="Trazado_494052" data-name="Trazado 494052" d="M194.987,254.424q-6.687.743-13.367,1.549-.712-5.9-1.425-11.795,6.738-.816,13.481-1.564.657,5.905,1.311,11.809" transform="translate(-11.626 23.838)" fill="#ffc95c" opacity="0.12"/>
          <path id="Trazado_494053" data-name="Trazado 494053" d="M160.229,275.589q-6.568.952-13.128,1.964-.906-5.872-1.814-11.742,6.617-1.023,13.243-1.98.849,5.88,1.7,11.758" transform="translate(-19.305 28.505)" fill="#ffc95c" opacity="0.12"/>
          <path id="Trazado_494054" data-name="Trazado 494054" d="M178.492,273.1q-6.579.84-13.153,1.745-.807-5.885-1.619-11.77,6.63-.911,13.265-1.76.752,5.894,1.507,11.786" transform="translate(-15.25 27.952)" fill="#ffc95c" opacity="0.12"/>
          <path id="Trazado_494055" data-name="Trazado 494055" d="M196.784,270.921q-6.588.732-13.171,1.527-.714-5.9-1.426-11.8,6.641-.8,13.287-1.541l1.31,11.809" transform="translate(-11.188 27.467)" fill="#ffc95c" opacity="0.12"/>
          <path id="Trazado_494056" data-name="Trazado 494056" d="M162.568,292.017q-6.471.935-12.933,1.934-.908-5.871-1.814-11.742,6.52-1.006,13.048-1.951.849,5.88,1.7,11.759" transform="translate(-18.748 32.119)" fill="#ffc95c" opacity="0.12"/>
          <path id="Trazado_494057" data-name="Trazado 494057" d="M180.56,289.569q-6.482.827-12.956,1.719-.809-5.885-1.62-11.77,6.533-.9,13.071-1.735.752,5.894,1.505,11.786" transform="translate(-14.752 31.574)" fill="#ffc95c" opacity="0.12"/>
          <path id="Trazado_494058" data-name="Trazado 494058" d="M198.58,287.418q-6.491.721-12.976,1.5-.714-5.9-1.426-11.8,6.542-.791,13.09-1.518.657,5.905,1.311,11.809" transform="translate(-10.75 31.096)" fill="#ffc95c" opacity="0.12"/>
          <path id="Trazado_494059" data-name="Trazado 494059" d="M273.566,199.058q-7.005.276-14.008.62-.293-5.933-.583-11.867,7.06-.348,14.124-.626.232,5.936.467,11.873" transform="translate(5.703 11.645)" fill="#ffc95c" opacity="0.12"/>
          <path id="Trazado_494060" data-name="Trazado 494060" d="M293.032,198.451q-7.009.161-14.015.389-.192-5.938-.387-11.875,7.064-.231,14.13-.393.135,5.94.272,11.879" transform="translate(10.027 11.51)" fill="#ffc95c" opacity="0.12"/>
          <path id="Trazado_494061" data-name="Trazado 494061" d="M312.5,198.165q-7.009.046-14.018.159-.1-5.94-.191-11.88,7.065-.113,14.132-.16.038,5.94.077,11.881" transform="translate(14.353 11.447)" fill="#ffc95c" opacity="0.12"/>
          <path id="Trazado_494062" data-name="Trazado 494062" d="M274.185,215.644q-6.908.273-13.813.611-.293-5.933-.583-11.867,6.961-.342,13.927-.617.232,5.936.468,11.873" transform="translate(5.883 15.294)" fill="#ffc95c" opacity="0.12"/>
          <path id="Trazado_494063" data-name="Trazado 494063" d="M293.377,215.046q-6.91.157-13.819.384-.192-5.938-.387-11.875,6.967-.229,13.933-.388.135,5.94.272,11.879" transform="translate(10.146 15.161)" fill="#ffc95c" opacity="0.12"/>
          <path id="Trazado_494064" data-name="Trazado 494064" d="M312.575,214.763q-6.912.044-13.821.156-.1-5.94-.193-11.88,6.968-.112,13.937-.157.038,5.94.077,11.881" transform="translate(14.411 15.098)" fill="#ffc95c" opacity="0.12"/>
          <path id="Trazado_494065" data-name="Trazado 494065" d="M274.8,232.229q-6.809.269-13.616.6l-.582-11.867q6.864-.339,13.73-.609.234,5.936.469,11.873" transform="translate(6.062 18.942)" fill="#ffc95c" opacity="0.12"/>
          <path id="Trazado_494066" data-name="Trazado 494066" d="M293.722,231.64q-6.811.156-13.622.378-.192-5.938-.387-11.875,6.868-.223,13.737-.382.135,5.94.272,11.879" transform="translate(10.265 18.811)" fill="#ffc95c" opacity="0.12"/>
          <path id="Trazado_494067" data-name="Trazado 494067" d="M312.646,231.361q-6.813.044-13.625.154-.1-5.94-.193-11.88,6.87-.11,13.741-.155.038,5.94.077,11.881" transform="translate(14.47 18.749)" fill="#ffc95c" opacity="0.12"/>
          <path id="Trazado_494068" data-name="Trazado 494068" d="M275.421,248.815q-6.71.265-13.42.594-.291-5.935-.583-11.868,6.767-.331,13.534-.6l.468,11.873" transform="translate(6.241 22.59)" fill="#ffc95c" opacity="0.12"/>
          <path id="Trazado_494069" data-name="Trazado 494069" d="M294.067,248.234q-6.712.154-13.426.373-.194-5.938-.387-11.875,6.769-.221,13.541-.376.135,5.938.272,11.878" transform="translate(10.384 22.461)" fill="#ffc95c" opacity="0.12"/>
          <path id="Trazado_494070" data-name="Trazado 494070" d="M312.718,247.96q-6.714.044-13.428.151-.1-5.94-.192-11.879,6.771-.11,13.543-.154.038,5.94.077,11.881" transform="translate(14.53 22.4)" fill="#ffc95c" opacity="0.12"/>
          <path id="Trazado_494071" data-name="Trazado 494071" d="M46.881,229.689q-6.868,1.631-13.725,3.329-1.429-5.768-2.857-11.534,6.914-1.713,13.838-3.356,1.372,5.781,2.744,11.56" transform="translate(-44.6 48.452)" fill="#ffc95c" opacity="0.12"/>
          <path id="Trazado_494072" data-name="Trazado 494072" d="M66,225.32q-6.888,1.515-13.766,3.1l-2.664-11.579q6.932-1.6,13.877-3.123,1.275,5.8,2.553,11.6" transform="translate(-40.361 17.481)" fill="#ffc95c" opacity="0.12"/>
          <path id="Trazado_494073" data-name="Trazado 494073" d="M50.68,245.839q-6.773,1.609-13.532,3.282-1.429-5.766-2.857-11.532,6.817-1.689,13.645-3.31,1.372,5.781,2.744,11.56" transform="translate(-43.721 52.005)" fill="#ffc95c" opacity="0.12"/>
          <path id="Trazado_494074" data-name="Trazado 494074" d="M69.528,241.531q-6.791,1.493-13.572,3.055l-2.664-11.579q6.837-1.574,13.684-3.08,1.275,5.8,2.552,11.6" transform="translate(-39.542 21.047)" fill="#ffc95c" opacity="0.12"/>
          <path id="Trazado_494075" data-name="Trazado 494075" d="M54.479,261.989q-6.676,1.585-13.34,3.235-1.427-5.766-2.857-11.532,6.721-1.665,13.454-3.263,1.372,5.781,2.744,11.56" transform="translate(-42.844 25.557)" fill="#ffc95c" opacity="0.12"/>
          <path id="Trazado_494076" data-name="Trazado 494076" d="M73.058,257.742q-6.7,1.473-13.379,3.011l-2.664-11.579q6.74-1.552,13.492-3.037,1.275,5.8,2.552,11.6" transform="translate(-38.723 24.613)" fill="#ffc95c" opacity="0.12"/>
          <path id="Trazado_494077" data-name="Trazado 494077" d="M58.277,278.138Q51.7,279.7,45.129,281.328,43.7,275.561,42.272,269.8q6.624-1.641,13.261-3.217,1.372,5.781,2.744,11.56" transform="translate(-41.966 29.109)" fill="#ffc95c" opacity="0.12"/>
          <path id="Trazado_494078" data-name="Trazado 494078" d="M76.588,273.953q-6.6,1.451-13.187,2.968l-2.664-11.579q6.643-1.53,13.3-2.994,1.275,5.8,2.552,11.6" transform="translate(-37.904 28.179)" fill="#ffc95c" opacity="0.12"/>
          <path id="Trazado_494079" data-name="Trazado 494079" d="M62.076,294.289q-6.484,1.539-12.956,3.143-1.427-5.766-2.856-11.534,6.527-1.616,13.068-3.169,1.372,5.781,2.744,11.56" transform="translate(-41.088 32.662)" fill="#ffc95c" opacity="0.12"/>
          <path id="Trazado_494080" data-name="Trazado 494080" d="M80.119,290.164q-6.5,1.431-12.994,2.924l-2.664-11.577q6.548-1.51,13.106-2.95,1.275,5.8,2.552,11.6" transform="translate(-37.085 31.745)" fill="#ffc95c" opacity="0.12"/>
          <path id="Trazado_494081" data-name="Trazado 494081" d="M48.152,314.8q-6.368,1.623-12.723,3.31L32.38,306.625q6.412-1.7,12.837-3.339L48.152,314.8" transform="translate(-44.142 67.184)" fill="#ffc95c" opacity="0.12"/>
          <path id="Trazado_494082" data-name="Trazado 494082" d="M65.875,310.439q-6.387,1.517-12.763,3.1Q51.682,307.767,50.254,302q6.432-1.594,12.877-3.123,1.372,5.781,2.744,11.561" transform="translate(-40.21 36.215)" fill="#ffc95c" opacity="0.12"/>
          <path id="Trazado_494083" data-name="Trazado 494083" d="M83.65,306.376q-6.4,1.409-12.8,2.88l-2.664-11.579q6.451-1.484,12.913-2.906,1.276,5.8,2.552,11.6" transform="translate(-36.266 35.312)" fill="#ffc95c" opacity="0.12"/>
          <path id="Trazado_494084" data-name="Trazado 494084" d="M473.184,141q-7.362-.906-14.732-1.741.67-5.9,1.338-11.807,7.426.842,14.846,1.756-.725,5.9-1.452,11.792" transform="translate(49.583 -1.495)" fill="#ffc95c" opacity="0.12"/>
          <path id="Trazado_494085" data-name="Trazado 494085" d="M493.655,143.731q-7.353-1.028-14.71-1.985.769-5.892,1.532-11.782,7.415.964,14.824,2-.823,5.883-1.646,11.767" transform="translate(54.091 -0.942)" fill="#ffc95c" opacity="0.12"/>
          <path id="Trazado_494086" data-name="Trazado 494086" d="M514.089,146.8q-7.336-1.151-14.682-2.229.864-5.878,1.726-11.756,7.4,1.087,14.8,2.247L514.089,146.8" transform="translate(58.592 -0.314)" fill="#ffc95c" opacity="0.12"/>
          <path id="Trazado_494087" data-name="Trazado 494087" d="M471.12,157.469q-7.265-.895-14.536-1.718.668-5.9,1.337-11.807,7.329.831,14.651,1.732-.725,5.9-1.452,11.792" transform="translate(49.172 2.133)" fill="#ffc95c" opacity="0.12"/>
          <path id="Trazado_494088" data-name="Trazado 494088" d="M491.319,160.165q-7.252-1.016-14.514-1.959.767-5.891,1.532-11.781,7.318.95,14.629,1.974l-1.647,11.767" transform="translate(53.621 2.679)" fill="#ffc95c" opacity="0.12"/>
          <path id="Trazado_494089" data-name="Trazado 494089" d="M511.482,163.2q-7.239-1.135-14.487-2.2.862-5.878,1.726-11.756,7.305,1.072,14.6,2.218L511.482,163.2" transform="translate(58.062 3.298)" fill="#ffc95c" opacity="0.12"/>
          <path id="Trazado_494090" data-name="Trazado 494090" d="M469.056,173.938q-7.168-.882-14.341-1.7.668-5.9,1.337-11.806,7.23.82,14.456,1.709-.727,5.9-1.452,11.792" transform="translate(48.761 5.761)" fill="#ffc95c" opacity="0.12"/>
          <path id="Trazado_494091" data-name="Trazado 494091" d="M488.984,176.6q-7.155-1-14.319-1.932.767-5.891,1.532-11.783,7.221.939,14.434,1.948L488.984,176.6" transform="translate(53.15 6.299)" fill="#ffc95c" opacity="0.12"/>
          <path id="Trazado_494092" data-name="Trazado 494092" d="M508.876,179.589q-7.142-1.12-14.293-2.17.864-5.878,1.726-11.754,7.208,1.058,14.408,2.187l-1.841,11.737" transform="translate(57.531 6.911)" fill="#ffc95c" opacity="0.12"/>
          <path id="Trazado_494093" data-name="Trazado 494093" d="M466.993,190.408q-7.069-.871-14.146-1.673.668-5.9,1.337-11.806,7.133.809,14.26,1.686-.727,5.9-1.452,11.792" transform="translate(48.35 9.389)" fill="#ffc95c" opacity="0.12"/>
          <path id="Trazado_494094" data-name="Trazado 494094" d="M486.649,193.032q-7.058-.988-14.124-1.906.767-5.892,1.532-11.783,7.122.926,14.238,1.921l-1.647,11.767" transform="translate(52.679 9.92)" fill="#ffc95c" opacity="0.12"/>
          <path id="Trazado_494095" data-name="Trazado 494095" d="M506.27,195.982q-7.045-1.105-14.1-2.141.864-5.876,1.726-11.754,7.109,1.043,14.213,2.158l-1.841,11.737" transform="translate(57.001 10.523)" fill="#ffc95c" opacity="0.12"/>
          <path id="Trazado_494096" data-name="Trazado 494096" d="M464.928,206.878q-6.972-.858-13.95-1.649.67-5.9,1.337-11.806,7.036.8,14.065,1.663-.725,5.9-1.452,11.792" transform="translate(47.939 13.017)" fill="#ffc95c" opacity="0.12"/>
          <path id="Trazado_494097" data-name="Trazado 494097" d="M484.314,209.466q-6.963-.974-13.93-1.88.767-5.891,1.533-11.783,7.023.913,14.042,1.9-.822,5.883-1.646,11.767" transform="translate(52.208 13.541)" fill="#ffc95c" opacity="0.12"/>
          <path id="Trazado_494098" data-name="Trazado 494098" d="M503.663,212.374q-6.948-1.089-13.9-2.111.864-5.878,1.726-11.756,7.014,1.03,14.019,2.128l-1.841,11.739" transform="translate(56.47 14.136)" fill="#ffc95c" opacity="0.12"/>
          <path id="Trazado_494099" data-name="Trazado 494099" d="M462.864,223.348q-6.875-.847-13.755-1.626.67-5.9,1.338-11.806,6.937.787,13.869,1.64-.725,5.9-1.452,11.792" transform="translate(47.528 16.645)" fill="#ffc95c" opacity="0.12"/>
          <path id="Trazado_494100" data-name="Trazado 494100" d="M481.977,225.9q-6.862-.961-13.733-1.853.767-5.892,1.532-11.783,6.926.9,13.848,1.869L481.977,225.9" transform="translate(51.737 17.162)" fill="#ffc95c" opacity="0.12"/>
          <path id="Trazado_494101" data-name="Trazado 494101" d="M501.057,228.767q-6.849-1.074-13.709-2.081.864-5.878,1.726-11.756,6.915,1.016,13.824,2.1l-1.841,11.739" transform="translate(55.94 17.748)" fill="#ffc95c" opacity="0.12"/>
          <path id="Trazado_494102" data-name="Trazado 494102" d="M460.8,239.818q-6.776-.834-13.56-1.6.67-5.9,1.338-11.806,6.84.774,13.673,1.616-.727,5.9-1.452,11.792" transform="translate(47.117 20.273)" fill="#ffc95c" opacity="0.12"/>
          <path id="Trazado_494103" data-name="Trazado 494103" d="M479.642,242.333q-6.765-.946-13.538-1.828.767-5.891,1.532-11.783,6.829.889,13.653,1.843l-1.647,11.767" transform="translate(51.267 20.782)" fill="#ffc95c" opacity="0.12"/>
          <path id="Trazado_494104" data-name="Trazado 494104" d="M498.451,245.16q-6.753-1.06-13.514-2.052.864-5.878,1.726-11.756,6.817,1,13.628,2.07l-1.841,11.737" transform="translate(55.409 21.361)" fill="#ffc95c" opacity="0.12"/>
          <path id="Trazado_494105" data-name="Trazado 494105" d="M458.737,256.288q-6.679-.82-13.364-1.58.668-5.9,1.337-11.806,6.742.765,13.478,1.593-.725,5.9-1.452,11.792" transform="translate(46.706 23.901)" fill="#ffc95c" opacity="0.12"/>
          <path id="Trazado_494106" data-name="Trazado 494106" d="M477.307,258.766q-6.669-.933-13.343-1.8.767-5.891,1.532-11.783,6.731.875,13.458,1.817l-1.647,11.767" transform="translate(50.796 24.403)" fill="#ffc95c" opacity="0.12"/>
          <path id="Trazado_494107" data-name="Trazado 494107" d="M495.844,261.552q-6.655-1.043-13.32-2.023.864-5.878,1.726-11.754,6.721.986,13.434,2.039l-1.841,11.739" transform="translate(54.879 24.973)" fill="#ffc95c" opacity="0.12"/>
          <path id="Trazado_494108" data-name="Trazado 494108" d="M456.672,272.757q-6.581-.809-13.168-1.555.668-5.905,1.337-11.806,6.645.752,13.283,1.569-.725,5.9-1.452,11.792" transform="translate(46.295 27.53)" fill="#ffc95c" opacity="0.12"/>
          <path id="Trazado_494109" data-name="Trazado 494109" d="M474.971,275.2q-6.571-.919-13.148-1.775.767-5.891,1.532-11.781,6.634.862,13.262,1.79L474.971,275.2" transform="translate(50.325 28.024)" fill="#ffc95c" opacity="0.12"/>
          <path id="Trazado_494110" data-name="Trazado 494110" d="M493.238,277.945q-6.559-1.028-13.124-1.992.864-5.878,1.726-11.756,6.623.972,13.239,2.01l-1.841,11.737" transform="translate(54.348 28.586)" fill="#ffc95c" opacity="0.12"/>
          <path id="Trazado_494111" data-name="Trazado 494111" d="M454.609,289.228q-6.484-.8-12.973-1.533.668-5.9,1.337-11.806,6.548.741,13.088,1.547-.727,5.9-1.452,11.792" transform="translate(45.884 31.158)" fill="#ffc95c" opacity="0.12"/>
          <path id="Trazado_494112" data-name="Trazado 494112" d="M472.635,291.634q-6.473-.906-12.952-1.748.765-5.891,1.531-11.783,6.538.851,13.068,1.764l-1.647,11.767" transform="translate(49.854 31.645)" fill="#ffc95c" opacity="0.12"/>
          <path id="Trazado_494113" data-name="Trazado 494113" d="M490.631,294.338q-6.462-1.014-12.929-1.963.862-5.878,1.726-11.756,6.526.959,13.044,1.981l-1.841,11.737" transform="translate(53.818 32.198)" fill="#ffc95c" opacity="0.12"/>
          <path id="Trazado_494114" data-name="Trazado 494114" d="M652.008,388.024c-64.124-21.846-172.246-36.2-294.832-36.2-136.687,0-255.377,17.842-315.155,44.023V532.594H652.008Z" transform="translate(-42.021 47.862)" fill="#787878"/>
          <path id="Trazado_494115" data-name="Trazado 494115" d="M518.11,427.555c-6.873,14.893-91.525,9.929-191.484,10.337-99.96-.408-184.612,4.557-191.485-10.337-7.266-14.291,77.215-45.5,191.485-45.318,114.269-.18,198.75,31.028,191.484,45.318" transform="translate(-21.633 84.551)" fill="#616161"/>
          <path id="Trazado_494116" data-name="Trazado 494116" d="M600.216,115.05a31.43,31.43,0,0,0-28.451-17.6,27.931,27.931,0,0,0-43.426-18.575,32.282,32.282,0,0,0-46.947,5.243c-.162-.023-.323-.051-.487-.071a26.814,26.814,0,0,0-26.6,13.55Z" transform="translate(48.672 -13.896)" fill="#fff" opacity="0.12"/>
          <path id="Trazado_494117" data-name="Trazado 494117" d="M158.621,141.193A31.5,31.5,0,0,0,130.435,130.7a31.987,31.987,0,0,0-3.836.8,27.931,27.931,0,0,0-46.742-6.781,32.282,32.282,0,0,0-44.019,17.143c-.163.02-.326.033-.489.056a26.816,26.816,0,0,0-22.215,19.936Z" transform="translate(-48.375 -4.248)" fill="#fff" opacity="0.12"/>
          <path id="Trazado_494118" data-name="Trazado 494118" d="M378.738,45.6a31.5,31.5,0,0,0-26.564-14.1,31.939,31.939,0,0,0-3.906.287A27.932,27.932,0,0,0,302.82,18.927a32.281,32.281,0,0,0-45.889,11.212c-.165,0-.327-.01-.492-.009A26.814,26.814,0,0,0,231.8,46.976Z" transform="translate(-0.275 3.06)" fill="#fff" opacity="0.12"/>
        </g>
      </g>
    </g>
    <g id="Grupo_730254" data-name="Grupo 730254" transform="translate(346.78 12951.435)">
      <g id="Grupo_730241" data-name="Grupo 730241" transform="translate(0)" clip-path="url(#clip-path-3)">
        <g id="Grupo_730238" data-name="Grupo 730238">
          <g id="Grupo_730237" data-name="Grupo 730237" clip-path="url(#clip-path-3)">
            <g id="Grupo_730236" data-name="Grupo 730236" transform="translate(0 274.476)" opacity="0.3" style="mix-blend-mode: multiply;isolation: isolate">
              <g id="Grupo_730235" data-name="Grupo 730235">
                <g id="Grupo_730234" data-name="Grupo 730234" clip-path="url(#clip-path-5)">
                  <path id="Trazado_493789" data-name="Trazado 493789" d="M262.109,310.725c0,4.082-58.675,7.391-131.054,7.391S0,314.807,0,310.725s58.676-7.391,131.055-7.391,131.054,3.309,131.054,7.391" transform="translate(0 -303.334)" fill="#769997"/>
                </g>
              </g>
            </g>
            <path id="Trazado_493790" data-name="Trazado 493790" d="M273.784,238.194l7.958,20.385s-2.7,1.1-5.4-3.094-9.761-20.125-9.761-20.125Z" transform="translate(-25.361 -22.391)" fill="#35302c"/>
            <path id="Trazado_493791" data-name="Trazado 493791" d="M139.546,244.234s-31.478,15.269-46.3-9.115.025-48.438,1.1-55.342.133-14.646-9.763-16.789-20.5,43.49-20.5,43.49l10.627,43.256s34.186,18.25,35.394,16.952,35.42-10.839,35.42-10.839Z" transform="translate(-6.097 -15.499)" fill="#35302c"/>
            <path id="Trazado_493792" data-name="Trazado 493792" d="M147.793,207.084s-1.615,8.459,3.657,12.075-.832,13.521-3.6,17.37.016,20.632.016,20.632L186.4,247.088l-3.306-3.351s-13.863-2.156-15.34-17.094S162.417,208.6,177.58,199s-14.458,11.371-29.786,8.084" transform="translate(-13.949 -18.691)" fill="#756f61"/>
            <path id="Trazado_493793" data-name="Trazado 493793" d="M215.037,228.652l21.644,48.379a3.274,3.274,0,0,0,4.639,1.74,4.231,4.231,0,0,0,1.488-5.3l-21.644-48.38a3.273,3.273,0,0,0-4.638-1.739,4.231,4.231,0,0,0-1.489,5.3" transform="translate(-20.422 -21.208)" fill="#474441"/>
            <path id="Trazado_493794" data-name="Trazado 493794" d="M71.606,275.091c.831,15.9-10.608,29.424-25.547,30.2S18.335,293.817,17.5,277.916s10.608-29.424,25.548-30.2,27.723,11.478,28.554,27.379" transform="translate(-1.661 -23.563)" fill="#211d1a"/>
            <path id="Trazado_493795" data-name="Trazado 493795" d="M62.026,276.85c.5,9.607-6.408,17.776-15.434,18.248s-16.749-6.934-17.251-16.541,6.409-17.776,15.434-18.247,16.75,6.934,17.251,16.541" transform="translate(-2.789 -24.763)" fill="#82817e"/>
            <path id="Trazado_493796" data-name="Trazado 493796" d="M46.677,293.356c-8.032.419-14.929-6.169-15.375-14.688s5.729-15.789,13.761-16.208,14.929,6.169,15.374,14.687-5.728,15.789-13.76,16.209M45.156,264.23c-7.056.368-12.477,6.8-12.083,14.346s6.455,13.378,13.511,13.009,12.476-6.8,12.083-14.346-6.455-13.378-13.511-13.009" transform="translate(-2.976 -24.967)" fill="#c1b9ae"/>
            <path id="Trazado_493797" data-name="Trazado 493797" d="M261.716,275.475c.831,15.9-10.608,29.424-25.547,30.2S208.445,294.2,207.615,278.3s10.608-29.424,25.548-30.2,27.723,11.478,28.554,27.379" transform="translate(-19.747 -23.599)" fill="#211d1a"/>
            <path id="Trazado_493798" data-name="Trazado 493798" d="M252.136,277.234c.5,9.607-6.408,17.776-15.434,18.247s-16.749-6.934-17.251-16.541,6.409-17.776,15.435-18.248,16.749,6.934,17.25,16.541" transform="translate(-20.875 -24.799)" fill="#82817e"/>
            <path id="Trazado_493799" data-name="Trazado 493799" d="M46.912,292.869c2.606,0,2.611-4.05,0-4.05s-2.611,4.05,0,4.05" transform="translate(-4.277 -27.477)" fill="#211d1a"/>
            <path id="Trazado_493800" data-name="Trazado 493800" d="M52.707,291.35a1.773,1.773,0,0,0,0-3.543,1.773,1.773,0,0,0,0,3.543" transform="translate(-4.851 -27.381)" fill="#211d1a"/>
            <path id="Trazado_493801" data-name="Trazado 493801" d="M56.972,287.772a1.887,1.887,0,0,0,0-3.771,1.887,1.887,0,0,0,0,3.771" transform="translate(-5.247 -27.019)" fill="#211d1a"/>
            <path id="Trazado_493802" data-name="Trazado 493802" d="M58.567,282.566a1.849,1.849,0,0,0,0-3.7,1.849,1.849,0,0,0,0,3.7" transform="translate(-5.402 -26.53)" fill="#211d1a"/>
            <path id="Trazado_493803" data-name="Trazado 493803" d="M58.069,276.542a1.784,1.784,0,1,0-1.784-1.784,1.8,1.8,0,0,0,1.784,1.784" transform="translate(-5.355 -25.969)" fill="#211d1a"/>
            <path id="Trazado_493804" data-name="Trazado 493804" d="M55,271.291a1.7,1.7,0,0,0,0-3.391,1.7,1.7,0,0,0,0,3.391" transform="translate(-5.077 -25.487)" fill="#211d1a"/>
            <path id="Trazado_493805" data-name="Trazado 493805" d="M50.592,269.4c2.606,0,2.611-4.05,0-4.05s-2.611,4.05,0,4.05" transform="translate(-4.627 -25.244)" fill="#211d1a"/>
            <path id="Trazado_493806" data-name="Trazado 493806" d="M45.048,268.517a1.708,1.708,0,1,0-1.708-1.708,1.727,1.727,0,0,0,1.708,1.708" transform="translate(-4.123 -25.22)" fill="#211d1a"/>
            <path id="Trazado_493807" data-name="Trazado 493807" d="M40.345,271.242a1.974,1.974,0,1,0-1.974-1.974,2,2,0,0,0,1.974,1.974" transform="translate(-3.65 -25.429)" fill="#211d1a"/>
            <path id="Trazado_493808" data-name="Trazado 493808" d="M37.373,275.527a1.873,1.873,0,1,0-1.873-1.873,1.894,1.894,0,0,0,1.873,1.873" transform="translate(-3.377 -25.856)" fill="#211d1a"/>
            <path id="Trazado_493809" data-name="Trazado 493809" d="M36.3,280.453a1.709,1.709,0,0,0,0-3.417,1.709,1.709,0,0,0,0,3.417" transform="translate(-3.297 -26.356)" fill="#211d1a"/>
            <path id="Trazado_493810" data-name="Trazado 493810" d="M36.971,285.407A1.911,1.911,0,1,0,35.06,283.5a1.932,1.932,0,0,0,1.911,1.911" transform="translate(-3.335 -26.789)" fill="#211d1a"/>
            <path id="Trazado_493811" data-name="Trazado 493811" d="M40.437,290.306a2.05,2.05,0,1,0-2.05-2.05,2.073,2.073,0,0,0,2.05,2.05" transform="translate(-3.652 -27.228)" fill="#211d1a"/>
            <path id="Trazado_493812" data-name="Trazado 493812" d="M236.811,293.765c2.606,0,2.611-4.05,0-4.05s-2.611,4.05,0,4.05" transform="translate(-22.343 -27.562)" fill="#211d1a"/>
            <path id="Trazado_493813" data-name="Trazado 493813" d="M242.605,292.245a1.773,1.773,0,0,0,0-3.543,1.773,1.773,0,0,0,0,3.543" transform="translate(-22.917 -27.466)" fill="#211d1a"/>
            <path id="Trazado_493814" data-name="Trazado 493814" d="M246.871,288.668a1.887,1.887,0,0,0,0-3.771,1.887,1.887,0,0,0,0,3.771" transform="translate(-23.313 -27.104)" fill="#211d1a"/>
            <path id="Trazado_493815" data-name="Trazado 493815" d="M248.465,283.461a1.849,1.849,0,0,0,0-3.7,1.849,1.849,0,0,0,0,3.7" transform="translate(-23.468 -26.616)" fill="#211d1a"/>
            <path id="Trazado_493816" data-name="Trazado 493816" d="M247.968,277.437a1.784,1.784,0,1,0-1.784-1.784,1.8,1.8,0,0,0,1.784,1.784" transform="translate(-23.421 -26.054)" fill="#211d1a"/>
            <path id="Trazado_493817" data-name="Trazado 493817" d="M244.9,272.186a1.7,1.7,0,0,0,0-3.391,1.7,1.7,0,0,0,0,3.391" transform="translate(-23.143 -25.572)" fill="#211d1a"/>
            <path id="Trazado_493818" data-name="Trazado 493818" d="M240.491,270.292c2.606,0,2.611-4.05,0-4.05s-2.611,4.05,0,4.05" transform="translate(-22.693 -25.329)" fill="#211d1a"/>
            <path id="Trazado_493819" data-name="Trazado 493819" d="M234.947,269.413a1.708,1.708,0,1,0-1.708-1.708,1.727,1.727,0,0,0,1.708,1.708" transform="translate(-22.189 -25.306)" fill="#211d1a"/>
            <path id="Trazado_493820" data-name="Trazado 493820" d="M230.244,272.137a1.974,1.974,0,1,0-1.974-1.974,2,2,0,0,0,1.974,1.974" transform="translate(-21.716 -25.514)" fill="#211d1a"/>
            <path id="Trazado_493821" data-name="Trazado 493821" d="M227.271,276.422a1.873,1.873,0,1,0-1.873-1.873,1.894,1.894,0,0,0,1.873,1.873" transform="translate(-21.443 -25.941)" fill="#211d1a"/>
            <path id="Trazado_493822" data-name="Trazado 493822" d="M226.2,281.348a1.709,1.709,0,0,0,0-3.417,1.709,1.709,0,0,0,0,3.417" transform="translate(-21.363 -26.441)" fill="#211d1a"/>
            <path id="Trazado_493823" data-name="Trazado 493823" d="M226.87,286.3a1.911,1.911,0,1,0-1.911-1.911,1.932,1.932,0,0,0,1.911,1.911" transform="translate(-21.401 -26.874)" fill="#211d1a"/>
            <path id="Trazado_493824" data-name="Trazado 493824" d="M230.336,291.2a2.05,2.05,0,1,0-2.05-2.05,2.073,2.073,0,0,0,2.05,2.05" transform="translate(-21.718 -27.313)" fill="#211d1a"/>
            <path id="Trazado_493825" data-name="Trazado 493825" d="M236.818,293.148c-7.69.4-14.292-5.905-14.719-14.058s5.484-15.113,13.174-15.514,14.291,5.9,14.718,14.057-5.484,15.113-13.173,15.515m-1.452-27.8c-6.713.35-11.87,6.475-11.5,13.652s6.142,12.731,12.855,12.38,11.871-6.475,11.5-13.653-6.141-12.73-12.854-12.379" transform="translate(-21.127 -25.074)" fill="#c1b9ae"/>
            <path id="Trazado_493826" data-name="Trazado 493826" d="M21.255,268.168a24.323,24.323,0,0,0-1.232,13.625c.291,1.531,2.6.753,2.31-.768a21.287,21.287,0,0,1,1.085-11.74c.562-1.448-1.6-2.575-2.163-1.117" transform="translate(-1.861 -25.448)" fill="#35302c"/>
            <path id="Trazado_493827" data-name="Trazado 493827" d="M21.852,289.337q.552,1.4,1.1,2.805c.57,1.45,2.885.695,2.309-.768q-.551-1.4-1.1-2.805c-.571-1.451-2.886-.695-2.31.768" transform="translate(-2.07 -27.379)" fill="#35302c"/>
            <path id="Trazado_493828" data-name="Trazado 493828" d="M69.965,269.545a27.183,27.183,0,0,1,1.172,5.307c.181,1.548,2.612,1.432,2.43-.127a30.6,30.6,0,0,0-1.292-5.949,1.218,1.218,0,0,0-2.31.768" transform="translate(-6.65 -25.494)" fill="#35302c"/>
            <path id="Trazado_493829" data-name="Trazado 493829" d="M246.693,254.261a14.693,14.693,0,0,1,8.482,7.435c.706,1.393,2.736.049,2.034-1.336a17.058,17.058,0,0,0-9.992-8.476c-1.488-.493-2,1.888-.524,2.377" transform="translate(-23.385 -23.957)" fill="#35302c"/>
            <path id="Trazado_493830" data-name="Trazado 493830" d="M259.861,268.26l1.767,3.789a1.255,1.255,0,0,0,1.539.77,1.224,1.224,0,0,0,.771-1.539l-1.767-3.788a1.255,1.255,0,0,0-1.539-.771,1.224,1.224,0,0,0-.771,1.539" transform="translate(-24.714 -25.368)" fill="#35302c"/>
            <path id="Trazado_493831" data-name="Trazado 493831" d="M219.655,301.9a27.757,27.757,0,0,0,10.543,5.543c1.513.419,2.029-1.961.524-2.378a24.85,24.85,0,0,1-9.438-4.973c-1.2-1.007-2.831.8-1.629,1.808" transform="translate(-20.857 -28.521)" fill="#35302c"/>
            <path id="Trazado_493832" data-name="Trazado 493832" d="M72.588,131.24s-2.883.247-2.489,5.294-.514,11.218,4.091,11.453-1.6-16.747-1.6-16.747" transform="translate(-6.665 -12.486)" fill="#fff9ab"/>
            <path id="Trazado_493833" data-name="Trazado 493833" d="M86.5,101.672c1.8,3.963,2.146,6.232,8.225,6.237s2.393-6,1.842-6.852-1.913-2.676-6.048-2.475-4.736,1.508-4.019,3.089" transform="translate(-8.204 -9.377)" fill="#afdbd6"/>
            <path id="Trazado_493834" data-name="Trazado 493834" d="M86.833,103.674c-1.219,1.168-2.5,2.535-2.583,4.4-.08,1.8,1.025,3.238,2.135,4.44,1.708,1.85,3.6,3.508,5.311,5.351a3.985,3.985,0,0,1,.854,4.767c-.416,1.078-.91,2.086-1.233,3.205a.757.757,0,1,0,1.472.349c.546-1.89,1.736-3.581,1.785-5.617a5.253,5.253,0,0,0-1.869-3.909c-1.6-1.663-3.272-3.252-4.88-4.909-1-1.029-2.337-2.352-2.022-4.025a6.234,6.234,0,0,1,2.151-2.971c.724-.694-.4-1.774-1.119-1.086" transform="translate(-8.015 -9.842)" fill="#35302c"/>
            <path id="Trazado_493835" data-name="Trazado 493835" d="M91.342,105.856a56.651,56.651,0,0,0,3.988-5.61c.271-.433-.4-.8-.67-.372a55.033,55.033,0,0,1-3.878,5.439c-.318.394.242.937.56.543" transform="translate(-8.628 -9.483)" fill="#fff9ab"/>
            <path id="Trazado_493836" data-name="Trazado 493836" d="M87.389,99.213s.689,5.95,4.365,6.97a36.016,36.016,0,0,0,5.906.783s-4.428,2.354-8.381-.352-4.3-6.879-1.89-7.4" transform="translate(-8.17 -9.439)" fill="#35302c"/>
            <path id="Trazado_493837" data-name="Trazado 493837" d="M269.511,203.308s2.891-.078,2.988,4.986,1.6,11.1-2.961,11.85-.027-16.836-.027-16.836" transform="translate(-25.449 -19.342)" fill="#fff9ab"/>
            <path id="Trazado_493838" data-name="Trazado 493838" d="M262.581,211.651c-.539-11.12,6.459-8.375,6.459-8.375l.805,16.611s-6.725,2.884-7.264-8.236" transform="translate(-24.978 -19.31)" fill="#eace75"/>
            <path id="Trazado_493839" data-name="Trazado 493839" d="M267.661,204.3a6.063,6.063,0,0,0-3.277,4.3.757.757,0,1,0,1.472.349,4.4,4.4,0,0,1,2.28-3.11c.871-.429.408-1.974-.476-1.54" transform="translate(-25.15 -19.429)" fill="#f7f8f9"/>
            <path id="Trazado_493840" data-name="Trazado 493840" d="M78.563,125.884l1.187,24.485,6.831-.384-.612,9.123s10.115,3.325,9.938,10.058,2.782-3.856,2.287-10.906-1.039-21.53-1.246-25.8-1.537-9.19-6.7-10.171-6.043,2.747-6.043,2.747-5.7-1.459-5.64.852" transform="translate(-7.474 -11.618)" fill="#756f61"/>
            <path id="Trazado_493841" data-name="Trazado 493841" d="M214,170.25s-27.745,2.838-45.507,6.5S141,186.072,142.034,195.726s5.134,11.824,27.654,5.714,49.662-10.178,49.662-10.178Z" transform="translate(-13.505 -16.197)" fill="#543119"/>
            <path id="Trazado_493842" data-name="Trazado 493842" d="M212.466,170.414c-.117.079-.233.162-.348.239-1.233.816-2.525,1.519-3.815,2.22-.921.488-1.847.967-2.771,1.45.029-.013-.282.153-.942.5a184.589,184.589,0,0,1-21.219,10.588,144.051,144.051,0,0,1-41.219,11.139c1.186,8.948,5.693,10.82,27.554,4.889,22.519-6.109,49.662-10.178,49.662-10.178l-5.351-21.012s-.562.058-1.55.164" transform="translate(-13.524 -16.197)" fill="#3a2110"/>
            <path id="Trazado_493843" data-name="Trazado 493843" d="M66.506,224.217,49.659,274.76a3.317,3.317,0,0,1-4.446,2.25,4.181,4.181,0,0,1-1.993-5.108l16.847-50.543a3.317,3.317,0,0,1,4.446-2.25,4.183,4.183,0,0,1,1.993,5.108" transform="translate(-4.09 -20.82)" fill="#6b6862"/>
            <path id="Trazado_493844" data-name="Trazado 493844" d="M186.907,288.445l-85.984,4.835c-5.568.313-10.36-4.335-10.651-10.33S94.3,271.8,99.865,271.482l85.985-4.835c5.567-.313,10.36,4.335,10.65,10.329s-4.027,11.155-9.593,11.468" transform="translate(-8.587 -25.366)" fill="#565452"/>
            <path id="Trazado_493845" data-name="Trazado 493845" d="M90.12,280.083c.081,1.683,9.288,5.606,34.692,2.042s62.513-15.556,62.513-15.556l-91.392,7.5s-4.141.591-4.977,3.3Z" transform="translate(-8.574 -25.36)" fill="#474441"/>
            <path id="Trazado_493846" data-name="Trazado 493846" d="M205.957,189.637l11.923-18.768,45.362.938-11.455,20.9Z" transform="translate(-19.594 -16.256)" fill="#756f61"/>
            <path id="Trazado_493847" data-name="Trazado 493847" d="M83.117,162.987c3.877,3.527,4.552,7.624-5.056,28.112s-7.976,36.273.612,48.117,15.785,22.722,45.148,17.766,63.851-20.42,65.712-15.644-14.412,15.508-57.423,24.582S71.6,262.307,63.019,243.5c-9.107-7.861-22.1-24.054-8.636-57.716,12.322-25.686,28.734-22.793,28.734-22.793" transform="translate(-4.622 -15.496)" fill="#eace75"/>
            <path id="Trazado_493848" data-name="Trazado 493848" d="M167.339,223c1.557,10.622,1.536,28.317,32.581,17.292s52.882-7.156,59.517-6.226,6.272-1.865,3.881-8.7-14.629-34.416-14.629-34.416-21.95-10.017-54.987-2.284S166.617,218.088,167.339,223" transform="translate(-15.837 -17.67)" fill="#eace75"/>
            <path id="Trazado_493849" data-name="Trazado 493849" d="M232.476,284.287l-46.812,2.632a3.79,3.79,0,0,1-3.852-3.736,3.861,3.861,0,0,1,3.47-4.148l46.811-2.632a3.791,3.791,0,0,1,3.853,3.736,3.862,3.862,0,0,1-3.47,4.148" transform="translate(-17.296 -26.295)" fill="#6b6862"/>
            <path id="Trazado_493850" data-name="Trazado 493850" d="M105.663,142.353c.089,1.826-3,3.483-6.9,3.7s-7.13-1.083-7.219-2.909,3-3.483,6.9-3.7,7.13,1.082,7.219,2.908" transform="translate(-8.709 -13.264)" fill="#35302c"/>
            <path id="Trazado_493851" data-name="Trazado 493851" d="M107.532,144.462a2.429,2.429,0,0,1-3.757.211,3.371,3.371,0,0,1-.209-4.305,2.429,2.429,0,0,1,3.757-.211,3.37,3.37,0,0,1,.209,4.305" transform="translate(-9.788 -13.259)" fill="#211d1a"/>
            <path id="Trazado_493852" data-name="Trazado 493852" d="M72.854,131.185l.805,16.61s6.967,2.115,6.428-9.005-7.233-7.6-7.233-7.6" transform="translate(-6.931 -12.43)" fill="#eace75"/>
            <path id="Trazado_493853" data-name="Trazado 493853" d="M57.877,194.992a78.46,78.46,0,0,1,7.8-16.09c.548-.846-.566-1.942-1.119-1.086a80.033,80.033,0,0,0-8.02,16.431c-.348.965.987,1.717,1.339.745" transform="translate(-5.373 -16.887)" fill="#f7f8f9"/>
            <path id="Trazado_493854" data-name="Trazado 493854" d="M70.181,173.711a18.5,18.5,0,0,1,5.543-4.067c.878-.418.414-1.964-.476-1.54a20.54,20.54,0,0,0-6.187,4.522c-.692.735.431,1.817,1.119,1.086" transform="translate(-6.55 -15.986)" fill="#f7f8f9"/>
            <path id="Trazado_493855" data-name="Trazado 493855" d="M89.254,126a3.962,3.962,0,0,1,4,2.167c.49.9,1.749.01,1.26-.891a5.406,5.406,0,0,0-5.335-2.9c-.96.111-.888,1.733.079,1.62" transform="translate(-8.419 -11.829)" fill="#c1b9ae"/>
            <path id="Trazado_493856" data-name="Trazado 493856" d="M128.034,270.768a430.989,430.989,0,0,0,53.907-15.58c.918-.331.447-1.872-.476-1.539a431.092,431.092,0,0,1-53.907,15.579c-.946.208-.465,1.746.476,1.54" transform="translate(-12.086 -24.127)" fill="#f7f8f9"/>
            <path id="Trazado_493857" data-name="Trazado 493857" d="M150.041,242.309a24.288,24.288,0,0,0-.308,14.866c.3.994,1.727.485,1.43-.512a22.352,22.352,0,0,1,.217-13.609c.328-.97-1.007-1.724-1.339-.745" transform="translate(-14.148 -23.009)" fill="#c1b9ae"/>
            <path id="Trazado_493858" data-name="Trazado 493858" d="M149.452,215.277q2.119,2.834,4.465,5.453c.675.753,1.679-.457,1.008-1.205q-2.214-2.469-4.213-5.138c-.6-.806-1.869.075-1.26.89" transform="translate(-14.203 -20.365)" fill="#c1b9ae"/>
            <path id="Trazado_493859" data-name="Trazado 493859" d="M81.2,127.549a2.6,2.6,0,0,1,2.34.6c.745.666,1.756-.537,1.008-1.205a3.966,3.966,0,0,0-3.427-1.017.819.819,0,0,0-.713.852c.015.394.392.847.792.767" transform="translate(-7.649 -11.974)" fill="#c1b9ae"/>
            <path id="Trazado_493860" data-name="Trazado 493860" d="M89.056,153.439l-.016,7.11a.754.754,0,1,0,1.5-.084l.016-7.11c0-1.044-1.5-.956-1.5.085" transform="translate(-8.471 -14.519)" fill="#c1b9ae"/>
            <path id="Trazado_493861" data-name="Trazado 493861" d="M178.111,202.735a43.177,43.177,0,0,1,24.376-8.937c.97-.042.891-1.662-.078-1.62a44.579,44.579,0,0,0-25.125,9.2c-.79.6.033,1.962.827,1.356" transform="translate(-16.836 -18.283)" fill="#f7f8f9"/>
            <path id="Trazado_493862" data-name="Trazado 493862" d="M171.38,238.01c4.273-3.834,9.96-5.976,15.133-7.994a111.618,111.618,0,0,1,16.7-5.046,109.729,109.729,0,0,1,54.175,1.789c.938.271,1.259-1.316.324-1.585a112.2,112.2,0,0,0-69.784,2.586c-5.876,2.171-12.538,4.555-17.373,8.895-.737.661.081,2.026.827,1.356" transform="translate(-16.198 -21.008)" fill="#f7f8f9"/>
            <path id="Trazado_493863" data-name="Trazado 493863" d="M74.24,133.627a4.306,4.306,0,0,1,2.569,2.838.76.76,0,1,0,1.43-.512,5.932,5.932,0,0,0-3.675-3.91c-.919-.333-1.234,1.255-.324,1.584" transform="translate(-7.011 -12.558)" fill="#f7f8f9"/>
            <path id="Trazado_493864" data-name="Trazado 493864" d="M20.934,249.258S31.828,263.153,78.28,270.33c2.246-3.277,10.476-43.562-28.774-49.151-28.067-2.858-35.067,24-28.573,28.08" transform="translate(-1.778 -21.022)" fill="#eace75"/>
            <path id="Trazado_493865" data-name="Trazado 493865" d="M57.2,228.435l4.4,2.28c.974.5,1.729-1.2.753-1.707l-4.406-2.28c-.973-.5-1.728,1.2-.752,1.707" transform="translate(-5.398 -21.561)" fill="#f7f8f9"/>
            <path id="Trazado_493866" data-name="Trazado 493866" d="M26.888,236.823c1.564-4.057,5.489-6.368,8.883-7.931a18.307,18.307,0,0,1,12.656-1.106c1.041.278,1.388-1.6.348-1.878a19.876,19.876,0,0,0-14.189,1.47c-3.593,1.778-7.5,4.23-9.172,8.555-.433,1.125,1.038,2.018,1.473.889" transform="translate(-2.41 -21.426)" fill="#f7f8f9"/>
            <path id="Trazado_493867" data-name="Trazado 493867" d="M251.926,208.015c.152,3.138-.651,5.734-1.793,5.8s-2.193-2.428-2.345-5.566.651-5.734,1.793-5.8,2.192,2.428,2.345,5.566" transform="translate(-23.572 -19.26)" fill="#fff9ab"/>
            <path id="Trazado_493868" data-name="Trazado 493868" d="M248.6,201.943s-12.766,1.223-12.864,6.972,13.464,5.378,13.464,5.378Z" transform="translate(-22.427 -19.212)" fill="#756f61"/>
            <path id="Trazado_493869" data-name="Trazado 493869" d="M237.589,208.38c1.7-2.414,5.432-3.263,8.027-3.972.47-.129.231-.9-.238-.77-2.753.753-6.534,1.616-8.348,4.2-.291.414.266.96.559.543" transform="translate(-22.542 -19.372)" fill="#c1b9ae"/>
            <path id="Trazado_493870" data-name="Trazado 493870" d="M185.847,281.7q8.383-.126,16.748-.744c.483-.036.446-.846-.038-.811q-8.366.618-16.751.745c-.484.007-.443.817.041.81" transform="translate(-17.644 -26.652)" fill="#82817e"/>
            <path id="Trazado_493871" data-name="Trazado 493871" d="M207.455,280.363a18.371,18.371,0,0,0,4.034-.463c.473-.108.233-.877-.238-.77a17.492,17.492,0,0,1-3.835.423c-.486,0-.445.811.039.81" transform="translate(-19.7 -26.554)" fill="#82817e"/>
            <path id="Trazado_493872" data-name="Trazado 493872" d="M93.893,285.551c-.509,3.864,2.2,7.116,5.834,6.927.484-.025.446-.836-.039-.811a5.016,5.016,0,0,1-5.059-5.941c.068-.515-.668-.692-.736-.175" transform="translate(-8.927 -27.136)" fill="#82817e"/>
            <path id="Trazado_493873" data-name="Trazado 493873" d="M198.089,270.08a11.5,11.5,0,0,1,3.591,1.756c.4.29.745-.433.346-.721a12.084,12.084,0,0,0-3.774-1.828c-.47-.134-.63.66-.162.793" transform="translate(-18.819 -25.617)" fill="#82817e"/>
            <path id="Trazado_493874" data-name="Trazado 493874" d="M87.857,229.29a35.9,35.9,0,0,0,5.55,13.438.386.386,0,0,0,.63-.445,35.361,35.361,0,0,1-5.464-13.249c-.1-.509-.813-.251-.715.256" transform="translate(-8.357 -21.763)" fill="#82817e"/>
            <path id="Trazado_493875" data-name="Trazado 493875" d="M98.322,105.682c.509,4.376.159,6.644,5.91,8.766s4.068-4.849,3.8-5.843-1.006-3.2-4.979-4.447-4.934-.222-4.732,1.524" transform="translate(-9.352 -9.857)" fill="#35302c"/>
            <path id="Trazado_493876" data-name="Trazado 493876" d="M98.071,107.635a7.051,7.051,0,0,0-3.667,2.8c-.913,1.729-.349,3.67.4,5.332,1.089,2.41,2.377,4.713,3.5,7.1,1.574,3.341-1.083,4.818-2.7,7.239-.56.841.554,1.935,1.119,1.086,1.906-2.858,4.874-4.781,3.1-8.67-1.01-2.213-2.17-4.352-3.232-6.537-.672-1.384-1.429-2.74-.935-4.3.457-1.445,1.648-1.957,2.883-2.514.888-.4.422-1.945-.476-1.54" transform="translate(-8.936 -10.233)" fill="#35302c"/>
            <path id="Trazado_493877" data-name="Trazado 493877" d="M99.891,103.619s-1.135,5.871,2.038,8.116a37.483,37.483,0,0,0,5.353,2.8s-4.9.687-7.825-3.251-2-8.005.434-7.661" transform="translate(-9.288 -9.856)" fill="#35302c"/>
            <path id="Trazado_493878" data-name="Trazado 493878" d="M218.551,171.687c.564.791,40.094,9.906,40.094,9.906l4.874-8.809s-46.713-3.547-44.967-1.1" transform="translate(-20.787 -16.251)" fill="#474441"/>
            <path id="Trazado_493879" data-name="Trazado 493879" d="M275.819,168.249H216.194a5.881,5.881,0,0,1-5.881-5.881v-37.2a5.88,5.88,0,0,1,5.881-5.88h59.625a5.88,5.88,0,0,1,5.881,5.881v37.2a5.881,5.881,0,0,1-5.881,5.881" transform="translate(-20.008 -11.349)" fill="#543119"/>
            <line id="Línea_2383" data-name="Línea 2383" x2="71.387" transform="translate(190.305 131.222)" fill="none" stroke="#3a2110" stroke-miterlimit="10" stroke-width="2"/>
            <path id="Trazado_493880" data-name="Trazado 493880" d="M214.516,124.3a5.185,5.185,0,0,1,4.78-1.725c.68.115.972-.926.287-1.041a6.292,6.292,0,0,0-5.83,2c-.462.518.3,1.284.764.764" transform="translate(-20.322 -11.553)" fill="#633b1f"/>
            <path id="Trazado_493881" data-name="Trazado 493881" d="M224.5,122.286l7.29.163a.54.54,0,0,0,0-1.079l-7.29-.164a.541.541,0,0,0,0,1.08" transform="translate(-21.308 -11.531)" fill="#633b1f"/>
            <path id="Trazado_493882" data-name="Trazado 493882" d="M250.161,148.268h30.915a.541.541,0,0,0,0-1.08H250.161a.541.541,0,0,0,0,1.08" transform="translate(-23.75 -14.003)" fill="#633b1f"/>
            <path id="Trazado_493883" data-name="Trazado 493883" d="M285.953,153.533c.069,3.052.557,6.448.043,9.462a7.472,7.472,0,0,1-6.885,6.2c-.688.054-.694,1.135,0,1.08a8.712,8.712,0,0,0,7.1-4.485c1.916-3.514.908-8.432.821-12.255a.54.54,0,0,0-1.079,0" transform="translate(-26.504 -14.557)" fill="#633b1f"/>
            <path id="Trazado_493884" data-name="Trazado 493884" d="M282.183,122.262a4.992,4.992,0,0,1,2.062,2.373c.26.634,1.3.357,1.041-.287a6.2,6.2,0,0,0-2.559-3.02.54.54,0,0,0-.545.933" transform="translate(-26.821 -11.535)" fill="#633b1f"/>
          </g>
        </g>
        <text id="DELIVERY" transform="translate(199.651 121.315)" fill="#3a2110" font-size="9" font-family="SegoeUI, Segoe UI"><tspan x="0" y="0">DE</tspan><tspan y="0" letter-spacing="-0.011em">L</tspan><tspan y="0">IVE</tspan><tspan y="0" letter-spacing="-0.017em">R</tspan><tspan y="0">Y</tspan></text>
        <g id="Grupo_730240" data-name="Grupo 730240">
          <g id="Grupo_730239" data-name="Grupo 730239" clip-path="url(#clip-path-3)">
            <path id="Trazado_493885" data-name="Trazado 493885" d="M221.656,128.149q.98-.053,1.96-.05a.113.113,0,0,0,0-.226q-.981,0-1.96.05c-.145.008-.146.234,0,.226" transform="translate(-21.077 -12.165)" fill="#633b1f"/>
            <path id="Trazado_493886" data-name="Trazado 493886" d="M224.4,134.971a1.643,1.643,0,0,0,1.279-.348c.1-.1-.055-.261-.16-.16a1.441,1.441,0,0,1-1.119.282c-.146,0-.146.222,0,.226" transform="translate(-21.338 -12.789)" fill="#633b1f"/>
            <path id="Trazado_493887" data-name="Trazado 493887" d="M229.823,128.172l1.772.051c.146,0,.146-.222,0-.226l-1.772-.051c-.146,0-.146.222,0,.226" transform="translate(-21.854 -12.172)" fill="#633b1f"/>
            <path id="Trazado_493888" data-name="Trazado 493888" d="M232.549,134.868a1.439,1.439,0,0,0,1.383-.386c.1-.1-.056-.262-.16-.159a1.2,1.2,0,0,1-1.163.328c-.141-.033-.2.185-.06.218" transform="translate(-22.116 -12.776)" fill="#633b1f"/>
            <path id="Trazado_493889" data-name="Trazado 493889" d="M232.322,131.518h.83a.113.113,0,0,0,0-.226h-.83a.113.113,0,0,0,0,.226" transform="translate(-22.092 -12.491)" fill="#633b1f"/>
            <path id="Trazado_493890" data-name="Trazado 493890" d="M236.948,128.226a8.384,8.384,0,0,1,1.206-.038c.146.006.145-.22,0-.226a8.385,8.385,0,0,0-1.206.038c-.143.015-.145.242,0,.226" transform="translate(-22.532 -12.173)" fill="#633b1f"/>
            <path id="Trazado_493891" data-name="Trazado 493891" d="M239.947,134.906a1.389,1.389,0,0,0,.867-.343c.112-.093-.049-.252-.159-.16a1.117,1.117,0,0,1-.708.277c-.145.007-.146.233,0,.226" transform="translate(-22.817 -12.784)" fill="#633b1f"/>
            <path id="Trazado_493892" data-name="Trazado 493892" d="M241.531,133.185h.377a.113.113,0,0,0,0-.226h-.377a.113.113,0,0,0,0,.226" transform="translate(-22.968 -12.649)" fill="#633b1f"/>
            <path id="Trazado_493893" data-name="Trazado 493893" d="M243.49,128.23c.376-.033.752-.049,1.13-.047a.113.113,0,0,0,0-.226c-.378,0-.754.014-1.13.047-.144.013-.145.239,0,.226" transform="translate(-23.154 -12.173)" fill="#633b1f"/>
            <path id="Trazado_493894" data-name="Trazado 493894" d="M247.321,128.248a7.725,7.725,0,0,1,.982-.019c.145.006.145-.22,0-.226a7.731,7.731,0,0,0-.982.019c-.144.012-.146.238,0,.226" transform="translate(-23.519 -12.177)" fill="#633b1f"/>
            <path id="Trazado_493895" data-name="Trazado 493895" d="M252.2,128.268h.98a.113.113,0,0,0,0-.226h-.98a.113.113,0,0,0,0,.226" transform="translate(-23.982 -12.181)" fill="#633b1f"/>
            <path id="Trazado_493896" data-name="Trazado 493896" d="M250.965,133.13a8.079,8.079,0,0,1,.409-1.308c.054-.135-.164-.194-.218-.061a8.065,8.065,0,0,0-.409,1.308c-.032.141.186.2.218.06" transform="translate(-23.855 -12.528)" fill="#633b1f"/>
            <path id="Trazado_493897" data-name="Trazado 493897" d="M245.758,134.97a.692.692,0,0,0,.468.073c.144-.021.082-.239-.061-.218l-.293-.051c-.13-.064-.244.13-.114.2" transform="translate(-23.375 -12.821)" fill="#633b1f"/>
            <path id="Trazado_493898" data-name="Trazado 493898" d="M255.239,128.143h1.093a.113.113,0,0,0,0-.226h-1.093a.113.113,0,0,0,0,.226" transform="translate(-24.272 -12.169)" fill="#633b1f"/>
            <path id="Trazado_493899" data-name="Trazado 493899" d="M258.3,134.889a1.073,1.073,0,0,0,.967-.2c.114-.088,0-.284-.114-.2a.863.863,0,0,1-.794.174.113.113,0,0,0-.06.218" transform="translate(-24.566 -12.793)" fill="#633b1f"/>
            <path id="Trazado_493900" data-name="Trazado 493900" d="M257.7,131.479a1.854,1.854,0,0,1,.5.027c.142.027.2-.191.06-.218a2.177,2.177,0,0,0-.558-.035c-.145.01-.146.236,0,.226" transform="translate(-24.506 -12.486)" fill="#633b1f"/>
            <path id="Trazado_493901" data-name="Trazado 493901" d="M262.4,128.2l2.037-.051a.113.113,0,0,0,0-.226l-2.037.051a.113.113,0,0,0,0,.226" transform="translate(-24.954 -12.17)" fill="#633b1f"/>
            <path id="Trazado_493902" data-name="Trazado 493902" d="M265.031,131.82a1.364,1.364,0,0,0,1.111-.693.113.113,0,0,0-.2-.114,1.128,1.128,0,0,1-.916.581c-.145.012-.147.238,0,.226" transform="translate(-25.203 -12.459)" fill="#633b1f"/>
            <path id="Trazado_493903" data-name="Trazado 493903" d="M264.723,134.921a.565.565,0,0,0,.33.285c.135.055.194-.163.061-.218l-.2-.181a.113.113,0,0,0-.2.114" transform="translate(-25.183 -12.82)" fill="#633b1f"/>
            <path id="Trazado_493904" data-name="Trazado 493904" d="M268.4,134.954a.567.567,0,0,0,.495.128c.144-.023.083-.241-.06-.218l-.275-.07c-.114-.089-.275.071-.16.16" transform="translate(-25.53 -12.821)" fill="#633b1f"/>
            <path id="Trazado_493905" data-name="Trazado 493905" d="M269.614,128.1a7.613,7.613,0,0,0,1.094-.033c.143-.014.145-.242,0-.226a7.615,7.615,0,0,1-1.094.033c-.146-.006-.146.22,0,.226" transform="translate(-25.639 -12.162)" fill="#633b1f"/>
            <path id="Trazado_493906" data-name="Trazado 493906" d="M273.739,128.18l.527-.046c.145-.013.146-.239,0-.226l-.527.046c-.144.013-.146.239,0,.226" transform="translate(-26.032 -12.169)" fill="#633b1f"/>
            <path id="Trazado_493907" data-name="Trazado 493907" d="M273.918,134.614a.456.456,0,0,0,.624.471.113.113,0,0,0-.06-.218l-.338-.253a.113.113,0,0,0-.226,0" transform="translate(-26.059 -12.796)" fill="#633b1f"/>
            <path id="Trazado_493908" data-name="Trazado 493908" d="M273.175,131.13a8.6,8.6,0,0,0,.6-1.241c.052-.136-.167-.195-.219-.06a8.01,8.01,0,0,1-.576,1.186.114.114,0,0,0,.2.114" transform="translate(-25.968 -12.344)" fill="#633b1f"/>
            <path id="Trazado_493909" data-name="Trazado 493909" d="M119.809,222.649a19.585,19.585,0,0,1-2.827-1.1c2.863,16.474,5.683,31.956,5.683,31.956l4.151.922s.264-15.994.432-31.048a21.088,21.088,0,0,1-7.439-.733" transform="translate(-11.129 -21.077)" fill="#ff9566"/>
            <path id="Trazado_493910" data-name="Trazado 493910" d="M115.655,177.909c1.084-4.156,1.9-8.357,2.563-12.6.309-1.974.761-4.017.872-6.012q-.736,5.482-.2,1.474.172-1.291.347-2.58c-2.845.652-5.193,1.757-6.625,3.512-7.473,9.153-6.163,25.161-3,36.752s7.444,23.526,7.444,23.526l10.016.682s.251-7.871.812-16.58c-9.884-5-15.018-17.489-12.231-28.175" transform="translate(-10.189 -15.05)" fill="#3c4c4c"/>
            <path id="Trazado_493911" data-name="Trazado 493911" d="M177.538,34.85c0,13.948-4.131,19.888-22.1,25.256-19.074,5.739-22.1-11.307-22.1-25.256s9.895-25.256,22.1-25.256,22.1,11.307,22.1,25.256" transform="translate(-12.685 -0.913)" fill="#ffa476"/>
            <path id="Trazado_493912" data-name="Trazado 493912" d="M161.317,77.679c0-6.569-5.313-15.556-5.313-15.556l13.036-3.7,4.354,14.92s-12.075,9.83-12.076,4.34" transform="translate(-14.841 -5.558)" fill="#ffa476"/>
            <path id="Trazado_493913" data-name="Trazado 493913" d="M132.551,38.384c-1.9,7.041-7.888,7.129-7.607,7.588.315,2.036,9.041,4.242,9.041,4.242s2.245-10.584-1.434-11.83" transform="translate(-11.886 -3.652)" fill="#ff9364"/>
            <path id="Trazado_493914" data-name="Trazado 493914" d="M128.963,47.388H128.9a25.017,25.017,0,0,1-3.814-.311c1.061,1.945,8.918,3.934,8.918,3.934a37.189,37.189,0,0,0,.593-4.254,18.69,18.69,0,0,1-5.629.631" transform="translate(-11.9 -4.448)" fill="#ff7757"/>
            <path id="Trazado_493915" data-name="Trazado 493915" d="M131.64,27.725a26.365,26.365,0,0,0,7.3,6.734,14.47,14.47,0,0,0,9.587,2,2.723,2.723,0,0,0,1.461-.6,2.608,2.608,0,0,0,.635-1.788,8.262,8.262,0,0,0-3.116-6.808" transform="translate(-12.524 -2.594)" fill="#3a2110"/>
            <path id="Trazado_493916" data-name="Trazado 493916" d="M148.772,26.416a18.841,18.841,0,0,0,7.089,5.713,9.583,9.583,0,0,0,8.822-.489,5.048,5.048,0,0,0,1.711-1.784,4.858,4.858,0,0,0,.11-3.911,10.6,10.6,0,0,0-2.2-3.343" transform="translate(-14.153 -2.15)" fill="#3a2110"/>
            <path id="Trazado_493917" data-name="Trazado 493917" d="M168.014,48.1,166,48.748a24.942,24.942,0,0,0,1.246,13.271c1.346,3.515,3.98,7.023,7.721,7.451a3.9,3.9,0,0,0,2.695-.547,4.193,4.193,0,0,0,1.491-2.55,8.6,8.6,0,0,0-.518-5.4" transform="translate(-15.756 -4.576)" fill="#3a2110"/>
            <path id="Trazado_493918" data-name="Trazado 493918" d="M196.859,57.88,184.594,45.645c1.308,1.981,3.606,3.029,5.782,3.977l11.02,4.8a8.4,8.4,0,0,1,2.621,1.546,4.287,4.287,0,0,1,.884,4.684,5.659,5.659,0,0,1-5.2,2.949,15.6,15.6,0,0,1-6.065-1.6" transform="translate(-17.561 -4.342)" fill="#3a2110"/>
            <path id="Trazado_493919" data-name="Trazado 493919" d="M179.55,68.743c1.266,1.717,12.808,1.662,12.808,1.662l9.224-.831L200.1,60.641,190.566,50.7s-7.878-5.58-9.433-6.93-13.57,1.846-13.57,6.93,10.954,16.024,10.954,16.024a14.444,14.444,0,0,0,12.871,8.812,6.006,6.006,0,0,0,3.065-.62c2.078-1.178,2.57-4.114,1.725-6.349s-2.677-3.926-4.447-5.531" transform="translate(-15.941 -4.134)" fill="#3a2110"/>
            <path id="Trazado_493920" data-name="Trazado 493920" d="M175.918,66.945l3.7,2.487,11.267,3.361,9.333-1.483,1.045-6.549a9.7,9.7,0,0,1,3.782,3.178,3.082,3.082,0,0,1,.459,1.455,3.7,3.7,0,0,1-2.013,2.952,9.19,9.19,0,0,1-6.763,1.182" transform="translate(-16.736 -6.161)" fill="#3a2110"/>
            <path id="Trazado_493921" data-name="Trazado 493921" d="M181.931,41.3a14.3,14.3,0,0,0,.937-1.318c3.923-7.852,3.544-38.1-21.836-38.1-27.54,0-28.071,23.458-28.071,23.458h27.424l2.171,24.188c10.319-1.3,16.054-4.175,19.234-8.042-.606.492-.461.391.142-.185" transform="translate(-12.649 -0.178)" fill="#ba440f"/>
            <path id="Trazado_493922" data-name="Trazado 493922" d="M186.923,45.59h0a3.119,3.119,0,0,0,.487-.519c-.126.124-.243.237-.345.335-.049.061-.092.124-.142.185" transform="translate(-17.783 -4.288)" fill="#d36113"/>
            <path id="Trazado_493923" data-name="Trazado 493923" d="M160.8,1.7c25.381,0,25.76,30.25,21.836,38.1,2.59-4.138,2.85-9.212,2.85-14.643C185.491,11.262,173.2,0,158.032,0s-27.458,11.262-27.458,25.155h2.16S133.265,1.7,160.8,1.7" transform="translate(-12.422 0)" fill="#d36113"/>
            <path id="Trazado_493924" data-name="Trazado 493924" d="M186.882,45.626c.05-.061.093-.124.142-.185-.6.575-.748.677-.142.185" transform="translate(-17.742 -4.323)" fill="#d36113"/>
            <path id="Trazado_493925" data-name="Trazado 493925" d="M125.077,223.664c5.863,15.213,11.411,29.269,11.411,29.269h4.353s-2.6-14.941-5.192-29.389c-3.573.941-7.486,1.169-10.572.12" transform="translate(-11.899 -21.267)" fill="#ffa476"/>
            <path id="Trazado_493926" data-name="Trazado 493926" d="M147.52,155.546s-33.148-1.743-38.646,8.717-1.022,25.884,4.391,36.612,11.986,21.569,11.986,21.569l9.951-1.329s-6.264-36.692-3.744-39.392,22.16-1.231,30.77-1.826,23.678.56,26.693-9.607-2.384-15.489-2.384-15.489Z" transform="translate(-10.119 -14.727)" fill="#485b5b"/>
            <path id="Trazado_493927" data-name="Trazado 493927" d="M173.1,151.293s2.345,11.01.977,13.653-1.69,6.025-16.48,6.092-32.38-1.7-35.506,3.194,6.929,47.085,6.929,47.085" transform="translate(-11.558 -14.393)" fill="none" stroke="#57706f" stroke-miterlimit="10" stroke-width="1"/>
            <path id="Trazado_493928" data-name="Trazado 493928" d="M160.455,79.248s-4.315,9.107-10.047,14-4.069,14.436,2.839,16.056,3.1,0,3.1,0l-4.97,38.082s12.825,4.4,21.061,4.4,17.955-5.143,17.955-5.143-10.439-22.576-10.439-27.976,5.417-31.252-7.425-43.759c-8.561,6.32-12.076,4.34-12.076,4.34" transform="translate(-13.979 -7.126)" fill="#eeeeef"/>
            <path id="Trazado_493929" data-name="Trazado 493929" d="M154.376,90.095s3.338,1.233,9.008-1.016,4.023-12.065,3.587-12.062-6.017,0-6.017,0a7.318,7.318,0,0,1-.993,4.741c-1.449,2.494-5.585,8.337-5.585,8.337" transform="translate(-14.687 -7.327)" fill="#ffa476"/>
            <path id="Trazado_493930" data-name="Trazado 493930" d="M115.851,128.927l-1.094,6.849s43.918,15.371,51.881,11.833,14.871-60.123,3.425-62.732-12.843,50.046-12.843,50.046Z" transform="translate(-10.917 -8.066)" fill="#ffa476"/>
            <path id="Trazado_493931" data-name="Trazado 493931" d="M114.564,133.568l-11.992,2.5s-2.472,4.423-.718,7.258,3.7,3.781,4.686,3.375-1.409-3.51-1.409-3.51,2.1,2.509,2.653,1.719-2.154-4.618-.329-5.328,3.275-1.461,3.855-.72,1.345,4.236,4.854,3-1.6-8.295-1.6-8.295" transform="translate(-9.63 -12.707)" fill="#ffa476"/>
            <path id="Trazado_493932" data-name="Trazado 493932" d="M103.336,136.123s-5.468.715-5.28,2.478a54.011,54.011,0,0,0,1.059,6.692c.368,1.106,3.219,1.527,3.442.962s-1.863-2.242-1.863-2.242l-.288-4.006,3.772-1.38Z" transform="translate(-9.328 -12.95)" fill="#ffa476"/>
            <path id="Trazado_493933" data-name="Trazado 493933" d="M141.278,255.548l1.182,5.807s-12.2,1.549-13.929,1.684,8.124-7.491,8.124-7.491Z" transform="translate(-12.208 -24.312)" fill="#442815"/>
            <path id="Trazado_493934" data-name="Trazado 493934" d="M137.325,254.906l-1.952-4.9,5.305-1.209,1.311,6.309s-3.356,1.416-4.665-.2" transform="translate(-12.879 -23.67)" fill="#442815"/>
            <path id="Trazado_493935" data-name="Trazado 493935" d="M126.447,256.559l-.116,5.925s-12.243-1.154-13.961-1.4,9.565-5.535,9.565-5.535Z" transform="translate(-10.673 -24.312)" fill="#3a2110"/>
            <path id="Trazado_493936" data-name="Trazado 493936" d="M127.194,259.24l.1-8.737-5.473-1.088.668,5.681-1.543.74Z" transform="translate(-11.507 -23.728)" fill="#3a2110"/>
            <path id="Trazado_493937" data-name="Trazado 493937" d="M136.179,251.931a10.572,10.572,0,0,0,1.39-.293.27.27,0,0,0-.144-.52,10.543,10.543,0,0,1-1.39.293c-.342.049-.2.568.144.52" transform="translate(-12.923 -23.889)" fill="#724628"/>
            <path id="Trazado_493938" data-name="Trazado 493938" d="M136.875,253.38l1.306-.22c.342-.057.2-.577-.143-.52l-1.307.219c-.341.058-.2.578.144.521" transform="translate(-12.989 -24.035)" fill="#724628"/>
            <path id="Trazado_493939" data-name="Trazado 493939" d="M137.2,254.788a11.128,11.128,0,0,0,1.194-.205c.338-.078.2-.6-.144-.52a9.6,9.6,0,0,1-1.051.186c-.341.041-.345.581,0,.54" transform="translate(-13.028 -24.17)" fill="#724628"/>
            <path id="Trazado_493940" data-name="Trazado 493940" d="M137.22,256.006l1.185.4c.33.112.471-.409.144-.52l-1.185-.4c-.33-.112-.471.41-.144.521" transform="translate(-13.037 -24.304)" fill="#724628"/>
            <path id="Trazado_493941" data-name="Trazado 493941" d="M136.12,256.95a7.689,7.689,0,0,0,1.308.9c.306.166.578-.3.273-.467a6.939,6.939,0,0,1-1.2-.819c-.263-.224-.647.156-.382.382" transform="translate(-12.941 -24.402)" fill="#724628"/>
            <path id="Trazado_493942" data-name="Trazado 493942" d="M134.821,258.1l.772.894c.227.263.608-.119.382-.382l-.772-.894c-.227-.263-.608.12-.382.382" transform="translate(-12.82 -24.51)" fill="#724628"/>
            <path id="Trazado_493943" data-name="Trazado 493943" d="M133.475,259.146l.86,1.076c.217.271.6-.113.382-.382l-.86-1.076c-.217-.271-.6.113-.382.382" transform="translate(-12.692 -24.609)" fill="#724628"/>
            <path id="Trazado_493944" data-name="Trazado 493944" d="M122.158,250.916l1.265.339a.27.27,0,0,0,.144-.52L122.3,250.4a.27.27,0,0,0-.144.52" transform="translate(-11.603 -23.82)" fill="#724628"/>
            <path id="Trazado_493945" data-name="Trazado 493945" d="M122.406,252.516c.352.062.7.137,1.045.228a.27.27,0,0,0,.143-.52c-.346-.091-.692-.167-1.044-.228s-.486.461-.144.52" transform="translate(-11.627 -23.973)" fill="#724628"/>
            <path id="Trazado_493946" data-name="Trazado 493946" d="M122.509,254.038l.947.261a.27.27,0,0,0,.144-.52l-.947-.261a.27.27,0,0,0-.144.52" transform="translate(-11.637 -24.117)" fill="#724628"/>
            <path id="Trazado_493947" data-name="Trazado 493947" d="M122.709,255.474a3.583,3.583,0,0,1,.88.295c.311.153.585-.313.273-.466a4.1,4.1,0,0,0-1.009-.349c-.339-.07-.484.451-.144.52" transform="translate(-11.655 -24.254)" fill="#724628"/>
            <path id="Trazado_493948" data-name="Trazado 493948" d="M122.352,256.335a1.713,1.713,0,0,1,.612.508c.205.275.674.006.466-.273a2.326,2.326,0,0,0-.805-.7c-.307-.161-.581.3-.272.466" transform="translate(-11.627 -24.339)" fill="#724628"/>
            <path id="Trazado_493949" data-name="Trazado 493949" d="M121.01,256.9a10.5,10.5,0,0,1,.456,1.021c.124.32.646.181.521-.144a11.845,11.845,0,0,0-.511-1.149c-.157-.309-.623-.037-.466.272" transform="translate(-11.509 -24.401)" fill="#724628"/>
            <path id="Trazado_493950" data-name="Trazado 493950" d="M119.233,257.811a6.341,6.341,0,0,0,.667,1.021c.215.273.594-.111.382-.382a5.682,5.682,0,0,1-.583-.911c-.16-.309-.626-.036-.466.272" transform="translate(-11.34 -24.488)" fill="#724628"/>
            <path id="Trazado_493951" data-name="Trazado 493951" d="M117.572,258.492l.447.587c.207.273.677,0,.466-.272l-.447-.587c-.207-.273-.677,0-.466.272" transform="translate(-11.18 -24.555)" fill="#724628"/>
            <path id="Trazado_493952" data-name="Trazado 493952" d="M151.078,29.192c.041.044,5.615,7.063,13.709,4.27s-2.677-5.662-2.677-5.662Z" transform="translate(-14.373 -2.645)" fill="#3a2110"/>
            <line id="Línea_2384" data-name="Línea 2384" y1="0.894" x2="20.006" transform="translate(129.685 33.143)" fill="none" stroke="#1e1c1a" stroke-linecap="round" stroke-linejoin="round" stroke-width="1"/>
            <line id="Línea_2385" data-name="Línea 2385" x1="1.814" transform="translate(120.311 34.037)" fill="none" stroke="#1e1c1a" stroke-linecap="round" stroke-linejoin="round" stroke-width="1"/>
            <path id="Trazado_493953" data-name="Trazado 493953" d="M140.211,47.228c-4.694,0-6.626-3.451-6.626-6.626,0-4.045,1.121-7.245,6.626-7.245s7.168,2.538,7.168,7.245-2.473,6.626-7.168,6.626" transform="translate(-12.709 -3.173)" fill="#35302c"/>
            <path id="Trazado_493954" data-name="Trazado 493954" d="M140.1,33.539s-3.956,6.845-3.768,6.786,4.279-1.682,4.279-1.682l-4.53,6.969,2.763,1.615,5.809-10.483-6.311,2.13,3.328-5.336a1.9,1.9,0,0,0-1.57,0" transform="translate(-12.947 -3.174)" fill="#848484"/>
            <path id="Trazado_493955" data-name="Trazado 493955" d="M140.211,47.228c-4.694,0-6.626-3.451-6.626-6.626,0-4.045,1.121-7.245,6.626-7.245s7.168,2.538,7.168,7.245S144.907,47.228,140.211,47.228Z" transform="translate(-12.709 -3.173)" fill="none" stroke="#1e1c1a" stroke-miterlimit="10" stroke-width="1"/>
            <path id="Trazado_493956" data-name="Trazado 493956" d="M163.113,47.484c1.783.044,3.752.136,5.112-1.017a5.254,5.254,0,0,0,1.5-4.444,6.945,6.945,0,0,0-1.663-4.175,3.372,3.372,0,0,0-2.976-1.223,3.868,3.868,0,0,0-1.775.994,4.393,4.393,0,0,0-1.441,2.052s-.467,7.769,1.245,7.813" transform="translate(-15.394 -3.48)" fill="#ff9364"/>
            <path id="Trazado_493957" data-name="Trazado 493957" d="M157.761,64.758s4.685-2.731,4.775-5.7,1.508,6.854-3.206,9.592l-1.569-3.514" transform="translate(-15.009 -5.566)" fill="#ff8564"/>
            <path id="Trazado_493958" data-name="Trazado 493958" d="M164.4,45.375s.54-2.025-.607-1.957.156-5.345,2.136-5.035,5.356,7.262-1.529,6.992" transform="translate(-15.541 -3.65)" fill="#ff7757"/>
            <path id="Trazado_493959" data-name="Trazado 493959" d="M165.5,78.576c-.034-1.964.161.116.161.116q4.394-1.687,8.732-3.51a.378.378,0,0,0,.263-.585q-.7-1.994-1.41-3.987a.637.637,0,0,0-.218-.348.614.614,0,0,0-.5,0c-.566.168-3.25.854-.938.144l-6.863,2.368Z" transform="translate(-15.672 -6.679)" fill="#442815"/>
            <path id="Trazado_493960" data-name="Trazado 493960" d="M164.865,78.2a122.755,122.755,0,0,0-5.7,28.174c-1.222,15.549-1.42,36.273-1.42,36.273s14.328,3.125,25.893.021,9.326-4.3,9.326-4.3-10.542-14.1-10.182-23.281S184.467,84.716,174,75.059c-6.218,3.134-9.131,3.139-9.131,3.139" transform="translate(-15.007 -7.141)" fill="#351f10"/>
            <path id="Trazado_493961" data-name="Trazado 493961" d="M155.672,133.213h5.3s2.059-48.334,10.927-48.43,10.27,25.916,6.045,42.037-2.238,23.928-13.477,21.317-10.913-1.977-10.913-1.977Z" transform="translate(-14.608 -8.066)" fill="#442815"/>
            <path id="Trazado_493962" data-name="Trazado 493962" d="M148.02,137.44l.578,12.589s-.672,2.48,2.885,3.232,3.762-2.169,3.762-2.169-.06-10.829-.03-11.987.03-2.282-3.582-2.373c-3.343-.315-3.641.08-3.612.707" transform="translate(-14.082 -12.998)" fill="#543119"/>
            <path id="Trazado_493963" data-name="Trazado 493963" d="M170.179,77.232a37.984,37.984,0,0,1,3.034,8.415c.158.677,1.2.39,1.042-.287a39.216,39.216,0,0,0-3.144-8.673c-.311-.622-1.242-.076-.932.545" transform="translate(-16.184 -7.27)" fill="#442815"/>
            <path id="Trazado_493964" data-name="Trazado 493964" d="M168.282,57.618a17.724,17.724,0,0,0,1.978,6.8c.913,1.9,2.047,3.66,4.257,4.033.68.114.972-.926.287-1.041-3.571-.6-5.29-6.7-5.442-9.788-.034-.692-1.115-.7-1.08,0" transform="translate(-16.009 -5.432)" fill="#492a15"/>
            <path id="Trazado_493965" data-name="Trazado 493965" d="M177.355,69.047h.27a.541.541,0,0,0,0-1.08h-.27a.541.541,0,0,0,0,1.08" transform="translate(-16.823 -6.466)" fill="#492a15"/>
            <path id="Trazado_493966" data-name="Trazado 493966" d="M184.1,71.739c1.7,3.692,5.8,4.487,9.491,3.995.68-.09.688-1.172,0-1.08-3.327.444-7-.08-8.558-3.459-.29-.631-1.222-.083-.933.545" transform="translate(-17.509 -6.747)" fill="#492a15"/>
            <path id="Trazado_493967" data-name="Trazado 493967" d="M187.48,51.443a53.236,53.236,0,0,0,12.182,5.4.54.54,0,0,0,.287-1.042,52.066,52.066,0,0,1-11.924-5.29.54.54,0,0,0-.545.933" transform="translate(-17.811 -4.798)" fill="#492a15"/>
            <path id="Trazado_493968" data-name="Trazado 493968" d="M204.11,58.644a2.138,2.138,0,0,1,.833,1.46c.1.685,1.146.394,1.042-.287a3.178,3.178,0,0,0-1.33-2.106c-.561-.411-1.1.526-.545.933" transform="translate(-19.396 -5.481)" fill="#492a15"/>
            <path id="Trazado_493969" data-name="Trazado 493969" d="M201.538,68.412a5.38,5.38,0,0,1,1.911,1.232c.495.489,1.26-.274.764-.764a6.684,6.684,0,0,0-2.388-1.51c-.652-.243-.933.8-.287,1.042" transform="translate(-19.139 -6.406)" fill="#492a15"/>
            <path id="Trazado_493970" data-name="Trazado 493970" d="M135.067,29.335a20.926,20.926,0,0,0,2.921,2.271c.585.378,1.127-.556.545-.932a19.476,19.476,0,0,1-2.7-2.1c-.508-.473-1.274.29-.763.764" transform="translate(-12.834 -2.704)" fill="#492a15"/>
            <path id="Trazado_493971" data-name="Trazado 493971" d="M157.206,31.85c2.02.991,4.136,1.9,6.409,1.3a.54.54,0,0,0-.287-1.042c-1.974.525-3.832-.336-5.578-1.191-.622-.3-1.169.625-.545.932" transform="translate(-14.93 -2.936)" fill="#492a15"/>
          </g>
        </g>
      </g>
    </g>
  </g>
</svg>
