<svg xmlns="http://www.w3.org/2000/svg" xmlns:xlink="http://www.w3.org/1999/xlink" width="147.237" height="61.688" viewBox="0 0 147.237 61.688">
  <defs>
    <clipPath id="clip-path">
      <rect id="Rectángulo_274858" data-name="Rectángulo 274858" width="147.237" height="61.689" fill="none"/>
    </clipPath>
  </defs>
  <g id="Grupo_735051" data-name="Grupo 735051" transform="translate(-32.955 -20.808)">
    <g id="Grupo_730268" data-name="Grupo 730268" transform="translate(32.955 20.807)" clip-path="url(#clip-path)">
      <path id="Trazado_494124" data-name="Trazado 494124" d="M114.86,23.865a34.735,34.735,0,0,1-.963,3.813,42.749,42.749,0,0,1-1.656,4.424c-.717,1.526-1.461,2.955-2.207,4.242a26.863,26.863,0,0,1-2.182,3.258,9.737,9.737,0,0,1-1.9,1.9,1.455,1.455,0,0,1-.752.332.242.242,0,0,1-.1-.021c-.072-.033-.312-.193-.416-.953a9.012,9.012,0,0,1,.154-2.721,32.671,32.671,0,0,1,.964-3.846,41.327,41.327,0,0,1,1.66-4.436,36.521,36.521,0,0,1,2.159-4.223,26.963,26.963,0,0,1,2.219-3.223,10.04,10.04,0,0,1,1.905-1.872,1.46,1.46,0,0,1,.752-.332.206.206,0,0,1,.1.021c.073.032.312.193.419.953a8.89,8.89,0,0,1-.152,2.685m-28.765,0a34.731,34.731,0,0,1-.963,3.813A42.339,42.339,0,0,1,83.476,32.1c-.719,1.531-1.463,2.959-2.207,4.242A26.79,26.79,0,0,1,79.088,39.6a9.641,9.641,0,0,1-1.9,1.9,1.452,1.452,0,0,1-.75.332.252.252,0,0,1-.1-.02c-.072-.033-.312-.193-.416-.953a8.937,8.937,0,0,1,.154-2.722,32.7,32.7,0,0,1,.964-3.846,41.112,41.112,0,0,1,1.66-4.436,37.08,37.08,0,0,1,2.158-4.223,27.371,27.371,0,0,1,2.221-3.223,10.142,10.142,0,0,1,1.905-1.872,1.455,1.455,0,0,1,.752-.333.218.218,0,0,1,.1.02c.073.032.313.193.419.953a8.859,8.859,0,0,1-.152,2.685m-31.167-.287a29.067,29.067,0,0,1-.731,3.84,35.368,35.368,0,0,1-1.465,4.426c-.61,1.516-1.26,2.943-1.934,4.237a22.608,22.608,0,0,1-1.983,3.211,9.156,9.156,0,0,1-1.787,1.862,1.336,1.336,0,0,1-.7.326.233.233,0,0,1-.1-.021c-.074-.033-.328-.2-.459-.972a10.741,10.741,0,0,1-.035-2.713,25.164,25.164,0,0,1,.69-3.793,35.064,35.064,0,0,1,1.465-4.426c.619-1.536,1.27-2.961,1.937-4.239a24.074,24.074,0,0,1,1.985-3.248,8.789,8.789,0,0,1,1.782-1.891,1.337,1.337,0,0,1,.708-.326.2.2,0,0,1,.094.021c.078.033.342.205.5.988a9.062,9.062,0,0,1,.032,2.719m63.022-9.4a5.688,5.688,0,0,1,3.85,1.374,7.176,7.176,0,0,1,2.148,3.731,15.676,15.676,0,0,1,.246,5.563,30.67,30.67,0,0,1-1.844,7.186,34.888,34.888,0,0,1-3.174,6.545c-.568.893-1.152,1.729-1.744,2.5a.114.114,0,0,0,.146.168c.343-.187.686-.39,1.024-.61a25.772,25.772,0,0,0,2.213-1.6,12.276,12.276,0,0,0,4.078-6.149q.62-2.179,1.373-4.313c.819-2.337,1.694-4.521,2.6-6.487a44.09,44.09,0,0,1,2.229-4.364,4.128,4.128,0,0,1,2.735-1.975,6.547,6.547,0,0,1,3.081.045,4.675,4.675,0,0,1,2.372,1.443,2.233,2.233,0,0,1,.406,2.489c-.114.3-.416.99-.9,2.05s-1.022,2.309-1.652,3.809c-.6,1.441-1.225,3-1.844,4.63a38.766,38.766,0,0,0-1.405,4.447,10.5,10.5,0,0,0-.372,3.24c.069.8.374.8.541.8a2.214,2.214,0,0,0,1.291-.636,22.042,22.042,0,0,0,1.947-1.841,25.743,25.743,0,0,0,1.92-2.289c.547-.731,1.017-1.379,1.4-1.926a1.739,1.739,0,0,1,1.448-.749,1.858,1.858,0,0,1,1.537.793,1.369,1.369,0,0,1-.027,1.536c-.405.633-1.115,1.694-2.168,3.25a45.815,45.815,0,0,1-3.708,4.711,29.783,29.783,0,0,1-4.689,4.256,8.98,8.98,0,0,1-5.27,1.921,3.963,3.963,0,0,1-3.492-1.623,6.834,6.834,0,0,1-1.02-3.922v-.258a.228.228,0,0,0-.371-.181q-.495.4-1.017.785a30.235,30.235,0,0,1-7.02,3.84,20.8,20.8,0,0,1-7.643,1.383l-.558-.005-.56-.019a4.841,4.841,0,0,1-4.114-1.742,6.081,6.081,0,0,1-.42-.627.23.23,0,0,0-.418.048c-.281.937-.547,1.841-.793,2.705-.532,1.858-.988,3.467-1.387,4.918s-.75,2.781-1.037,3.946c-.277,1.123-.47,2.032-.568,2.707l-.006.025a2.239,2.239,0,0,1-1.8,1.879,4.343,4.343,0,0,1-.938.1,5.508,5.508,0,0,1-1.813-.332,6.246,6.246,0,0,1-2.543-1.725,4.489,4.489,0,0,1-1.152-3.125,15.163,15.163,0,0,1,.553-2.812c.367-1.485.86-3.333,1.474-5.5.414-1.465.885-3.059,1.407-4.764a.229.229,0,0,0-.348-.254,30.834,30.834,0,0,1-6.094,3.187,20.81,20.81,0,0,1-7.643,1.383c-.369,0-.746-.008-1.119-.025a4.852,4.852,0,0,1-4.114-1.742,6.023,6.023,0,0,1-.418-.628.23.23,0,0,0-.418.049c-.283.938-.549,1.844-.795,2.7-.535,1.865-.989,3.476-1.385,4.918s-.751,2.78-1.038,3.946c-.277,1.125-.467,2.035-.568,2.706l0,.025a2.242,2.242,0,0,1-1.8,1.879,4.326,4.326,0,0,1-.937.1,5.5,5.5,0,0,1-1.815-.332,6.231,6.231,0,0,1-2.541-1.725,4.489,4.489,0,0,1-1.151-3.124,14.793,14.793,0,0,1,.553-2.812c.369-1.5.862-3.348,1.471-5.5.361-1.276.76-2.637,1.209-4.106a.23.23,0,0,0-.377-.232,29.4,29.4,0,0,1-2.358,1.94,8.829,8.829,0,0,1-5.236,1.924A3.96,3.96,0,0,1,52.091,46.1a5.358,5.358,0,0,1-.7-1.5.69.69,0,0,0-1.157-.276,11.664,11.664,0,0,1-4.3,2.835,8.8,8.8,0,0,1-3.15.563,5.979,5.979,0,0,1-3.914-1.36,7.558,7.558,0,0,1-2.348-3.682A15.578,15.578,0,0,1,36,37.12a29.817,29.817,0,0,1,1.451-7.153c1.772-5.4,4.084-9.412,6.873-11.925,2.84-2.562,5.721-3.86,8.563-3.86a5.868,5.868,0,0,1,3.022.717,4.833,4.833,0,0,1,1.81,1.852,6.134,6.134,0,0,1,.6,1.639.115.115,0,0,0,.213.031c.144-.258.281-.49.41-.7a4.139,4.139,0,0,1,2.695-1.973,6.538,6.538,0,0,1,3.078.044,4.7,4.7,0,0,1,2.418,1.444,2.229,2.229,0,0,1,.4,2.489c-.113.3-.4.969-.893,2.05-.478,1.057-1.035,2.337-1.652,3.809-.611,1.456-1.232,3.016-1.844,4.63a38.013,38.013,0,0,0-1.406,4.447,10.536,10.536,0,0,0-.372,3.24c.07.8.375.8.539.8a2.2,2.2,0,0,0,1.291-.636c.354-.293.723-.622,1.1-.986a11.777,11.777,0,0,0,3.094-4.856c.869-2.536,1.783-5.041,2.722-7.455,1-2.567,1.979-4.872,2.905-6.852a3.725,3.725,0,0,1,2.27-2.047,5.821,5.821,0,0,1,2.9-.2A5.552,5.552,0,0,1,80.7,16.817a3.467,3.467,0,0,1,.743.818.1.1,0,0,0,.174.022,19.093,19.093,0,0,1,2.727-2.089A8.877,8.877,0,0,1,89.2,14.181a5.685,5.685,0,0,1,3.847,1.373,7.173,7.173,0,0,1,2.149,3.732,15.647,15.647,0,0,1,.246,5.563,30.727,30.727,0,0,1-1.844,7.186,34.779,34.779,0,0,1-3.176,6.545c-.568.894-1.152,1.73-1.743,2.5a.114.114,0,0,0,.147.168c.342-.186.684-.389,1.025-.61q.827-.534,1.6-1.127a12.265,12.265,0,0,0,4.208-5.857l.308-.908c.922-2.725,1.9-5.409,2.9-7.979s1.981-4.877,2.908-6.852a3.714,3.714,0,0,1,2.27-2.047,5.82,5.82,0,0,1,2.9-.2,5.562,5.562,0,0,1,2.506,1.139,3.535,3.535,0,0,1,.744.82.1.1,0,0,0,.174.022,19.1,19.1,0,0,1,2.727-2.089A8.885,8.885,0,0,1,117.95,14.181ZM23.706,1.418a28.5,28.5,0,0,1,6.434.739A20.243,20.243,0,0,1,35.867,4.4,13.321,13.321,0,0,1,40,8.145,8.887,8.887,0,0,1,41.612,13.4,12.784,12.784,0,0,1,40.2,19.343a17.283,17.283,0,0,1-3.8,4.867,24.693,24.693,0,0,1-5.561,3.737,36.783,36.783,0,0,1-5.514,2.207.2.2,0,0,0-.16.225c.042.943.109,1.875.205,2.773.109,1.03.252,2.035.428,2.987.173.937.382,1.849.617,2.711.184.669.39,1.318.609,1.935.14.393.287.779.437,1.139a21.494,21.494,0,0,0,.986,2.069,17.81,17.81,0,0,0,1.115,1.791,15.191,15.191,0,0,0,1.223,1.508,12.751,12.751,0,0,0,1.315,1.234,11.151,11.151,0,0,0,1.387.963,10.4,10.4,0,0,0,1.451.71,10.031,10.031,0,0,0,1.506.461,10.472,10.472,0,0,0,1.572.219,11.078,11.078,0,0,0,1.635-.022,12.236,12.236,0,0,0,1.7-.273,14.525,14.525,0,0,0,1.771-.533,16.947,16.947,0,0,0,1.823-.809c.232-.119.465-.245.7-.377a1.71,1.71,0,0,1,2.224.471A1.648,1.648,0,0,1,47.6,51.56c-.322.277-.645.548-.965.806-.777.627-1.555,1.209-2.316,1.727-.721.492-1.454.951-2.18,1.359-.362.2-.743.405-1.131.6a21.923,21.923,0,0,1-2.239.976,19.414,19.414,0,0,1-2.209.672,16.668,16.668,0,0,1-2.163.369c-.509.051-1.017.077-1.513.077-.2,0-.4,0-.6-.014a13.746,13.746,0,0,1-2.037-.238c-.328-.064-.66-.142-.984-.232s-.635-.184-.957-.3a13.234,13.234,0,0,1-1.815-.811,14.318,14.318,0,0,1-1.676-1.067,14.825,14.825,0,0,1-1.265-1.051,16.794,16.794,0,0,1-1.408-1.486,18.187,18.187,0,0,1-1.26-1.692,21.247,21.247,0,0,1-1.113-1.885c-.342-.656-.668-1.352-.963-2.069s-.565-1.465-.813-2.246-.467-1.578-.664-2.414-.364-1.7-.506-2.572c-.127-.772-.233-1.573-.318-2.387a.231.231,0,0,0-.451-.039c-.307,1.061-.586,2.09-.832,3.073q-.463,1.851-.852,3.365c-.252.988-.43,1.782-.532,2.363a2.3,2.3,0,0,1-1.981,1.889A6,6,0,0,1,8.867,48.1a7.007,7.007,0,0,1-2.781-1.7,4.239,4.239,0,0,1-1.291-3.14,24.48,24.48,0,0,1,.787-4.888C6.1,36.15,6.842,33.515,7.8,30.538c.947-2.953,2.1-6.209,3.414-9.672,1.131-2.975,2.4-5.971,3.778-8.926a3.094,3.094,0,0,1,2.459-1.756,18.778,18.778,0,0,1,6.331.2,1.731,1.731,0,0,1,1.206,2.4c-1.154,2.536-2.218,5.067-3.169,7.53-.768,1.994-1.505,3.967-2.2,5.887a.229.229,0,0,0,.313.283,22.569,22.569,0,0,0,2.74-1.481,20.187,20.187,0,0,0,3.973-3.293A16.43,16.43,0,0,0,29.478,17.5a11.592,11.592,0,0,0,1.069-4.926c0-2.244-.63-3.9-1.875-4.924A8.122,8.122,0,0,0,23.4,6.09a12.846,12.846,0,0,0-6.485,1.658,19.323,19.323,0,0,0-5.056,4.118,20.083,20.083,0,0,0-3.272,5.141,12.108,12.108,0,0,0-1.156,4.631,1.871,1.871,0,0,1-1.4,1.887,3.9,3.9,0,0,1-2.565-.113,5.466,5.466,0,0,1-2.377-1.854A5.858,5.858,0,0,1,0,17.862a10.289,10.289,0,0,1,1.578-4.823A20.293,20.293,0,0,1,6.117,7.66a27.012,27.012,0,0,1,7.413-4.4,26.641,26.641,0,0,1,10.176-1.84ZM141.254,0a5.943,5.943,0,0,1,5.983,5.9,5.984,5.984,0,0,1-11.966,0A5.943,5.943,0,0,1,141.254,0" transform="translate(0 0)" fill="#ff441f" fill-rule="evenodd"/>
    </g>
  </g>
</svg>
