<svg id="Grupo_735077" data-name="Grupo 735077" xmlns="http://www.w3.org/2000/svg" xmlns:xlink="http://www.w3.org/1999/xlink" width="107.723" height="87.921" viewBox="0 0 107.723 87.921">
  <defs>
    <clipPath id="clip-path">
      <rect id="Rectángulo_274861" data-name="Rectángulo 274861" width="107.723" height="87.92" fill="#f98919"/>
    </clipPath>
  </defs>
  <rect id="Rectángulo_274859" data-name="Rectángulo 274859" width="2.51" height="13.13" transform="translate(44.895 74.758)" fill="#f98919"/>
  <g id="Grupo_730276" data-name="Grupo 730276">
    <g id="Grupo_730275" data-name="Grupo 730275" clip-path="url(#clip-path)">
      <path id="Trazado_494125" data-name="Trazado 494125" d="M79.5,228.346V209.274H86c5.912,0,9.08,4.209,9.08,9.536,0,5.426-3.3,9.536-9.113,9.536Zm6.01-2.269c4.573,0,7.023-2.4,7.023-7.267,0-4.965-2.613-7.267-6.925-7.267h-3.56v14.534Z" transform="translate(-53.533 -140.458)" fill="#f98919"/>
      <path id="Trazado_494126" data-name="Trazado 494126" d="M136.3,209.518a1.633,1.633,0,1,1,1.633,1.644,1.644,1.644,0,0,1-1.633-1.644" transform="translate(-91.78 -139.519)" fill="#f98919"/>
      <rect id="Rectángulo_274860" data-name="Rectángulo 274860" width="2.548" height="13.416" transform="translate(19.01 74.471)" fill="#f98919"/>
      <path id="Trazado_494127" data-name="Trazado 494127" d="M0,228.346V209.274H6.5c5.912,0,9.08,4.209,9.08,9.536,0,5.426-3.3,9.536-9.113,9.536Zm6.01-2.269c4.573,0,7.023-2.4,7.023-7.267,0-4.965-2.613-7.267-6.925-7.267H2.548v14.534Z" transform="translate(0 -140.458)" fill="#f98919"/>
      <path id="Trazado_494128" data-name="Trazado 494128" d="M57.1,209.518a1.633,1.633,0,1,1,1.633,1.644,1.665,1.665,0,0,1-1.633-1.644" transform="translate(-38.449 -139.519)" fill="#f98919"/>
      <path id="Trazado_494129" data-name="Trazado 494129" d="M208.431,225.274c-4.279,0-6.631,2.466-6.631,6.905,0,4.472,2.352,6.905,6.631,6.905s6.631-2.466,6.631-6.905c-.033-4.472-2.384-6.905-6.631-6.905m0,12.232c-3.4,0-5.063-1.743-5.063-5.36s1.666-5.36,5.063-5.36,5.063,1.743,5.063,5.36-1.666,5.36-5.063,5.36" transform="translate(-135.886 -151.197)" fill="#f98919"/>
      <path id="Trazado_494130" data-name="Trazado 494130" d="M253.031,225.274c-4.279,0-6.631,2.466-6.631,6.905,0,4.472,2.352,6.905,6.631,6.905s6.631-2.466,6.631-6.905c-.033-4.472-2.384-6.905-6.631-6.905m0,12.232c-3.4,0-5.063-1.743-5.063-5.36s1.666-5.36,5.063-5.36,5.063,1.743,5.063,5.36-1.666,5.36-5.063,5.36" transform="translate(-165.918 -151.197)" fill="#f98919"/>
      <path id="Trazado_494131" data-name="Trazado 494131" d="M169.1,209.554h9.93v-1.48H167.5v19.467h1.6v-8.648h8.231V217.38H169.1Z" transform="translate(-112.789 -139.653)" fill="#f98919"/>
      <path id="Trazado_494132" data-name="Trazado 494132" d="M302.1,208.2v7.333a6.04,6.04,0,0,0-4.867-1.973c-4.083,0-6.337,2.466-6.337,6.938s2.254,6.938,6.337,6.938a6.1,6.1,0,0,0,4.834-1.94l.131,1.71h1.4V207.874Zm-4.834,17.625c-3.2,0-4.769-1.743-4.769-5.36s1.568-5.36,4.769-5.36,4.769,1.743,4.769,5.36-1.568,5.36-4.769,5.36" transform="translate(-195.883 -139.519)" fill="#f98919"/>
      <path id="Trazado_494133" data-name="Trazado 494133" d="M90.158,46.287a23.075,23.075,0,0,0,22.469-22.76V12.915h13.661v11.8c-.277,19.13-16.782,34.279-36.13,34.7-19.695-.139-36.338-15.359-36.616-34.7V3.561A3.306,3.306,0,0,1,57.009,0h55.548V12.915H69.006a1.681,1.681,0,0,0-1.8,1.815v8.587A23.166,23.166,0,0,0,90.158,46.287" transform="translate(-36.053)" fill="#f98919"/>
    </g>
  </g>
</svg>
