<svg xmlns="http://www.w3.org/2000/svg" xmlns:xlink="http://www.w3.org/1999/xlink" width="150" height="150" viewBox="0 0 150 150">
  <defs>
    <filter id="Elipse_6633" x="0" y="0" width="150" height="150" filterUnits="userSpaceOnUse">
      <feOffset dy="3" input="SourceAlpha"/>
      <feGaussianBlur stdDeviation="3" result="blur"/>
      <feFlood flood-opacity="0.161"/>
      <feComposite operator="in" in2="blur"/>
      <feComposite in="SourceGraphic"/>
    </filter>
    <clipPath id="clip-path">
      <rect id="Rectángulo_274566" data-name="Rectángulo 274566" width="106.7" height="85.426" fill="none"/>
    </clipPath>
  </defs>
  <g id="Grupo_735506" data-name="Grupo 735506" transform="translate(-1083 -21911)">
    <g transform="matrix(1, 0, 0, 1, 1083, 21911)" filter="url(#Elipse_6633)">
      <circle id="Elipse_6633-2" data-name="Elipse 6633" cx="66" cy="66" r="66" transform="translate(9 6)" fill="#becdff"/>
    </g>
    <g id="Grupo_735023" data-name="Grupo 735023" transform="translate(1104 21938)">
      <g id="Grupo_729562" data-name="Grupo 729562" clip-path="url(#clip-path)">
        <path id="Trazado_493170" data-name="Trazado 493170" d="M33.923,6.135a49.11,49.11,0,0,0-9.855,7.654,51.742,51.742,0,0,0-7.679,9.853c-2.344,3.892-5.267,7.5-7.99,11.213A47.275,47.275,0,0,0,1.614,46.681,27.63,27.63,0,0,0,0,56.234a25.819,25.819,0,0,0,1.864,9.479,24.378,24.378,0,0,0,5.366,8.048,22.941,22.941,0,0,0,8.088,5.25,32,32,0,0,0,10.346,1.776c3.545.11,7.145-.093,10.684-.1,5.923-.017,11.839.531,17.752.987a125.094,125.094,0,0,0,17.733.439A49.716,49.716,0,0,0,89.21,77.935a29.839,29.839,0,0,0,13.2-11.146c3.32-5.34,4.407-11.358,4.28-17.478a77.33,77.33,0,0,0-3.009-18.088A54.525,54.525,0,0,0,99.953,21.16,38.707,38.707,0,0,0,94.015,12.3a27.777,27.777,0,0,0-9.528-6.809A64.1,64.1,0,0,0,73.292,1.981,69.661,69.661,0,0,0,58.931.022,53.828,53.828,0,0,0,44.54,1.491a32.068,32.068,0,0,0-5.331,1.888,54.039,54.039,0,0,0-5.286,2.756" transform="translate(0 0)" fill="#dce4ff"/>
        <path id="Trazado_493171" data-name="Trazado 493171" d="M109.969,463.569H10.683V460.2h99.287v3.37Z" transform="translate(-8.778 -378.143)" fill="#a5b7f5"/>
        <path id="Trazado_493172" data-name="Trazado 493172" d="M466.677,319.3l.519-.038.519-.038c-.449-.238-.9-.478-1.333-.75a6.638,6.638,0,0,1-1.195-.936,4.053,4.053,0,0,1-.856-1.265,2.831,2.831,0,0,1-.217-1.478,1.773,1.773,0,0,0,1.087.046,16.829,16.829,0,0,1-1.313-1.229,5.539,5.539,0,0,1-1.009-1.456,5.425,5.425,0,0,1-.445-1.976,14.494,14.494,0,0,1,.072-2.065c.021-.231.043-.465.083-.694a2.934,2.934,0,0,1,.191-.666,1.817,1.817,0,0,1,.392-.577,1.281,1.281,0,0,1,.593-.338,1.31,1.31,0,0,1,1.039.227,2.312,2.312,0,0,1,.745.86c.17.335.333.755.5,1.176a11.824,11.824,0,0,0,.511,1.176,8.841,8.841,0,0,0,.2-1.112,5.246,5.246,0,0,1,.248-1.11,10.449,10.449,0,0,1,2.162,1.557c.657.6,1.268,1.259,1.879,1.925a3.78,3.78,0,0,1,.359.44,1.473,1.473,0,0,1,.228.508,1.509,1.509,0,0,1,.013.5,4.566,4.566,0,0,1-.1.5l-.372,1.562-.371,1.562.728-1.027.728-1.027a1.227,1.227,0,0,0,.145.373c.085.177.178.36.2.4q.077.2.144.4t.127.4q.122.42.208.85t.135.864a10.543,10.543,0,0,1-.184,3.482q-.1.433-.231.857t-.3.834a2.331,2.331,0,0,1-.142.329.293.293,0,0,1-.28.161.569.569,0,0,1-.315-.161c-.1-.084-.188-.184-.265-.249a4.848,4.848,0,0,0-1.138-.695c-.406-.185-.83-.339-1.243-.5a9.147,9.147,0,0,1-1.356-.622,3.173,3.173,0,0,1-1.085-1" transform="translate(-379.968 -251.282)" fill="#f9b889"/>
        <path id="Trazado_493173" data-name="Trazado 493173" d="M482.91,340.834a55.74,55.74,0,0,0-8.741-20.3l.093-.065.093-.065a55.26,55.26,0,0,1,2.948,4.73,55.74,55.74,0,0,1,4.418,10.26,55.226,55.226,0,0,1,1.411,5.392l-.111.023Z" transform="translate(-389.622 -263.275)" fill="#d98853"/>
        <path id="Trazado_493174" data-name="Trazado 493174" d="M466.777,330.932a2.743,2.743,0,0,1-1.637-1.149l.094-.062.095-.062a2.513,2.513,0,0,0,1.5,1.054l-.026.11Z" transform="translate(-382.203 -270.878)" fill="#d98853"/>
        <path id="Trazado_493175" data-name="Trazado 493175" d="M473.2,342.437a3.2,3.2,0,0,1-.951-.145,3.115,3.115,0,0,1-.866-.425l.065-.093.065-.093A2.981,2.981,0,0,0,474,342.1l.031.109.031.109a3.064,3.064,0,0,1-.424.089,3.149,3.149,0,0,1-.43.03" transform="translate(-387.335 -280.758)" fill="#d98853"/>
        <path id="Trazado_493176" data-name="Trazado 493176" d="M494.036,336.492l-.1-.056-.1-.057a5.24,5.24,0,0,0,.7-2.741l.113,0,.113,0a5.465,5.465,0,0,1-.729,2.859" transform="translate(-405.786 -274.145)" fill="#d98853"/>
        <path id="Trazado_493177" data-name="Trazado 493177" d="M499.159,351.487l-.082-.078-.082-.078a1.574,1.574,0,0,0,.376-1.429l.11-.027.11-.027a1.806,1.806,0,0,1-.431,1.639" transform="translate(-410.022 -287.468)" fill="#d98853"/>
        <path id="Trazado_493178" data-name="Trazado 493178" d="M500.161,382.959a2.176,2.176,0,0,1-1.11-.305l.058-.1.058-.1a1.948,1.948,0,0,0,1.146.267l.009.113.009.113-.085.005-.085,0" transform="translate(-410.068 -314.265)" fill="#d98853"/>
        <path id="Trazado_493179" data-name="Trazado 493179" d="M530.276,306.6l-.516.062-.517.062c.4-.32.795-.642,1.165-.991a6.635,6.635,0,0,0,.994-1.148,4.058,4.058,0,0,0,.6-1.405,2.831,2.831,0,0,0-.07-1.492,1.771,1.771,0,0,1-1.058.253,16.841,16.841,0,0,0,1.053-1.457,5.543,5.543,0,0,0,.712-1.622,5.431,5.431,0,0,0,.059-2.025,14.5,14.5,0,0,0-.466-2.013c-.064-.223-.131-.448-.214-.665a2.93,2.93,0,0,0-.315-.617,1.824,1.824,0,0,0-.5-.491,1.279,1.279,0,0,0-.646-.218,1.309,1.309,0,0,0-.976.422,2.314,2.314,0,0,0-.567.987c-.1.362-.182.805-.264,1.249a11.764,11.764,0,0,1-.277,1.252,8.872,8.872,0,0,1-.413-1.053,5.254,5.254,0,0,0-.456-1.042,10.443,10.443,0,0,0-1.824,1.942c-.531.714-1,1.478-1.476,2.249a3.762,3.762,0,0,0-.268.5,1.469,1.469,0,0,0-.126.543,1.512,1.512,0,0,0,.083.5,4.593,4.593,0,0,0,.194.474l.664,1.462.664,1.462-.911-.869-.911-.869a1.229,1.229,0,0,1-.071.394c-.049.19-.106.387-.114.435q-.037.209-.065.419t-.047.422q-.04.436-.042.874t.033.874a10.549,10.549,0,0,0,.847,3.382q.178.407.39.8t.459.76a2.353,2.353,0,0,0,.2.3.293.293,0,0,0,.306.1.569.569,0,0,0,.278-.218c.08-.1.149-.216.213-.3a4.838,4.838,0,0,1,.984-.9c.363-.26.75-.491,1.124-.728a9.144,9.144,0,0,0,1.212-.87,3.172,3.172,0,0,0,.874-1.187" transform="translate(-430.038 -240.614)" fill="#f9b889"/>
        <path id="Trazado_493180" data-name="Trazado 493180" d="M535.153,329.682h-.226a55.229,55.229,0,0,1,.354-5.563,55.733,55.733,0,0,1,2.373-10.916,55.226,55.226,0,0,1,1.988-5.207l.1.046.1.046a55.749,55.749,0,0,0-4.7,21.6" transform="translate(-439.547 -253.077)" fill="#d98853"/>
        <path id="Trazado_493181" data-name="Trazado 493181" d="M564.949,316.879l-.047-.1-.047-.1a2.515,2.515,0,0,0,1.271-1.321l.1.043.1.043a2.745,2.745,0,0,1-1.387,1.441" transform="translate(-464.138 -259.123)" fill="#d98853"/>
        <path id="Trazado_493182" data-name="Trazado 493182" d="M555.436,329.408c-.044,0-.088,0-.131,0s-.088,0-.131-.008l.01-.113.01-.113a2.983,2.983,0,0,0,2.353-.885l.082.078.082.078a3.134,3.134,0,0,1-1.04.713,3.167,3.167,0,0,1-1.233.252" transform="translate(-456.183 -269.751)" fill="#d98853"/>
        <path id="Trazado_493183" data-name="Trazado 493183" d="M541.787,328.027a5.467,5.467,0,0,1-1.262-2.667l.112-.019.112-.019a5.243,5.243,0,0,0,1.21,2.557l-.085.074Z" transform="translate(-444.147 -267.315)" fill="#d98853"/>
        <path id="Trazado_493184" data-name="Trazado 493184" d="M541.107,343.611a1.806,1.806,0,0,1-.737-1.526l.113.006.113.006a1.575,1.575,0,0,0,.643,1.33l-.066.092Z" transform="translate(-444.017 -281.09)" fill="#d98853"/>
        <path id="Trazado_493185" data-name="Trazado 493185" d="M543.207,374.294l-.013-.112-.013-.113a1.945,1.945,0,0,0,1.074-.481l.076.084.076.084a2.174,2.174,0,0,1-1.2.538" transform="translate(-446.33 -306.975)" fill="#d98853"/>
        <path id="Trazado_493186" data-name="Trazado 493186" d="M515.586,251.565a2.489,2.489,0,0,0,.445-.594c.125-.217.239-.443.376-.652a1.881,1.881,0,0,1,.53-.544.945.945,0,0,1,.693-.161,1,1,0,0,1,.459.233,2.392,2.392,0,0,1,.358.395,8.374,8.374,0,0,1,.957,1.667,14.821,14.821,0,0,1,.647,1.822,15.063,15.063,0,0,1,.416,1.776,8.629,8.629,0,0,1,.117,1.811,6.1,6.1,0,0,1-.35,1.787,4.652,4.652,0,0,1-.92,1.55l.443-.051.443-.052a8.837,8.837,0,0,1-2.635,6.221,10.419,10.419,0,0,1,1.017-.235c.344-.068.688-.135,1.017-.235a6.161,6.161,0,0,1-.9,1.842,13.615,13.615,0,0,1-1.33,1.6c-.474.5-.966.992-1.426,1.507a9.909,9.909,0,0,0-1.231,1.652,11.039,11.039,0,0,1-1.694-2.208,11.263,11.263,0,0,1-1.1-2.558,15.823,15.823,0,0,1-.521-2.722,22.292,22.292,0,0,1-.11-2.776,4.637,4.637,0,0,1,2.088,1.79,6.053,6.053,0,0,0-.735-2.395,5.559,5.559,0,0,0-1.65-1.868,13.568,13.568,0,0,1,1.181-3.943,12.782,12.782,0,0,1,2.314-3.395,9.487,9.487,0,0,0,.544.933c.2.3.412.591.639.872a5.159,5.159,0,0,0,.153-1.531,7.689,7.689,0,0,0-.235-1.534" transform="translate(-419.879 -205.095)" fill="#d98853"/>
        <path id="Trazado_493187" data-name="Trazado 493187" d="M532.728,298.106a51.836,51.836,0,0,1-.277-21.1c.074-.379.153-.76.234-1.139s.164-.756.245-1.127c.2-.893.395-1.8.565-2.716s.31-1.839.389-2.762l.113.01.113.01c-.079.931-.22,1.86-.391,2.78s-.371,1.832-.567,2.728c-.081.37-.164.747-.245,1.125s-.16.759-.234,1.136a51.614,51.614,0,0,0,.276,21.01l-.11.025Z" transform="translate(-436.731 -221.248)" fill="#f9b889"/>
        <path id="Trazado_493188" data-name="Trazado 493188" d="M533.994,356.549l-.023-.111-.023-.111a1.753,1.753,0,0,0,1.284-1.161l.108.034.108.034a1.959,1.959,0,0,1-1.455,1.315" transform="translate(-438.742 -291.838)" fill="#f9b889"/>
        <path id="Trazado_493189" data-name="Trazado 493189" d="M527.647,316.934a3.4,3.4,0,0,1-1.346-2.077l.111-.022.111-.022a3.166,3.166,0,0,0,1.255,1.937l-.066.092Z" transform="translate(-432.459 -258.679)" fill="#d98853"/>
        <path id="Trazado_493190" data-name="Trazado 493190" d="M527.935,301.454a7.837,7.837,0,0,1-1.071-2.675l.111-.022.111-.022a7.616,7.616,0,0,0,1.04,2.6l-.1.061Z" transform="translate(-432.921 -245.468)" fill="#f9b889"/>
        <path id="Trazado_493191" data-name="Trazado 493191" d="M539.677,300.141l-.005-.113-.005-.113a2.286,2.286,0,0,0,1.586-.769l.085.074.085.074a2.517,2.517,0,0,1-1.746.846" transform="translate(-443.441 -245.807)" fill="#f9b889"/>
        <path id="Trazado_493192" data-name="Trazado 493192" d="M545.753,276.016l-.066-.092-.066-.092a2.384,2.384,0,0,0,.924-1.392l.111.025.11.025a2.615,2.615,0,0,1-1.013,1.526" transform="translate(-448.334 -225.506)" fill="#f9b889"/>
        <path id="Trazado_493193" data-name="Trazado 493193" d="M485.894,411.056a2.333,2.333,0,0,1,.209-.49,2.256,2.256,0,0,1,.128-.206h13.524a2.519,2.519,0,0,1,.338.7,6.049,6.049,0,0,1,.177.96,8.656,8.656,0,0,1,.054.927,7.22,7.22,0,0,1-.89,3.478,7.606,7.606,0,0,1-2.371,2.612,6.874,6.874,0,0,1-.76.127,7.15,7.15,0,0,1-.79.043h-5.037a7.15,7.15,0,0,1-.79-.043,6.866,6.866,0,0,1-.76-.127,7.606,7.606,0,0,1-2.371-2.612,7.22,7.22,0,0,1-.89-3.478,8.657,8.657,0,0,1,.054-.927,6.042,6.042,0,0,1,.177-.96" transform="translate(-399.068 -337.192)" fill="#97aaef"/>
        <path id="Trazado_493194" data-name="Trazado 493194" d="M519.271,419.2h3.856a7.15,7.15,0,0,0,.79-.043,6.959,6.959,0,0,0,.76-.127,7.609,7.609,0,0,0,2.371-2.612,7.22,7.22,0,0,0,.89-3.478,8.661,8.661,0,0,0-.054-.927,6.052,6.052,0,0,0-.177-.96,2.337,2.337,0,0,0-.209-.49,2.305,2.305,0,0,0-.128-.206h-.148q.041.273.062.551t.021.562a7.562,7.562,0,0,1-2.353,5.466,8.172,8.172,0,0,1-5.682,2.264" transform="translate(-426.682 -337.192)" fill="#b8c8fb"/>
        <path id="Trazado_493195" data-name="Trazado 493195" d="M490.257,419.2s-.15,0-.392-.02a6.718,6.718,0,0,1-.94-.148,7.606,7.606,0,0,1-2.371-2.612,7.223,7.223,0,0,1-.89-3.478,8.705,8.705,0,0,1,.054-.927,6.044,6.044,0,0,1,.177-.96,2.34,2.34,0,0,1,.209-.49,2.269,2.269,0,0,1,.128-.206h2.913c-.524.065-1.6,1.689-1.866,3.589a4.642,4.642,0,0,0,2.979,5.25" transform="translate(-399.067 -337.192)" fill="#7a91e6"/>
        <path id="Trazado_493196" data-name="Trazado 493196" d="M98.427,211.544h44.558a6.662,6.662,0,0,0,6.663-6.663V164.33a6.662,6.662,0,0,0-6.663-6.663H98.427a6.662,6.662,0,0,0-6.663,6.663v40.552a6.662,6.662,0,0,0,6.663,6.663" transform="translate(-75.402 -129.554)" fill="#7a91e6"/>
        <path id="Trazado_493197" data-name="Trazado 493197" d="M98.226,157.666H143.19a6.458,6.458,0,0,1,6.458,6.458v1.922H91.764v-1.917a6.462,6.462,0,0,1,6.462-6.462" transform="translate(-75.402 -129.553)" fill="#5564a2"/>
        <path id="Trazado_493198" data-name="Trazado 493198" d="M108.79,177.5a1.087,1.087,0,1,1-.318-.769,1.084,1.084,0,0,1,.318.769" transform="translate(-87.605 -144.961)" fill="#fff"/>
        <path id="Trazado_493199" data-name="Trazado 493199" d="M130.566,177.5a1.087,1.087,0,1,1-.318-.769,1.084,1.084,0,0,1,.318.769" transform="translate(-105.498 -144.961)" fill="#fff"/>
        <path id="Trazado_493200" data-name="Trazado 493200" d="M152.341,177.5a1.087,1.087,0,1,1-.318-.769,1.084,1.084,0,0,1,.318.769" transform="translate(-123.391 -144.961)" fill="#fff"/>
        <path id="Trazado_493201" data-name="Trazado 493201" d="M383.7,176.248l.312-.312.312-.312-1.05-1.05-1.05-1.05-.312.312-.312.312,1.05,1.05Z" transform="translate(-313.558 -142.583)" fill="#fff"/>
        <path id="Trazado_493202" data-name="Trazado 493202" d="M382.224,176.248l1.05-1.05,1.05-1.05-.312-.312-.312-.312-1.05,1.05-1.05,1.05.312.312Z" transform="translate(-313.559 -142.583)" fill="#fff"/>
        <path id="Trazado_493203" data-name="Trazado 493203" d="M157.244,239.153H115.09a4.509,4.509,0,0,1-4.51-4.509v-5.7a4.51,4.51,0,0,1,4.51-4.51h42.154a4.51,4.51,0,0,1,4.51,4.51v5.7a4.51,4.51,0,0,1-4.51,4.509" transform="translate(-90.863 -184.42)" fill="#5564a2"/>
        <path id="Trazado_493204" data-name="Trazado 493204" d="M134.805,246.245H177.34V235.462H134.805v10.783Z" transform="translate(-110.769 -193.478)" fill="#7a91e6"/>
        <path id="Trazado_493205" data-name="Trazado 493205" d="M177.339,251.186l-4.7-2.486-4.7-2.486-7.429,3.205-7.429,3.205-4.253-1.138-4.253-1.138-4.882,1.533-4.883,1.533v1.667h42.534v-3.894Z" transform="translate(-110.769 -202.312)" fill="#2d3969"/>
        <path id="Trazado_493206" data-name="Trazado 493206" d="M216.15,249.854a1.81,1.81,0,1,0,.53-1.28,1.805,1.805,0,0,0-.53,1.28" transform="translate(-177.609 -203.816)" fill="#2d3969"/>
        <path id="Trazado_493207" data-name="Trazado 493207" d="M157.244,346.9H115.09a4.51,4.51,0,0,1-4.51-4.51V330.631a4.509,4.509,0,0,1,4.51-4.509h42.154a4.509,4.509,0,0,1,4.51,4.509V342.39a4.51,4.51,0,0,1-4.51,4.51" transform="translate(-90.863 -267.973)" fill="#5564a2"/>
        <path id="Trazado_493208" data-name="Trazado 493208" d="M194.744,341.161h-6.993v-.8h6.993v.8Z" transform="translate(-154.274 -279.676)" fill="#2d3969"/>
        <path id="Trazado_493209" data-name="Trazado 493209" d="M193.45,364.817h-5.7v-.8h5.7v.8Z" transform="translate(-154.274 -299.114)" fill="#2d3969"/>
        <path id="Trazado_493210" data-name="Trazado 493210" d="M190.962,352.989h-3.21v-.8h3.21v.8Z" transform="translate(-154.275 -289.395)" fill="#2d3969"/>
        <path id="Trazado_493211" data-name="Trazado 493211" d="M213.223,352.989h-.908v-.8h.908v.8Z" transform="translate(-174.458 -289.395)" fill="#2d3969"/>
        <path id="Trazado_493212" data-name="Trazado 493212" d="M242.056,341.161h-6.993v-.8h6.993v.8Z" transform="translate(-193.15 -279.676)" fill="#2d3969"/>
        <path id="Trazado_493213" data-name="Trazado 493213" d="M240.761,364.817h-5.7v-.8h5.7v.8Z" transform="translate(-193.15 -299.114)" fill="#2d3969"/>
        <path id="Trazado_493214" data-name="Trazado 493214" d="M238.273,352.989h-3.21v-.8h3.21v.8Z" transform="translate(-193.15 -289.395)" fill="#2d3969"/>
        <path id="Trazado_493215" data-name="Trazado 493215" d="M260.534,352.989h-.908v-.8h.908v.8Z" transform="translate(-213.333 -289.395)" fill="#2d3969"/>
        <path id="Trazado_493216" data-name="Trazado 493216" d="M299.415,341.161h-6.993v-.8h6.993v.8Z" transform="translate(-240.282 -279.676)" fill="#2d3969"/>
        <path id="Trazado_493217" data-name="Trazado 493217" d="M298.121,364.817h-5.7v-.8h5.7v.8Z" transform="translate(-240.282 -299.114)" fill="#2d3969"/>
        <path id="Trazado_493218" data-name="Trazado 493218" d="M295.633,352.989h-3.21v-.8h3.21v.8Z" transform="translate(-240.283 -289.395)" fill="#2d3969"/>
        <path id="Trazado_493219" data-name="Trazado 493219" d="M317.894,352.989h-.908v-.8h.908v.8Z" transform="translate(-260.466 -289.395)" fill="#2d3969"/>
        <path id="Trazado_493220" data-name="Trazado 493220" d="M346.518,341.161h-6.993v-.8h6.993v.8Z" transform="translate(-278.986 -279.676)" fill="#2d3969"/>
        <path id="Trazado_493221" data-name="Trazado 493221" d="M345.223,364.817h-5.7v-.8h5.7v.8Z" transform="translate(-278.986 -299.114)" fill="#2d3969"/>
        <path id="Trazado_493222" data-name="Trazado 493222" d="M342.735,352.989h-3.21v-.8h3.21v.8Z" transform="translate(-278.986 -289.395)" fill="#2d3969"/>
        <path id="Trazado_493223" data-name="Trazado 493223" d="M365,352.989h-.908v-.8H365v.8Z" transform="translate(-299.169 -289.395)" fill="#2d3969"/>
        <path id="Trazado_493224" data-name="Trazado 493224" d="M121.366,374.205a2.432,2.432,0,0,0,.835.7,2.4,2.4,0,0,0,1.1.262h44.98a2.962,2.962,0,0,1-.977-.932,10.823,10.823,0,0,0-.833-1.1,8.253,8.253,0,0,0-2.555-1.813,7.861,7.861,0,0,0-1.678-.546,7.216,7.216,0,0,0-1.758-.141,14.161,14.161,0,0,0-1.775.224c-.589.1-1.177.21-1.772.263a6.259,6.259,0,0,1-1.8-.077,3.544,3.544,0,0,1-1.592-.734,4.486,4.486,0,0,1-.894-1.093c-.252-.4-.477-.833-.734-1.233a4.233,4.233,0,0,0-.961-1.079,2.05,2.05,0,0,0-1.288-.463,2.126,2.126,0,0,0-1.523.783,6.4,6.4,0,0,0-1,1.591,8.218,8.218,0,0,1-.934,1.626,2.331,2.331,0,0,1-1.45.94,2.1,2.1,0,0,1-1.483-.364,3.652,3.652,0,0,1-1.1-1.174,10,10,0,0,1-.672-1.447,12.324,12.324,0,0,0-.652-1.459,3.9,3.9,0,0,0-1.048-1.226,2.2,2.2,0,0,0-1.457-.475,2.227,2.227,0,0,0-1.444.726,4.345,4.345,0,0,0-.9,1.461c-.2.528-.345,1.082-.514,1.623a6.213,6.213,0,0,1-.67,1.544,2.881,2.881,0,0,1-1.311,1.086,1.719,1.719,0,0,1-1.572-.072,2,2,0,0,1-.819-1.161,8.519,8.519,0,0,1-.274-1.509,16.855,16.855,0,0,0-1.216-4.531A4.733,4.733,0,0,0,129,363.3a1.83,1.83,0,0,0-.989-.678,1.644,1.644,0,0,0-1.4.356,2.691,2.691,0,0,0-.886,1.275,5.493,5.493,0,0,0-.223,1.517c-.017.516,0,1.039-.035,1.553a8.265,8.265,0,0,1-2.282,5.159c-.285.3-.6.577-.91.86s-.622.566-.9.865" transform="translate(-99.726 -297.931)" fill="#2d3969"/>
        <path id="Trazado_493225" data-name="Trazado 493225" d="M428.9,420.22a9,9,0,0,1-2.432.508,3.675,3.675,0,0,1,.4,2.565l.477-.163.477-.163.386-.131c.129-.043.258-.084.388-.122.066-.019.132-.038.2-.056s.133-.035.2-.051c.052-.012.116-.019.178-.031a.452.452,0,0,0,.168-.057.1.1,0,0,0,.056-.1.516.516,0,0,0-.044-.124q-.038-.093-.074-.186t-.068-.189c-.044-.128-.083-.258-.118-.389s-.065-.263-.091-.4q-.044-.225-.07-.453t-.035-.457" transform="translate(-350.427 -345.293)" fill="#ffa188"/>
        <path id="Trazado_493226" data-name="Trazado 493226" d="M416.114,431.468a3.189,3.189,0,0,1,.266.723,3.471,3.471,0,0,1,.117.779,6.451,6.451,0,0,1-1.125,1.34,6.685,6.685,0,0,1-1.429,1.011,6.2,6.2,0,0,1-3.234.672,1.13,1.13,0,0,1-.3-.054.4.4,0,0,1-.225-.173.359.359,0,0,1-.038-.24.536.536,0,0,1,.1-.232.918.918,0,0,1,.18-.174c.067-.051.139-.1.209-.143a7.125,7.125,0,0,0,2.754-3.487,7.106,7.106,0,0,0,1.748.071c.552-.033.975-.093.975-.093" transform="translate(-337.011 -354.535)" fill="#ead6c5"/>
        <path id="Trazado_493227" data-name="Trazado 493227" d="M416.21,438.646a.963.963,0,0,1-.117.394,1.866,1.866,0,0,1-.249.337A9.6,9.6,0,0,1,414.8,440.4a6.27,6.27,0,0,1-1.211.8,5.977,5.977,0,0,1-1.452.507,5.174,5.174,0,0,1-1.531.091,1.255,1.255,0,0,1-.191-.033,1.065,1.065,0,0,1-.182-.064.57.57,0,0,1-.21-.149.335.335,0,0,1-.075-.2.9.9,0,0,1,.025-.1.262.262,0,0,0,.015-.07.174.174,0,0,0-.1.086.459.459,0,0,0-.053.115.974.974,0,0,0-.022.263,3.054,3.054,0,0,0,.028.323.759.759,0,0,0,.662.652c.109.013.225.025.338.035s.221.015.316.015c.227,0,.443,0,.658-.014a5.03,5.03,0,0,0,.652-.079,6.025,6.025,0,0,0,.671-.174c.225-.071.447-.153.653-.235a3.09,3.09,0,0,0,.6-.327,4.1,4.1,0,0,0,.564-.473l.731-.714.731-.714a3.163,3.163,0,0,0-.027-.649,2.174,2.174,0,0,0-.182-.641" transform="translate(-336.741 -360.433)" fill="#c6aa95"/>
        <path id="Trazado_493228" data-name="Trazado 493228" d="M459.791,427.347a9,9,0,0,1-2.483-.105,3.674,3.674,0,0,1-.239,2.586l.5-.041.5-.041.406-.032c.135-.01.271-.018.407-.023l.206-.006q.1,0,.206,0c.053,0,.117.01.18.014a.453.453,0,0,0,.177-.014.1.1,0,0,0,.079-.088.5.5,0,0,0-.012-.131q-.015-.1-.026-.2t-.019-.2q-.016-.2-.018-.406t.009-.407q.013-.229.044-.456t.079-.451" transform="translate(-375.572 -351.063)" fill="#ffa188"/>
        <path id="Trazado_493229" data-name="Trazado 493229" d="M419.247,292.1c.471-.077.957-.159,1.443-.24s.971-.164,1.443-.241c-.049-1.621-.035-3.322.038-5.027s.2-3.417.391-5.06q.08-.7.173-1.387t.2-1.344c.006-.042.013-.084.019-.127l.018-.127a32.889,32.889,0,0,0,.221-4.228c.01-1.437.008-2.9.147-4.364.085-.919.2-1.839.3-2.766s.215-1.858.29-2.8a4.827,4.827,0,0,0,.021-.524,1.608,1.608,0,0,0-.087-.5.338.338,0,0,0-.148-.143,1.886,1.886,0,0,0-.3-.142,4.5,4.5,0,0,0-.458-.144c-.164-.043-.335-.08-.5-.107a3.331,3.331,0,0,0-.535-.052.549.549,0,0,0-.32.066c-.458.335-1.377,2.112-2.208,4.64a33.5,33.5,0,0,0-1.676,9.145,46.7,46.7,0,0,0,.422,9.458c.384,2.769.882,4.963,1.109,6.017" transform="translate(-343.165 -215.919)" fill="#2d3969"/>
        <path id="Trazado_493230" data-name="Trazado 493230" d="M451.434,258.1a22.576,22.576,0,0,1,.148,2.756,22.083,22.083,0,0,1-.19,2.729c-.134.9-.383,1.936-.568,3.358a30.868,30.868,0,0,0-.18,5.664,78.853,78.853,0,0,1-.351,8.041c-.22,2.694-.463,5.181-.491,6.8-1.157-.05-1.971-.091-2.5-.119s-.759-.044-.759-.044-.24-2.716-.512-5.618-.574-5.992-.7-6.74a48.619,48.619,0,0,1-.766-7.433c-.073-2.168-.028-3.858-.062-4.568a14.167,14.167,0,0,1,.454-3.443c.339-1.475.835-2.924,1.4-3.287a25.7,25.7,0,0,0,2.458,1.213,8.148,8.148,0,0,0,2.614.689" transform="translate(-365.241 -210.514)" fill="#2d3969"/>
        <path id="Trazado_493231" data-name="Trazado 493231" d="M438.628,262.925c.034.71-.01,2.4.062,4.568a48.639,48.639,0,0,0,.766,7.433,5.144,5.144,0,0,0,.135.593,5.909,5.909,0,0,0,.212.606q.08-.7.173-1.388t.2-1.344l.019-.127.018-.127a54.773,54.773,0,0,1-.49-6.367c-.043-1.819-.011-3.218-.042-3.847a9.786,9.786,0,0,1,.2-2.2,18.8,18.8,0,0,1,.769-3.05l.014-.037.014-.037c.077-.205.157-.4.24-.57a3.641,3.641,0,0,1,.257-.457l-.359-.191-.339-.185a1.427,1.427,0,0,0-.4.439,4.733,4.733,0,0,0-.365.73l-.011.028-.011.028a17.365,17.365,0,0,0-.839,3.156,10.369,10.369,0,0,0-.231,2.349" transform="translate(-360.407 -210.514)" fill="#1d263f"/>
        <path id="Trazado_493232" data-name="Trazado 493232" d="M471.034,288.991c0-.028.048-.428.092-.828s.088-.8.092-.828c.146.017.263.04.382.052a1.446,1.446,0,0,0,.391-.008,3.241,3.241,0,0,1,.362-.011,1.373,1.373,0,0,0,.353-.034c-.009.083-.045.5-.081.918s-.073.835-.084.917c-.134.9-.383,1.937-.568,3.358a30.882,30.882,0,0,0-.18,5.664c.014.508-.06,2.265-.145,3.929s-.181,3.236-.214,3.375c-.549-.474-.826-1.988-.972-3.562s-.158-3.208-.177-3.921a30.874,30.874,0,0,1,.18-5.664c.185-1.422.434-2.459.568-3.358" transform="translate(-386.39 -236.102)" fill="#1d263f"/>
        <path id="Trazado_493233" data-name="Trazado 493233" d="M446.445,173.395a1.641,1.641,0,0,1-.564.663,2.466,2.466,0,0,1-.824.341,2.756,2.756,0,0,1-.956.053,3.4,3.4,0,0,1-.931-.247,3.929,3.929,0,0,1-.842-.5,7.633,7.633,0,0,1-.74-.654,3.58,3.58,0,0,0,.251-.3,3.83,3.83,0,0,0,.219-.32,4.376,4.376,0,0,0,.312-.615,5.116,5.116,0,0,0,.22-.656q.073-.277.126-.554t.08-.556q.024-.247.026-.5c0-.166-.006-.333-.021-.5a3.561,3.561,0,0,0,1.586.47,4.378,4.378,0,0,0,1.645-.3c.067.367.118.733.158,1.1s.071.724.1,1.082c.021.287.041.571.061.854s.041.563.066.842q.007.076.014.151c0,.05.01.1.015.15" transform="translate(-362.85 -138.911)" fill="#ffa188"/>
        <path id="Trazado_493234" data-name="Trazado 493234" d="M446.471,139.987a5.521,5.521,0,0,1-.352.869c-.139.281-.295.554-.449.827a5.818,5.818,0,0,1-.414.655,1.9,1.9,0,0,1-.558.512,1.809,1.809,0,0,1-.411.167,3.823,3.823,0,0,1-.438.092,8.715,8.715,0,0,1-2.8-.01,2.624,2.624,0,0,1-.54-.139,1.056,1.056,0,0,1-.441-.308.975.975,0,0,1-.163-.305,1.677,1.677,0,0,1-.072-.346c-.006-.051-.01-.1-.013-.154s-.005-.1-.007-.153c0-.017,0-.034,0-.051s0-.034,0-.05q-.007-.3,0-.59t.029-.589q.024-.336.067-.671t.1-.667a12.414,12.414,0,0,1,.813-2.69,1.219,1.219,0,0,1,.122-.234,1.533,1.533,0,0,1,.179-.2,1.248,1.248,0,0,1,.286-.212.932.932,0,0,1,.336-.107,1.106,1.106,0,0,1,.351.023,3.387,3.387,0,0,1,.344.1c.373.121.746.242,1.114.377a10.658,10.658,0,0,1,1.081.458,6.412,6.412,0,0,1,1.059.636,2.306,2.306,0,0,1,.756.918,2.356,2.356,0,0,1,.167.914,3.343,3.343,0,0,1-.146.929" transform="translate(-361.387 -111.445)" fill="#ffa188"/>
        <path id="Trazado_493235" data-name="Trazado 493235" d="M450.378,176.022a3.317,3.317,0,0,1-.324.458,1.636,1.636,0,0,1-.42.355,1.682,1.682,0,0,1-.381.155,3.537,3.537,0,0,1-.406.085,8.071,8.071,0,0,1-2.171.05c.017-.052.034-.105.05-.158s.031-.106.045-.16q.038-.143.07-.286t.059-.286a8.05,8.05,0,0,0,2.565,0,3.532,3.532,0,0,0,.406-.085,1.684,1.684,0,0,0,.381-.155c.02-.012.049-.03.073-.046l.043-.029s0,0,0,.012l.005.048,0,.015c0,.006,0,.012,0,.018a.012.012,0,0,0,0,0,0,0,0,0,1,0,0" transform="translate(-367.031 -144.556)" fill="#ed836e"/>
        <path id="Trazado_493236" data-name="Trazado 493236" d="M440.679,125.949c-.052.221-.1.443-.142.667a3.553,3.553,0,0,0-.056.676,2.157,2.157,0,0,0,.12.671,1.512,1.512,0,0,0,.354.57,1.608,1.608,0,0,0,.566.352,2.929,2.929,0,0,0,.661.158,9.733,9.733,0,0,1,1.275.187,1.594,1.594,0,0,1,1.019.719,3.781,3.781,0,0,1,.318.84,2,2,0,0,0,.389.787.252.252,0,0,1,0-.225.3.3,0,0,1,.167-.162.359.359,0,0,1,.232,0,.461.461,0,0,1,.2.128.6.6,0,0,1,.12.2.934.934,0,0,1,.05.234.867.867,0,0,1,0,.163.542.542,0,0,1-.037.157.4.4,0,0,1-.091.134.309.309,0,0,1-.138.079,2.517,2.517,0,0,1,.2.7c.081.362.158.744.181.814.036.11.165.052.3-.043s.268-.228.316-.267a7.745,7.745,0,0,0,1.208-1.24,6.45,6.45,0,0,0,.88-1.488,3.106,3.106,0,0,0,.095-2.123,4.138,4.138,0,0,0-1.18-1.806,4.324,4.324,0,0,0-.847-.613,3.393,3.393,0,0,0-.976-.359,4.275,4.275,0,0,0-1.315-.023c-.44.051-.881.142-1.317.22a7.886,7.886,0,0,1-1.3.151,2.759,2.759,0,0,1-1.246-.255" transform="translate(-361.941 -103.364)" fill="#643a24"/>
        <path id="Trazado_493237" data-name="Trazado 493237" d="M441.577,436.615a3.2,3.2,0,0,1,.08.766,3.476,3.476,0,0,1-.078.784,6.448,6.448,0,0,1-1.42,1.022,6.691,6.691,0,0,1-1.634.629,6.2,6.2,0,0,1-3.3-.144,1.134,1.134,0,0,1-.277-.125.4.4,0,0,1-.176-.223.361.361,0,0,1,.022-.242.537.537,0,0,1,.155-.2.9.9,0,0,1,.217-.125c.078-.033.158-.06.238-.087a7.124,7.124,0,0,0,3.527-2.7,7.111,7.111,0,0,0,1.676.5c.543.1.968.149.968.149" transform="translate(-357.241 -358.232)" fill="#ead6c5"/>
        <path id="Trazado_493238" data-name="Trazado 493238" d="M440.98,447.064a.965.965,0,0,1-.21.353,1.86,1.86,0,0,1-.325.266,9.654,9.654,0,0,1-1.262.737,6.266,6.266,0,0,1-1.372.481,5.968,5.968,0,0,1-1.532.134,5.17,5.17,0,0,1-1.506-.288,1.244,1.244,0,0,1-.177-.079,1.071,1.071,0,0,1-.161-.107.57.57,0,0,1-.167-.2.335.335,0,0,1-.022-.217.926.926,0,0,1,.05-.1.244.244,0,0,0,.032-.064.174.174,0,0,0-.121.058.459.459,0,0,0-.079.1.97.97,0,0,0-.086.25,3.1,3.1,0,0,0-.052.32.759.759,0,0,0,.481.795c.1.04.212.08.319.117s.21.069.3.092c.22.056.43.108.641.148a5.013,5.013,0,0,0,.651.084,6.052,6.052,0,0,0,.693,0c.236-.014.471-.038.691-.067a3.1,3.1,0,0,0,.665-.169,4.1,4.1,0,0,0,.663-.32l.884-.513.884-.513a3.166,3.166,0,0,0,.134-.636,2.172,2.172,0,0,0-.018-.666" transform="translate(-356.604 -367.35)" fill="#c6aa95"/>
        <path id="Trazado_493239" data-name="Trazado 493239" d="M426.862,189.716c0,.293-.024.586-.056.879s-.076.584-.126.875a.558.558,0,0,1-.2.323.591.591,0,0,0-.209.321,12.761,12.761,0,0,0-.181,1.478,12.723,12.723,0,0,1-.18,1.478,12.228,12.228,0,0,0-.115,1.606c-.022.717-.029,1.54-.03,2.241,0,.454,0,1.556,0,2.544s0,1.864,0,1.864-.576.075-1.586.155-2.456.166-4.2.187a13.629,13.629,0,0,1-2.924-.313c-.793-.165-1.354-.333-1.531-.333,0,0-.009-1.548-.022-3.181s-.031-3.351-.049-3.691q-.007-.13-.015-.262c-.005-.088-.011-.176-.016-.265-.022-.367-.045-.742-.05-1.113a7.987,7.987,0,0,1,.048-1.091q.024-.2.05-.392t.054-.39a6.107,6.107,0,0,1-.528.426c-.187.135-.383.263-.586.384s-.391.222-.594.325-.411.2-.621.29a20.649,20.649,0,0,1-.646-2.684,14.963,14.963,0,0,1-.221-2.5,8.845,8.845,0,0,1,3.581-2.788,15.934,15.934,0,0,1,2.349-.905,4.035,4.035,0,0,0,.207.609,1.633,1.633,0,0,0,.37.529,1.685,1.685,0,0,0,.435.291,2.037,2.037,0,0,0,.5.159,2.714,2.714,0,0,0,.74.037,1.442,1.442,0,0,0,.693-.234,4.263,4.263,0,0,0,.674-.754c.227-.3.409-.567.409-.567s.409.178.9.4,1.078.5,1.426.685c.213.115.408.229.6.349s.377.247.571.388a4.87,4.87,0,0,1,.559.44,1.589,1.589,0,0,1,.394.6,2.335,2.335,0,0,1,.132.792c0,.265-.016.532-.019.8" transform="translate(-338.814 -152.162)" fill="#ead6c5"/>
        <path id="Trazado_493240" data-name="Trazado 493240" d="M487.592,222.042a2.876,2.876,0,0,0-.4-.643,2.981,2.981,0,0,0-.564-.521,3.111,3.111,0,0,0-.3-.221,2.9,2.9,0,0,0-.319-.179,1.886,1.886,0,0,0,.562-.589,1.432,1.432,0,0,1,.45-.5,10.419,10.419,0,0,1-.837-1.59c-.235-.533-.441-1.044-.661-1.461a6.663,6.663,0,0,1,1.266-1.139,13.837,13.837,0,0,0,1.36-1.048,12.625,12.625,0,0,1,1.638,3.823,9.926,9.926,0,0,1,.54,2.751,1.627,1.627,0,0,1-.275.659,3.284,3.284,0,0,1-.447.582,5.928,5.928,0,0,1-.506.456,6.147,6.147,0,0,1-.634.38,1.841,1.841,0,0,0-.422-.387,3.133,3.133,0,0,1-.447-.377" transform="translate(-398.948 -175.969)" fill="#ffa188"/>
        <path id="Trazado_493241" data-name="Trazado 493241" d="M451.836,219.077a10.439,10.439,0,0,1-.159,1.517,5.3,5.3,0,0,0-.066,1.48,10.426,10.426,0,0,0-2.638-.406,13.181,13.181,0,0,0-2.671.211c-.4.07-.8.16-1.205.2a2.847,2.847,0,0,1-1.185-.091.569.569,0,0,1-.219-.128.2.2,0,0,1-.065-.206.216.216,0,0,1,.079-.1.631.631,0,0,1,.119-.069,7.436,7.436,0,0,1,2.3-.661c.674-.08,1.365-.068,2.046-.094a6.524,6.524,0,0,0,1.992-.321.837.837,0,0,0,.142-.063.313.313,0,0,0,.11-.1.3.3,0,0,0,0-.281.954.954,0,0,0-.181-.263c-.281-.3-.578-.593-.87-.886s-.581-.59-.846-.908a6.5,6.5,0,0,1-.429-.572,4.86,4.86,0,0,1-.352-.621,2.25,2.25,0,0,1-.118-.247c-.034-.1-.041-.188.05-.2.041-.007.143.086.243.189s.2.216.231.246q.5.455,1.027.874t1.086.8a7.082,7.082,0,0,0,.849.426,5.018,5.018,0,0,0,.722.282" transform="translate(-364.52 -177.699)" fill="#c6aa95"/>
        <path id="Trazado_493242" data-name="Trazado 493242" d="M426.937,216.58c-.423.951-.741,1.666-1.033,2.391s-.558,1.461-.875,2.451c-.022-.367-.045-.742-.05-1.113a8.007,8.007,0,0,1,.048-1.091q.024-.2.05-.392t.054-.39a6.066,6.066,0,0,1-.528.426c-.187.135-.383.263-.586.384a.215.215,0,0,1,.051-.113.908.908,0,0,1,.137-.128c.384-.308.988-.8,1.535-1.272a9.4,9.4,0,0,0,1.2-1.155" transform="translate(-348.412 -177.963)" fill="#c6aa95"/>
        <path id="Trazado_493243" data-name="Trazado 493243" d="M469.7,201.47a16.987,16.987,0,0,0,1.1,2.46,13.067,13.067,0,0,0,1.494,2.231,15.543,15.543,0,0,0,2.268-.713,6.5,6.5,0,0,0,1.9-1.368,20.56,20.56,0,0,0-1.27-2.295c-.463-.728-.964-1.433-1.506-2.162" transform="translate(-385.953 -164.029)" fill="#ead6c5"/>
        <path id="Trazado_493244" data-name="Trazado 493244" d="M408.054,204.684a17,17,0,0,1-1.1,2.46,13.072,13.072,0,0,1-1.494,2.231,15.554,15.554,0,0,1-2.268-.713,6.5,6.5,0,0,1-1.9-1.368,20.467,20.467,0,0,1,1.015-1.946c.335-.553.709-1.084,1.251-1.813" transform="translate(-329.745 -167.243)" fill="#ead6c5"/>
        <path id="Trazado_493245" data-name="Trazado 493245" d="M461.352,229.035a1.918,1.918,0,0,1,.134.593.9.9,0,0,1-.144.56.887.887,0,0,1-.408.31,1.678,1.678,0,0,1-.521.108,3.344,3.344,0,0,1-1.219-.17,5.78,5.78,0,0,1-1.136-.521,11.724,11.724,0,0,1-2.048-1.557c-.632-.586-1.225-1.221-1.812-1.851-.291-.313-.569-.655-.847-1s-.555-.684-.847-1c-.077-.082-.17-.141-.243-.208a.328.328,0,0,1-.129-.253.5.5,0,0,1,.11-.306.679.679,0,0,1,.264-.206.972.972,0,0,1,.323-.075,1.857,1.857,0,0,1,.336.01,4.265,4.265,0,0,1,1.258.36,11.113,11.113,0,0,1,1.169.625q.887.527,1.753,1.089t1.708,1.158c.225.159.464.292.7.432a3.694,3.694,0,0,1,.659.48,3.915,3.915,0,0,1,.55.656,3.828,3.828,0,0,1,.393.76" transform="translate(-371.514 -183.618)" fill="#ffa188"/>
        <path id="Trazado_493246" data-name="Trazado 493246" d="M442.844,221.666c-.175-.1-.353-.214-.535-.316a3.893,3.893,0,0,0-.559-.265,2.034,2.034,0,0,0-.562-.112,4.11,4.11,0,0,0-.579.009,8.226,8.226,0,0,0-2.148.455.632.632,0,0,0-.126.057.211.211,0,0,0-.087.1.181.181,0,0,0,0,.125.246.246,0,0,0,.071.108.349.349,0,0,0,.111.064.668.668,0,0,0,.126.032,2.714,2.714,0,0,0,.835-.05,1.785,1.785,0,0,1,.82.01,1.292,1.292,0,0,1,.418.239,3.959,3.959,0,0,1,.354.341l.508.533.509.533s.171-.1.349-.211.364-.221.4-.238c.132-.069.267-.128.4-.186s.272-.114.405-.178a.464.464,0,0,0,.265-.289.263.263,0,0,0-.135-.3c-.133-.081-.271-.154-.412-.228s-.284-.149-.427-.234" transform="translate(-360.097 -181.567)" fill="#ffa188"/>
        <path id="Trazado_493247" data-name="Trazado 493247" d="M397.384,215.766l1.454,4.226,1.454,4.226a1.336,1.336,0,0,1-1.263,1.771h-9.064a1.336,1.336,0,0,1-1.265-.906l-1.436-4.226-1.436-4.226a1.336,1.336,0,0,1,1.265-1.766h9.027a1.336,1.336,0,0,1,1.263.9" transform="translate(-316.974 -176.553)" fill="#c9793c"/>
        <path id="Trazado_493248" data-name="Trazado 493248" d="M393.227,215.766l1.454,4.226,1.454,4.226a1.336,1.336,0,0,1-1.264,1.771h-9.064a1.336,1.336,0,0,1-1.265-.906l-1.436-4.226-1.436-4.226a1.336,1.336,0,0,1,1.265-1.766h9.027a1.336,1.336,0,0,1,1.263.9" transform="translate(-313.559 -176.553)" fill="#f8a66c"/>
        <path id="Trazado_493249" data-name="Trazado 493249" d="M387.936,246.743a2,2,0,0,0,.315.923.549.549,0,0,0,1.047-.108,2.179,2.179,0,0,0-.2-1.89.549.549,0,0,0-1.047.108,2,2,0,0,0-.119.967" transform="translate(-318.755 -201.584)" fill="#ed836e"/>
        <path id="Trazado_493250" data-name="Trazado 493250" d="M385.805,245.525l.529-.044.529-.044a.344.344,0,0,0-.057-.685l-.528.044-.529.044a.344.344,0,0,0,.057.685" transform="translate(-316.709 -201.111)" fill="#ffa188"/>
        <path id="Trazado_493251" data-name="Trazado 493251" d="M386.911,244.722a.417.417,0,0,1-.381.45l-.529.044-.528.044a.413.413,0,0,1-.3-.1.422.422,0,0,1-.147-.284.418.418,0,0,1,.381-.45l.529-.044.529-.044a.417.417,0,0,1,.449.372v.008m-1.647.329a.271.271,0,0,0,.092.051.267.267,0,0,0,.1.012l.529-.044.529-.044a.268.268,0,0,0,.183-.095.273.273,0,0,0,.051-.092.27.27,0,0,0-.017-.206.276.276,0,0,0-.159-.134.268.268,0,0,0-.1-.012l-.528.044-.529.044a.271.271,0,0,0-.247.292v.005a.266.266,0,0,0,.03.1.271.271,0,0,0,.065.08" transform="translate(-316.37 -200.773)" fill="#ffa188"/>
        <path id="Trazado_493252" data-name="Trazado 493252" d="M385.815,249.283l.717-.074.717-.074a.34.34,0,0,0,.3-.372l0-.025,0-.025a.339.339,0,0,0-.372-.3l-.717.074-.717.074a.34.34,0,0,0-.3.372l0,.025,0,.025a.34.34,0,0,0,.372.3" transform="translate(-316.711 -204.116)" fill="#ffa188"/>
        <path id="Trazado_493253" data-name="Trazado 493253" d="M386.921,248.866l-.723.075-.723.075a.406.406,0,0,1-.445-.361l0-.032,0-.032a.405.405,0,0,1,.361-.445l.723-.075.723-.075a.405.405,0,0,1,.445.361l0,.032,0,.032a.406.406,0,0,1-.362.445m-1.745-.227a.259.259,0,0,0,.284.231l.723-.075.723-.075a.259.259,0,0,0,.231-.284l0-.032,0-.031a.259.259,0,0,0-.284-.231l-.723.075-.723.075a.259.259,0,0,0-.231.284l0,.031Z" transform="translate(-316.37 -203.776)" fill="#ffa188"/>
        <path id="Trazado_493254" data-name="Trazado 493254" d="M387.17,253.332l.695-.072.695-.072a.341.341,0,0,0,.3-.373l0-.025,0-.025a.341.341,0,0,0-.373-.3l-.695.072-.695.072a.341.341,0,0,0-.3.373l0,.025,0,.025a.341.341,0,0,0,.373.3" transform="translate(-317.823 -207.445)" fill="#ffa188"/>
        <path id="Trazado_493255" data-name="Trazado 493255" d="M388.233,252.919l-.7.073-.7.073a.407.407,0,0,1-.446-.362l0-.032,0-.032a.407.407,0,0,1,.363-.446l.7-.073.7-.073a.407.407,0,0,1,.446.363l0,.032,0,.032a.407.407,0,0,1-.363.446m-1.7-.233a.261.261,0,0,0,.285.232l.7-.073.7-.073a.26.26,0,0,0,.232-.285l0-.032,0-.032a.26.26,0,0,0-.286-.232l-.7.073-.7.073a.261.261,0,0,0-.232.285l0,.032Z" transform="translate(-317.483 -207.104)" fill="#ffa188"/>
        <path id="Trazado_493256" data-name="Trazado 493256" d="M389.849,257.206l.526-.073.526-.073a.309.309,0,0,0,.263-.348l0-.023,0-.023a.31.31,0,0,0-.348-.263l-.526.073-.526.073a.309.309,0,0,0-.263.348l0,.023,0,.023a.31.31,0,0,0,.348.263" transform="translate(-320.043 -210.682)" fill="#ffa188"/>
        <path id="Trazado_493257" data-name="Trazado 493257" d="M390.575,256.79l-.532.074-.531.074a.376.376,0,0,1-.424-.32l0-.029,0-.029a.377.377,0,0,1,.182-.376.372.372,0,0,1,.138-.048l.531-.074.532-.074a.376.376,0,0,1,.424.32l0,.029,0,.029v.007s0,0,0,.007a.376.376,0,0,1-.322.411m-1.35-.249,0,.029,0,.029a.23.23,0,0,0,.259.2l.532-.074.531-.074a.23.23,0,0,0,.152-.089.226.226,0,0,0,.044-.17l0-.029,0-.029a.229.229,0,0,0-.259-.2l-.532.074-.532.074a.23.23,0,0,0-.2.251v.008" transform="translate(-319.702 -210.342)" fill="#ffa188"/>
        <path id="Trazado_493258" data-name="Trazado 493258" d="M392.266,246.1l-.008-.124-.008-.124a.038.038,0,0,1,.01-.028.037.037,0,0,1,.027-.012l.068,0,.068,0a.131.131,0,0,1,.057.018.163.163,0,0,1,.077.119.194.194,0,0,1,0,.064.161.161,0,0,1-.076.107.165.165,0,0,1-.031.01.4.4,0,0,1-.1.009h-.044a.038.038,0,0,1-.04-.035" transform="translate(-322.309 -201.981)" fill="#fff"/>
        <path id="Trazado_493259" data-name="Trazado 493259" d="M394.436,249.781l-.012-.137-.012-.137a.042.042,0,0,1,.039-.046l.075,0,.075,0a.148.148,0,0,1,.064.018.181.181,0,0,1,.087.13.218.218,0,0,1,0,.071.178.178,0,0,1-.082.121.166.166,0,0,1-.034.012.432.432,0,0,1-.106.012l-.024,0-.024,0a.043.043,0,0,1-.031-.01.042.042,0,0,1-.015-.029" transform="translate(-324.087 -204.973)" fill="#fff"/>
        <path id="Trazado_493260" data-name="Trazado 493260" d="M395.344,253.824l-.012-.146-.012-.146a.045.045,0,0,1,.011-.033.045.045,0,0,1,.031-.015l.08-.005.08,0a.153.153,0,0,1,.068.019.192.192,0,0,1,.093.138.231.231,0,0,1,0,.075.155.155,0,0,1-.123.14.463.463,0,0,1-.112.013l-.025,0-.026,0a.044.044,0,0,1-.048-.041" transform="translate(-324.832 -208.278)" fill="#fff"/>
        <path id="Trazado_493261" data-name="Trazado 493261" d="M396.162,257.693l-.015-.122-.015-.122a.037.037,0,0,1,.033-.042l.067-.007.067-.007a.132.132,0,0,1,.057.014.16.16,0,0,1,.082.113.19.19,0,0,1,0,.063.159.159,0,0,1-.069.11.153.153,0,0,1-.03.012.389.389,0,0,1-.094.014l-.021,0-.021,0a.038.038,0,0,1-.042-.033" transform="translate(-325.5 -211.5)" fill="#fff"/>
        <path id="Trazado_493262" data-name="Trazado 493262" d="M80.557,419.07a2.523,2.523,0,0,1-.359-.965,3.281,3.281,0,0,1-.027-.662c.011-.221.039-.442.072-.66s.05-.426.065-.64.023-.428.036-.643q.04-.683.092-1.366t.115-1.364a9.563,9.563,0,0,1-1.637.048,9.188,9.188,0,0,1-1.622-.225c.054.37.1.74.143,1.112s.083.743.121,1.114c.054.521.106,1.043.164,1.564s.119,1.042.193,1.561a8.67,8.67,0,0,0,.237,1.332,1.7,1.7,0,0,0,.776,1.044,2.381,2.381,0,0,0,.555.218,6,6,0,0,0,.589.119,8.62,8.62,0,0,0,1.45.133,3.752,3.752,0,0,0,1.4-.259,7.432,7.432,0,0,0-.887-.379,3.931,3.931,0,0,1-.858-.425,2.242,2.242,0,0,1-.342-.3,2.381,2.381,0,0,1-.277-.359" transform="translate(-63.509 -339.026)" fill="#ffa188"/>
        <path id="Trazado_493263" data-name="Trazado 493263" d="M77.563,454.282l-.12.265-.12.265a.212.212,0,0,0,.121.286c.425.153.85.288,1.281.4s.868.212,1.315.287c.286.049.588.091.89.119a7.538,7.538,0,0,0,.9.033,8.08,8.08,0,0,0,.926-.059,1.924,1.924,0,0,0,.846-.3,1.988,1.988,0,0,1-.849-.062c-.3-.07-.592-.165-.853-.205l-1.72-.267-1.72-.267c-.089-.014-.178-.028-.265-.047a1.347,1.347,0,0,1-.255-.081.764.764,0,0,1-.224-.151.615.615,0,0,1-.149-.222" transform="translate(-63.52 -373.281)" fill="#1d263f"/>
        <path id="Trazado_493264" data-name="Trazado 493264" d="M78.419,448.311c-.074.225-.132.4-.2.6s-.15.435-.27.786a1.344,1.344,0,0,0,.595.356c.231.078.479.128.7.186.5.131.975.247,1.465.344s1,.176,1.559.233a6.176,6.176,0,0,0,1.012.031,2.927,2.927,0,0,0,.974-.217,1.4,1.4,0,0,0,.265-.148.9.9,0,0,0,.213-.212.682.682,0,0,0,.114-.28.534.534,0,0,0-.032-.295.56.56,0,0,0-.275-.276.894.894,0,0,0-.4-.087,1.824,1.824,0,0,0-.4.058c-.132.032-.263.07-.4.1a2.836,2.836,0,0,1-1.235-.01l-1.845-.581Z" transform="translate(-64.049 -368.375)" fill="#2d3969"/>
        <path id="Trazado_493265" data-name="Trazado 493265" d="M78.435,319.16a5.155,5.155,0,0,1-.757.354,6.53,6.53,0,0,1-1.926.426,5.577,5.577,0,0,1-1.481-.1,5.419,5.419,0,0,1-1.6-.612l-.056-.032-.056-.033v-.172l.094-9.884.094-9.883.122-1.448.122-1.449,1.58-.068,1.58-.068,1.083-.047,1.083-.047s.162,4.2.257,9.187.125,10.751-.14,13.879" transform="translate(-59.621 -243.299)" fill="#2d3969"/>
        <path id="Trazado_493266" data-name="Trazado 493266" d="M73.793,327.528c.043-1.085.065-2.135.07-3.184s-.007-2.1-.032-3.185c-.019-.836-.051-1.515-.1-2.206s-.109-1.4-.188-2.282a8.217,8.217,0,0,0-.234-1.171c-.108-.429-.226-.883-.3-1.317q-.066-.022-.13-.046t-.128-.052l-.093,9.843-.093,9.843.055.119.055.118a5.422,5.422,0,0,0,1.6.612,5.584,5.584,0,0,0,1.481.1,5.2,5.2,0,0,0-.3-.484c-.109-.157-.221-.313-.326-.472a8.032,8.032,0,0,1-1.14-2.973,14.8,14.8,0,0,1-.2-3.267" transform="translate(-59.627 -258.082)" fill="#1d263f"/>
        <path id="Trazado_493267" data-name="Trazado 493267" d="M109.386,220.05l1.549,1.563,1.549,1.563c.959-.659,1.94-1.333,2.955-1.926a15.122,15.122,0,0,1,3.161-1.443,3.607,3.607,0,0,0,.2.593,3.157,3.157,0,0,0,.3.539,9.312,9.312,0,0,1-.981,1.327,15.636,15.636,0,0,1-1.151,1.169q-.378.349-.777.671t-.815.617c-.431.306-.815.611-1.187.916s-.733.611-1.12.916a1.113,1.113,0,0,1-.493.224,1.09,1.09,0,0,1-.535-.037c-.205-.067-.413-.145-.612-.231a5.311,5.311,0,0,1-.558-.279l-2.59-1.513-2.59-1.513c.018-.023.036-.051.055-.08s.036-.057.054-.08l1.79-1.5Z" transform="translate(-86.851 -180.615)" fill="#ffa188"/>
        <path id="Trazado_493268" data-name="Trazado 493268" d="M21.314,422.59a2.524,2.524,0,0,0,.449-.927,3.283,3.283,0,0,0,.09-.657c.009-.221,0-.443-.009-.664s-.01-.429,0-.643.017-.428.025-.643q.025-.684.038-1.369t.015-1.369a9.551,9.551,0,0,0,1.625.2,9.146,9.146,0,0,0,1.636-.071c-.088.363-.17.728-.248,1.093s-.152.732-.226,1.1c-.1.514-.2,1.028-.311,1.542s-.217,1.026-.34,1.535a8.638,8.638,0,0,1-.362,1.3,1.7,1.7,0,0,1-.871.966,2.383,2.383,0,0,1-.573.165c-.2.033-.4.05-.6.063a8.628,8.628,0,0,1-1.456,0,3.756,3.756,0,0,1-1.374-.391,7.412,7.412,0,0,1,.919-.293,3.921,3.921,0,0,0,.895-.342,2.23,2.23,0,0,0,.369-.264,2.4,2.4,0,0,0,.31-.332" transform="translate(-15.466 -342.087)" fill="#ffa188"/>
        <path id="Trazado_493269" data-name="Trazado 493269" d="M21,457.594l.107.27.107.271a.209.209,0,0,1-.006.169.212.212,0,0,1-.129.111c-.431.132-.863.246-1.3.34s-.877.169-1.327.222c-.288.034-.591.062-.894.075a7.469,7.469,0,0,1-.9-.011,8.067,8.067,0,0,1-.922-.1,1.922,1.922,0,0,1-.83-.34,1.985,1.985,0,0,0,.851-.02c.3-.056.6-.135.862-.163l1.731-.182,1.731-.182c.089-.009.179-.019.267-.034a1.367,1.367,0,0,0,.259-.069.768.768,0,0,0,.231-.139.615.615,0,0,0,.159-.214" transform="translate(-12.249 -376.003)" fill="#1d263f"/>
        <path id="Trazado_493270" data-name="Trazado 493270" d="M17.555,451.541c.063.228.112.4.172.606s.129.442.231.8a1.346,1.346,0,0,1-.611.326c-.235.067-.485.1-.708.151-.506.106-.986.2-1.48.272s-1,.127-1.569.156a6.159,6.159,0,0,1-1.013-.019,2.924,2.924,0,0,1-.962-.265,1.387,1.387,0,0,1-.257-.161.912.912,0,0,1-.2-.222.683.683,0,0,1-.1-.285.535.535,0,0,1,.046-.293.559.559,0,0,1,.289-.262.889.889,0,0,1,.4-.067,1.806,1.806,0,0,1,.4.077c.13.038.259.082.39.117a2.83,2.83,0,0,0,1.234.051l1.871-.49Z" transform="translate(-9.08 -371.029)" fill="#2d3969"/>
        <path id="Trazado_493271" data-name="Trazado 493271" d="M76.257,175.787a4.809,4.809,0,0,0,.252,2.074c.214.8.477,1.6.542,2.093a2.105,2.105,0,0,1-2.27.758,14,14,0,0,0-1.889-.628,21.4,21.4,0,0,0,.51-3.3c.126-1.274.215-2.555.283-3.339A3.949,3.949,0,0,0,74.7,174.9a4.887,4.887,0,0,0,1.553.89" transform="translate(-59.896 -142.521)" fill="#ffa188"/>
        <path id="Trazado_493272" data-name="Trazado 493272" d="M79.154,179.784l-.075.016-.076.015a1.945,1.945,0,0,1-.774-.03,2.969,2.969,0,0,1-.731-.3,3.4,3.4,0,0,1-.541-.37,4.371,4.371,0,0,1-.471-.458c.013-.16.028-.388.044-.612s.034-.446.052-.593c.214.34.46.75.741,1.123a3.206,3.206,0,0,0,.947.9,2.963,2.963,0,0,0,.345.171,1.751,1.751,0,0,0,.372.1l.083.022.083.02" transform="translate(-62.849 -145.811)" fill="#ed836e"/>
        <path id="Trazado_493273" data-name="Trazado 493273" d="M34.211,295.547s-.72,3.587-1.434,8.346a109.176,109.176,0,0,0-1.4,15.383,3.394,3.394,0,0,0,1.293.412,9.97,9.97,0,0,0,4.206-.412l1.555-11.924,1.555-11.924-1.283.09-1.283.09-1.606-.031Z" transform="translate(-25.784 -242.752)" fill="#2d3969"/>
        <path id="Trazado_493274" data-name="Trazado 493274" d="M44.733,203.042a6.332,6.332,0,0,1-.779.437,5.408,5.408,0,0,1-.785.3q.028.317.047.634t.029.636a27.457,27.457,0,0,1-.171,3.923,39.023,39.023,0,0,1-.644,3.87c-.04.186-.061.385-.087.584a2.962,2.962,0,0,1-.12.573,21.369,21.369,0,0,1-3.331.575,19.976,19.976,0,0,1-3.28.026q-.854-.063-1.715-.2t-1.738-.338l-.173-.041-.173-.042-.035-.008-.035-.009q-.013-.136-.026-.272t-.024-.272h0c0-.02,0-.04-.006-.06l-.005-.06q-.07-.814-.117-1.629T31.5,210.04c0-.007,0-.014,0-.021s0-.014,0-.021c0-.024,0-.047,0-.071s0-.048,0-.072q0-.079,0-.158t0-.159c0-.007,0-.014,0-.021s0-.014,0-.021c0-.053,0-.106,0-.16s0-.107,0-.16c0-.028,0-.057,0-.085v-.085q0-.088,0-.176c0-.059,0-.117,0-.176s0-.134,0-.2,0-.134,0-.2q0-1.279.055-2.557t.166-2.551q.013-.153.027-.307t.029-.307a2.24,2.24,0,0,0-1.009-1.932,9.392,9.392,0,0,0-2.145-1.2,1.561,1.561,0,0,0,.337-.3c.158-.163.319-.337.356-.371q.185-.17.374-.333t.384-.32q.388-.313.793-.6t.827-.545a14.9,14.9,0,0,1,1.741-.915,14.434,14.434,0,0,1,1.836-.671q.32-.093.644-.171t.65-.14a.569.569,0,0,1,.249-.016.786.786,0,0,1,.2.114,1.258,1.258,0,0,0,.316.14c.113.035.229.062.335.088a4.332,4.332,0,0,0,1.955.031,2.7,2.7,0,0,0,.437-.152,2.04,2.04,0,0,1,.432-.139,1.222,1.222,0,0,1,.512.067c.18.054.36.124.5.164s.284.081.425.124.281.088.421.136q.348.117.689.254t.674.3l.125.062.124.063.094.049.093.05a11.262,11.262,0,0,1,2.255,2.193c.767.9,1.389,1.723,1.389,1.723s-.42.471-1.008,1.053a14.4,14.4,0,0,1-2.021,1.716" transform="translate(-23.494 -160.231)" fill="#ead6c5"/>
        <path id="Trazado_493275" data-name="Trazado 493275" d="M48.87,241.067q-.854-.063-1.715-.2t-1.737-.338l-.173-.041-.173-.042c-.027-.087-.051-.172-.071-.263a2.656,2.656,0,0,1-.048-.3h0c0-.013,0-.027,0-.04s0-.027,0-.041,0-.013,0-.019l0-.019c-.042-.543-.081-1.086-.113-1.629s-.059-1.087-.075-1.632c0-.007,0-.014,0-.021s0-.014,0-.021,0-.019,0-.028,0-.019,0-.028,0-.029,0-.043,0-.029,0-.043c0-.053,0-.105,0-.158s0-.106,0-.159c0-.007,0-.014,0-.021v-.021c0-.053,0-.106,0-.16s0-.107,0-.16c0-.028,0-.057,0-.085s0-.057,0-.085q0-.088,0-.176t0-.176c0-.067,0-.134,0-.2s0-.134,0-.2q0-1.279.055-2.557t.166-2.551a5.907,5.907,0,0,0,1.978-1.035c.6-.448,1.125-.951,1.581-1.366-.094.483-.139.822-.215,1.2a10.127,10.127,0,0,1-.406,1.412,9.738,9.738,0,0,1-.6,1.234c-.249.454-.51.9-.668,1.2a16.647,16.647,0,0,0-.735,1.559,11.957,11.957,0,0,0-.538,1.646,3.078,3.078,0,0,0,.128,1.67,5.882,5.882,0,0,0,.763,1.5,7.558,7.558,0,0,0,1.092,1.225,13.953,13.953,0,0,0,1.274,1.02l.134.1.135.1" transform="translate(-36.751 -186.698)" fill="#c6aa95"/>
        <path id="Trazado_493276" data-name="Trazado 493276" d="M106.939,198.818c-.163,1.278-.234,2.565-.294,3.845s-.105,2.552-.218,3.8c-.206-1.4-.324-2.766-.438-4.123s-.223-2.706-.413-4.073q.348.118.689.254t.674.3" transform="translate(-86.751 -162.915)" fill="#c6aa95"/>
        <path id="Trazado_493277" data-name="Trazado 493277" d="M77.587,253.143a14.648,14.648,0,0,1-2.32,3.405c-.909,1.044-1.9,2.033-2.825,3.075a21.81,21.81,0,0,1-1.651,1.648c-.548.5-1.1.992-1.678,1.576a16.642,16.642,0,0,0-1.908-4.3,13.924,13.924,0,0,0-3.075-3.525A15.591,15.591,0,0,0,71.38,247.4a25.874,25.874,0,0,0,2.84,3.164,20.805,20.805,0,0,0,3.367,2.579" transform="translate(-52.696 -203.287)" fill="#fff"/>
        <path id="Trazado_493278" data-name="Trazado 493278" d="M68.776,262.582l-.009-.031-.009-.031a16.538,16.538,0,0,0-1.973-4.39,13.926,13.926,0,0,0-3-3.415l-.023-.018-.023-.018.026-.013.026-.013a15.647,15.647,0,0,0,7.232-7.6l.013-.029.013-.029.019.025.019.025a25.7,25.7,0,0,0,2.944,3.262,20.667,20.667,0,0,0,3.253,2.472l.014.009.014.009-.007.015-.007.015a13.253,13.253,0,0,1-1.714,2.681c-.665.83-1.4,1.608-2.115,2.374-.219.233-.442.47-.664.71s-.443.482-.658.725c-.333.375-.656.706-.98,1.019s-.647.608-.98.911c-.221.2-.447.407-.675.621s-.46.437-.7.674l-.023.023Zm-4.895-7.889a12.566,12.566,0,0,1,1.61,1.562,15.447,15.447,0,0,1,1.427,1.936,16.955,16.955,0,0,1,1.1,2.076,16.083,16.083,0,0,1,.79,2.171c.228-.229.452-.444.674-.651s.44-.406.654-.6c.332-.3.655-.6.978-.909s.645-.642.977-1.016c.216-.243.437-.486.659-.725s.445-.477.664-.711c.714-.759,1.439-1.532,2.1-2.354a13.28,13.28,0,0,0,1.7-2.651,20.743,20.743,0,0,1-3.227-2.455,25.716,25.716,0,0,1-2.923-3.23,15.266,15.266,0,0,1-1.275,2.313,15.833,15.833,0,0,1-3.666,3.854,15.251,15.251,0,0,1-2.248,1.39" transform="translate(-52.377 -202.95)" fill="#6676be"/>
        <path id="Trazado_493279" data-name="Trazado 493279" d="M110.938,266.965a6.993,6.993,0,0,1-3.561-3.529l.034-.015.034-.015a6.918,6.918,0,0,0,3.522,3.491l-.015.034Z" transform="translate(-88.231 -216.439)" fill="#6676be"/>
        <path id="Trazado_493280" data-name="Trazado 493280" d="M101.8,273.518a7.039,7.039,0,0,1-3.681-3.3l.033-.017.033-.017a6.961,6.961,0,0,0,3.641,3.263l-.013.035Z" transform="translate(-80.621 -222.01)" fill="#6676be"/>
        <path id="Trazado_493281" data-name="Trazado 493281" d="M96.094,283.293a5.111,5.111,0,0,1-1.306-.474,5.531,5.531,0,0,1-2.076-1.909,5.117,5.117,0,0,1-.582-1.262l.036-.011.036-.011a5.367,5.367,0,0,0,3.908,3.594l-.008.036Z" transform="translate(-75.703 -229.767)" fill="#6676be"/>
        <path id="Trazado_493282" data-name="Trazado 493282" d="M88.645,291.3a8.778,8.778,0,0,1-4.349-4.862l.035-.013.035-.013a8.7,8.7,0,0,0,4.312,4.82l-.017.034Z" transform="translate(-69.266 -235.343)" fill="#6676be"/>
        <path id="Trazado_493283" data-name="Trazado 493283" d="M81.223,295.731a11.472,11.472,0,0,1-2.465-3.132l.033-.018.033-.018a11.4,11.4,0,0,0,2.448,3.112l-.025.028Z" transform="translate(-64.715 -240.398)" fill="#6676be"/>
        <path id="Trazado_493284" data-name="Trazado 493284" d="M16.335,215.79c-.77.863-1.281,1.389-1.709,1.923a9.873,9.873,0,0,0-1.216,1.971,6.6,6.6,0,0,0-.435,1.116,2.674,2.674,0,0,0-.1,1.171,2.992,2.992,0,0,0,.6,1.092,4.749,4.749,0,0,0,.876.89A22.019,22.019,0,0,0,19,226.431c1.571.629,3.194,1.145,4.971,1.794.394.144.791.288,1.192.408a6.833,6.833,0,0,0,1.223.258,1.463,1.463,0,0,0,.463-.014.589.589,0,0,0,.372-.232.6.6,0,0,0,.1-.363.85.85,0,0,0-.1-.375,1.236,1.236,0,0,0-.233-.3,2.964,2.964,0,0,0-.292-.239,20.734,20.734,0,0,0-4.154-2.187,19.029,19.029,0,0,1-4.127-2.226l-.73-.563-.448-.346s.133-.249.31-.555a9.005,9.005,0,0,1,.577-.9,7.192,7.192,0,0,0,.562-.923c.188-.348.366-.7.508-.93l-1.427-1.477Z" transform="translate(-10.554 -177.314)" fill="#ffa188"/>
        <path id="Trazado_493285" data-name="Trazado 493285" d="M27.409,207.067a13.465,13.465,0,0,0-1.781,1.1,13.849,13.849,0,0,0-1.606,1.368,1.088,1.088,0,0,0-.174.211.352.352,0,0,0,.006.41,1.082,1.082,0,0,0,.11.133,23.229,23.229,0,0,0,1.789,1.7c.659.57,1.34,1.112,1.917,1.535a5.2,5.2,0,0,0,1.078-.823,8,8,0,0,0,.9-1.052" transform="translate(-19.544 -170.146)" fill="#ead6c5"/>
        <path id="Trazado_493286" data-name="Trazado 493286" d="M177.393,208.3c.211-.157.417-.322.626-.482a7.773,7.773,0,0,1,.643-.453,3.536,3.536,0,0,1,.7-.341,2.212,2.212,0,0,1,.756-.128.453.453,0,0,1,.132.019.17.17,0,0,1,.123.207.258.258,0,0,1-.062.123.382.382,0,0,1-.106.079,1.1,1.1,0,0,1-.122.053l-.408.157-.408.157c-.039.015-.078.03-.116.048a.5.5,0,0,0-.106.067.323.323,0,0,0-.08.1.239.239,0,0,0-.026.126.294.294,0,0,0,.085.172c.044.05.1.095.144.143a.642.642,0,0,1,.141.254.67.67,0,0,1,.02.294.654.654,0,0,1-.11.27.606.606,0,0,1-.212.189,1.527,1.527,0,0,1-.173.07.669.669,0,0,0-.166.082.715.715,0,0,0-.111.107,1.455,1.455,0,0,1-.106.113.7.7,0,0,1-.256.143,1.642,1.642,0,0,1-.289.062,3.61,3.61,0,0,0-.915.257,5.293,5.293,0,0,0-.847.461c0-.164.023-.285.017-.4a.541.541,0,0,0-.138-.336c-.032-.039-.126-.151-.212-.254l-.165-.2s.33-.214.712-.468.818-.546,1.029-.7" transform="translate(-144.332 -170.008)" fill="#ffa188"/>
        <path id="Trazado_493287" data-name="Trazado 493287" d="M64.357,270.017a2.349,2.349,0,0,0,.844.459,2.258,2.258,0,0,0,.945.079c.13-.017.258-.046.386-.076s.256-.061.385-.084a1.909,1.909,0,0,1,.392-.033,1.089,1.089,0,0,1,.382.076c-.047.028-.094.057-.139.089a.752.752,0,0,0-.125.109.482.482,0,0,0-.089.144.352.352,0,0,0-.024.167.377.377,0,0,0,.143.247,1.122,1.122,0,0,0,.26.154l1.028.47,1.028.47a1.39,1.39,0,0,1,.129.065.476.476,0,0,1,.113.09.316.316,0,0,1,.071.132.225.225,0,0,1-.009.146.2.2,0,0,1-.164.117.348.348,0,0,1-.214-.042l-.907-.3-.907-.3a.276.276,0,0,0,.074.137.594.594,0,0,0,.126.1,3.734,3.734,0,0,0,.458.211,1.592,1.592,0,0,1,.434.25l.449.257.449.256a.176.176,0,0,1,.076.13.148.148,0,0,1-.032.141.2.2,0,0,1-.114.037.489.489,0,0,1-.124-.015,1.909,1.909,0,0,1-.2-.057c-.066-.022-.131-.046-.2-.071l-.664-.25-.664-.25.583.441.583.441a.375.375,0,0,1,.055.048.127.127,0,0,1,.032.063.11.11,0,0,1-.024.085.143.143,0,0,1-.075.05.207.207,0,0,1-.087,0,.54.54,0,0,1-.086-.022,2.957,2.957,0,0,1-.565-.252,3.064,3.064,0,0,1-.506-.367l-.019.03-.019.03a.142.142,0,0,0,.068.082.6.6,0,0,0,.1.045.281.281,0,0,1,.1.059.115.115,0,0,1,.039.1.1.1,0,0,1-.037.066.135.135,0,0,1-.069.031.206.206,0,0,1-.074,0,.6.6,0,0,1-.072-.022,6.681,6.681,0,0,1-1.076-.485,6.881,6.881,0,0,1-.984-.671c-.115-.094-.223-.176-.331-.258s-.215-.165-.328-.261-.215-.177-.327-.258a2.937,2.937,0,0,0-.351-.219,3.123,3.123,0,0,0-.606-.233c-.208-.058-.421-.1-.633-.146.155-.281.323-.555.5-.821a9.331,9.331,0,0,1,.576-.763.449.449,0,0,0,.014.077.431.431,0,0,1,.014.077" transform="translate(-51.973 -221.745)" fill="#ffa188"/>
        <path id="Trazado_493288" data-name="Trazado 493288" d="M62.758,270.8l.02-.036.02-.036q.241-.438.514-.838a9.36,9.36,0,0,1,.571-.756l.046-.055.046-.055,0,.073,0,.073a.2.2,0,0,0,0,.029c0,.011.005.023.008.036l.007.03c0,.01,0,.02.006.03a2.3,2.3,0,0,0,.818.435,2.206,2.206,0,0,0,.911.075c.073-.01.147-.023.22-.039s.145-.032.217-.049l.164-.038c.055-.012.111-.024.167-.034a1.9,1.9,0,0,1,.442-.033,1.112,1.112,0,0,1,.362.079l.055.022.055.022-.051.031-.051.031c-.045.027-.09.054-.133.085a.689.689,0,0,0-.118.1.416.416,0,0,0-.08.129.292.292,0,0,0-.019.134.324.324,0,0,0,.127.212,1.092,1.092,0,0,0,.242.142l1.027.47,1.028.47a1.421,1.421,0,0,1,.135.068.537.537,0,0,1,.126.1.38.38,0,0,1,.084.157.286.286,0,0,1-.012.187.246.246,0,0,1-.058.083.26.26,0,0,1-.089.053.346.346,0,0,1-.151.017.4.4,0,0,1-.152-.047l-.837-.275-.837-.275a.43.43,0,0,0,.047.041c.018.013.038.027.061.04a1.811,1.811,0,0,0,.176.091c.061.028.122.053.183.079.093.039.187.078.278.124a1.292,1.292,0,0,1,.258.169l.446.255.447.255a.167.167,0,0,1,.075.08.341.341,0,0,1,.033.117.251.251,0,0,1-.009.1.141.141,0,0,1-.049.07.254.254,0,0,1-.142.047.536.536,0,0,1-.14-.016,1.983,1.983,0,0,1-.2-.058c-.067-.022-.132-.047-.2-.072l-.477-.179-.477-.179.421.318.42.318a.409.409,0,0,1,.063.056.186.186,0,0,1,.046.092.169.169,0,0,1-.034.131.2.2,0,0,1-.106.073.261.261,0,0,1-.105,0,.6.6,0,0,1-.1-.025,2.954,2.954,0,0,1-.374-.15,3.086,3.086,0,0,1-.354-.2s0,.009,0,.014,0,.009,0,.014a.161.161,0,0,1-.055.1.192.192,0,0,1-.1.046.266.266,0,0,1-.093,0,.622.622,0,0,1-.078-.023,6.745,6.745,0,0,1-1.084-.489,6.942,6.942,0,0,1-.991-.676c-.051-.042-.1-.082-.15-.12l-.145-.111-.178-.137c-.061-.048-.123-.1-.186-.151-.087-.074-.189-.157-.3-.239a2.947,2.947,0,0,0-.366-.231,3.073,3.073,0,0,0-.6-.23c-.207-.058-.417-.1-.624-.144l-.039-.008Zm1.135-1.5q-.262.32-.5.674t-.456.739c.2.041.4.084.6.142a3.105,3.105,0,0,1,.578.226,3.062,3.062,0,0,1,.378.238c.116.084.22.17.309.245.062.053.122.1.182.147l.179.138.146.112c.05.039.1.079.152.121a6.806,6.806,0,0,0,.976.666,6.63,6.63,0,0,0,1.067.481.592.592,0,0,0,.064.019.157.157,0,0,0,.057,0,.079.079,0,0,0,.039-.017.046.046,0,0,0,.019-.029.064.064,0,0,0-.029-.053.245.245,0,0,0-.071-.04h-.006a.546.546,0,0,1-.117-.054.194.194,0,0,1-.084-.11l0-.013,0-.013.044-.069.044-.069.024.021.024.021a2.989,2.989,0,0,0,.5.36,2.9,2.9,0,0,0,.554.247.532.532,0,0,0,.074.02.165.165,0,0,0,.07,0,.086.086,0,0,0,.043-.027.052.052,0,0,0,.014-.04.075.075,0,0,0-.022-.037.333.333,0,0,0-.042-.035l-.745-.564-.745-.564.851.32.851.32c.063.024.127.048.192.07a2.01,2.01,0,0,0,.2.056.452.452,0,0,0,.1.014.155.155,0,0,0,.093-.026.034.034,0,0,0,.009-.019.141.141,0,0,0,0-.046.2.2,0,0,0-.019-.069.07.07,0,0,0-.026-.033l-.456-.261-.456-.261a1.183,1.183,0,0,0-.24-.158c-.086-.044-.177-.082-.271-.121-.062-.026-.126-.052-.188-.081a1.973,1.973,0,0,1-.184-.1.655.655,0,0,1-.136-.1.338.338,0,0,1-.092-.17l-.009-.049-.009-.049.957.315.957.315a.3.3,0,0,0,.111.036.246.246,0,0,0,.109-.01.154.154,0,0,0,.05-.029.128.128,0,0,0,.032-.044.165.165,0,0,0,0-.113.258.258,0,0,0-.055-.1.416.416,0,0,0-.1-.081,1.34,1.34,0,0,0-.121-.06l-1.027-.47-1.028-.47a1.143,1.143,0,0,1-.28-.17.432.432,0,0,1-.157-.279.417.417,0,0,1,.024-.185.531.531,0,0,1,.105-.174.735.735,0,0,1,.08-.076c.028-.023.058-.044.087-.064a1.142,1.142,0,0,0-.287-.034,1.959,1.959,0,0,0-.343.034c-.054.01-.109.021-.164.033l-.162.037c-.073.017-.147.035-.221.05s-.15.03-.226.04a2.305,2.305,0,0,1-.967-.079,2.4,2.4,0,0,1-.864-.471l-.01-.008-.01-.009v-.027a.128.128,0,0,0,0-.013l0-.016" transform="translate(-51.568 -221.058)" fill="#ffa188"/>
        <path id="Trazado_493289" data-name="Trazado 493289" d="M75.663,165.642a.9.9,0,0,0,.071.088.429.429,0,0,0,.086.072.291.291,0,0,0,.106.04.214.214,0,0,0,.111-.01.243.243,0,0,0,.117-.1.671.671,0,0,0,.066-.151,3.505,3.505,0,0,0,.166-.916,2.156,2.156,0,0,0,0-.235,1.209,1.209,0,0,0-.035-.231.855.855,0,0,0-.088-.218.653.653,0,0,0-.15-.178.537.537,0,0,0-.209-.105.449.449,0,0,0-.231,0,.4.4,0,0,0-.262.268,1.7,1.7,0,0,0-.077.39,1.85,1.85,0,0,0,0,.431,1.87,1.87,0,0,0,.1.419,1.8,1.8,0,0,0,.1.227,1.733,1.733,0,0,0,.131.211" transform="translate(-61.89 -134.496)" fill="#ee995f"/>
        <path id="Trazado_493290" data-name="Trazado 493290" d="M77.82,167.073c0-.035-.006-.07-.013-.1a.42.42,0,0,0-.03-.1.266.266,0,0,0-.061-.085.189.189,0,0,0-.091-.048.152.152,0,0,0-.1.017.121.121,0,0,0-.061.079.151.151,0,0,0,.012.09.636.636,0,0,0,.046.084.314.314,0,0,1,.038.088.117.117,0,0,1-.01.088.229.229,0,0,1-.042.045.137.137,0,0,0-.038.047.089.089,0,0,0,0,.063.17.17,0,0,0,.034.057c.014.016.031.031.047.046a.273.273,0,0,1,.043.049.215.215,0,0,1,.027.067.584.584,0,0,1,.011.073.667.667,0,0,0,.015.1.158.158,0,0,0,.047.085.079.079,0,0,0,.06.019.062.062,0,0,0,.049-.038.339.339,0,0,0,.022-.11c0-.04,0-.08,0-.114s0-.077.005-.116,0-.077,0-.116,0-.089,0-.133-.005-.088-.009-.132" transform="translate(-63.648 -137.004)" fill="#dd7e6b"/>
        <path id="Trazado_493291" data-name="Trazado 493291" d="M71.516,155.044a5.908,5.908,0,0,0,.668.912,3.4,3.4,0,0,0,.869.7,2.445,2.445,0,0,0,1.083.3,1.846,1.846,0,0,0,1.064-.274,1.9,1.9,0,0,0,.463-.427,2.686,2.686,0,0,0,.329-.543,4.445,4.445,0,0,0,.219-.594c.06-.2.111-.409.162-.614l.258-1.041.257-1.041a4.436,4.436,0,0,0,.146-.847,1.414,1.414,0,0,0-.171-.8,1.359,1.359,0,0,0-.6-.52,3.191,3.191,0,0,0-.794-.243,5.48,5.48,0,0,0-.692-.089,3.237,3.237,0,0,0-.694.029,2.326,2.326,0,0,0-.665.208,1.784,1.784,0,0,0-.551.415,2.489,2.489,0,0,0-.289.421c-.085.149-.163.3-.251.449a1.238,1.238,0,0,1-.161.222.512.512,0,0,1-.221.144.618.618,0,0,1-.253.012c-.086-.01-.173-.028-.258-.035a.992.992,0,0,0-.868.4.871.871,0,0,0-.168.647,1.748,1.748,0,0,0,.244.627c.15.26.291.525.432.79s.285.528.441.785" transform="translate(-57.839 -123.188)" fill="#ffa188"/>
        <path id="Trazado_493292" data-name="Trazado 493292" d="M45.466,127.734a2.967,2.967,0,0,0-.336-.764,1.991,1.991,0,0,0-.566-.6,1.912,1.912,0,0,0-.943-.308,2.52,2.52,0,0,0-1,.142,3.519,3.519,0,0,0-.885.475,6.113,6.113,0,0,0-.764.667,10.3,10.3,0,0,0-1.638,2.192,18.751,18.751,0,0,0-1.15,2.508,15.105,15.105,0,0,0-.512,1.61c-.144.551-.263,1.11-.359,1.652l-.768,4.317q-.384,2.158-.768,4.317a5.077,5.077,0,0,0,.882.745,2.907,2.907,0,0,0,1.025.484,8.918,8.918,0,0,1,.256-1.84,7.926,7.926,0,0,1,.65-1.737c-.088.545-.151,1.092-.194,1.642s-.064,1.1-.068,1.653a9.041,9.041,0,0,1,.981.034c.33.029.658.072.975.124.052-1.9.137-3.641.288-5.374s.369-3.459.688-5.335a2.5,2.5,0,0,0,.352,1.042,2.53,2.53,0,0,0,1.411.947c.064-.161.163-.435.261-.71s.2-.549.261-.709a.874.874,0,0,1-.592-.346,1.108,1.108,0,0,1-.244-.665,1.157,1.157,0,0,1,.208-.655,1.377,1.377,0,0,1,.527-.459,1.206,1.206,0,0,1,.286-.1.864.864,0,0,1,.3-.011.683.683,0,0,1,.281.109.55.55,0,0,1,.194.224c-.018-.04.054-.162.137-.283s.176-.242.2-.278a.59.59,0,0,1,.172-.166,1.909,1.909,0,0,1,.218-.115,3.928,3.928,0,0,1,.545-.214,4.063,4.063,0,0,1,.57-.132,4.136,4.136,0,0,1,.667-.051,4.092,4.092,0,0,1,.667.058c.116.02.229.045.341.075s.224.065.335.1.175.035.217,0a.407.407,0,0,0,.083-.221,2.5,2.5,0,0,0-.053-1.132,3,3,0,0,0-.512-1.014,3.13,3.13,0,0,0-.992-.827,3.946,3.946,0,0,0-1.234-.426,1.278,1.278,0,0,0-.207-.321,1,1,0,0,1-.193-.325" transform="translate(-29.397 -103.584)" fill="#643a24"/>
        <path id="Trazado_493293" data-name="Trazado 493293" d="M77.953,133.362a4.529,4.529,0,0,0-.946-.088,5.683,5.683,0,0,0-.945.124,2.742,2.742,0,0,0-.582.2,1.123,1.123,0,0,0-.474.35,5.608,5.608,0,0,0,.154.554c.06.183.128.363.2.54a2.108,2.108,0,0,1,.568-.434,2.241,2.241,0,0,1,.68-.225,5.421,5.421,0,0,1,.742-.064c.251-.006.5,0,.746.016a1.068,1.068,0,0,0,.012-.472,2.195,2.195,0,0,0-.156-.5" transform="translate(-61.631 -109.51)" fill="#f8a66c"/>
        <path id="Trazado_493294" data-name="Trazado 493294" d="M166.666,79.131H150.551a4.7,4.7,0,0,1-4.7-4.7V63.889a4.7,4.7,0,0,1,4.7-4.7h16.114a4.7,4.7,0,0,1,4.7,4.7v10.54a4.7,4.7,0,0,1-4.7,4.7" transform="translate(-119.843 -48.634)" fill="#667bc1"/>
        <path id="Trazado_493295" data-name="Trazado 493295" d="M177.137,87.2H162.9a3.072,3.072,0,0,1-3.072-3.072v-8.8a3.072,3.072,0,0,1,3.072-3.072h14.234a3.073,3.073,0,0,1,3.072,3.072v8.8a3.072,3.072,0,0,1-3.072,3.072" transform="translate(-131.332 -59.377)" fill="#fff"/>
        <rect id="Rectángulo_274555" data-name="Rectángulo 274555" width="1.189" height="5.357" transform="translate(31.423 19.1)" fill="#7a91e6"/>
        <rect id="Rectángulo_274556" data-name="Rectángulo 274556" width="1.189" height="3.578" transform="translate(32.602 20.879)" fill="#f8a66c"/>
        <rect id="Rectángulo_274557" data-name="Rectángulo 274557" width="1.189" height="0.848" transform="translate(34.231 23.609)" fill="#7a91e6"/>
        <rect id="Rectángulo_274558" data-name="Rectángulo 274558" width="1.189" height="4.064" transform="translate(35.363 20.393)" fill="#7a91e6"/>
        <rect id="Rectángulo_274559" data-name="Rectángulo 274559" width="1.189" height="5.419" transform="translate(37.524 19.038)" fill="#7a91e6"/>
        <rect id="Rectángulo_274560" data-name="Rectángulo 274560" width="1.189" height="3.464" transform="translate(38.683 20.993)" fill="#7a91e6"/>
        <rect id="Rectángulo_274561" data-name="Rectángulo 274561" width="1.189" height="1.789" transform="translate(40.565 22.668)" fill="#f8a66c"/>
        <rect id="Rectángulo_274562" data-name="Rectángulo 274562" width="1.189" height="1.789" transform="translate(43.76 22.668)" fill="#f8a66c"/>
        <rect id="Rectángulo_274563" data-name="Rectángulo 274563" width="1.189" height="6.35" transform="translate(41.754 18.108)" fill="#7a91e6"/>
        <rect id="Rectángulo_274564" data-name="Rectángulo 274564" width="1.189" height="5.346" transform="translate(44.887 19.111)" fill="#7a91e6"/>
        <rect id="Rectángulo_274565" data-name="Rectángulo 274565" width="16.401" height="0.951" transform="translate(30.487 24.054)" fill="#bec6e6"/>
        <path id="Trazado_493296" data-name="Trazado 493296" d="M180.322,142.106h-1.148v-.5h1.148v.5Z" transform="translate(-147.226 -116.354)" fill="#c7cbd6"/>
        <path id="Trazado_493297" data-name="Trazado 493297" d="M180.368,86.43h-8.849v-.5h8.849v.5Z" transform="translate(-140.936 -70.605)" fill="#a8adb3"/>
        <path id="Trazado_493298" data-name="Trazado 493298" d="M174.473,93.607h-2.955v-.5h2.955v.5Z" transform="translate(-140.935 -76.503)" fill="#a8adb3"/>
        <path id="Trazado_493299" data-name="Trazado 493299" d="M197.813,142.106h-1.148v-.5h1.148v.5Z" transform="translate(-161.599 -116.354)" fill="#c7cbd6"/>
        <path id="Trazado_493300" data-name="Trazado 493300" d="M215.3,142.106h-1.148v-.5H215.3v.5Z" transform="translate(-175.972 -116.354)" fill="#c7cbd6"/>
        <path id="Trazado_493301" data-name="Trazado 493301" d="M232.8,142.106h-1.148v-.5H232.8v.5Z" transform="translate(-190.345 -116.354)" fill="#c7cbd6"/>
        <path id="Trazado_493302" data-name="Trazado 493302" d="M250.288,142.106H249.14v-.5h1.148v.5Z" transform="translate(-204.717 -116.354)" fill="#c7cbd6"/>
        <path id="Trazado_493303" data-name="Trazado 493303" d="M291.789,29.168H267.353a3.072,3.072,0,0,1-3.072-3.072V9.817a3.072,3.072,0,0,1,3.072-3.072h24.436a3.072,3.072,0,0,1,3.072,3.072V26.1a3.072,3.072,0,0,1-3.072,3.072" transform="translate(-217.158 -5.542)" fill="#c4d2ff"/>
        <path id="Trazado_493304" data-name="Trazado 493304" d="M291.241,28.74H266.8a3.191,3.191,0,0,1-3.191-3.191V9.27A3.191,3.191,0,0,1,266.8,6.079h24.436a3.191,3.191,0,0,1,3.191,3.191V25.549a3.191,3.191,0,0,1-3.191,3.191M266.8,6.317a2.953,2.953,0,0,0-2.953,2.953V25.549A2.953,2.953,0,0,0,266.8,28.5h24.436a2.953,2.953,0,0,0,2.953-2.953V9.27a2.953,2.953,0,0,0-2.953-2.953Z" transform="translate(-216.609 -4.995)" fill="#6676be"/>
        <path id="Trazado_493305" data-name="Trazado 493305" d="M351.957,84.579A7.343,7.343,0,0,1,340.643,78.4H345a2.983,2.983,0,0,0,4.6,2.512l1.18,1.832Z" transform="translate(-279.905 -64.423)" fill="#2d3969"/>
        <path id="Trazado_493306" data-name="Trazado 493306" d="M398.449,68.435a7.336,7.336,0,0,1-3.371,6.176l-1.18-1.832-1.18-1.832a2.989,2.989,0,0,0,1.346-2.91,2.9,2.9,0,0,0-.077-.382l2.106-.562,2.106-.561a7.291,7.291,0,0,1,.186.933,7.393,7.393,0,0,1,.064.971" transform="translate(-322.695 -54.668)" fill="#2d3969"/>
        <path id="Trazado_493307" data-name="Trazado 493307" d="M390.109,39.344,388,39.906l-2.106.561a2.985,2.985,0,0,0-2.881-2.2V33.906a7.345,7.345,0,0,1,7.093,5.438" transform="translate(-314.722 -27.86)" fill="#2d3969"/>
        <path id="Trazado_493308" data-name="Trazado 493308" d="M348.338,84.112a7.343,7.343,0,0,1-11.313-6.176h4.358a2.983,2.983,0,0,0,4.6,2.512l1.18,1.832Z" transform="translate(-276.932 -64.04)" fill="#7a91e6"/>
        <path id="Trazado_493309" data-name="Trazado 493309" d="M394.83,67.967a7.335,7.335,0,0,1-3.371,6.176l-1.18-1.832-1.18-1.832a2.989,2.989,0,0,0,1.346-2.91,2.913,2.913,0,0,0-.077-.382l2.106-.561,2.106-.561a7.3,7.3,0,0,1,.186.933,7.4,7.4,0,0,1,.064.971" transform="translate(-319.721 -54.284)" fill="#7a91e6"/>
        <path id="Trazado_493310" data-name="Trazado 493310" d="M386.491,38.876l-2.106.561L382.279,40a2.985,2.985,0,0,0-2.881-2.2V33.438a7.345,7.345,0,0,1,7.093,5.438" transform="translate(-311.749 -27.476)" fill="#7a91e6"/>
        <path id="Trazado_493311" data-name="Trazado 493311" d="M329.7,18.786v.265a10.111,10.111,0,0,0-9.183,9.767v-.055l-.416,0-.416,0-.049.063-.049.063.462.111.462.112h6a4.11,4.11,0,0,1,4.11-4.11v-6l-.462-.112Z" transform="translate(-262.602 -15.436)" fill="#2d3969"/>
        <path id="Trazado_493312" data-name="Trazado 493312" d="M329.7,18.786v6a4.11,4.11,0,0,0-4.11,4.11h-6A10.111,10.111,0,0,1,329.7,18.786" transform="translate(-262.602 -15.436)" fill="#4d5b8c"/>
        <path id="Trazado_493313" data-name="Trazado 493313" d="M277.3,44.064h-1.081v-.488L277.3,42.29h.517V43.6h.268v.461h-.268v.4H277.3Zm0-.461v-.672l-.571.672Z" transform="translate(-226.969 -34.749)" fill="#727272"/>
        <path id="Trazado_493314" data-name="Trazado 493314" d="M288.224,42.944l-.561-.1a.7.7,0,0,1,.269-.411.955.955,0,0,1,.563-.143.94.94,0,0,1,.6.156.49.49,0,0,1,.187.392.438.438,0,0,1-.076.251.644.644,0,0,1-.229.2.674.674,0,0,1,.189.072.463.463,0,0,1,.165.173.524.524,0,0,1,.059.256.712.712,0,0,1-.1.358.654.654,0,0,1-.281.264,1.076,1.076,0,0,1-.482.093,1.252,1.252,0,0,1-.46-.068.687.687,0,0,1-.277-.2.92.92,0,0,1-.167-.331l.593-.079a.462.462,0,0,0,.109.248.262.262,0,0,0,.187.069.258.258,0,0,0,.2-.087.333.333,0,0,0,.079-.233.324.324,0,0,0-.077-.23.271.271,0,0,0-.208-.082.751.751,0,0,0-.192.035l.031-.424a.568.568,0,0,0,.077.007.271.271,0,0,0,.194-.074.236.236,0,0,0,.078-.176.21.21,0,0,0-.058-.156.216.216,0,0,0-.16-.058.234.234,0,0,0-.17.063.383.383,0,0,0-.089.222" transform="translate(-236.345 -34.749)" fill="#727272"/>
        <path id="Trazado_493315" data-name="Trazado 493315" d="M299.015,42.851a.643.643,0,0,1,.065-.283.456.456,0,0,1,.2-.206.653.653,0,0,1,.315-.072.575.575,0,0,1,.423.153.618.618,0,0,1,0,.818.575.575,0,0,1-.423.153.655.655,0,0,1-.315-.072.455.455,0,0,1-.2-.206.645.645,0,0,1-.065-.284m.409,0a.461.461,0,0,0,.058.262.127.127,0,0,0,.111.054.123.123,0,0,0,.109-.054.621.621,0,0,0,0-.525.125.125,0,0,0-.109-.052.128.128,0,0,0-.111.052.461.461,0,0,0-.058.262m1.4-.564h.308L299.9,44.572h-.3Zm-.273,1.717a.648.648,0,0,1,.064-.284.454.454,0,0,1,.2-.206.649.649,0,0,1,.315-.073.574.574,0,0,1,.424.154.618.618,0,0,1,0,.818.574.574,0,0,1-.424.154.649.649,0,0,1-.315-.073.454.454,0,0,1-.2-.206.648.648,0,0,1-.064-.283m.409,0a.459.459,0,0,0,.058.262.124.124,0,0,0,.109.052.128.128,0,0,0,.111-.052.46.46,0,0,0,.058-.262.467.467,0,0,0-.058-.264.128.128,0,0,0-.111-.052.123.123,0,0,0-.109.054.459.459,0,0,0-.058.262" transform="translate(-245.699 -34.749)" fill="#727272"/>
        <path id="Trazado_493316" data-name="Trazado 493316" d="M279.038,87.712h-1.781a1.118,1.118,0,0,1,.186-.5,2.508,2.508,0,0,1,.582-.548,1.724,1.724,0,0,0,.334-.294.329.329,0,0,0,.073-.191.222.222,0,0,0-.072-.167.275.275,0,0,0-.367,0,.44.44,0,0,0-.1.252l-.594-.048a.945.945,0,0,1,.128-.391.6.6,0,0,1,.263-.216,1.191,1.191,0,0,1,.47-.075,1.325,1.325,0,0,1,.487.071.594.594,0,0,1,.274.219.578.578,0,0,1,.1.332.68.68,0,0,1-.115.373,1.568,1.568,0,0,1-.416.39q-.179.124-.24.173c-.04.033-.088.076-.142.13h.927Z" transform="translate(-227.821 -70.287)" fill="#727272"/>
        <path id="Trazado_493317" data-name="Trazado 493317" d="M288.666,86.635a1.28,1.28,0,0,1,.219-.852.855.855,0,0,1,.668-.243,1,1,0,0,1,.354.053.652.652,0,0,1,.226.138.74.74,0,0,1,.138.179.926.926,0,0,1,.081.219,2.043,2.043,0,0,1,.06.5,1.459,1.459,0,0,1-.2.851.784.784,0,0,1-.678.27.951.951,0,0,1-.436-.086.707.707,0,0,1-.273-.252.953.953,0,0,1-.12-.323,2.205,2.205,0,0,1-.043-.453m.589,0a1.451,1.451,0,0,0,.072.557.227.227,0,0,0,.209.149.219.219,0,0,0,.157-.063.392.392,0,0,0,.1-.2,2.081,2.081,0,0,0,.031-.427,1.5,1.5,0,0,0-.072-.572.231.231,0,0,0-.216-.146.22.22,0,0,0-.213.149,1.56,1.56,0,0,0-.066.553" transform="translate(-237.195 -70.287)" fill="#727272"/>
        <path id="Trazado_493318" data-name="Trazado 493318" d="M299.953,86.1a.643.643,0,0,1,.065-.283.456.456,0,0,1,.2-.206.652.652,0,0,1,.315-.072.575.575,0,0,1,.423.153.618.618,0,0,1,0,.818.575.575,0,0,1-.423.153.654.654,0,0,1-.315-.072.456.456,0,0,1-.2-.206.645.645,0,0,1-.065-.284m.409,0a.46.46,0,0,0,.058.262.127.127,0,0,0,.111.054.123.123,0,0,0,.109-.054.619.619,0,0,0,0-.525.124.124,0,0,0-.109-.052.128.128,0,0,0-.111.052.461.461,0,0,0-.058.262m1.4-.564h.308l-1.234,2.282h-.3Zm-.273,1.717a.649.649,0,0,1,.064-.284.455.455,0,0,1,.2-.206.649.649,0,0,1,.315-.073.575.575,0,0,1,.424.154.618.618,0,0,1,0,.818.574.574,0,0,1-.424.154.651.651,0,0,1-.315-.073.455.455,0,0,1-.2-.206.647.647,0,0,1-.064-.283m.409,0a.459.459,0,0,0,.058.262.124.124,0,0,0,.109.052.128.128,0,0,0,.111-.052.459.459,0,0,0,.058-.262.466.466,0,0,0-.058-.264.128.128,0,0,0-.111-.052.123.123,0,0,0-.109.054.459.459,0,0,0-.058.262" transform="translate(-246.47 -70.287)" fill="#727272"/>
      </g>
    </g>
  </g>
</svg>
