<svg xmlns="http://www.w3.org/2000/svg" xmlns:xlink="http://www.w3.org/1999/xlink" width="150" height="150" viewBox="0 0 150 150">
  <defs>
    <filter id="Elipse_6633" x="0" y="0" width="150" height="150" filterUnits="userSpaceOnUse">
      <feOffset dy="3" input="SourceAlpha"/>
      <feGaussianBlur stdDeviation="3" result="blur"/>
      <feFlood flood-opacity="0.161"/>
      <feComposite operator="in" in2="blur"/>
      <feComposite in="SourceGraphic"/>
    </filter>
    <clipPath id="clip-path">
      <rect id="Rectángulo_274548" data-name="Rectángulo 274548" width="101.343" height="82.385" fill="none"/>
    </clipPath>
    <clipPath id="clip-path-3">
      <rect id="Rectángulo_274537" data-name="Rectángulo 274537" width="6.727" height="9.045" fill="none"/>
    </clipPath>
    <clipPath id="clip-path-4">
      <rect id="Rectángulo_274538" data-name="Rectángulo 274538" width="18.257" height="24.79" fill="none"/>
    </clipPath>
    <clipPath id="clip-path-5">
      <rect id="Rectángulo_274539" data-name="Rectángulo 274539" width="29.184" height="33.39" fill="none"/>
    </clipPath>
    <clipPath id="clip-path-6">
      <rect id="Rectángulo_274540" data-name="Rectángulo 274540" width="24.86" height="32.848" fill="none"/>
    </clipPath>
    <clipPath id="clip-path-7">
      <rect id="Rectángulo_274541" data-name="Rectángulo 274541" width="13.33" height="18.063" fill="none"/>
    </clipPath>
    <clipPath id="clip-path-8">
      <rect id="Rectángulo_274542" data-name="Rectángulo 274542" width="40.663" height="11.901" fill="none"/>
    </clipPath>
    <clipPath id="clip-path-9">
      <rect id="Rectángulo_274543" data-name="Rectángulo 274543" width="12.492" height="12.748" fill="none"/>
    </clipPath>
    <clipPath id="clip-path-10">
      <rect id="Rectángulo_274544" data-name="Rectángulo 274544" width="13.011" height="13.374" fill="none"/>
    </clipPath>
    <clipPath id="clip-path-12">
      <rect id="Rectángulo_274546" data-name="Rectángulo 274546" width="24.945" height="24.944" fill="none"/>
    </clipPath>
  </defs>
  <g id="Grupo_735505" data-name="Grupo 735505" transform="translate(-733 -21911)">
    <g transform="matrix(1, 0, 0, 1, 733, 21911)" filter="url(#Elipse_6633)">
      <circle id="Elipse_6633-2" data-name="Elipse 6633" cx="66" cy="66" r="66" transform="translate(9 6)" fill="#becdff"/>
    </g>
    <g id="Grupo_735022" data-name="Grupo 735022" transform="translate(757 21940)">
      <g id="Grupo_729547" data-name="Grupo 729547" clip-path="url(#clip-path)">
        <g id="Grupo_729541" data-name="Grupo 729541">
          <g id="Grupo_729540" data-name="Grupo 729540" clip-path="url(#clip-path)">
            <path id="Trazado_492971" data-name="Trazado 492971" d="M102.738,73.1a17.632,17.632,0,0,0,2.626-7.561,14.688,14.688,0,0,0-1.245-7.8,28.324,28.324,0,0,0-3.2-4.866,25.14,25.14,0,0,1-3.134-4.9,20.129,20.129,0,0,1-1.379-8.445c.023-2.924.295-5.909.113-8.81a29.525,29.525,0,0,0-7.149-17.049A37.369,37.369,0,0,0,73.9,2.8,48.073,48.073,0,0,0,55.327.04,70.775,70.775,0,0,0,36.606,3.468,66.637,66.637,0,0,0,23.761,8.989a42.827,42.827,0,0,0-10.834,8.616,32.221,32.221,0,0,0-6.8,12.144,25.114,25.114,0,0,0-.35,13.668c.743,2.755,2.006,5.459,2.955,8.176a16.034,16.034,0,0,1,1.066,8.253,28.7,28.7,0,0,1-2.739,6.816C6,68.884,5.145,71.109,5.489,73.5a8.027,8.027,0,0,0,2.247,4.389A11.59,11.59,0,0,0,12,80.656a18.878,18.878,0,0,0,4.931,1.05c1.686.155,3.4.162,5.092.165l17.776.035,17.777.035,8.888.017,8.888.017c2.489,0,5.159.216,7.819.333a40.863,40.863,0,0,0,7.763-.229,14.693,14.693,0,0,0,6.735-3.334,24.367,24.367,0,0,0,5.071-5.648" transform="translate(-4.987 0)" fill="#dce4ff"/>
            <path id="Trazado_492972" data-name="Trazado 492972" d="M356.7,196.207H318.457a2.3,2.3,0,0,1-2.3-2.3V163.6a2.3,2.3,0,0,1,2.3-2.3H356.7a2.3,2.3,0,0,1,2.3,2.3V193.9a2.3,2.3,0,0,1-2.3,2.3" transform="translate(-313.398 -132.857)" fill="#c4d2ff"/>
            <path id="Trazado_492973" data-name="Trazado 492973" d="M317.907,195.776h38.241a2.421,2.421,0,0,0,2.421-2.42V163.049a2.421,2.421,0,0,0-2.421-2.42H317.907a2.42,2.42,0,0,0-2.42,2.42v30.306a2.42,2.42,0,0,0,2.42,2.42m38.241-34.912a2.185,2.185,0,0,1,2.185,2.185v30.306a2.185,2.185,0,0,1-2.185,2.185H317.907a2.185,2.185,0,0,1-2.185-2.185V163.049a2.185,2.185,0,0,1,2.185-2.185Z" transform="translate(-312.849 -132.308)" fill="#6676be"/>
            <path id="Trazado_492974" data-name="Trazado 492974" d="M356.816,161.295H318.346a2.191,2.191,0,0,0-2.191,2.191v5.128H359V163.48a2.185,2.185,0,0,0-2.185-2.185" transform="translate(-313.399 -132.857)" fill="#97aaef"/>
            <path id="Trazado_492975" data-name="Trazado 492975" d="M315.488,168.182h43.081V162.93a2.3,2.3,0,0,0-2.3-2.3H317.8a2.309,2.309,0,0,0-2.309,2.308Zm42.846-.235H315.723v-5.01a2.073,2.073,0,0,1,2.073-2.073h38.47a2.067,2.067,0,0,1,2.067,2.067Z" transform="translate(-312.85 -132.308)" fill="#6676be"/>
            <rect id="Rectángulo_274531" data-name="Rectángulo 274531" width="2.74" height="1.176" transform="translate(7.692 33.482) rotate(-135.006)" fill="#fff"/>
            <rect id="Rectángulo_274532" data-name="Rectángulo 274532" width="1.176" height="2.74" transform="translate(6.586 33.482) rotate(-134.997)" fill="#fff"/>
            <path id="Trazado_492976" data-name="Trazado 492976" d="M330.172,177.152a1.049,1.049,0,1,0,.307-.741,1.045,1.045,0,0,0-.307.741" transform="translate(-289.138 -145.055)" fill="#fefefe"/>
            <path id="Trazado_492977" data-name="Trazado 492977" d="M352.728,177.152a1.048,1.048,0,1,0,.307-.741,1.045,1.045,0,0,0-.307.741" transform="translate(-315.671 -145.055)" fill="#fefefe"/>
            <path id="Trazado_492978" data-name="Trazado 492978" d="M375.285,177.152a1.049,1.049,0,1,0,.307-.741,1.044,1.044,0,0,0-.307.741" transform="translate(-342.205 -145.055)" fill="#fefefe"/>
            <path id="Trazado_492979" data-name="Trazado 492979" d="M455.659,238.053H441.605V224h14.054v14.054Z" transform="translate(-432.175 -184.506)" fill="#5564a2"/>
            <rect id="Rectángulo_274533" data-name="Rectángulo 274533" width="0.235" height="19.875" transform="translate(9.513 53.63) rotate(-135)" fill="#fff"/>
            <rect id="Rectángulo_274534" data-name="Rectángulo 274534" width="19.875" height="0.235" transform="matrix(-0.707, -0.707, 0.707, -0.707, 23.401, 53.63)" fill="#fff"/>
            <path id="Trazado_492980" data-name="Trazado 492980" d="M358.223,238.053H344.169V224h14.054v14.054Z" transform="translate(-317.56 -184.506)" fill="#5564a2"/>
            <rect id="Rectángulo_274535" data-name="Rectángulo 274535" width="0.235" height="19.875" transform="translate(26.692 53.63) rotate(-135)" fill="#fff"/>
            <rect id="Rectángulo_274536" data-name="Rectángulo 274536" width="19.875" height="0.235" transform="matrix(-0.707, -0.707, 0.707, -0.707, 40.58, 53.63)" fill="#fff"/>
            <path id="Trazado_492981" data-name="Trazado 492981" d="M479.724,314.36h-8.9v-.673h8.9v.673Z" transform="translate(-461.391 -258.381)" fill="#5564a2"/>
            <path id="Trazado_492982" data-name="Trazado 492982" d="M494.953,328.418h-5.643v-.673h5.643v.673Z" transform="translate(-479.88 -269.96)" fill="#5564a2"/>
            <path id="Trazado_492983" data-name="Trazado 492983" d="M455.659,320.964H441.605v-.673h14.054v.673Z" transform="translate(-432.175 -263.82)" fill="#5564a2"/>
            <path id="Trazado_492984" data-name="Trazado 492984" d="M382.288,313.935h-8.9v-.673h8.9v.673Z" transform="translate(-346.776 -258.031)" fill="#5564a2"/>
            <path id="Trazado_492985" data-name="Trazado 492985" d="M397.517,327.992h-5.643v-.673h5.643v.673Z" transform="translate(-365.266 -269.61)" fill="#5564a2"/>
            <path id="Trazado_492986" data-name="Trazado 492986" d="M358.223,320.538H344.169v-.673h14.054v.673Z" transform="translate(-317.56 -263.47)" fill="#5564a2"/>
            <path id="Trazado_492987" data-name="Trazado 492987" d="M11.251,267.755V295.7a3.793,3.793,0,0,0,.2,1.218,2.829,2.829,0,0,0,.564.987,1.758,1.758,0,0,0,.634.447,2.132,2.132,0,0,0,.826.157H44.763a2.618,2.618,0,0,0,1.892-.856,2.881,2.881,0,0,0,.8-1.952V267.755a2.4,2.4,0,0,0-.158-.851,3.122,3.122,0,0,0-.41-.742,2.517,2.517,0,0,0-.918-.767,2.712,2.712,0,0,0-1.2-.278H13.47c-.08,0-.158-.005-.233-.007a.935.935,0,0,0-.219.016,1.942,1.942,0,0,0-1.224.8,2.987,2.987,0,0,0-.5,1.5c0,.056-.015.109-.024.161a.961.961,0,0,0-.017.164" transform="translate(51.908 -218.368)" fill="#c4d2ff"/>
            <path id="Trazado_492988" data-name="Trazado 492988" d="M11.251,412.28H15.29a2.618,2.618,0,0,0,1.892-.856,2.879,2.879,0,0,0,.8-1.952v-6.236l-3.363,4.522Z" transform="translate(81.381 -332.14)" fill="#5564a2"/>
            <g id="Grupo_729518" data-name="Grupo 729518" transform="translate(92.633 71.095)" opacity="0.1">
              <g id="Grupo_729517" data-name="Grupo 729517">
                <g id="Grupo_729516" data-name="Grupo 729516" clip-path="url(#clip-path-3)">
                  <path id="Trazado_492989" data-name="Trazado 492989" d="M11.251,412.28H15.29a2.618,2.618,0,0,0,1.892-.856,2.879,2.879,0,0,0,.8-1.952v-6.236l-3.363,4.522Z" transform="translate(-11.251 -403.235)" fill="#22272b"/>
                </g>
              </g>
            </g>
            <path id="Trazado_492990" data-name="Trazado 492990" d="M11.251,338.722H16.69l6.409-8.681,6.409-8.681v-7.427l-9.128,12.395Z" transform="translate(69.852 -258.583)" fill="#5564a2"/>
            <g id="Grupo_729521" data-name="Grupo 729521" transform="translate(81.103 55.349)" opacity="0.1">
              <g id="Grupo_729520" data-name="Grupo 729520">
                <g id="Grupo_729519" data-name="Grupo 729519" clip-path="url(#clip-path-4)">
                  <path id="Trazado_492991" data-name="Trazado 492991" d="M11.251,338.722H16.69l6.409-8.681,6.409-8.681v-7.427l-9.128,12.395Z" transform="translate(-11.251 -313.932)" fill="#22272b"/>
                </g>
              </g>
            </g>
            <path id="Trazado_492992" data-name="Trazado 492992" d="M14.663,298.541H20.1l11.873-16.186L43.847,266.17a2.435,2.435,0,0,0-.9-.754,2.691,2.691,0,0,0-1.186-.265H39.2l-12.268,16.7Z" transform="translate(54.911 -218.402)" fill="#5564a2"/>
            <g id="Grupo_729524" data-name="Grupo 729524" transform="translate(69.574 46.749)" opacity="0.1">
              <g id="Grupo_729523" data-name="Grupo 729523">
                <g id="Grupo_729522" data-name="Grupo 729522" clip-path="url(#clip-path-5)">
                  <path id="Trazado_492993" data-name="Trazado 492993" d="M14.663,298.541H20.1l11.873-16.186L43.847,266.17a2.435,2.435,0,0,0-.9-.754,2.691,2.691,0,0,0-1.186-.265H39.2l-12.268,16.7Z" transform="translate(-14.663 -265.151)" fill="#22272b"/>
                </g>
              </g>
            </g>
            <path id="Trazado_492994" data-name="Trazado 492994" d="M75.573,291.533v4.2a4.058,4.058,0,0,0,.195,1.249A2.834,2.834,0,0,0,76.332,298l12.05-16.424,12.05-16.424H94.993l-9.71,13.191Z" transform="translate(-12.414 -218.402)" fill="#5564a2"/>
            <g id="Grupo_729527" data-name="Grupo 729527" transform="translate(63.159 46.749)" opacity="0.1">
              <g id="Grupo_729526" data-name="Grupo 729526" transform="translate(0)">
                <g id="Grupo_729525" data-name="Grupo 729525" clip-path="url(#clip-path-6)">
                  <path id="Trazado_492995" data-name="Trazado 492995" d="M75.573,291.533v4.2a4.058,4.058,0,0,0,.195,1.249A2.834,2.834,0,0,0,76.332,298l12.05-16.424,12.05-16.424H94.993l-9.71,13.191Z" transform="translate(-75.573 -265.151)" fill="#22272b"/>
                </g>
              </g>
            </g>
            <path id="Trazado_492996" data-name="Trazado 492996" d="M140.966,275.787v7.428l6.665-9.031,6.665-9.032h-5.439l-3.945,5.318Z" transform="translate(-77.806 -218.402)" fill="#5564a2"/>
            <g id="Grupo_729530" data-name="Grupo 729530" transform="translate(63.159 46.749)" opacity="0.1">
              <g id="Grupo_729529" data-name="Grupo 729529" transform="translate(0)">
                <g id="Grupo_729528" data-name="Grupo 729528" clip-path="url(#clip-path-7)">
                  <path id="Trazado_492997" data-name="Trazado 492997" d="M140.966,275.787v7.428l6.665-9.031,6.665-9.032h-5.439l-3.945,5.318Z" transform="translate(-140.966 -265.151)" fill="#22272b"/>
                </g>
              </g>
            </g>
            <path id="Trazado_492998" data-name="Trazado 492998" d="M102.245,330.421h4.883V303.855h-4.883v26.566Z" transform="translate(-23.812 -250.282)" fill="#f8a66c"/>
            <g id="Grupo_729533" data-name="Grupo 729533" transform="translate(60.68 42.782)" opacity="0.07">
              <g id="Grupo_729532" data-name="Grupo 729532">
                <g id="Grupo_729531" data-name="Grupo 729531" clip-path="url(#clip-path-8)">
                  <path id="Trazado_492999" data-name="Trazado 492999" d="M0,245.366v5.3a2.693,2.693,0,0,0,.508,1.577,2.738,2.738,0,0,0,1.293.978l.1.039c.033.012.066.023.106.035a2.849,2.849,0,0,0,.294.051,1.108,1.108,0,0,1,.175.029v1.173h36.2V253.3a2.648,2.648,0,0,0,1.426-.957,2.744,2.744,0,0,0,.558-1.67v-5.3a2.694,2.694,0,0,0-.806-1.921,2.743,2.743,0,0,0-1.932-.795H2.736a2.74,2.74,0,0,0-1.93.795A2.694,2.694,0,0,0,0,245.366" transform="translate(0 -242.65)" fill="#231f20"/>
                </g>
              </g>
            </g>
            <path id="Trazado_493000" data-name="Trazado 493000" d="M0,245.366v5.3a2.693,2.693,0,0,0,.508,1.577,2.738,2.738,0,0,0,1.293.978c.038.014.077.027.117.039l.119.035a1.9,1.9,0,0,1,.243.094.789.789,0,0,0,.25.072.25.25,0,0,1,.1.05.2.2,0,0,0,.1.045h35.19a.7.7,0,0,0,.235-.053,1.527,1.527,0,0,1,.23-.075.413.413,0,0,0,.112-.043.607.607,0,0,1,.109-.048s.005-.005.009-.011a.074.074,0,0,1,.009-.012,2.754,2.754,0,0,0,2.033-2.648v-5.3a2.694,2.694,0,0,0-.806-1.921,2.743,2.743,0,0,0-1.932-.795H2.736a2.74,2.74,0,0,0-1.93.795A2.694,2.694,0,0,0,0,245.366" transform="translate(60.68 -199.868)" fill="#5564a2"/>
            <path id="Trazado_493001" data-name="Trazado 493001" d="M29.133,203.492l3.7-2.613,3.7-2.613a7.712,7.712,0,0,1,2.319-1.285c1.229-.375,2.6-.215,3.149,1.926a7.715,7.715,0,0,1,.648,1.737,11.333,11.333,0,0,1,.205,4.589H28.376a1.682,1.682,0,0,0,.4-.421,2.112,2.112,0,0,0,.358-1.32" transform="translate(53.352 -162.12)" fill="#f8a66c"/>
            <path id="Trazado_493002" data-name="Trazado 493002" d="M64.667,175.352l-2.233-2.6-2.233-2.6-2.307,5.3-2.307,5.3-.129.72-.129.72.692-.4.692-.4,3.978-3.018Z" transform="translate(26.921 -140.149)" fill="#c9793c"/>
            <path id="Trazado_493003" data-name="Trazado 493003" d="M137.3,203.492l-3.7-2.613-3.7-2.613a7.712,7.712,0,0,0-2.319-1.285c-1.229-.375-2.6-.215-3.149,1.926a7.715,7.715,0,0,0-.648,1.737,11.33,11.33,0,0,0-.205,4.589h14.47a1.682,1.682,0,0,1-.4-.421,2.111,2.111,0,0,1-.358-1.32" transform="translate(-58.474 -162.12)" fill="#f8a66c"/>
            <path id="Trazado_493004" data-name="Trazado 493004" d="M126.4,175.352l2.233-2.6,2.233-2.6,2.307,5.3,2.307,5.3.129.72.129.72-.692-.4-.692-.4-3.978-3.018Z" transform="translate(-56.678 -140.149)" fill="#c9793c"/>
            <path id="Trazado_493005" data-name="Trazado 493005" d="M53.718,242.144H53.4s0-.009,0-.013a.111.111,0,0,1,0-.013.318.318,0,0,1,.318-.318h3.921a.377.377,0,0,1,.376.376l.554,4.064.554,4.064a.23.23,0,0,1-.346.227l-.69-.3-.69-.3a1.04,1.04,0,0,0-.7-.009l-.764.307-.764.307a.237.237,0,0,1-.349-.236l-.554-4.08Z" transform="translate(32.805 -199.168)" fill="#c9793c"/>
            <path id="Trazado_493006" data-name="Trazado 493006" d="M149.343,242.144h.315s0-.009,0-.013a.113.113,0,0,0,0-.013.318.318,0,0,0-.318-.318h-3.921a.377.377,0,0,0-.376.376l-.693,2.909-.693,2.909a.23.23,0,0,0,.346.227l.69-.3.69-.3a1.041,1.041,0,0,1,.695-.009l.764.307.764.307a.237.237,0,0,0,.349-.236l.693-2.925Z" transform="translate(-73.646 -199.168)" fill="#c9793c"/>
            <path id="Trazado_493007" data-name="Trazado 493007" d="M102.245,227.147a.739.739,0,0,0,.206.515.688.688,0,0,0,.5.213h3.478a.688.688,0,0,0,.5-.213.738.738,0,0,0,.206-.515v-2.438a.738.738,0,0,0-.206-.515.688.688,0,0,0-.5-.213h-3.478a.688.688,0,0,0-.5.213.739.739,0,0,0-.206.515v2.438Z" transform="translate(-23.812 -184.491)" fill="#2d3969"/>
            <path id="Trazado_493008" data-name="Trazado 493008" d="M308.221,367.063v2.744c0,.017,0,.034,0,.05s0,.033-.007.049a.554.554,0,0,1-.056.166.568.568,0,0,1-.505.306H290.668a.572.572,0,0,1-.469-.3.545.545,0,0,1-.056-.166.433.433,0,0,1-.007-.049q0-.025,0-.05v-2.744a.567.567,0,0,1,.045-.222.569.569,0,0,1,.525-.348H307.65a.57.57,0,0,1,.57.571" transform="translate(-258.031 -301.876)" fill="#d98853"/>
            <path id="Trazado_493009" data-name="Trazado 493009" d="M362.732,366.492v3.884H356.8a.484.484,0,0,1-.484-.47.05.05,0,0,1,0-.007v-2.922a.484.484,0,0,1,.485-.485h5.934Z" transform="translate(-324.21 -301.876)" fill="#f8a66c"/>
            <path id="Trazado_493010" data-name="Trazado 493010" d="M336.688,370.376h-1.193v-3.884h1.193v3.884Z" transform="translate(-294.495 -301.876)" fill="#f8a66c"/>
            <path id="Trazado_493011" data-name="Trazado 493011" d="M376.2,366.492v3.885H374.3v-3.885H376.2Z" transform="translate(-340.849 -301.876)" fill="#f9b889"/>
            <path id="Trazado_493012" data-name="Trazado 493012" d="M290.714,370.378h-.579v-3.885h.579a.328.328,0,0,1,.328.328v3.228a.328.328,0,0,1-.328.328" transform="translate(-240.853 -301.876)" fill="#f7a46e"/>
            <path id="Trazado_493013" data-name="Trazado 493013" d="M308.263,385.854a.554.554,0,0,1-.056.166.569.569,0,0,1-.505.306H290.655a.47.47,0,0,1-.47-.471h18.078Z" transform="translate(-258.082 -317.824)" fill="#c9793c"/>
            <path id="Trazado_493014" data-name="Trazado 493014" d="M315.85,389.1v2.744c0,.017,0,.034,0,.05s0,.033-.007.049a.556.556,0,0,1-.056.165.579.579,0,0,1-.27.255.566.566,0,0,1-.205.05h-17.02a.566.566,0,0,1-.359-.166.573.573,0,0,1-.1-.138.546.546,0,0,1-.056-.165.47.47,0,0,1-.007-.049q0-.025,0-.05V389.1a.568.568,0,0,1,.045-.222.572.572,0,0,1,.3-.3.57.57,0,0,1,.222-.045h16.946a.57.57,0,0,1,.571.571" transform="translate(-267.005 -320.026)" fill="#d98853"/>
            <path id="Trazado_493015" data-name="Trazado 493015" d="M370.361,388.528v3.884h-5.934a.485.485,0,0,1-.484-.47.052.052,0,0,1,0-.008v-2.922a.485.485,0,0,1,.485-.485h5.934Z" transform="translate(-333.184 -320.026)" fill="#f8a66c"/>
            <path id="Trazado_493016" data-name="Trazado 493016" d="M344.317,392.413h-1.194v-3.884h1.194v3.884Z" transform="translate(-303.469 -320.027)" fill="#f8a66c"/>
            <path id="Trazado_493017" data-name="Trazado 493017" d="M383.827,388.528v3.885h-1.893v-3.885h1.893Z" transform="translate(-349.823 -320.026)" fill="#f9b889"/>
            <path id="Trazado_493018" data-name="Trazado 493018" d="M298.343,392.413h-.579v-3.885h.579a.328.328,0,0,1,.328.328v3.228a.328.328,0,0,1-.328.328" transform="translate(-249.827 -320.026)" fill="#f7a46e"/>
            <path id="Trazado_493019" data-name="Trazado 493019" d="M315.892,407.893a.556.556,0,0,1-.056.165.576.576,0,0,1-.1.138.567.567,0,0,1-.373.167H298.284a.465.465,0,0,1-.183-.037.474.474,0,0,1-.15-.1.468.468,0,0,1-.138-.333h18.078Z" transform="translate(-267.056 -335.977)" fill="#c9793c"/>
            <path id="Trazado_493020" data-name="Trazado 493020" d="M305.672,411.137v2.744c0,.017,0,.034,0,.05s0,.033-.007.049a.555.555,0,0,1-.056.166.569.569,0,0,1-.505.306H288.118a.566.566,0,0,1-.2-.051.574.574,0,0,1-.267-.254.545.545,0,0,1-.056-.166.44.44,0,0,1-.007-.049c0-.017,0-.033,0-.05v-2.744a.569.569,0,0,1,.045-.222.569.569,0,0,1,.525-.348H305.1a.57.57,0,0,1,.571.571" transform="translate(-255.033 -338.179)" fill="#d98853"/>
            <path id="Trazado_493021" data-name="Trazado 493021" d="M360.183,410.566v3.884h-5.934a.484.484,0,0,1-.484-.47.04.04,0,0,1,0-.007v-2.922a.485.485,0,0,1,.485-.485h5.934Z" transform="translate(-321.212 -338.179)" fill="#f8a66c"/>
            <path id="Trazado_493022" data-name="Trazado 493022" d="M334.138,414.45h-1.193v-3.884h1.193v3.884Z" transform="translate(-291.497 -338.179)" fill="#f8a66c"/>
            <path id="Trazado_493023" data-name="Trazado 493023" d="M371.757,414.45h1.893v-3.885h-1.893v3.885Z" transform="translate(-337.851 -338.178)" fill="#f9b889"/>
            <path id="Trazado_493024" data-name="Trazado 493024" d="M288.165,414.451h-.579v-3.885h.579a.328.328,0,0,1,.328.328v3.228a.328.328,0,0,1-.328.328" transform="translate(-237.854 -338.179)" fill="#f7a46e"/>
            <path id="Trazado_493025" data-name="Trazado 493025" d="M305.714,429.928a.559.559,0,0,1-.056.166.569.569,0,0,1-.505.305H288.106a.471.471,0,0,1-.47-.471h18.078Z" transform="translate(-255.084 -354.127)" fill="#c9793c"/>
            <path id="Trazado_493026" data-name="Trazado 493026" d="M308.221,433.172v2.744c0,.017,0,.034,0,.05s0,.033-.007.049a.556.556,0,0,1-.056.165.571.571,0,0,1-.475.305H290.66a.566.566,0,0,1-.359-.166.573.573,0,0,1-.1-.138.547.547,0,0,1-.056-.165.446.446,0,0,1-.007-.049c0-.017,0-.034,0-.05v-2.744a.566.566,0,0,1,.045-.222.571.571,0,0,1,.3-.3.57.57,0,0,1,.222-.045H307.65a.571.571,0,0,1,.57.571" transform="translate(-258.031 -356.329)" fill="#d98853"/>
            <path id="Trazado_493027" data-name="Trazado 493027" d="M362.732,432.6v3.884H356.8a.485.485,0,0,1-.484-.47.053.053,0,0,1,0-.008v-2.922a.485.485,0,0,1,.485-.485h5.934Z" transform="translate(-324.21 -356.329)" fill="#f8a66c"/>
            <path id="Trazado_493028" data-name="Trazado 493028" d="M336.688,436.486h-1.193V432.6h1.193v3.884Z" transform="translate(-294.495 -356.33)" fill="#f8a66c"/>
            <path id="Trazado_493029" data-name="Trazado 493029" d="M374.306,436.487H376.2V432.6h-1.893v3.885Z" transform="translate(-340.849 -356.33)" fill="#f9b889"/>
            <path id="Trazado_493030" data-name="Trazado 493030" d="M290.714,436.488h-.579V432.6h.579a.328.328,0,0,1,.328.328v3.228a.328.328,0,0,1-.328.328" transform="translate(-240.853 -356.331)" fill="#f7a46e"/>
            <path id="Trazado_493031" data-name="Trazado 493031" d="M308.263,451.966a.556.556,0,0,1-.056.165.577.577,0,0,1-.1.138.567.567,0,0,1-.373.167H290.655a.465.465,0,0,1-.183-.037.475.475,0,0,1-.251-.251.469.469,0,0,1-.037-.183h18.078Z" transform="translate(-258.082 -372.28)" fill="#c9793c"/>
            <path id="Trazado_493032" data-name="Trazado 493032" d="M375.188,374.755v2.91s0,.007,0,.011a.492.492,0,0,1-.461.47h-.481a.493.493,0,0,1,.493.493v2.9s0,.007,0,.011,0,.007,0,.011a.492.492,0,0,1-.461.47h-4.644a.464.464,0,0,1-.183-.037.471.471,0,0,1-.288-.434h0s0,0,0-.008,0-.005,0-.008v-2.914a.485.485,0,0,1,.485-.485h.435a.47.47,0,0,1-.47-.471h0a.044.044,0,0,1,0-.007v-2.922a.485.485,0,0,1,.485-.485h-1.809a.468.468,0,0,1-.183-.037.474.474,0,0,1-.251-.251.469.469,0,0,1-.037-.183h0s0-.005,0-.008,0-.005,0-.008v-2.914a.485.485,0,0,1,.485-.485h1.33a.467.467,0,0,1-.183-.037.471.471,0,0,1-.288-.434h0s0,0,0-.007,0,0,0-.007v-2.914a.485.485,0,0,1,.485-.485h4.6a.492.492,0,0,1,.493.493v2.9s0,.007,0,.011,0,.007,0,.01a.493.493,0,0,1-.461.47H372.9a.493.493,0,0,1,.493.493v2.9s0,.007,0,.011,0,.007,0,.011a.492.492,0,0,1-.461.469H374.7a.492.492,0,0,1,.493.493" transform="translate(-338.695 -301.876)" fill="#bf6a3c"/>
            <path id="Trazado_493033" data-name="Trazado 493033" d="M455.75,389.1v2.744c0,.017,0,.034,0,.05s0,.033-.007.049a.561.561,0,0,1-.056.166.575.575,0,0,1-.283.261.567.567,0,0,1-.222.045H438.233a.566.566,0,0,1-.222-.045.574.574,0,0,1-.181-.122.567.567,0,0,1-.1-.138.56.56,0,0,1-.056-.166c0-.016-.005-.033-.007-.049s0-.033,0-.05V389.1a.57.57,0,0,1,.57-.571H455.18a.571.571,0,0,1,.57.571" transform="translate(-431.571 -320.026)" fill="#d98853"/>
            <path id="Trazado_493034" data-name="Trazado 493034" d="M510.261,392.413h-5.934a.485.485,0,0,1-.485-.485v-2.914a.484.484,0,0,1,.485-.485h5.934v3.884Z" transform="translate(-497.75 -320.027)" fill="#f8a66c"/>
            <path id="Trazado_493035" data-name="Trazado 493035" d="M484.215,392.413h-1.193v-3.884h1.193v3.884Z" transform="translate(-468.033 -320.027)" fill="#f8a66c"/>
            <path id="Trazado_493036" data-name="Trazado 493036" d="M521.833,392.413h1.893v-3.885h-1.893v3.885Z" transform="translate(-514.388 -320.027)" fill="#f9b889"/>
            <path id="Trazado_493037" data-name="Trazado 493037" d="M438.242,392.413h-.579v-3.885h.579a.328.328,0,0,1,.328.328v3.228a.328.328,0,0,1-.328.328" transform="translate(-414.391 -320.026)" fill="#f7a46e"/>
            <path id="Trazado_493038" data-name="Trazado 493038" d="M455.792,407.892a.558.558,0,0,1-.056.166.574.574,0,0,1-.283.261.566.566,0,0,1-.222.045H438.185a.467.467,0,0,1-.183-.037.474.474,0,0,1-.251-.251.471.471,0,0,1-.037-.184h18.078Z" transform="translate(-431.622 -335.976)" fill="#c9793c"/>
            <path id="Trazado_493039" data-name="Trazado 493039" d="M470.636,411.136v2.744c0,.017,0,.034,0,.05s0,.033-.007.049a.56.56,0,0,1-.056.166.575.575,0,0,1-.283.261.565.565,0,0,1-.222.045H453.119a.566.566,0,0,1-.222-.045.576.576,0,0,1-.283-.261.555.555,0,0,1-.056-.166c0-.016-.005-.033-.007-.049s0-.033,0-.05v-2.744a.57.57,0,0,1,.57-.571h16.947a.571.571,0,0,1,.57.571" transform="translate(-449.082 -338.178)" fill="#d98853"/>
            <path id="Trazado_493040" data-name="Trazado 493040" d="M525.147,414.45h-5.934a.485.485,0,0,1-.485-.485v-2.914a.485.485,0,0,1,.485-.485h5.934v3.884Z" transform="translate(-515.26 -338.179)" fill="#f8a66c"/>
            <path id="Trazado_493041" data-name="Trazado 493041" d="M499.1,414.45h-1.193v-3.884H499.1v3.884Z" transform="translate(-485.544 -338.179)" fill="#f8a66c"/>
            <path id="Trazado_493042" data-name="Trazado 493042" d="M536.72,414.45h1.893v-3.885H536.72v3.885Z" transform="translate(-531.898 -338.178)" fill="#f9b889"/>
            <path id="Trazado_493043" data-name="Trazado 493043" d="M453.128,414.451h-.579v-3.885h.579a.328.328,0,0,1,.328.328v3.228a.328.328,0,0,1-.328.328" transform="translate(-431.902 -338.179)" fill="#f7a46e"/>
            <path id="Trazado_493044" data-name="Trazado 493044" d="M470.679,429.929a.56.56,0,0,1-.056.166.573.573,0,0,1-.283.261.568.568,0,0,1-.222.045H453.072a.465.465,0,0,1-.183-.037.47.47,0,0,1-.288-.434h18.078Z" transform="translate(-449.134 -354.128)" fill="#c9793c"/>
            <path id="Trazado_493045" data-name="Trazado 493045" d="M465.977,433.173v2.744c0,.017,0,.034,0,.05s0,.033-.007.049a.558.558,0,0,1-.056.166.575.575,0,0,1-.283.261.565.565,0,0,1-.222.045H448.46a.566.566,0,0,1-.222-.045.574.574,0,0,1-.181-.122.567.567,0,0,1-.1-.138.561.561,0,0,1-.056-.166.485.485,0,0,1-.007-.049c0-.017,0-.033,0-.05v-2.744a.569.569,0,0,1,.57-.571h16.947a.565.565,0,0,1,.222.045.571.571,0,0,1,.348.526" transform="translate(-443.601 -356.33)" fill="#d98853"/>
            <path id="Trazado_493046" data-name="Trazado 493046" d="M520.488,436.486h-5.934a.485.485,0,0,1-.485-.485v-2.914a.485.485,0,0,1,.485-.485h5.934v3.884Z" transform="translate(-509.78 -356.33)" fill="#f8a66c"/>
            <path id="Trazado_493047" data-name="Trazado 493047" d="M494.442,436.486h-1.193V432.6h1.193v3.884Z" transform="translate(-480.064 -356.33)" fill="#f8a66c"/>
            <path id="Trazado_493048" data-name="Trazado 493048" d="M532.061,436.487h1.893V432.6h-1.893v3.885Z" transform="translate(-526.418 -356.33)" fill="#f9b889"/>
            <path id="Trazado_493049" data-name="Trazado 493049" d="M448.469,436.488h-.579V432.6h.579a.328.328,0,0,1,.328.328v3.228a.328.328,0,0,1-.328.328" transform="translate(-426.421 -356.331)" fill="#f7a46e"/>
            <path id="Trazado_493050" data-name="Trazado 493050" d="M466.019,451.965a.559.559,0,0,1-.056.165.574.574,0,0,1-.283.261.568.568,0,0,1-.222.045H448.412a.469.469,0,0,1-.333-.138.469.469,0,0,1-.138-.333h18.078Z" transform="translate(-443.652 -372.279)" fill="#c9793c"/>
            <path id="Trazado_493051" data-name="Trazado 493051" d="M396.915,345.025v2.744c0,.017,0,.034,0,.05s0,.033-.007.05a.562.562,0,0,1-.056.165.57.57,0,0,1-.5.306H379.4a.572.572,0,0,1-.5-.306.562.562,0,0,1-.056-.165c0-.016-.005-.033-.007-.05s0-.033,0-.05v-2.744a.571.571,0,0,1,.57-.571h16.947a.567.567,0,0,1,.222.045.57.57,0,0,1,.348.526" transform="translate(-362.363 -283.723)" fill="#d98853"/>
            <path id="Trazado_493052" data-name="Trazado 493052" d="M451.426,348.339h-5.934a.485.485,0,0,1-.485-.485V344.94a.485.485,0,0,1,.485-.485h5.934v3.884Z" transform="translate(-428.542 -283.724)" fill="#f8a66c"/>
            <path id="Trazado_493053" data-name="Trazado 493053" d="M425.38,348.339h-1.193v-3.884h1.193v3.884Z" transform="translate(-398.825 -283.724)" fill="#f8a66c"/>
            <path id="Trazado_493054" data-name="Trazado 493054" d="M463,348.34h1.893v-3.885H463v3.885Z" transform="translate(-445.179 -283.724)" fill="#f9b889"/>
            <path id="Trazado_493055" data-name="Trazado 493055" d="M379.407,348.34h-.579v-3.885h.579a.328.328,0,0,1,.328.328v3.228a.328.328,0,0,1-.328.328" transform="translate(-345.183 -283.724)" fill="#f7a46e"/>
            <path id="Trazado_493056" data-name="Trazado 493056" d="M396.957,363.818a.56.56,0,0,1-.056.166.58.58,0,0,1-.1.139.567.567,0,0,1-.4.167H379.35a.465.465,0,0,1-.183-.037.471.471,0,0,1-.288-.434h18.078Z" transform="translate(-362.414 -299.673)" fill="#c9793c"/>
            <path id="Trazado_493057" data-name="Trazado 493057" d="M405.3,322.989v2.744c0,.017,0,.033,0,.05s0,.033-.007.049a.56.56,0,0,1-.056.166.576.576,0,0,1-.283.261.567.567,0,0,1-.222.045H387.78a.566.566,0,0,1-.222-.045.576.576,0,0,1-.283-.261.56.56,0,0,1-.056-.166.476.476,0,0,1-.007-.049c0-.017,0-.033,0-.05v-2.744a.568.568,0,0,1,.045-.222.572.572,0,0,1,.3-.3.566.566,0,0,1,.222-.045h16.947a.567.567,0,0,1,.222.045.571.571,0,0,1,.348.526" transform="translate(-372.222 -265.572)" fill="#d98853"/>
            <path id="Trazado_493058" data-name="Trazado 493058" d="M459.808,326.3h-5.934a.485.485,0,0,1-.485-.485V322.9a.485.485,0,0,1,.485-.485h5.934V326.3Z" transform="translate(-438.401 -265.572)" fill="#f8a66c"/>
            <path id="Trazado_493059" data-name="Trazado 493059" d="M433.762,326.3h-1.193v-3.884h1.193V326.3Z" transform="translate(-408.685 -265.573)" fill="#f8a66c"/>
            <path id="Trazado_493060" data-name="Trazado 493060" d="M471.381,326.3h1.893v-3.885h-1.893V326.3Z" transform="translate(-455.039 -265.572)" fill="#f9b889"/>
            <path id="Trazado_493061" data-name="Trazado 493061" d="M387.789,326.3h-.579v-3.885h.579a.328.328,0,0,1,.328.328v3.228a.328.328,0,0,1-.328.328" transform="translate(-355.043 -265.572)" fill="#f7a46e"/>
            <path id="Trazado_493062" data-name="Trazado 493062" d="M405.34,341.781a.556.556,0,0,1-.056.166.575.575,0,0,1-.283.261.566.566,0,0,1-.222.045H387.733a.464.464,0,0,1-.183-.037.471.471,0,0,1-.288-.434H405.34Z" transform="translate(-372.275 -281.521)" fill="#c9793c"/>
            <path id="Trazado_493063" data-name="Trazado 493063" d="M396.079,367.062v2.744c0,.017,0,.034,0,.05s0,.033-.007.049a.56.56,0,0,1-.056.166.575.575,0,0,1-.283.261.568.568,0,0,1-.222.045H378.562a.567.567,0,0,1-.222-.045.574.574,0,0,1-.181-.122.566.566,0,0,1-.1-.138.556.556,0,0,1-.056-.166.5.5,0,0,1-.007-.049c0-.017,0-.033,0-.05v-2.744a.57.57,0,0,1,.57-.571h16.947a.571.571,0,0,1,.57.571" transform="translate(-361.379 -301.875)" fill="#d98853"/>
            <path id="Trazado_493064" data-name="Trazado 493064" d="M450.59,370.376h-5.934a.485.485,0,0,1-.485-.485v-2.914a.485.485,0,0,1,.485-.485h5.934v3.884Z" transform="translate(-427.558 -301.876)" fill="#f8a66c"/>
            <path id="Trazado_493065" data-name="Trazado 493065" d="M424.545,370.376h-1.193v-3.884h1.193v3.884Z" transform="translate(-397.842 -301.876)" fill="#f8a66c"/>
            <path id="Trazado_493066" data-name="Trazado 493066" d="M462.163,370.377h1.893v-3.885h-1.893v3.885Z" transform="translate(-444.196 -301.875)" fill="#f9b889"/>
            <path id="Trazado_493067" data-name="Trazado 493067" d="M378.571,370.378h-.579v-3.885h.579a.328.328,0,0,1,.328.328v3.228a.328.328,0,0,1-.328.328" transform="translate(-344.2 -301.876)" fill="#f7a46e"/>
            <path id="Trazado_493068" data-name="Trazado 493068" d="M396.122,385.855a.561.561,0,0,1-.056.166.584.584,0,0,1-.1.139.574.574,0,0,1-.181.122.567.567,0,0,1-.222.045H378.515a.468.468,0,0,1-.183-.037.474.474,0,0,1-.251-.251.471.471,0,0,1-.037-.184h18.078Z" transform="translate(-361.431 -317.825)" fill="#c9793c"/>
            <path id="Trazado_493069" data-name="Trazado 493069" d="M403.708,389.1v2.744c0,.017,0,.034,0,.05s0,.033-.007.049a.561.561,0,0,1-.056.166.575.575,0,0,1-.283.261.567.567,0,0,1-.222.045H386.191a.565.565,0,0,1-.222-.045.573.573,0,0,1-.181-.122.566.566,0,0,1-.1-.138.554.554,0,0,1-.056-.166c0-.016-.005-.033-.007-.049s0-.033,0-.05V389.1a.57.57,0,0,1,.57-.571h16.947a.567.567,0,0,1,.222.045.571.571,0,0,1,.348.526" transform="translate(-370.353 -320.026)" fill="#d98853"/>
            <path id="Trazado_493070" data-name="Trazado 493070" d="M458.219,392.413h-5.934a.485.485,0,0,1-.485-.485v-2.914a.484.484,0,0,1,.485-.485h5.934v3.884Z" transform="translate(-436.532 -320.027)" fill="#f8a66c"/>
            <path id="Trazado_493071" data-name="Trazado 493071" d="M432.174,392.413H430.98v-3.884h1.193v3.884Z" transform="translate(-406.816 -320.027)" fill="#f8a66c"/>
            <path id="Trazado_493072" data-name="Trazado 493072" d="M469.792,392.413h1.893v-3.885h-1.893v3.885Z" transform="translate(-453.171 -320.027)" fill="#f9b889"/>
            <path id="Trazado_493073" data-name="Trazado 493073" d="M386.2,392.413h-.579v-3.885h.579a.328.328,0,0,1,.328.328v3.228a.328.328,0,0,1-.328.328" transform="translate(-353.174 -320.026)" fill="#f7a46e"/>
            <path id="Trazado_493074" data-name="Trazado 493074" d="M403.751,407.892a.561.561,0,0,1-.056.166.575.575,0,0,1-.283.261.566.566,0,0,1-.222.045H386.144a.468.468,0,0,1-.183-.037.474.474,0,0,1-.251-.251.471.471,0,0,1-.037-.184h18.078Z" transform="translate(-370.405 -335.976)" fill="#c9793c"/>
            <path id="Trazado_493075" data-name="Trazado 493075" d="M393.53,411.136v2.744c0,.017,0,.034,0,.05s0,.033-.007.049a.561.561,0,0,1-.056.166.575.575,0,0,1-.283.261.567.567,0,0,1-.222.045H376.013a.566.566,0,0,1-.222-.045.574.574,0,0,1-.181-.122.568.568,0,0,1-.1-.138.555.555,0,0,1-.056-.166c0-.016-.005-.033-.007-.049s0-.033,0-.05v-2.744a.57.57,0,0,1,.57-.571H392.96a.567.567,0,0,1,.222.045.571.571,0,0,1,.348.526" transform="translate(-358.381 -338.178)" fill="#d98853"/>
            <path id="Trazado_493076" data-name="Trazado 493076" d="M448.041,414.45h-5.934a.485.485,0,0,1-.485-.485v-2.914a.485.485,0,0,1,.485-.485h5.934v3.884Z" transform="translate(-424.56 -338.179)" fill="#f8a66c"/>
            <path id="Trazado_493077" data-name="Trazado 493077" d="M422,414.45H420.8v-3.884H422v3.884Z" transform="translate(-394.844 -338.179)" fill="#f8a66c"/>
            <path id="Trazado_493078" data-name="Trazado 493078" d="M459.614,414.45h1.893v-3.885h-1.893v3.885Z" transform="translate(-441.198 -338.178)" fill="#f9b889"/>
            <path id="Trazado_493079" data-name="Trazado 493079" d="M376.022,414.451h-.579v-3.885h.579a.328.328,0,0,1,.328.328v3.228a.328.328,0,0,1-.328.328" transform="translate(-341.201 -338.179)" fill="#f7a46e"/>
            <path id="Trazado_493080" data-name="Trazado 493080" d="M393.573,429.929a.551.551,0,0,1-.056.166.572.572,0,0,1-.283.261.567.567,0,0,1-.222.045H375.966a.465.465,0,0,1-.183-.037.47.47,0,0,1-.15-.1.469.469,0,0,1-.138-.333h18.078Z" transform="translate(-358.433 -354.128)" fill="#c9793c"/>
            <path id="Trazado_493081" data-name="Trazado 493081" d="M396.079,433.173v2.744c0,.017,0,.034,0,.05s0,.033-.007.049a.559.559,0,0,1-.056.166.575.575,0,0,1-.283.261.567.567,0,0,1-.222.045H378.562a.566.566,0,0,1-.222-.045.574.574,0,0,1-.181-.122.565.565,0,0,1-.1-.138.555.555,0,0,1-.056-.166.485.485,0,0,1-.007-.049c0-.017,0-.033,0-.05v-2.744a.57.57,0,0,1,.167-.4.574.574,0,0,1,.181-.122.566.566,0,0,1,.222-.045h16.947a.567.567,0,0,1,.222.045.572.572,0,0,1,.3.3.568.568,0,0,1,.045.222" transform="translate(-361.379 -356.33)" fill="#d98853"/>
            <path id="Trazado_493082" data-name="Trazado 493082" d="M450.59,436.486h-5.934a.485.485,0,0,1-.485-.485v-2.914a.485.485,0,0,1,.485-.485h5.934v3.884Z" transform="translate(-427.558 -356.33)" fill="#f8a66c"/>
            <path id="Trazado_493083" data-name="Trazado 493083" d="M424.545,436.486h-1.193V432.6h1.193v3.884Z" transform="translate(-397.842 -356.33)" fill="#f8a66c"/>
            <path id="Trazado_493084" data-name="Trazado 493084" d="M462.163,436.487h1.893V432.6h-1.893v3.885Z" transform="translate(-444.196 -356.33)" fill="#f9b889"/>
            <path id="Trazado_493085" data-name="Trazado 493085" d="M378.571,436.488h-.579V432.6h.579a.328.328,0,0,1,.328.328v3.228a.328.328,0,0,1-.328.328" transform="translate(-344.2 -356.331)" fill="#f7a46e"/>
            <path id="Trazado_493086" data-name="Trazado 493086" d="M396.122,451.965a.561.561,0,0,1-.056.165.584.584,0,0,1-.1.139.575.575,0,0,1-.181.122.567.567,0,0,1-.222.045H378.515a.468.468,0,0,1-.183-.037.471.471,0,0,1-.288-.434h18.078Z" transform="translate(-361.431 -372.279)" fill="#c9793c"/>
            <path id="Trazado_493087" data-name="Trazado 493087" d="M430.074,366.329a8.672,8.672,0,1,1-2.275-6.235,8.644,8.644,0,0,1,2.275,6.235" transform="translate(-401.509 -294.293)" fill="#bf6a3c"/>
            <path id="Trazado_493088" data-name="Trazado 493088" d="M438.017,364.719A8.866,8.866,0,1,1,429,356.092a8.589,8.589,0,0,1,9.016,8.627" transform="translate(-410.775 -293.308)" fill="#f9b889"/>
            <path id="Trazado_493089" data-name="Trazado 493089" d="M439.358,366.549a8.5,8.5,0,1,1-8.633-8.243,8.189,8.189,0,0,1,8.633,8.243" transform="translate(-412.48 -295.131)" fill="#f8a66c"/>
            <path id="Trazado_493090" data-name="Trazado 493090" d="M454.282,387.067a2.918,2.918,0,0,1,1.667-.941,10,10,0,0,0,1.822-.575c.484-.7-.1-1.121-.8-1.188s-1.494.225-1.438.965c-.016.23-.241.285-.5.288s-.541-.046-.677-.022a.315.315,0,0,1-.243-.086.3.3,0,0,1-.093-.238,2.451,2.451,0,0,1,.861-1.845,2.953,2.953,0,0,1,1.983-.614,2.423,2.423,0,0,1,2.331,1.333,2.143,2.143,0,0,1-.347,2.559,3.312,3.312,0,0,1-1.561.737,9.328,9.328,0,0,0-1.664.537c-.586.593-.293,1.084.253,1.329a1.771,1.771,0,0,0,1.776-.143,1.386,1.386,0,0,0,.49-.956c.073-.235.256-.353,1.151-.259a.407.407,0,0,1,.133.022.278.278,0,0,1,.111.072c.257,2.328-1.695,3.195-3.393,2.925s-3.142-1.677-1.87-3.9" transform="translate(-438.233 -315.312)" fill="#d98853"/>
            <path id="Trazado_493091" data-name="Trazado 493091" d="M466.864,377.49c.7-.013.928-.006.986.155s-.051.475-.016,1.076l-.576-.009-.576-.009a5.471,5.471,0,0,0,0-.676c0-.29.032-.557.185-.537" transform="translate(-448.804 -310.931)" fill="#d98853"/>
            <path id="Trazado_493092" data-name="Trazado 493092" d="M468.531,428.382c-.7.013-.928.006-.986-.155s.051-.475.015-1.076l.576.009.576.009a5.474,5.474,0,0,0,0,.676c0,.29-.032.557-.185.537" transform="translate(-449.802 -351.84)" fill="#d98853"/>
            <g id="Grupo_729536" data-name="Grupo 729536" transform="translate(9.511 62.686)" opacity="0.42">
              <g id="Grupo_729535" data-name="Grupo 729535">
                <g id="Grupo_729534" data-name="Grupo 729534" clip-path="url(#clip-path-9)">
                  <path id="Trazado_493093" data-name="Trazado 493093" d="M462.495,356.319l-5.8,5.987-5.8,5.987a8.716,8.716,0,0,1-.706-2.072,8.852,8.852,0,0,1-.176-2.236l4.074-4.206,4.073-4.206a8.849,8.849,0,0,1,2.24.1,8.707,8.707,0,0,1,2.094.64" transform="translate(-450.003 -355.546)" fill="#fff"/>
                </g>
              </g>
            </g>
            <g id="Grupo_729539" data-name="Grupo 729539" transform="translate(10.792 63.825)" opacity="0.42">
              <g id="Grupo_729538" data-name="Grupo 729538">
                <g id="Grupo_729537" data-name="Grupo 729537" clip-path="url(#clip-path-10)">
                  <path id="Trazado_493094" data-name="Trazado 493094" d="M452.8,362.718l-6.13,6.329-6.13,6.329q-.206-.249-.394-.513t-.356-.541l5.967-6.16,5.966-6.16q.283.159.553.339t.525.377" transform="translate(-439.792 -362.002)" fill="#fff"/>
                </g>
              </g>
            </g>
            <path id="Trazado_493095" data-name="Trazado 493095" d="M433.973,358.5a1.282,1.282,0,1,1-2.148.4,2.014,2.014,0,0,0-1.462-.316,1.282,1.282,0,1,1,2.148-.4,2.014,2.014,0,0,0,1.463.316" transform="translate(-408.507 -293.845)" fill="#fff"/>
            <path id="Trazado_493096" data-name="Trazado 493096" d="M190.363,306.9a15.306,15.306,0,0,0,1.146,10.676,11.969,11.969,0,0,0,7.282,6.414,11.115,11.115,0,0,0,10.2-2.423,14.684,14.684,0,0,0,5.1-9.423,16.319,16.319,0,0,0-1.71-10.051,11.416,11.416,0,0,0-6.956-5.369,10.82,10.82,0,0,0-9.43,1.6,15.145,15.145,0,0,0-5.631,8.574" transform="translate(-146.365 -244.042)" fill="#1d263f"/>
            <path id="Trazado_493097" data-name="Trazado 493097" d="M203.494,324.053a11.116,11.116,0,0,0,2.212-.678,12.233,12.233,0,0,0,2.1-1.145,13.687,13.687,0,0,0,2.292-1.966,14.9,14.9,0,0,0,3.2-5.3,13.936,13.936,0,0,0,.681-2.977,19.529,19.529,0,0,0-.107-5.468,13.883,13.883,0,0,0-1.607-4.6,11.391,11.391,0,0,0-2.924-3.37,11.878,11.878,0,0,0-4.052-2.015,11.248,11.248,0,0,0-4.377-.376,10.764,10.764,0,0,0-4.108,1.362,12.168,12.168,0,0,0-2.2,1.608,13.883,13.883,0,0,0-1.882,2.133,15.77,15.77,0,0,0-1.5,2.571,17.558,17.558,0,0,0-1.042,2.9l.017,0,.017,0-.017,0-.017,0a14.666,14.666,0,0,0-.453,2.743,15.224,15.224,0,0,0,.069,2.814,15.611,15.611,0,0,0,.543,2.645,15.382,15.382,0,0,0,.989,2.5,13.632,13.632,0,0,0,3.14,4.136,10.511,10.511,0,0,0,4.163,2.3,11.021,11.021,0,0,0,1.42.289,10.593,10.593,0,0,0,1.425.1q.506,0,1.012-.049t1.008-.146m1.768-27.457a11.354,11.354,0,0,1,6.977,5.45,16.388,16.388,0,0,1,1.664,9.933,14.409,14.409,0,0,1-1.993,5.761,14.232,14.232,0,0,1-4.147,4.433,11.507,11.507,0,0,1-4.442,1.836,10.628,10.628,0,0,1-4.674-.212,10.441,10.441,0,0,1-4.138-2.283,13.564,13.564,0,0,1-3.122-4.113,15.443,15.443,0,0,1-1.535-5.254,14.934,14.934,0,0,1,.391-5.4,16.624,16.624,0,0,1,2.528-5.44,12.947,12.947,0,0,1,4.059-3.732,10.882,10.882,0,0,1,2.582-1.067,10.525,10.525,0,0,1,2.727-.357,11.071,11.071,0,0,1,1.555.111,11.908,11.908,0,0,1,1.569.333" transform="translate(-146.212 -243.881)" fill="#1d263f"/>
            <path id="Trazado_493098" data-name="Trazado 493098" d="M200.426,305.049a15.393,15.393,0,0,0,1.223,10.768,12.212,12.212,0,0,0,7.358,6.506,10.539,10.539,0,0,0,9.96-2.465,16.583,16.583,0,0,0,5.186-9.565,14.664,14.664,0,0,0-1.6-9.647,11.844,11.844,0,0,0-7.056-5.7,10.883,10.883,0,0,0-9.435,1.567,14.989,14.989,0,0,0-5.636,8.538" transform="translate(-158.281 -242.572)" fill="#465ab3"/>
            <path id="Trazado_493099" data-name="Trazado 493099" d="M217.308,320.869A13.169,13.169,0,0,0,219.7,318.9a15.555,15.555,0,0,0,2-2.59,17.321,17.321,0,0,0,2.331-6.169,15.235,15.235,0,0,0,.017-5.035,14.136,14.136,0,0,0-1.62-4.635,12.559,12.559,0,0,0-3.033-3.615,11.49,11.49,0,0,0-8.453-2.484,10.8,10.8,0,0,0-4.131,1.367,12.118,12.118,0,0,0-2.181,1.6,13.746,13.746,0,0,0-1.868,2.113,15.582,15.582,0,0,0-1.488,2.551,17.392,17.392,0,0,0-1.036,2.884l.017,0,.017,0-.017,0-.017,0a14.344,14.344,0,0,0-.446,2.749,15.181,15.181,0,0,0,.087,2.837,16.006,16.006,0,0,0,1.585,5.206,14.064,14.064,0,0,0,3.193,4.2,10.543,10.543,0,0,0,4.186,2.321,10.992,10.992,0,0,0,1.4.287,10.335,10.335,0,0,0,1.4.1,10.063,10.063,0,0,0,2.907-.429,11.01,11.01,0,0,0,2.758-1.278m-1.976-26.054a11.8,11.8,0,0,1,7.052,5.678,14.633,14.633,0,0,1,1.579,9.633,17.188,17.188,0,0,1-2.363,6.2,14.311,14.311,0,0,1-4.329,4.488,10.61,10.61,0,0,1-4.084,1.576,10.308,10.308,0,0,1-4.327-.259,10.473,10.473,0,0,1-4.161-2.308,14,14,0,0,1-3.175-4.18,15.779,15.779,0,0,1-1.591-5.325,14.744,14.744,0,0,1,.37-5.419,16.466,16.466,0,0,1,2.509-5.4,12.871,12.871,0,0,1,4.032-3.705,10.916,10.916,0,0,1,2.592-1.07,10.591,10.591,0,0,1,2.741-.358,11.168,11.168,0,0,1,1.57.112,12.032,12.032,0,0,1,1.586.337" transform="translate(-158.126 -242.41)" fill="#465ab3"/>
            <path id="Trazado_493100" data-name="Trazado 493100" d="M215.179,316.053a12.4,12.4,0,0,0,.94,8.641,10.239,10.239,0,0,0,5.861,5.344,7.942,7.942,0,0,0,7.838-1.954,13.793,13.793,0,0,0,4.215-7.811,12.079,12.079,0,0,0-1.2-7.784,9.267,9.267,0,0,0-5.615-4.6,8.63,8.63,0,0,0-7.559,1.264,12.192,12.192,0,0,0-4.482,6.9" transform="translate(-170.744 -253.306)" fill="#7186e2"/>
            <path id="Trazado_493101" data-name="Trazado 493101" d="M228.216,329.049a10.583,10.583,0,0,0,2.007-1.61,12.905,12.905,0,0,0,1.7-2.16,14.277,14.277,0,0,0,1.25-2.492,13.932,13.932,0,0,0,.735-2.666,12.786,12.786,0,0,0,.04-4.08,11.424,11.424,0,0,0-1.242-3.727,9.829,9.829,0,0,0-2.4-2.918,8.946,8.946,0,0,0-3.24-1.7,9.145,9.145,0,0,0-3.523-.311,8.5,8.5,0,0,0-3.279,1.077,9.559,9.559,0,0,0-1.75,1.286,11.048,11.048,0,0,0-1.5,1.715,12.77,12.77,0,0,0-1.193,2.07,14.5,14.5,0,0,0-.838,2.349,11.766,11.766,0,0,0-.365,2.216,12.275,12.275,0,0,0,.06,2.277,12.67,12.67,0,0,0,1.247,4.172,11.568,11.568,0,0,0,2.53,3.389,9.03,9.03,0,0,0,3.352,1.972,7.751,7.751,0,0,0,1.133.266,7.359,7.359,0,0,0,3.235-.217,8.481,8.481,0,0,0,2.033-.912M215.057,315.9a13.571,13.571,0,0,1,2.025-4.392,10.224,10.224,0,0,1,3.224-2.986,8.436,8.436,0,0,1,3.253-1.068,9.075,9.075,0,0,1,3.5.309,9.255,9.255,0,0,1,5.568,4.557,12,12,0,0,1,1.221,7.786,14.125,14.125,0,0,1-2.009,5.171,11.713,11.713,0,0,1-3.655,3.71,8.042,8.042,0,0,1-3.126,1.142,7.374,7.374,0,0,1-3.219-.285,10.144,10.144,0,0,1-5.9-5.4,12.451,12.451,0,0,1-.882-8.544l-.017,0-.016,0,.016,0Z" transform="translate(-170.589 -253.149)" fill="#7186e2"/>
            <path id="Trazado_493102" data-name="Trazado 493102" d="M226.4,328.993a10.077,10.077,0,0,0,.8,6.889,7.609,7.609,0,0,0,4.762,4.207,6.691,6.691,0,0,0,6.239-1.627,10.825,10.825,0,0,0,3.24-6.123,9.227,9.227,0,0,0-.966-5.979,7.468,7.468,0,0,0-4.493-3.707,6.961,6.961,0,0,0-6.066,1.017,9.385,9.385,0,0,0-3.519,5.322" transform="translate(-180.108 -265.528)" fill="#465ab3"/>
            <path id="Trazado_493103" data-name="Trazado 493103" d="M237.1,339.065a8.974,8.974,0,0,0,2.7-2.858,11.637,11.637,0,0,0,1.506-4.021,9.258,9.258,0,0,0,.023-3.091,9.121,9.121,0,0,0-.993-2.911,8.026,8.026,0,0,0-1.929-2.36,7.085,7.085,0,0,0-2.585-1.363,7.3,7.3,0,0,0-2.836-.245,6.908,6.908,0,0,0-2.652.88,8.246,8.246,0,0,0-2.565,2.347,10.158,10.158,0,0,0-1.575,3.382l.016,0,.017,0-.017,0-.016,0a9.532,9.532,0,0,0-.167,3.849,10.474,10.474,0,0,0,1.344,3.744,8.576,8.576,0,0,0,1.972,2.311,6.305,6.305,0,0,0,2.443,1.234,7.251,7.251,0,0,0,.839.154,6.8,6.8,0,0,0,.83.051,6.482,6.482,0,0,0,1.881-.277,6.872,6.872,0,0,0,1.762-.826m-1.294-16.538a7.475,7.475,0,0,1,4.437,3.6,9.1,9.1,0,0,1,1,6.043,11.566,11.566,0,0,1-1.5,4,8.906,8.906,0,0,1-2.683,2.838,6.555,6.555,0,0,1-5.258.889,6.236,6.236,0,0,1-2.418-1.223,8.517,8.517,0,0,1-1.954-2.291,10.407,10.407,0,0,1-1.335-3.718,9.461,9.461,0,0,1,.166-3.822,10.089,10.089,0,0,1,1.563-3.358,8.181,8.181,0,0,1,2.544-2.33,6.96,6.96,0,0,1,1.657-.686,6.77,6.77,0,0,1,1.755-.23,7.15,7.15,0,0,1,1.006.072,7.747,7.747,0,0,1,1.017.216" transform="translate(-179.939 -265.368)" fill="#465ab3"/>
            <path id="Trazado_493104" data-name="Trazado 493104" d="M237.64,339.877a7.7,7.7,0,0,0,.574,5.152,5.58,5.58,0,0,0,3.5,3.172,4.969,4.969,0,0,0,4.644-1.267,8.217,8.217,0,0,0,2.43-4.587,7.076,7.076,0,0,0-.715-4.491,5.513,5.513,0,0,0-3.319-2.813,5.077,5.077,0,0,0-4.5.827,7.235,7.235,0,0,0-2.614,4.006" transform="translate(-189.404 -275.803)" fill="#7186e2"/>
            <path id="Trazado_493105" data-name="Trazado 493105" d="M245.459,347.4a6.267,6.267,0,0,0,1.131-.953,7.548,7.548,0,0,0,.951-1.254,8.553,8.553,0,0,0,.7-1.437,8.809,8.809,0,0,0,.427-1.556,6.984,6.984,0,0,0,.012-2.309,7.108,7.108,0,0,0-.731-2.2,6.092,6.092,0,0,0-1.432-1.8,5.092,5.092,0,0,0-1.909-1.026,5.2,5.2,0,0,0-2.047-.17,5.113,5.113,0,0,0-1.936.65,6.327,6.327,0,0,0-1.964,1.8,7.742,7.742,0,0,0-1.2,2.582,6.777,6.777,0,0,0-.21,1.454,7.7,7.7,0,0,0,.1,1.531,8.172,8.172,0,0,0,.38,1.456,7.813,7.813,0,0,0,.632,1.341,6.317,6.317,0,0,0,1.433,1.688,4.518,4.518,0,0,0,1.762.9,5.17,5.17,0,0,0,.6.111,4.872,4.872,0,0,0,.6.037,4.769,4.769,0,0,0,1.394-.208,5.172,5.172,0,0,0,1.316-.62m-7.938-7.668a7.673,7.673,0,0,1,1.192-2.558,6.255,6.255,0,0,1,1.944-1.778,5.044,5.044,0,0,1,1.91-.641,5.132,5.132,0,0,1,2.02.168,5.516,5.516,0,0,1,3.263,2.721,6.954,6.954,0,0,1,.747,4.545,8.627,8.627,0,0,1-1.133,3.005,6.809,6.809,0,0,1-2.043,2.149,4.967,4.967,0,0,1-1.866.747,4.826,4.826,0,0,1-1.989-.076,4.454,4.454,0,0,1-1.737-.885,6.251,6.251,0,0,1-1.415-1.668,7.955,7.955,0,0,1-1.009-2.829,7.194,7.194,0,0,1,.115-2.9l-.017,0-.017,0,.017,0Z" transform="translate(-189.252 -275.645)" fill="#7186e2"/>
            <path id="Trazado_493106" data-name="Trazado 493106" d="M247.515,350.138a5.477,5.477,0,0,0,.363,3.416,3.59,3.59,0,0,0,2.287,2.12,3.5,3.5,0,0,0,3.3-.779,5.4,5.4,0,0,0,1.619-3.081,4.788,4.788,0,0,0-.457-3.016,3.751,3.751,0,0,0-2.216-1.91,3.577,3.577,0,0,0-2.993.56,4.527,4.527,0,0,0-1.9,2.69" transform="translate(-197.428 -285.623)" fill="#465ab3"/>
            <path id="Trazado_493107" data-name="Trazado 493107" d="M252.859,355.11a4.4,4.4,0,0,0,1.34-1.425,5.94,5.94,0,0,0,.753-2.03,4.819,4.819,0,0,0,.019-1.561,4.739,4.739,0,0,0-.48-1.477,4.09,4.09,0,0,0-.951-1.214,3.545,3.545,0,0,0-1.286-.713,3.121,3.121,0,0,0-1.37-.092,3.986,3.986,0,0,0-1.4.5,4.676,4.676,0,0,0-1.385,1.228,4.38,4.38,0,0,0-.777,1.636l.017,0,.017,0-.017,0-.017,0a5.232,5.232,0,0,0-.1,1.729,5.574,5.574,0,0,0,.463,1.708,4.342,4.342,0,0,0,.983,1.4,3.035,3.035,0,0,0,1.327.735,4.224,4.224,0,0,0,.492.093,3.839,3.839,0,0,0,.483.031,3.489,3.489,0,0,0,.986-.14,3.448,3.448,0,0,0,.9-.417m-.624-8.354a3.741,3.741,0,0,1,2.172,1.842,4.693,4.693,0,0,1,.479,3.045,5.873,5.873,0,0,1-.742,2,4.33,4.33,0,0,1-1.32,1.405,3.36,3.36,0,0,1-1.333.507,3.767,3.767,0,0,1-1.48-.083,2.969,2.969,0,0,1-1.3-.721,4.279,4.279,0,0,1-.964-1.379,5.511,5.511,0,0,1-.457-1.687,5.164,5.164,0,0,1,.1-1.707,4.314,4.314,0,0,1,.765-1.611,4.607,4.607,0,0,1,1.364-1.21,4.116,4.116,0,0,1,.927-.4,3.4,3.4,0,0,1,.931-.134,3.038,3.038,0,0,1,.438.031,2.877,2.877,0,0,1,.424.095" transform="translate(-197.264 -285.46)" fill="#465ab3"/>
            <path id="Trazado_493108" data-name="Trazado 493108" d="M259.007,361.788a2.747,2.747,0,0,0,.774,1.406,1.419,1.419,0,0,0,1.358.332,2.143,2.143,0,0,0,1.272-1.068,2.431,2.431,0,0,0,.268-1.724,2.021,2.021,0,0,0-.819-1.26,1.714,1.714,0,0,0-1.4-.186,2.019,2.019,0,0,0-1.227.922,2.1,2.1,0,0,0-.222,1.578" transform="translate(-207.048 -295.884)" fill="#7186e2"/>
            <path id="Trazado_493109" data-name="Trazado 493109" d="M260.984,363.4a2.173,2.173,0,0,0,1.3-1.085,2.468,2.468,0,0,0,.267-1.748,2.415,2.415,0,0,0-.335-.785,1.737,1.737,0,0,0-.551-.529,1.612,1.612,0,0,0-.648-.217,1.98,1.98,0,0,0-.73.06,2.04,2.04,0,0,0-1.254.954,2.142,2.142,0,0,0-.22,1.588,3.186,3.186,0,0,0,.407.975,1.981,1.981,0,0,0,.634.638,1.463,1.463,0,0,0,.353.153,1.378,1.378,0,0,0,.374.051,1.515,1.515,0,0,0,.2-.014,1.7,1.7,0,0,0,.2-.041m.643-4.088a1.671,1.671,0,0,1,.531.511,2.348,2.348,0,0,1,.324.761,2.4,2.4,0,0,1-.258,1.7,2.1,2.1,0,0,1-1.257,1.053,1.447,1.447,0,0,1-.561.041,1.354,1.354,0,0,1-.518-.183,1.918,1.918,0,0,1-.614-.62,3.126,3.126,0,0,1-.4-.951,2.073,2.073,0,0,1,.212-1.536,1.973,1.973,0,0,1,1.212-.923,2.136,2.136,0,0,1,.258-.051,1.885,1.885,0,0,1,.251-.017,1.648,1.648,0,0,1,.427.055,1.527,1.527,0,0,1,.388.164" transform="translate(-206.884 -295.725)" fill="#7186e2"/>
            <path id="Trazado_493110" data-name="Trazado 493110" d="M269.7,333.672l1.43-.743,1.43-.743-.751-1.438-.751-1.438,2.03.767,2.029.767,1.1,1.368,1.1,1.368,5.423,1.63,5.423,1.63-.112.112-.111.111-5.357-1.61-5.357-1.61-1.777.626-1.777.626-1.982-.711Z" transform="translate(-234.364 -271.249)" fill="#1d263f"/>
            <path id="Trazado_493111" data-name="Trazado 493111" d="M287.94,336.525l-5.445-1.637-5.445-1.637-1.1-1.368-1.1-1.368-2.076-.785-2.076-.785.764,1.463.764,1.463-1.45.753-1.45.753,2.024.727,2.024.726,1.778-.626,1.778-.626,5.352,1.609,5.352,1.609.01,0,.01,0,.139-.139Zm-14.557-1.766-1.939-.7-1.939-.7,1.411-.733,1.411-.733-.738-1.414-.738-1.414,1.983.749,1.983.749,1.093,1.365L277,333.3l0,0,0,0,5.4,1.623,5.4,1.624-.084.084-.084.084-5.348-1.607-5.348-1.607-.005,0-.005,0-1.777.626Z" transform="translate(-234.083 -270.95)" fill="#1d263f"/>
            <path id="Trazado_493112" data-name="Trazado 493112" d="M260.13,247.328l1.434.838L263,249l.872-1.388.872-1.388.416,2.133.416,2.133-.623,1.647-.623,1.647,1.485,5.482,1.485,5.482-.159-.038-.159-.038-1.467-5.416-1.467-5.416-1.518-1.2-1.518-1.2-.44-2.063Z" transform="translate(-211.819 -202.815)" fill="#1d263f"/>
            <path id="Trazado_493113" data-name="Trazado 493113" d="M264.141,253.363l.621-1.642.622-1.642,0,0,0,0-.425-2.18-.425-2.18-.887,1.41-.886,1.41-1.454-.849-1.453-.849.448,2.1.448,2.1v.012l1.519,1.2,1.518,1.2,1.466,5.411,1.465,5.411,0,.01,0,.01.2.046.2.047-1.491-5.5Zm-.286.046V253.4l0-.005-1.518-1.2-1.518-1.2-.431-2.019-.431-2.019,1.415.827,1.415.827.858-1.365.858-1.365.407,2.086.407,2.086-.624,1.647-.623,1.647,1.479,5.46,1.479,5.46-.121-.029-.122-.029-1.464-5.406Z" transform="translate(-211.595 -202.389)" fill="#1d263f"/>
            <path id="Trazado_493114" data-name="Trazado 493114" d="M153.365,266.519c.52.02,1.057.038,1.593.055s1.073.035,1.593.055q.026-.155.054-.311t.056-.312c.3-1.654.671-3.362,1.1-5.06s.911-3.386,1.433-5q.237-.734.485-1.445t.5-1.392l.048-.132.047-.131a22.713,22.713,0,0,1,2.219-3.954c1.034-1.593,2.245-3.357,3.286-4.985.541-.846,1.035-1.655,1.434-2.383a10.751,10.751,0,0,0,.862-1.9c.289-.963-.78-.891-1.85-.825s-2.142.126-1.858-.862a5.275,5.275,0,0,0,.135-.556,1.757,1.757,0,0,0,.016-.556.369.369,0,0,0-.127-.184,2.02,2.02,0,0,0-.294-.218,4.885,4.885,0,0,0-.459-.254c-.166-.082-.341-.158-.509-.223a3.629,3.629,0,0,0-.56-.172.6.6,0,0,0-.356,0c-.562.259-2.019,1.885-3.544,4.333a31.768,31.768,0,0,0-3.951,9.261,44.959,44.959,0,0,0-1.416,10.339c-.1,3.113.049,5.638.064,6.813" transform="translate(-93.802 -194.182)" fill="#2d3969"/>
            <path id="Trazado_493115" data-name="Trazado 493115" d="M166.562,281.853c.009-.029.022-.065.039-.108s.037-.092.06-.148c.3-1.654.671-3.362,1.1-5.06s.911-3.386,1.433-5q.238-.733.485-1.445t.5-1.392l.048-.131.047-.132a22.7,22.7,0,0,1,2.219-3.954c1.034-1.593,2.246-3.357,3.286-4.985a3.559,3.559,0,0,1-.343-.441,3.665,3.665,0,0,1-.273-.494c-.189-.273-.541-1.184-.92-2.054s-.786-1.7-1.086-1.811c-.783-.325-1.951,2.658-3,6.446a82.589,82.589,0,0,0-2.317,11.269c-.071.632-.413,2.875-.725,5.017s-.6,4.186-.55,4.421" transform="translate(-103.802 -209.774)" fill="#1d263f"/>
            <path id="Trazado_493116" data-name="Trazado 493116" d="M243.779,101.069c-.075-.274-.166-.545-.265-.812s-.208-.532-.321-.792q-.09-.209-.187-.415t-.2-.408c-.162-.311-.326-.623-.5-.93s-.356-.608-.553-.9c-.037-.054-.075-.108-.114-.16s-.081-.1-.124-.153c-.084-.1-.175-.19-.268-.281s-.185-.181-.271-.267c-.046-.046-.1-.1-.15-.155s-.109-.114-.166-.171h10.658a.395.395,0,0,1,.394.393v5.27a.395.395,0,0,1-.394.393h-7.321q-.04-.155-.094-.308t-.122-.3" transform="translate(-192.796 -78.765)" fill="#1d263f"/>
            <path id="Trazado_493117" data-name="Trazado 493117" d="M418.411,95.624h19.512l-.078.065c-.026.022-.051.044-.076.068-.21.195-.422.392-.627.6s-.4.414-.586.636a8.587,8.587,0,0,0-.634.911c-.2.314-.389.631-.607.93a4.907,4.907,0,0,0-.967,2.279q0,.143,0,.287t0,.287H418.411a.395.395,0,0,1-.393-.394v-5.27a.395.395,0,0,1,.393-.394" transform="translate(-410.281 -78.764)" fill="#1d263f"/>
            <path id="Trazado_493118" data-name="Trazado 493118" d="M245.573,102.75c-.075-.274-.166-.545-.265-.812s-.208-.532-.321-.792q-.09-.209-.187-.415t-.2-.408c-.162-.311-.326-.623-.5-.93s-.356-.608-.553-.9c-.037-.054-.075-.108-.114-.16s-.081-.1-.124-.153c-.078-.09-.164-.178-.25-.264s-.174-.17-.256-.251h9.977a.347.347,0,0,1,.347.347v4.645a.347.347,0,0,1-.347.347h-7.1q-.023-.064-.049-.127t-.054-.126" transform="translate(-194.591 -80.446)" fill="#fff"/>
            <path id="Trazado_493119" data-name="Trazado 493119" d="M429.326,97.664c-.169.159-.338.321-.5.487s-.321.338-.468.517a8.609,8.609,0,0,0-.634.911c-.2.314-.389.631-.607.93a4.9,4.9,0,0,0-.967,2.279c0,.036,0,.071,0,.107l0,.107h-5.867V97.664h9.047Z" transform="translate(-402.083 -80.445)" fill="#fff"/>
            <path id="Trazado_493120" data-name="Trazado 493120" d="M258.96,107.34h.075v-3.014h-.075v3.014Z" transform="translate(-203.349 -85.932)" fill="#c9c9c9"/>
            <path id="Trazado_493121" data-name="Trazado 493121" d="M257.567,103.977V103.9h-.875v.075h.875Z" transform="translate(-201.481 -85.583)" fill="#c9c9c9"/>
            <path id="Trazado_493122" data-name="Trazado 493122" d="M257.567,121.069v-.075h-.875v.075h.875Z" transform="translate(-201.481 -99.662)" fill="#c9c9c9"/>
            <path id="Trazado_493123" data-name="Trazado 493123" d="M490.4,105.026l.553-.553.553-.553a1.7,1.7,0,0,1-.309-.525,1.693,1.693,0,0,1,.394-1.782,1.716,1.716,0,0,1,.266-.217,1.685,1.685,0,0,1,.3-.156,1.7,1.7,0,0,1,1.839,2.772,1.686,1.686,0,0,1-.562.372,1.7,1.7,0,0,1-.639.124h0a1.688,1.688,0,0,1-1.105-.411l-.553.553-.553.553a.112.112,0,0,1-.158,0l-.01-.01-.01-.01a.112.112,0,0,1,0-.158m1.369-1.19a1.444,1.444,0,0,0,2.466-1.02,1.456,1.456,0,0,0-.106-.544,1.448,1.448,0,0,0-.8-.8,1.46,1.46,0,0,0-.545-.106,1.443,1.443,0,0,0-.542.106,1.494,1.494,0,0,0-.481.317h0a1.5,1.5,0,0,0-.313.477,1.44,1.44,0,0,0,.318,1.565" transform="translate(-479.598 -83.289)" fill="#fff"/>
            <path id="Trazado_493124" data-name="Trazado 493124" d="M496.642,104.619a1.107,1.107,0,0,1,.676.234.109.109,0,0,1,.01.164l-.013.013-.013.013a.107.107,0,0,1-.071.031.111.111,0,0,1-.074-.024.824.824,0,0,0-.246-.133.843.843,0,0,0-.269-.045.832.832,0,0,0-.268.044.821.821,0,0,0-.244.133.112.112,0,0,1-.075.024.108.108,0,0,1-.071-.032l-.012-.012-.012-.012a.11.11,0,0,1,.01-.163,1.091,1.091,0,0,1,.673-.235" transform="translate(-483.454 -86.174)" fill="#fff"/>
            <path id="Trazado_493125" data-name="Trazado 493125" d="M145.733,226.63a24.621,24.621,0,0,1,.393,2.982,24.079,24.079,0,0,1,.023,2.982c-.07.988-.253,2.137-.334,3.7a33.638,33.638,0,0,0,.282,6.17,86.031,86.031,0,0,1,.3,8.767c-.012,2.946-.067,5.669.039,7.432-1.262.043-2.149.067-2.721.081s-.829.016-.829.016-.633-2.9-1.316-6-1.414-6.4-1.611-7.205c-.768-2.8-1.458-6.28-1.98-9.246s-.877-5.424-.974-6.192a4.968,4.968,0,0,1,1.011-2.6,10.581,10.581,0,0,1,2.05-2.516,27.984,27.984,0,0,0,2.773,1.111,8.884,8.884,0,0,0,2.9.529" transform="translate(-69.24 -185.322)" fill="#2d3969"/>
            <path id="Trazado_493126" data-name="Trazado 493126" d="M137.923,258.667c0-.031.016-.469.031-.907s.029-.876.03-.907c.16.006.289.021.42.025a1.586,1.586,0,0,0,.424-.041,3.512,3.512,0,0,1,.392-.042,1.505,1.505,0,0,0,.38-.067c0,.091-.006.547-.01,1s-.009.913-.014,1c-.07.988-.253,2.137-.334,3.7a33.645,33.645,0,0,0,.282,6.17c.057.551.126,2.466.174,4.282s.075,3.532.051,3.685c-.636-.469-1.066-2.091-1.356-3.789s-.442-3.473-.522-4.245a33.626,33.626,0,0,1-.282-6.17c.081-1.561.264-2.709.334-3.7" transform="translate(-62.667 -211.463)" fill="#1d263f"/>
            <path id="Trazado_493127" data-name="Trazado 493127" d="M164.426,132.976a1.789,1.789,0,0,1-.614.723,2.689,2.689,0,0,1-.9.371,3.013,3.013,0,0,1-1.042.057,3.709,3.709,0,0,1-1.015-.269,4.283,4.283,0,0,1-.918-.547,8.3,8.3,0,0,1-.807-.713,3.928,3.928,0,0,0,.273-.322q.128-.168.238-.348a4.774,4.774,0,0,0,.34-.67,5.631,5.631,0,0,0,.24-.715c.053-.2.1-.4.137-.6s.067-.4.087-.605c.017-.179.027-.359.029-.54s-.006-.363-.023-.547a3.88,3.88,0,0,0,1.729.513,4.775,4.775,0,0,0,1.793-.331c.073.4.128.8.173,1.195s.078.789.108,1.179c.024.312.045.622.067.93s.045.614.072.918q.007.083.015.164t.016.164" transform="translate(-91.139 -105.634)" fill="#ffa188"/>
            <path id="Trazado_493128" data-name="Trazado 493128" d="M164.7,135.924a3.641,3.641,0,0,1-.353.5,1.779,1.779,0,0,1-.458.387,1.837,1.837,0,0,1-.415.169,3.9,3.9,0,0,1-.442.093,8.8,8.8,0,0,1-2.366.054q.029-.086.054-.172t.049-.174c.027-.1.053-.208.077-.312s.045-.208.064-.312a8.793,8.793,0,0,0,2.8,0,3.932,3.932,0,0,0,.442-.093,1.832,1.832,0,0,0,.415-.169c.022-.013.054-.033.08-.05l.047-.031v.013c0,.01,0,.026.006.052l0,.016,0,.019v0a0,0,0,0,1,0,0" transform="translate(-91.685 -111.872)" fill="#ed836e"/>
            <path id="Trazado_493129" data-name="Trazado 493129" d="M147.316,150.966c0,.32-.026.639-.061.958s-.083.636-.137.953a.606.606,0,0,1-.219.352.647.647,0,0,0-.228.35,13.908,13.908,0,0,0-.2,1.611,13.934,13.934,0,0,1-.2,1.61,13.316,13.316,0,0,0-.126,1.751c-.023.782-.032,1.678-.033,2.442,0,.495,0,1.7,0,2.773s0,2.031,0,2.031-.627.082-1.729.169-2.677.181-4.572.2a19.332,19.332,0,0,1-3.379-.306c-.96-.162-1.668-.328-1.86-.328,0,0,.087-1.7.168-3.5s.158-3.687.139-4.058q-.008-.141-.016-.285c-.006-.1-.012-.192-.018-.289-.024-.4-.048-.809-.055-1.213a8.7,8.7,0,0,1,.052-1.189q.026-.214.055-.427t.059-.425a6.677,6.677,0,0,1-.575.464c-.2.147-.417.286-.639.418s-.426.242-.648.354-.448.217-.677.316a22.477,22.477,0,0,1-.7-2.926,16.305,16.305,0,0,1-.241-2.728,9.641,9.641,0,0,1,3.9-3.038,17.34,17.34,0,0,1,2.56-.987,4.422,4.422,0,0,0,.225.664,1.782,1.782,0,0,0,.4.576,1.835,1.835,0,0,0,.474.317,2.222,2.222,0,0,0,.547.173,2.952,2.952,0,0,0,.807.041,1.575,1.575,0,0,0,.756-.255,4.666,4.666,0,0,0,.735-.822c.247-.326.445-.618.445-.618s.446.194.986.44,1.175.542,1.554.746c.231.125.445.249.653.381s.411.27.622.422a5.339,5.339,0,0,1,.609.479,1.733,1.733,0,0,1,.43.659,2.551,2.551,0,0,1,.144.863c0,.289-.018.58-.021.877" transform="translate(-69.176 -120.278)" fill="#ead6c5"/>
            <path id="Trazado_493130" data-name="Trazado 493130" d="M113.272,186.553a3.133,3.133,0,0,0-.439-.7,3.233,3.233,0,0,0-.615-.568,3.38,3.38,0,0,0-.328-.241,3.212,3.212,0,0,0-.348-.195,2.58,2.58,0,0,0,.641-.552c.16-.191.289-.4.462-.632a11.363,11.363,0,0,1-.912-1.733c-.256-.58-.481-1.138-.72-1.593a7.268,7.268,0,0,1,1.38-1.241,15.09,15.09,0,0,0,1.482-1.142,13.375,13.375,0,0,1,1.748,4.138,15.323,15.323,0,0,1,.627,3.026,3.906,3.906,0,0,1-.339.729,3.074,3.074,0,0,1-.448.624,6.958,6.958,0,0,1-.555.5,6.271,6.271,0,0,1-.695.42,2.073,2.073,0,0,0-.457-.428,3.566,3.566,0,0,1-.483-.417" transform="translate(-34.483 -146.58)" fill="#ffa188"/>
            <path id="Trazado_493131" data-name="Trazado 493131" d="M145.083,183.348a11.4,11.4,0,0,1-.174,1.653,5.778,5.778,0,0,0-.072,1.613,11.366,11.366,0,0,0-2.875-.442,14.367,14.367,0,0,0-2.911.23c-.433.077-.875.175-1.314.22a3.1,3.1,0,0,1-1.291-.1.62.62,0,0,1-.238-.139.218.218,0,0,1-.071-.225.237.237,0,0,1,.086-.114.7.7,0,0,1,.13-.075,8.1,8.1,0,0,1,2.51-.721c.735-.087,1.487-.074,2.23-.1a7.113,7.113,0,0,0,2.171-.35.918.918,0,0,0,.155-.069.342.342,0,0,0,.12-.112.325.325,0,0,0,.005-.306,1.037,1.037,0,0,0-.2-.287c-.307-.331-.63-.646-.948-.966s-.633-.643-.922-.989a7.166,7.166,0,0,1-.467-.623,5.3,5.3,0,0,1-.384-.677,2.51,2.51,0,0,1-.128-.269c-.037-.106-.044-.2.054-.221.045-.008.156.094.265.206s.215.235.252.269q.542.5,1.119.953t1.184.872a7.752,7.752,0,0,0,.926.464,5.5,5.5,0,0,0,.787.307" transform="translate(-67.741 -148.492)" fill="#c6aa95"/>
            <path id="Trazado_493132" data-name="Trazado 493132" d="M193.658,180.63c-.461,1.036-.808,1.816-1.126,2.607s-.608,1.592-.953,2.671c-.024-.4-.048-.809-.055-1.213a8.686,8.686,0,0,1,.052-1.189q.026-.214.055-.427t.059-.425a6.679,6.679,0,0,1-.575.464c-.2.147-.417.286-.639.418a.233.233,0,0,1,.056-.123.979.979,0,0,1,.149-.139c.419-.336,1.077-.872,1.673-1.387a10.217,10.217,0,0,0,1.305-1.259" transform="translate(-125.897 -148.783)" fill="#c6aa95"/>
            <path id="Trazado_493133" data-name="Trazado 493133" d="M116.413,163.952a18.494,18.494,0,0,0,1.2,2.68,14.241,14.241,0,0,0,1.628,2.432,16.933,16.933,0,0,0,2.472-.777,7.089,7.089,0,0,0,2.066-1.491,22.443,22.443,0,0,0-1.385-2.5c-.5-.793-1.051-1.562-1.641-2.356" transform="translate(-42.957 -133.387)" fill="#ead6c5"/>
            <path id="Trazado_493134" data-name="Trazado 493134" d="M199.172,167.5a18.5,18.5,0,0,1-1.2,2.68,14.241,14.241,0,0,1-1.628,2.432,16.921,16.921,0,0,1-2.472-.777,7.089,7.089,0,0,1-2.066-1.491,22.23,22.23,0,0,1,1.107-2.121c.365-.6.773-1.182,1.363-1.976" transform="translate(-131.647 -136.938)" fill="#ead6c5"/>
            <path id="Trazado_493135" data-name="Trazado 493135" d="M283.846,80.047q-.1-.532-.161-1.072t-.072-1.082a21.326,21.326,0,0,1,.336-2.7c.165-.892.374-1.777.6-2.654h26.772q0,.177.005.353t.013.353q.012.243.033.485t.052.483c-.007.366-.012.732-.012,1.1s.006.731.022,1.1c.015.336.033.673.05,1.009s.032.673.039,1.01q-.014.226-.04.452t-.063.448h0a5.014,5.014,0,0,0-.481.761,4.829,4.829,0,0,0-.331.824H284.162q-.088-.214-.167-.431t-.15-.438" transform="translate(-260.185 -59.753)" fill="#1d263f"/>
            <path id="Trazado_493136" data-name="Trazado 493136" d="M283.846,82.37q-.1-.532-.161-1.072t-.072-1.082a20.913,20.913,0,0,1,.291-2.445c.142-.809.322-1.612.521-2.409h26.909l0,.1c0,.035,0,.07,0,.1q.012.243.033.485t.052.483c-.007.366-.012.732-.012,1.1s.006.731.022,1.1c.015.336.033.673.05,1.009s.032.673.039,1.01q-.014.226-.04.452t-.063.448h0a5.1,5.1,0,0,0-.354.528,4.9,4.9,0,0,0-.28.56H283.971q-.033-.093-.064-.185t-.061-.187" transform="translate(-260.185 -62.076)" fill="#fff"/>
            <path id="Trazado_493137" data-name="Trazado 493137" d="M126.943,218.483a4.1,4.1,0,0,1-1.132,1.13,10.175,10.175,0,0,1-1.4.844,13.088,13.088,0,0,1-2.621.939c-.9.228-1.823.391-2.748.547-.459.078-.937.125-1.415.173s-.955.1-1.414.173c-.121.02-.23.069-.335.1a.358.358,0,0,1-.308-.035.547.547,0,0,1-.212-.283.741.741,0,0,1-.029-.363,1.062,1.062,0,0,1,.125-.339,2,2,0,0,1,.211-.3,4.642,4.642,0,0,1,1.082-.929,12.1,12.1,0,0,1,1.27-.689c.674-.327,1.611-.743,2.539-1.193a17.714,17.714,0,0,0,2.487-1.4" transform="translate(-45.931 -178.624)" fill="#ffa188"/>
            <path id="Trazado_493138" data-name="Trazado 493138" d="M170.677,237.718c-.156.067-.316.125-.479.183s-.329.117-.5.187c-.205.085-.414.177-.625.258a4.222,4.222,0,0,1-.644.2,2.208,2.208,0,0,1-.624.035,4.461,4.461,0,0,1-.623-.1,8.986,8.986,0,0,1-2.248-.82.691.691,0,0,1-.127-.081.231.231,0,0,1-.079-.118.2.2,0,0,1,.017-.135.268.268,0,0,1,.094-.105.383.383,0,0,1,.129-.052.732.732,0,0,1,.141-.015,2.954,2.954,0,0,1,.893.182,1.948,1.948,0,0,0,.886.115,1.4,1.4,0,0,0,.488-.193,4.3,4.3,0,0,0,.435-.313l.631-.5.63-.5" transform="translate(-98.377 -194.35)" fill="#ffa188"/>
            <path id="Trazado_493139" data-name="Trazado 493139" d="M244.1,202.063a1.686,1.686,0,0,0,.678.465.463.463,0,0,0,.653-.6,1.838,1.838,0,0,0-1.085-1.179.463.463,0,0,0-.653.6,1.689,1.689,0,0,0,.407.714" transform="translate(-187.076 -165.316)" fill="#ffa188"/>
            <path id="Trazado_493140" data-name="Trazado 493140" d="M249.948,200.678l.335-.3.335-.3a.29.29,0,0,0-.384-.434l-.335.3-.335.3a.29.29,0,0,0,.384.434" transform="translate(-193.356 -164.391)" fill="#ffa188"/>
            <path id="Trazado_493141" data-name="Trazado 493141" d="M246.615,202.4l.431-.4.432-.4a.307.307,0,0,0-.416-.452l-.431.4-.431.4a.307.307,0,0,0,.416.452" transform="translate(-189.623 -165.62)" fill="#ffa188"/>
            <path id="Trazado_493142" data-name="Trazado 493142" d="M243.778,204.574l.418-.385.418-.385a.308.308,0,0,0-.417-.453l-.418.385-.418.385a.308.308,0,0,0,.417.453" transform="translate(-186.258 -167.432)" fill="#ffa188"/>
            <path id="Trazado_493143" data-name="Trazado 493143" d="M241.543,206.75l.3-.3.3-.3a.28.28,0,0,0-.393-.4l-.3.3-.3.3a.28.28,0,0,0,.393.4" transform="translate(-183.394 -169.408)" fill="#ffa188"/>
            <path id="Trazado_493144" data-name="Trazado 493144" d="M177.225,87.253a2.9,2.9,0,0,0-.462,1.012,2.3,2.3,0,0,0,0,1.1c.011.043.071.234.129.415l.112.351s.031-.144.071-.293a.909.909,0,0,1,.122-.321,2.993,2.993,0,0,0,.633-.472,3.931,3.931,0,0,0,.509-.608,5.663,5.663,0,0,0,.4-.685c.117-.237.222-.481.32-.726.027-.068.054-.136.077-.206a1.242,1.242,0,0,0,.051-.212.811.811,0,0,0,0-.247c-.016-.083-.057-.148-.148-.146a1.3,1.3,0,0,0-.257.035c-.086.019-.171.045-.25.07a2.591,2.591,0,0,0-.907.506,2.515,2.515,0,0,0-.21.2,2.479,2.479,0,0,0-.185.227" transform="translate(-109 -71.012)" fill="#4b2c1b"/>
            <path id="Trazado_493145" data-name="Trazado 493145" d="M154.661,88.763a7.289,7.289,0,0,1-1.949,3.328,2.987,2.987,0,0,1-2.86.86,3.155,3.155,0,0,1-2.033-2.253,7.639,7.639,0,0,1-.068-3.887,5.543,5.543,0,0,1,2.066-3.336,3.536,3.536,0,0,1,3.05-.623,2.882,2.882,0,0,1,1.94,2.154,7.063,7.063,0,0,1-.147,3.757" transform="translate(-79.666 -68.144)" fill="#ffa188"/>
            <path id="Trazado_493146" data-name="Trazado 493146" d="M130.115,72.816a4.574,4.574,0,0,1-.142-1.755,2.165,2.165,0,0,1,2.2-1.965,12.061,12.061,0,0,0,.788,1.068,5.646,5.646,0,0,0,.952.91c.2.151.422.288.626.439a2.514,2.514,0,0,1,.546.519,2.073,2.073,0,0,1,.316.667,3.983,3.983,0,0,1,.127.738,7.163,7.163,0,0,1-.234,2.548.626.626,0,0,1,.238-.2.667.667,0,0,1,.305-.063,1.288,1.288,0,0,1,.322.053,3.217,3.217,0,0,1,.31.109,2.43,2.43,0,0,1-.271.321c-.1.1-.2.2-.284.312a1.82,1.82,0,0,0-.262.477c-.066.171-.116.35-.165.526a2.367,2.367,0,0,0,.6-.137,2.853,2.853,0,0,0,.552-.272,4.94,4.94,0,0,0,.479-.352c.153-.126.3-.258.45-.391a4.438,4.438,0,0,0,.749-.974,3.518,3.518,0,0,1,.771-.938,10.45,10.45,0,0,0,.965-.789,1.854,1.854,0,0,0,.585-1.014,3.051,3.051,0,0,0-.062-1.168,3,3,0,0,0-.483-1.067,3.417,3.417,0,0,0-.255-.3c-.09-.1-.185-.188-.282-.277a3.58,3.58,0,0,0-.282-.222,1.62,1.62,0,0,1-.265-.234,2.343,2.343,0,0,1-.419-.954,2.952,2.952,0,0,0-.383-.982,1.694,1.694,0,0,0-.757-.568,3.685,3.685,0,0,0-.958-.229c-.323-.038-.653-.058-.975-.1a3.021,3.021,0,0,1-.927-.265,3.925,3.925,0,0,1-.594-.389,5.168,5.168,0,0,0-.587-.4,2.421,2.421,0,0,0-1.823-.2,2.424,2.424,0,0,0-.661.307,2.277,2.277,0,0,0-.537.492,1.664,1.664,0,0,0-.265.6,4.248,4.248,0,0,0-.107.656,6.233,6.233,0,0,0,0,.789,2.752,2.752,0,0,1-.056.778,2.7,2.7,0,0,1-.25.6c-.1.193-.212.383-.3.583a2.306,2.306,0,0,0-.112,1.474,2.441,2.441,0,0,0,.8,1.253" transform="translate(-62.116 -53.699)" fill="#643a24"/>
            <path id="Trazado_493147" data-name="Trazado 493147" d="M162.246,91.811a7.246,7.246,0,0,1-.027,1.47c-.01-.169-.014-.344-.025-.518a3.769,3.769,0,0,0-.06-.513,5.173,5.173,0,0,0-.189-.729,1.85,1.85,0,0,0-.366-.636,2.88,2.88,0,0,0-.6-.474c-.218-.138-.448-.26-.665-.385a7.274,7.274,0,0,1-1.3-1.124c-.411-.425-.727-.8-.727-.8s.063-.081.177-.2a3.773,3.773,0,0,1,.48-.421h0a11.865,11.865,0,0,0,.773,1.063,5.545,5.545,0,0,0,.936.906c.2.15.415.286.616.436a2.46,2.46,0,0,1,.537.517,2.063,2.063,0,0,1,.309.665,4.015,4.015,0,0,1,.123.737" transform="translate(-88.837 -72.062)" fill="#ed836e"/>
            <path id="Trazado_493148" data-name="Trazado 493148" d="M165.389,65.866a2.828,2.828,0,0,1-.209-1.093,2.24,2.24,0,0,1,.239-1,2.3,2.3,0,0,1,1.8-1.166,1.892,1.892,0,0,1,.758.123,2.4,2.4,0,0,1,.715.424,3.217,3.217,0,0,1,.495.533,5.207,5.207,0,0,1,.447.729l-.063.033-.063.033a5.06,5.06,0,0,0-.432-.705,3.076,3.076,0,0,0-.475-.513,2.268,2.268,0,0,0-.67-.4,1.761,1.761,0,0,0-.7-.116,2.145,2.145,0,0,0-1.685,1.089,2.1,2.1,0,0,0-.224.941,2.687,2.687,0,0,0,.2,1.033l-.066.027Z" transform="translate(-97.419 -51.567)" fill="#643a24"/>
            <path id="Trazado_493149" data-name="Trazado 493149" d="M129.559,80.225l-.067-.023-.067-.023a.884.884,0,0,1,.443-.484,1.863,1.863,0,0,1,.554-.181l.139-.022.139-.019a4.408,4.408,0,0,0,.442-.073,1.315,1.315,0,0,0,.4-.157,1.11,1.11,0,0,0,.347-.351,1.482,1.482,0,0,0,.2-.507,2.094,2.094,0,0,0,.036-.481,3.87,3.87,0,0,0-.071-.589,3.1,3.1,0,0,0-.178-.625,1.405,1.405,0,0,0-.413-.572,1.469,1.469,0,0,0-.371-.2c-.133-.052-.273-.093-.411-.133l-.113-.033-.112-.034a1.963,1.963,0,0,1-.59-.286.955.955,0,0,1-.321-.4,1.036,1.036,0,0,1-.072-.389,3.165,3.165,0,0,1,.029-.4c.011-.094.022-.19.026-.284a1.3,1.3,0,0,0-.013-.278,1.066,1.066,0,0,0-.327-.589,1.6,1.6,0,0,0-.543-.335,2.6,2.6,0,0,0-.672-.141c-.229-.021-.462-.022-.69-.023l-.82,0-.82,0v-.142l.82,0,.82,0c.224,0,.462,0,.7.024a2.763,2.763,0,0,1,.709.149,1.742,1.742,0,0,1,.6.373,1.2,1.2,0,0,1,.363.661,1.436,1.436,0,0,1,.015.3c0,.1-.016.2-.027.3a3.1,3.1,0,0,0-.028.37.9.9,0,0,0,.062.343.826.826,0,0,0,.286.349,1.856,1.856,0,0,0,.537.255l.11.034.111.032c.144.042.291.084.432.14a1.588,1.588,0,0,1,.4.22,1.537,1.537,0,0,1,.452.617,3.207,3.207,0,0,1,.192.665,4.2,4.2,0,0,1,.07.526,2.358,2.358,0,0,1-.035.6,1.621,1.621,0,0,1-.222.56,1.248,1.248,0,0,1-.389.391,1.454,1.454,0,0,1-.434.173,4.415,4.415,0,0,1-.461.077l-.136.019-.136.021a1.745,1.745,0,0,0-.5.157.756.756,0,0,0-.391.413" transform="translate(-53.07 -59.672)" fill="#643a24"/>
          </g>
        </g>
        <text id="Precio" transform="translate(29.609 18.043)" font-size="4" font-family="SegoeUI, Segoe UI"><tspan x="0" y="0" letter-spacing="-0.015em">P</tspan><tspan y="0" letter-spacing="-0.01em">r</tspan><tspan y="0">ecio</tspan></text>
        <g id="Grupo_729546" data-name="Grupo 729546">
          <g id="Grupo_729545" data-name="Grupo 729545" clip-path="url(#clip-path)">
            <path id="Trazado_493150" data-name="Trazado 493150" d="M264.093,150.324l.758-1.087.758-1.087-3.076-2.145-3.076-2.145-.758,1.087-.758,1.087,3.076,2.145Z" transform="translate(-209.742 -118.496)" fill="#2d3969"/>
            <path id="Trazado_493151" data-name="Trazado 493151" d="M276.811,87.412a3.88,3.88,0,0,0,.95-.125,3.76,3.76,0,0,0,.876-.353,12.475,12.475,0,0,0,23.793-6.708,12.375,12.375,0,0,0-.6-2.458,3.842,3.842,0,0,0,.706-.583,62.838,62.838,0,0,0,.784-1.068,3.857,3.857,0,0,0,.2-.358,14.805,14.805,0,0,1-22.287,18.075,14.869,14.869,0,0,1-4.928-6.44q.127.01.254.014c.084,0,.169,0,.253,0" transform="translate(-252.252 -62.401)" fill="#2d3969"/>
            <path id="Trazado_493152" data-name="Trazado 493152" d="M265.59,145.333l.758-1.087.758-1.087-3.076-2.145-3.076-2.145-.758,1.087-.758,1.087,3.076,2.145Z" transform="translate(-211.504 -114.385)" fill="#5564a2"/>
            <path id="Trazado_493153" data-name="Trazado 493153" d="M266.809,142.769l-3.124-2.178-3.124-2.178-.791,1.134-.791,1.134,3.124,2.178,3.124,2.178.791-1.134Zm-6.218-4.2,3.029,2.112,3.029,2.112-.725,1.039-.725,1.039-3.029-2.112-3.029-2.112.725-1.039Z" transform="translate(-211.127 -114.009)" fill="#5564a2"/>
            <path id="Trazado_493154" data-name="Trazado 493154" d="M265.295,145.093l.785-1.125.785-1.125-3.115-2.172-3.115-2.172-.785,1.125-.785,1.125,3.115,2.172Zm1.438-2.227L266,143.914l-.731,1.048-3.037-2.118-3.037-2.118.731-1.048.731-1.048,3.038,2.118Z" transform="translate(-211.197 -114.079)" fill="#5564a2"/>
            <path id="Trazado_493155" data-name="Trazado 493155" d="M266.568,142.451l-3.162-2.205-3.162-2.205-.818,1.173-.818,1.173,3.162,2.205,3.162,2.205.818-1.173Zm-6.272-4.118,2.99,2.085,2.99,2.085-.7,1-.7,1-2.99-2.085-2.99-2.085.7-1Z" transform="translate(-210.82 -113.703)" fill="#5564a2"/>
            <path id="Trazado_493157" data-name="Trazado 493157" d="M294.644,21.706A14.8,14.8,0,1,1,283.9,25.3a14.756,14.756,0,0,1,10.744-3.594m-1.9,27.207a12.472,12.472,0,1,0-8.542-4.259,12.433,12.433,0,0,0,8.542,4.259" transform="translate(-256.227 -17.848)" fill="#7a91e6"/>
            <path id="Trazado_493158" data-name="Trazado 493158" d="M292.3,51.024a14.768,14.768,0,1,0-6.9-2.25,14.685,14.685,0,0,0,3.912,1.737,14.921,14.921,0,0,0,1.471.331,15.188,15.188,0,0,0,1.514.182M308.048,37.23A14.761,14.761,0,0,1,292.31,50.909a14.973,14.973,0,0,1-1.494-.181,14.745,14.745,0,0,1,3.552-29.236,14.915,14.915,0,0,1,1.494.181A14.765,14.765,0,0,1,308.048,37.23M292.465,48.7a12.452,12.452,0,1,0-5.815-1.9,12.381,12.381,0,0,0,3.3,1.465,12.519,12.519,0,0,0,1.24.279,12.778,12.778,0,0,0,1.276.154m10.244-20.643a12.443,12.443,0,1,1-8.5-4.24,12.647,12.647,0,0,1,1.265.153,12.453,12.453,0,0,1,1.229.276,12.27,12.27,0,0,1,3.268,1.451,12.457,12.457,0,0,1,2.741,2.36" transform="translate(-255.955 -17.577)" fill="#7a91e6"/>
            <path id="Trazado_493159" data-name="Trazado 493159" d="M292.354,51.064a14.754,14.754,0,1,0-5.593-1.517,14.829,14.829,0,0,0,5.593,1.517m2.066-29.532a14.772,14.772,0,1,1-10.705,3.588,14.709,14.709,0,0,1,10.705-3.588m-1.9,27.207A12.437,12.437,0,1,0,287.8,47.46a12.5,12.5,0,0,0,4.716,1.279m1.741-24.883a12.439,12.439,0,1,1-9.014,3.022,12.386,12.386,0,0,1,9.014-3.022" transform="translate(-256.007 -17.628)" fill="#7a91e6"/>
            <path id="Trazado_493160" data-name="Trazado 493160" d="M292.079,50.851a14.817,14.817,0,1,0-6.919-2.258,14.734,14.734,0,0,0,3.925,1.742,14.971,14.971,0,0,0,1.475.332q.749.129,1.518.183m2.066-29.532a14.714,14.714,0,1,1-10.663,3.575,14.637,14.637,0,0,1,10.663-3.575m-1.9,27.207a12.5,12.5,0,1,0-5.837-1.9,12.426,12.426,0,0,0,3.311,1.47,12.723,12.723,0,0,0,2.526.434M285.01,26.651a12.283,12.283,0,1,1-2.963,3.813,12.373,12.373,0,0,1,2.963-3.813" transform="translate(-255.736 -17.357)" fill="#7a91e6"/>
            <path id="Trazado_493161" data-name="Trazado 493161" d="M150.122,180.944h0a3.139,3.139,0,0,0-.779-4.37l-10.024-6.99-10.024-6.99a3.139,3.139,0,1,0-3.591,5.15l10.024,6.99,10.024,6.99a3.139,3.139,0,0,0,4.37-.779" transform="translate(-71.269 -133.461)" fill="#2d3969"/>
            <path id="Trazado_493162" data-name="Trazado 493162" d="M146.179,175.6h0a3.139,3.139,0,0,0-.779-4.37l-10.024-6.99-10.024-6.99a3.139,3.139,0,1,0-3.591,5.15l10.024,6.99,10.024,6.99a3.139,3.139,0,0,0,4.37-.779" transform="translate(-66.631 -129.061)" fill="#7a91e6"/>
            <path id="Trazado_493163" data-name="Trazado 493163" d="M143.9,176.69a3.176,3.176,0,0,0,2.061-1.319h0a3.2,3.2,0,0,0-.794-4.451l-10.024-6.99-10.024-6.99a3.2,3.2,0,0,0-3.657,5.245l10.024,6.99,10.024,6.99a3.244,3.244,0,0,0,.47.273,3.165,3.165,0,0,0,1.2.3,3.225,3.225,0,0,0,.718-.047m-18.848-19.655,10.024,6.99,10.024,6.99a3.081,3.081,0,1,1-3.525,5.055l-10.024-6.99-10.024-6.99a3.082,3.082,0,0,1,2.592-5.495,3.04,3.04,0,0,1,.479.178,3.084,3.084,0,0,1,.454.262" transform="translate(-66.366 -128.797)" fill="#7a91e6"/>
            <path id="Trazado_493164" data-name="Trazado 493164" d="M292.058,46.491a12.472,12.472,0,1,0,4.26-8.543,12.432,12.432,0,0,0-4.26,8.543" transform="translate(-267.115 -28.737)" fill="#fff" opacity="0.3"/>
          </g>
        </g>
      </g>
    </g>
  </g>
</svg>
